<svg width="408" height="408" viewBox="0 0 408 408" fill="none" xmlns="http://www.w3.org/2000/svg">
<g filter="url(#filter0_d_3_48)">
<path d="M4 40C4 17.9086 21.9086 0 44 0H364C386.091 0 404 17.9086 404 40V360C404 382.091 386.091 400 364 400H44C21.9086 400 4 382.091 4 360V40Z" fill="#B2DDAB" shape-rendering="crispEdges"/>
<path d="M62.8799 279.931V285.644H44.3252V279.931H62.8799ZM46.498 265.453V301H39.1738V265.453H46.498ZM68.1045 265.453V301H60.8047V265.453H68.1045Z" fill="white" shape-rendering="crispEdges"/>
<path d="M81.459 274.584V301H74.4033V274.584H81.459ZM73.9639 267.699C73.9639 266.674 74.3219 265.827 75.0381 265.16C75.7542 264.493 76.7145 264.159 77.9189 264.159C79.1071 264.159 80.0592 264.493 80.7754 265.16C81.5078 265.827 81.874 266.674 81.874 267.699C81.874 268.725 81.5078 269.571 80.7754 270.238C80.0592 270.906 79.1071 271.239 77.9189 271.239C76.7145 271.239 75.7542 270.906 75.0381 270.238C74.3219 269.571 73.9639 268.725 73.9639 267.699Z" fill="white" shape-rendering="crispEdges"/>
<path d="M103.993 274.584H110.365V300.121C110.365 302.53 109.828 304.573 108.754 306.249C107.696 307.942 106.215 309.219 104.311 310.082C102.406 310.961 100.193 311.4 97.6699 311.4C96.5632 311.4 95.3913 311.254 94.1543 310.961C92.9336 310.668 91.7617 310.212 90.6387 309.594C89.5319 308.975 88.6042 308.194 87.8555 307.25L90.9561 303.1C91.7699 304.044 92.7139 304.776 93.7881 305.297C94.8623 305.834 96.0505 306.103 97.3525 306.103C98.6221 306.103 99.6963 305.867 100.575 305.395C101.454 304.939 102.13 304.263 102.602 303.368C103.074 302.489 103.31 301.423 103.31 300.17V280.688L103.993 274.584ZM86.2197 288.109V287.597C86.2197 285.578 86.4639 283.747 86.9521 282.104C87.4567 280.443 88.1647 279.019 89.0762 277.831C90.0039 276.643 91.127 275.723 92.4453 275.072C93.7637 274.421 95.2529 274.096 96.9131 274.096C98.6709 274.096 100.144 274.421 101.332 275.072C102.52 275.723 103.497 276.651 104.262 277.855C105.027 279.044 105.621 280.451 106.044 282.079C106.483 283.69 106.825 285.456 107.069 287.377V288.5C106.825 290.339 106.459 292.048 105.971 293.627C105.482 295.206 104.84 296.589 104.042 297.777C103.244 298.949 102.252 299.861 101.063 300.512C99.8916 301.163 98.4919 301.488 96.8643 301.488C95.2367 301.488 93.7637 301.155 92.4453 300.487C91.1432 299.82 90.0283 298.884 89.1006 297.68C88.1729 296.475 87.4567 295.059 86.9521 293.432C86.4639 291.804 86.2197 290.03 86.2197 288.109ZM93.251 287.597V288.109C93.251 289.2 93.3568 290.217 93.5684 291.161C93.7799 292.105 94.1055 292.943 94.5449 293.676C95.0007 294.392 95.5622 294.953 96.2295 295.36C96.9131 295.751 97.7188 295.946 98.6465 295.946C99.9323 295.946 100.982 295.678 101.796 295.141C102.61 294.587 103.22 293.83 103.627 292.87C104.034 291.91 104.27 290.803 104.335 289.55V286.352C104.302 285.326 104.164 284.407 103.92 283.593C103.676 282.763 103.334 282.055 102.895 281.469C102.455 280.883 101.885 280.427 101.186 280.102C100.486 279.776 99.6556 279.613 98.6953 279.613C97.7676 279.613 96.9619 279.825 96.2783 280.248C95.611 280.655 95.0495 281.216 94.5938 281.933C94.1543 282.649 93.8206 283.495 93.5928 284.472C93.3649 285.432 93.251 286.474 93.251 287.597Z" fill="white" shape-rendering="crispEdges"/>
<path d="M122.694 263.5V301H115.663V263.5H122.694ZM121.693 286.864H119.765C119.781 285.025 120.025 283.332 120.497 281.786C120.969 280.224 121.645 278.873 122.523 277.733C123.402 276.578 124.452 275.683 125.673 275.048C126.91 274.413 128.277 274.096 129.774 274.096C131.076 274.096 132.257 274.283 133.314 274.657C134.389 275.015 135.308 275.601 136.073 276.415C136.854 277.213 137.457 278.262 137.88 279.564C138.303 280.867 138.515 282.445 138.515 284.301V301H131.435V284.252C131.435 283.08 131.264 282.16 130.922 281.493C130.596 280.81 130.116 280.329 129.481 280.053C128.863 279.76 128.098 279.613 127.187 279.613C126.177 279.613 125.315 279.8 124.599 280.175C123.899 280.549 123.337 281.07 122.914 281.737C122.491 282.388 122.182 283.153 121.986 284.032C121.791 284.911 121.693 285.855 121.693 286.864Z" fill="white" shape-rendering="crispEdges"/>
<path d="M151.283 263.5V301H144.228V263.5H151.283Z" fill="white" shape-rendering="crispEdges"/>
<path d="M164.516 274.584V301H157.46V274.584H164.516ZM157.021 267.699C157.021 266.674 157.379 265.827 158.095 265.16C158.811 264.493 159.771 264.159 160.976 264.159C162.164 264.159 163.116 264.493 163.832 265.16C164.564 265.827 164.931 266.674 164.931 267.699C164.931 268.725 164.564 269.571 163.832 270.238C163.116 270.906 162.164 271.239 160.976 271.239C159.771 271.239 158.811 270.906 158.095 270.238C157.379 269.571 157.021 268.725 157.021 267.699Z" fill="white" shape-rendering="crispEdges"/>
<path d="M187.05 274.584H193.422V300.121C193.422 302.53 192.885 304.573 191.811 306.249C190.753 307.942 189.271 309.219 187.367 310.082C185.463 310.961 183.249 311.4 180.727 311.4C179.62 311.4 178.448 311.254 177.211 310.961C175.99 310.668 174.818 310.212 173.695 309.594C172.589 308.975 171.661 308.194 170.912 307.25L174.013 303.1C174.826 304.044 175.771 304.776 176.845 305.297C177.919 305.834 179.107 306.103 180.409 306.103C181.679 306.103 182.753 305.867 183.632 305.395C184.511 304.939 185.186 304.263 185.658 303.368C186.13 302.489 186.366 301.423 186.366 300.17V280.688L187.05 274.584ZM169.276 288.109V287.597C169.276 285.578 169.521 283.747 170.009 282.104C170.513 280.443 171.221 279.019 172.133 277.831C173.061 276.643 174.184 275.723 175.502 275.072C176.82 274.421 178.31 274.096 179.97 274.096C181.728 274.096 183.201 274.421 184.389 275.072C185.577 275.723 186.553 276.651 187.318 277.855C188.083 279.044 188.677 280.451 189.101 282.079C189.54 283.69 189.882 285.456 190.126 287.377V288.5C189.882 290.339 189.516 292.048 189.027 293.627C188.539 295.206 187.896 296.589 187.099 297.777C186.301 298.949 185.308 299.861 184.12 300.512C182.948 301.163 181.549 301.488 179.921 301.488C178.293 301.488 176.82 301.155 175.502 300.487C174.2 299.82 173.085 298.884 172.157 297.68C171.229 296.475 170.513 295.059 170.009 293.432C169.521 291.804 169.276 290.03 169.276 288.109ZM176.308 287.597V288.109C176.308 289.2 176.413 290.217 176.625 291.161C176.837 292.105 177.162 292.943 177.602 293.676C178.057 294.392 178.619 294.953 179.286 295.36C179.97 295.751 180.775 295.946 181.703 295.946C182.989 295.946 184.039 295.678 184.853 295.141C185.666 294.587 186.277 293.83 186.684 292.87C187.09 291.91 187.326 290.803 187.392 289.55V286.352C187.359 285.326 187.221 284.407 186.977 283.593C186.732 282.763 186.391 282.055 185.951 281.469C185.512 280.883 184.942 280.427 184.242 280.102C183.542 279.776 182.712 279.613 181.752 279.613C180.824 279.613 180.019 279.825 179.335 280.248C178.668 280.655 178.106 281.216 177.65 281.933C177.211 282.649 176.877 283.495 176.649 284.472C176.422 285.432 176.308 286.474 176.308 287.597Z" fill="white" shape-rendering="crispEdges"/>
<path d="M205.751 263.5V301H198.72V263.5H205.751ZM204.75 286.864H202.821C202.838 285.025 203.082 283.332 203.554 281.786C204.026 280.224 204.701 278.873 205.58 277.733C206.459 276.578 207.509 275.683 208.729 275.048C209.966 274.413 211.334 274.096 212.831 274.096C214.133 274.096 215.313 274.283 216.371 274.657C217.445 275.015 218.365 275.601 219.13 276.415C219.911 277.213 220.513 278.262 220.937 279.564C221.36 280.867 221.571 282.445 221.571 284.301V301H214.491V284.252C214.491 283.08 214.32 282.16 213.979 281.493C213.653 280.81 213.173 280.329 212.538 280.053C211.92 279.76 211.155 279.613 210.243 279.613C209.234 279.613 208.371 279.8 207.655 280.175C206.955 280.549 206.394 281.07 205.971 281.737C205.548 282.388 205.238 283.153 205.043 284.032C204.848 284.911 204.75 285.855 204.75 286.864Z" fill="white" shape-rendering="crispEdges"/>
<path d="M239.857 274.584V279.564H224.477V274.584H239.857ZM228.285 268.065H235.316V293.041C235.316 293.806 235.414 294.392 235.609 294.799C235.821 295.206 236.13 295.491 236.537 295.653C236.944 295.8 237.457 295.873 238.075 295.873C238.515 295.873 238.905 295.857 239.247 295.824C239.605 295.775 239.906 295.727 240.15 295.678L240.175 300.854C239.573 301.049 238.922 301.203 238.222 301.317C237.522 301.431 236.749 301.488 235.902 301.488C234.356 301.488 233.005 301.236 231.85 300.731C230.71 300.211 229.831 299.381 229.213 298.241C228.594 297.102 228.285 295.604 228.285 293.749V268.065Z" fill="white" shape-rendering="crispEdges"/>
<path d="M264.076 265.453V301H256.752V265.453H264.076ZM285.365 265.453L271.278 283.007L263.148 291.747L261.83 284.813L267.323 277.294L276.381 265.453H285.365ZM277.04 301L266.566 284.569L271.986 280.028L285.707 301H277.04Z" fill="white" shape-rendering="crispEdges"/>
<path d="M299.623 301.488C297.572 301.488 295.733 301.163 294.105 300.512C292.478 299.844 291.094 298.925 289.955 297.753C288.832 296.581 287.969 295.222 287.367 293.676C286.765 292.113 286.464 290.453 286.464 288.695V287.719C286.464 285.717 286.749 283.886 287.318 282.226C287.888 280.565 288.702 279.125 289.76 277.904C290.834 276.684 292.136 275.748 293.666 275.097C295.196 274.429 296.921 274.096 298.842 274.096C300.714 274.096 302.374 274.405 303.822 275.023C305.271 275.642 306.483 276.521 307.46 277.66C308.453 278.799 309.201 280.167 309.706 281.762C310.211 283.34 310.463 285.098 310.463 287.035V289.965H289.467V285.277H303.554V284.74C303.554 283.764 303.375 282.893 303.017 282.128C302.675 281.347 302.154 280.728 301.454 280.272C300.754 279.817 299.859 279.589 298.769 279.589C297.841 279.589 297.043 279.792 296.376 280.199C295.709 280.606 295.163 281.176 294.74 281.908C294.333 282.641 294.024 283.503 293.812 284.496C293.617 285.473 293.52 286.547 293.52 287.719V288.695C293.52 289.753 293.666 290.73 293.959 291.625C294.268 292.52 294.7 293.293 295.253 293.944C295.823 294.595 296.506 295.1 297.304 295.458C298.118 295.816 299.037 295.995 300.062 295.995C301.332 295.995 302.512 295.751 303.603 295.263C304.709 294.758 305.661 294.001 306.459 292.992L309.877 296.703C309.324 297.501 308.567 298.266 307.606 298.998C306.662 299.73 305.523 300.333 304.188 300.805C302.854 301.26 301.332 301.488 299.623 301.488Z" fill="white" shape-rendering="crispEdges"/>
<path d="M321.962 298.021L328.969 274.584H336.513L325.893 304.979C325.665 305.647 325.355 306.363 324.965 307.128C324.59 307.893 324.078 308.617 323.427 309.301C322.792 310.001 321.986 310.57 321.01 311.01C320.049 311.449 318.869 311.669 317.47 311.669C316.802 311.669 316.257 311.628 315.834 311.547C315.411 311.465 314.906 311.352 314.32 311.205V306.054C314.499 306.054 314.687 306.054 314.882 306.054C315.077 306.07 315.264 306.078 315.443 306.078C316.371 306.078 317.128 305.972 317.714 305.761C318.3 305.549 318.772 305.224 319.13 304.784C319.488 304.361 319.773 303.808 319.984 303.124L321.962 298.021ZM319.032 274.584L324.77 293.725L325.771 301.171L320.985 301.684L311.488 274.584H319.032Z" fill="white" shape-rendering="crispEdges"/>
<path d="M55.0674 324.453V360H47.7676V324.453H55.0674ZM66.0049 324.453V330.19H37.001V324.453H66.0049Z" fill="white" shape-rendering="crispEdges"/>
<path d="M75.0625 339.346V360H68.0312V333.584H74.6475L75.0625 339.346ZM83.0215 333.413L82.8994 339.932C82.5576 339.883 82.1426 339.842 81.6543 339.81C81.1823 339.761 80.751 339.736 80.3604 339.736C79.3675 339.736 78.5049 339.867 77.7725 340.127C77.0563 340.371 76.4541 340.737 75.9658 341.226C75.4938 341.714 75.1357 342.308 74.8916 343.008C74.6637 343.708 74.5335 344.505 74.501 345.4L73.085 344.961C73.085 343.252 73.2559 341.681 73.5977 340.249C73.9395 338.8 74.4359 337.539 75.0869 336.465C75.7542 335.391 76.568 334.561 77.5283 333.975C78.4886 333.389 79.5872 333.096 80.8242 333.096C81.2148 333.096 81.6136 333.128 82.0205 333.193C82.4274 333.242 82.7611 333.315 83.0215 333.413Z" fill="white" shape-rendering="crispEdges"/>
<path d="M99.7695 354.043V342.275C99.7695 341.429 99.6312 340.705 99.3545 340.103C99.0778 339.484 98.6465 339.004 98.0605 338.662C97.4909 338.32 96.7503 338.149 95.8389 338.149C95.0576 338.149 94.3822 338.288 93.8125 338.564C93.2428 338.825 92.8034 339.207 92.4941 339.712C92.1849 340.2 92.0303 340.778 92.0303 341.445H84.999C84.999 340.322 85.2594 339.256 85.7803 338.247C86.3011 337.238 87.0579 336.351 88.0508 335.586C89.0436 334.805 90.2236 334.194 91.5908 333.755C92.9743 333.315 94.5205 333.096 96.2295 333.096C98.2803 333.096 100.103 333.438 101.698 334.121C103.293 334.805 104.547 335.83 105.458 337.197C106.386 338.564 106.85 340.273 106.85 342.324V353.628C106.85 355.076 106.939 356.265 107.118 357.192C107.297 358.104 107.558 358.901 107.899 359.585V360H100.795C100.453 359.284 100.193 358.389 100.014 357.314C99.8509 356.224 99.7695 355.133 99.7695 354.043ZM100.697 343.911L100.746 347.891H96.8154C95.8877 347.891 95.082 347.996 94.3984 348.208C93.7148 348.42 93.1533 348.721 92.7139 349.111C92.2744 349.486 91.9489 349.925 91.7373 350.43C91.542 350.934 91.4443 351.488 91.4443 352.09C91.4443 352.692 91.5827 353.237 91.8594 353.726C92.1361 354.198 92.5348 354.572 93.0557 354.849C93.5765 355.109 94.1868 355.239 94.8867 355.239C95.9447 355.239 96.8643 355.028 97.6455 354.604C98.4268 354.181 99.029 353.66 99.4521 353.042C99.8916 352.424 100.119 351.838 100.136 351.284L101.991 354.263C101.731 354.93 101.373 355.622 100.917 356.338C100.478 357.054 99.916 357.729 99.2324 358.364C98.5488 358.983 97.7269 359.495 96.7666 359.902C95.8063 360.293 94.667 360.488 93.3486 360.488C91.6722 360.488 90.1504 360.155 88.7832 359.487C87.4323 358.804 86.3581 357.868 85.5605 356.68C84.7793 355.475 84.3887 354.108 84.3887 352.578C84.3887 351.195 84.6491 349.966 85.1699 348.892C85.6908 347.817 86.4557 346.914 87.4648 346.182C88.4902 345.433 89.7679 344.871 91.2979 344.497C92.8278 344.106 94.6019 343.911 96.6201 343.911H100.697Z" fill="white" shape-rendering="crispEdges"/>
<path d="M119.154 339.224V360H112.123V333.584H118.715L119.154 339.224ZM118.129 345.864H116.225C116.225 343.911 116.477 342.153 116.981 340.591C117.486 339.012 118.194 337.669 119.105 336.562C120.017 335.439 121.099 334.585 122.353 333.999C123.622 333.397 125.038 333.096 126.601 333.096C127.838 333.096 128.969 333.275 129.994 333.633C131.02 333.991 131.898 334.561 132.631 335.342C133.38 336.123 133.949 337.157 134.34 338.442C134.747 339.728 134.95 341.299 134.95 343.154V360H127.87V343.13C127.87 341.958 127.707 341.047 127.382 340.396C127.056 339.744 126.576 339.289 125.941 339.028C125.323 338.752 124.558 338.613 123.646 338.613C122.702 338.613 121.881 338.8 121.181 339.175C120.497 339.549 119.927 340.07 119.472 340.737C119.032 341.388 118.699 342.153 118.471 343.032C118.243 343.911 118.129 344.855 118.129 345.864Z" fill="white" shape-rendering="crispEdges"/>
<path d="M154.579 352.7C154.579 352.196 154.433 351.74 154.14 351.333C153.847 350.926 153.301 350.552 152.504 350.21C151.723 349.852 150.591 349.526 149.11 349.233C147.776 348.94 146.531 348.574 145.375 348.135C144.236 347.679 143.243 347.134 142.396 346.499C141.566 345.864 140.915 345.116 140.443 344.253C139.971 343.374 139.735 342.373 139.735 341.25C139.735 340.143 139.971 339.102 140.443 338.125C140.932 337.148 141.623 336.286 142.519 335.537C143.43 334.772 144.537 334.178 145.839 333.755C147.157 333.315 148.638 333.096 150.282 333.096C152.577 333.096 154.547 333.462 156.19 334.194C157.851 334.927 159.12 335.936 159.999 337.222C160.894 338.491 161.342 339.94 161.342 341.567H154.311C154.311 340.884 154.164 340.273 153.871 339.736C153.594 339.183 153.155 338.752 152.553 338.442C151.967 338.117 151.202 337.954 150.258 337.954C149.477 337.954 148.801 338.092 148.231 338.369C147.662 338.63 147.222 338.988 146.913 339.443C146.62 339.883 146.474 340.371 146.474 340.908C146.474 341.315 146.555 341.681 146.718 342.007C146.897 342.316 147.182 342.601 147.572 342.861C147.963 343.122 148.467 343.366 149.086 343.594C149.721 343.805 150.502 344.001 151.43 344.18C153.334 344.57 155.035 345.083 156.532 345.718C158.03 346.336 159.218 347.183 160.097 348.257C160.976 349.315 161.415 350.706 161.415 352.432C161.415 353.604 161.155 354.678 160.634 355.654C160.113 356.631 159.364 357.485 158.388 358.218C157.411 358.934 156.239 359.495 154.872 359.902C153.521 360.293 151.999 360.488 150.307 360.488C147.849 360.488 145.766 360.049 144.057 359.17C142.364 358.291 141.078 357.176 140.199 355.825C139.337 354.458 138.905 353.058 138.905 351.626H145.57C145.603 352.586 145.847 353.359 146.303 353.945C146.775 354.531 147.369 354.954 148.085 355.215C148.817 355.475 149.607 355.605 150.453 355.605C151.365 355.605 152.121 355.483 152.724 355.239C153.326 354.979 153.782 354.637 154.091 354.214C154.416 353.774 154.579 353.27 154.579 352.7Z" fill="white" shape-rendering="crispEdges"/>
<path d="M180.238 354.043V342.275C180.238 341.429 180.1 340.705 179.823 340.103C179.547 339.484 179.115 339.004 178.529 338.662C177.96 338.32 177.219 338.149 176.308 338.149C175.526 338.149 174.851 338.288 174.281 338.564C173.712 338.825 173.272 339.207 172.963 339.712C172.654 340.2 172.499 340.778 172.499 341.445H165.468C165.468 340.322 165.728 339.256 166.249 338.247C166.77 337.238 167.527 336.351 168.52 335.586C169.512 334.805 170.692 334.194 172.06 333.755C173.443 333.315 174.989 333.096 176.698 333.096C178.749 333.096 180.572 333.438 182.167 334.121C183.762 334.805 185.015 335.83 185.927 337.197C186.854 338.564 187.318 340.273 187.318 342.324V353.628C187.318 355.076 187.408 356.265 187.587 357.192C187.766 358.104 188.026 358.901 188.368 359.585V360H181.264C180.922 359.284 180.661 358.389 180.482 357.314C180.32 356.224 180.238 355.133 180.238 354.043ZM181.166 343.911L181.215 347.891H177.284C176.356 347.891 175.551 347.996 174.867 348.208C174.184 348.42 173.622 348.721 173.183 349.111C172.743 349.486 172.418 349.925 172.206 350.43C172.011 350.934 171.913 351.488 171.913 352.09C171.913 352.692 172.051 353.237 172.328 353.726C172.605 354.198 173.004 354.572 173.524 354.849C174.045 355.109 174.656 355.239 175.355 355.239C176.413 355.239 177.333 355.028 178.114 354.604C178.896 354.181 179.498 353.66 179.921 353.042C180.36 352.424 180.588 351.838 180.604 351.284L182.46 354.263C182.2 354.93 181.841 355.622 181.386 356.338C180.946 357.054 180.385 357.729 179.701 358.364C179.018 358.983 178.196 359.495 177.235 359.902C176.275 360.293 175.136 360.488 173.817 360.488C172.141 360.488 170.619 360.155 169.252 359.487C167.901 358.804 166.827 357.868 166.029 356.68C165.248 355.475 164.857 354.108 164.857 352.578C164.857 351.195 165.118 349.966 165.639 348.892C166.16 347.817 166.924 346.914 167.934 346.182C168.959 345.433 170.237 344.871 171.767 344.497C173.297 344.106 175.071 343.911 177.089 343.911H181.166Z" fill="white" shape-rendering="crispEdges"/>
<path d="M203.651 354.995C204.514 354.995 205.279 354.832 205.946 354.507C206.614 354.165 207.134 353.693 207.509 353.091C207.899 352.472 208.103 351.748 208.119 350.918H214.735C214.719 352.773 214.223 354.425 213.246 355.874C212.27 357.306 210.959 358.438 209.315 359.268C207.672 360.081 205.832 360.488 203.798 360.488C201.747 360.488 199.957 360.146 198.427 359.463C196.913 358.779 195.652 357.835 194.643 356.631C193.633 355.41 192.877 353.994 192.372 352.383C191.868 350.755 191.615 349.014 191.615 347.158V346.45C191.615 344.578 191.868 342.837 192.372 341.226C192.877 339.598 193.633 338.182 194.643 336.978C195.652 335.757 196.913 334.805 198.427 334.121C199.94 333.438 201.715 333.096 203.749 333.096C205.914 333.096 207.81 333.511 209.438 334.341C211.081 335.171 212.367 336.359 213.295 337.905C214.239 339.435 214.719 341.25 214.735 343.35H208.119C208.103 342.471 207.916 341.673 207.558 340.957C207.216 340.241 206.711 339.671 206.044 339.248C205.393 338.809 204.587 338.589 203.627 338.589C202.602 338.589 201.763 338.809 201.112 339.248C200.461 339.671 199.957 340.257 199.599 341.006C199.241 341.738 198.988 342.576 198.842 343.521C198.712 344.448 198.646 345.425 198.646 346.45V347.158C198.646 348.184 198.712 349.168 198.842 350.112C198.972 351.056 199.216 351.895 199.574 352.627C199.949 353.359 200.461 353.937 201.112 354.36C201.763 354.784 202.61 354.995 203.651 354.995Z" fill="white" shape-rendering="crispEdges"/>
<path d="M231.752 333.584V338.564H216.371V333.584H231.752ZM220.18 327.065H227.211V352.041C227.211 352.806 227.309 353.392 227.504 353.799C227.715 354.206 228.025 354.491 228.432 354.653C228.839 354.8 229.351 354.873 229.97 354.873C230.409 354.873 230.8 354.857 231.142 354.824C231.5 354.775 231.801 354.727 232.045 354.678L232.069 359.854C231.467 360.049 230.816 360.203 230.116 360.317C229.416 360.431 228.643 360.488 227.797 360.488C226.251 360.488 224.9 360.236 223.744 359.731C222.605 359.211 221.726 358.381 221.107 357.241C220.489 356.102 220.18 354.604 220.18 352.749V327.065Z" fill="white" shape-rendering="crispEdges"/>
<path d="M243.178 333.584V360H236.122V333.584H243.178ZM235.683 326.699C235.683 325.674 236.041 324.827 236.757 324.16C237.473 323.493 238.433 323.159 239.638 323.159C240.826 323.159 241.778 323.493 242.494 324.16C243.227 324.827 243.593 325.674 243.593 326.699C243.593 327.725 243.227 328.571 242.494 329.238C241.778 329.906 240.826 330.239 239.638 330.239C238.433 330.239 237.473 329.906 236.757 329.238C236.041 328.571 235.683 327.725 235.683 326.699Z" fill="white" shape-rendering="crispEdges"/>
<path d="M247.865 347.061V346.548C247.865 344.611 248.142 342.829 248.695 341.201C249.249 339.557 250.054 338.133 251.112 336.929C252.17 335.724 253.472 334.788 255.019 334.121C256.565 333.438 258.339 333.096 260.341 333.096C262.343 333.096 264.125 333.438 265.688 334.121C267.25 334.788 268.56 335.724 269.618 336.929C270.692 338.133 271.506 339.557 272.06 341.201C272.613 342.829 272.89 344.611 272.89 346.548V347.061C272.89 348.981 272.613 350.763 272.06 352.407C271.506 354.035 270.692 355.459 269.618 356.68C268.56 357.884 267.258 358.82 265.712 359.487C264.166 360.155 262.392 360.488 260.39 360.488C258.388 360.488 256.605 360.155 255.043 359.487C253.497 358.82 252.187 357.884 251.112 356.68C250.054 355.459 249.249 354.035 248.695 352.407C248.142 350.763 247.865 348.981 247.865 347.061ZM254.896 346.548V347.061C254.896 348.167 254.994 349.201 255.189 350.161C255.385 351.121 255.694 351.968 256.117 352.7C256.557 353.416 257.126 353.978 257.826 354.385C258.526 354.792 259.381 354.995 260.39 354.995C261.366 354.995 262.204 354.792 262.904 354.385C263.604 353.978 264.166 353.416 264.589 352.7C265.012 351.968 265.321 351.121 265.517 350.161C265.728 349.201 265.834 348.167 265.834 347.061V346.548C265.834 345.474 265.728 344.465 265.517 343.521C265.321 342.56 265.004 341.714 264.564 340.981C264.141 340.233 263.58 339.647 262.88 339.224C262.18 338.8 261.334 338.589 260.341 338.589C259.348 338.589 258.502 338.8 257.802 339.224C257.118 339.647 256.557 340.233 256.117 340.981C255.694 341.714 255.385 342.56 255.189 343.521C254.994 344.465 254.896 345.474 254.896 346.548Z" fill="white" shape-rendering="crispEdges"/>
<path d="M284.096 339.224V360H277.064V333.584H283.656L284.096 339.224ZM283.07 345.864H281.166C281.166 343.911 281.418 342.153 281.923 340.591C282.427 339.012 283.135 337.669 284.047 336.562C284.958 335.439 286.041 334.585 287.294 333.999C288.563 333.397 289.979 333.096 291.542 333.096C292.779 333.096 293.91 333.275 294.936 333.633C295.961 333.991 296.84 334.561 297.572 335.342C298.321 336.123 298.891 337.157 299.281 338.442C299.688 339.728 299.892 341.299 299.892 343.154V360H292.812V343.13C292.812 341.958 292.649 341.047 292.323 340.396C291.998 339.744 291.518 339.289 290.883 339.028C290.264 338.752 289.499 338.613 288.588 338.613C287.644 338.613 286.822 338.8 286.122 339.175C285.438 339.549 284.869 340.07 284.413 340.737C283.974 341.388 283.64 342.153 283.412 343.032C283.184 343.911 283.07 344.855 283.07 345.864Z" fill="white" shape-rendering="crispEdges"/>
<path d="M319.521 352.7C319.521 352.196 319.374 351.74 319.081 351.333C318.788 350.926 318.243 350.552 317.445 350.21C316.664 349.852 315.533 349.526 314.052 349.233C312.717 348.94 311.472 348.574 310.316 348.135C309.177 347.679 308.184 347.134 307.338 346.499C306.508 345.864 305.857 345.116 305.385 344.253C304.913 343.374 304.677 342.373 304.677 341.25C304.677 340.143 304.913 339.102 305.385 338.125C305.873 337.148 306.565 336.286 307.46 335.537C308.371 334.772 309.478 334.178 310.78 333.755C312.099 333.315 313.58 333.096 315.224 333.096C317.519 333.096 319.488 333.462 321.132 334.194C322.792 334.927 324.062 335.936 324.94 337.222C325.836 338.491 326.283 339.94 326.283 341.567H319.252C319.252 340.884 319.105 340.273 318.812 339.736C318.536 339.183 318.096 338.752 317.494 338.442C316.908 338.117 316.143 337.954 315.199 337.954C314.418 337.954 313.743 338.092 313.173 338.369C312.603 338.63 312.164 338.988 311.854 339.443C311.562 339.883 311.415 340.371 311.415 340.908C311.415 341.315 311.496 341.681 311.659 342.007C311.838 342.316 312.123 342.601 312.514 342.861C312.904 343.122 313.409 343.366 314.027 343.594C314.662 343.805 315.443 344.001 316.371 344.18C318.275 344.57 319.976 345.083 321.474 345.718C322.971 346.336 324.159 347.183 325.038 348.257C325.917 349.315 326.356 350.706 326.356 352.432C326.356 353.604 326.096 354.678 325.575 355.654C325.054 356.631 324.306 357.485 323.329 358.218C322.353 358.934 321.181 359.495 319.813 359.902C318.463 360.293 316.941 360.488 315.248 360.488C312.79 360.488 310.707 360.049 308.998 359.17C307.305 358.291 306.02 357.176 305.141 355.825C304.278 354.458 303.847 353.058 303.847 351.626H310.512C310.544 352.586 310.788 353.359 311.244 353.945C311.716 354.531 312.31 354.954 313.026 355.215C313.759 355.475 314.548 355.605 315.395 355.605C316.306 355.605 317.063 355.483 317.665 355.239C318.267 354.979 318.723 354.637 319.032 354.214C319.358 353.774 319.521 353.27 319.521 352.7Z" fill="white" shape-rendering="crispEdges"/>
<path d="M97 165H119V231H97V165Z" fill="white" fill-opacity="0.5" shape-rendering="crispEdges"/>
<path d="M174 194H196V231H174V194Z" fill="white" fill-opacity="0.5" shape-rendering="crispEdges"/>
<path d="M214 194H236V231H214V194Z" fill="white" fill-opacity="0.5" shape-rendering="crispEdges"/>
<path d="M134 60H156V231H134V60Z" fill="white" fill-opacity="0.5" shape-rendering="crispEdges"/>
</g>
<defs>
<filter id="filter0_d_3_48" x="0" y="0" width="408" height="408" filterUnits="userSpaceOnUse" color-interpolation-filters="sRGB">
<feFlood flood-opacity="0" result="BackgroundImageFix"/>
<feColorMatrix in="SourceAlpha" type="matrix" values="0 0 0 0 0 0 0 0 0 0 0 0 0 0 0 0 0 0 127 0" result="hardAlpha"/>
<feOffset dy="4"/>
<feGaussianBlur stdDeviation="2"/>
<feComposite in2="hardAlpha" operator="out"/>
<feColorMatrix type="matrix" values="0 0 0 0 0 0 0 0 0 0 0 0 0 0 0 0 0 0 0.25 0"/>
<feBlend mode="normal" in2="BackgroundImageFix" result="effect1_dropShadow_3_48"/>
<feBlend mode="normal" in="SourceGraphic" in2="effect1_dropShadow_3_48" result="shape"/>
</filter>
</defs>
</svg>
