<svg width="240" height="240" viewBox="0 0 240 240" fill="none" xmlns="http://www.w3.org/2000/svg">
<rect width="240" height="240" fill="white"/>
<rect x="10" y="10" width="220" height="220" rx="20" fill="#B5C1E4"/>
<path d="M40.8398 174.349C40.8398 174.032 40.791 173.747 40.6934 173.495C40.6038 173.234 40.4329 172.998 40.1807 172.787C39.9284 172.567 39.5744 172.351 39.1187 172.14C38.6629 171.928 38.0729 171.708 37.3486 171.48C36.543 171.22 35.778 170.927 35.0537 170.602C34.3376 170.276 33.7028 169.898 33.1494 169.466C32.6042 169.027 32.1729 168.518 31.8555 167.94C31.5462 167.363 31.3916 166.691 31.3916 165.926C31.3916 165.186 31.5544 164.514 31.8799 163.912C32.2054 163.302 32.6611 162.781 33.2471 162.35C33.833 161.91 34.5247 161.572 35.3223 161.336C36.1279 161.1 37.0109 160.982 37.9712 160.982C39.2814 160.982 40.4248 161.218 41.4014 161.69C42.3779 162.162 43.1348 162.809 43.6719 163.631C44.2171 164.453 44.4897 165.393 44.4897 166.451H40.8521C40.8521 165.93 40.7422 165.475 40.5225 165.084C40.3109 164.685 39.9854 164.372 39.5459 164.144C39.1146 163.916 38.5693 163.802 37.9102 163.802C37.2754 163.802 36.7464 163.9 36.3232 164.095C35.9001 164.282 35.5827 164.539 35.3711 164.864C35.1595 165.182 35.0537 165.54 35.0537 165.938C35.0537 166.24 35.127 166.512 35.2734 166.756C35.4281 167 35.6559 167.228 35.957 167.44C36.2581 167.652 36.6284 167.851 37.0679 168.038C37.5073 168.225 38.016 168.408 38.5938 168.587C39.5622 168.88 40.4126 169.21 41.145 169.576C41.8856 169.942 42.5041 170.353 43.0005 170.809C43.4969 171.265 43.8713 171.782 44.1235 172.359C44.3758 172.937 44.502 173.592 44.502 174.325C44.502 175.098 44.3514 175.79 44.0503 176.4C43.7492 177.01 43.3138 177.527 42.7441 177.95C42.1745 178.373 41.495 178.695 40.7056 178.915C39.9162 179.134 39.0332 179.244 38.0566 179.244C37.1777 179.244 36.311 179.13 35.4565 178.902C34.6021 178.666 33.8249 178.312 33.125 177.84C32.4333 177.368 31.8799 176.766 31.4648 176.034C31.0498 175.301 30.8423 174.435 30.8423 173.434H34.5166C34.5166 173.987 34.6021 174.455 34.7729 174.837C34.9438 175.22 35.1839 175.529 35.4932 175.765C35.8105 176.001 36.1849 176.172 36.6162 176.278C37.0557 176.384 37.5358 176.437 38.0566 176.437C38.6914 176.437 39.2122 176.347 39.6191 176.168C40.0342 175.989 40.3394 175.741 40.5347 175.423C40.7381 175.106 40.8398 174.748 40.8398 174.349ZM52.8516 179.244C51.8262 179.244 50.9066 179.081 50.0928 178.756C49.279 178.422 48.5872 177.962 48.0176 177.376C47.4561 176.791 47.0247 176.111 46.7236 175.338C46.4225 174.557 46.272 173.727 46.272 172.848V172.359C46.272 171.358 46.4144 170.443 46.6992 169.613C46.984 168.783 47.391 168.062 47.9199 167.452C48.457 166.842 49.1081 166.374 49.873 166.048C50.638 165.715 51.5007 165.548 52.4609 165.548C53.3968 165.548 54.2269 165.702 54.9512 166.012C55.6755 166.321 56.2817 166.76 56.77 167.33C57.2664 167.9 57.6408 168.583 57.8931 169.381C58.1453 170.17 58.2715 171.049 58.2715 172.018V173.482H47.7734V171.139H54.8169V170.87C54.8169 170.382 54.7274 169.946 54.5483 169.564C54.3774 169.173 54.117 168.864 53.7671 168.636C53.4172 168.408 52.9696 168.294 52.4243 168.294C51.9604 168.294 51.5617 168.396 51.228 168.6C50.8944 168.803 50.6217 169.088 50.4102 169.454C50.2067 169.82 50.0521 170.252 49.9463 170.748C49.8486 171.236 49.7998 171.773 49.7998 172.359V172.848C49.7998 173.377 49.873 173.865 50.0195 174.312C50.1742 174.76 50.3898 175.147 50.6665 175.472C50.9513 175.798 51.2931 176.05 51.6919 176.229C52.0988 176.408 52.5586 176.498 53.0713 176.498C53.7061 176.498 54.2961 176.375 54.8413 176.131C55.3947 175.879 55.8708 175.501 56.2695 174.996L57.9785 176.852C57.7018 177.25 57.3234 177.633 56.8433 177.999C56.3713 178.365 55.8016 178.666 55.1343 178.902C54.467 179.13 53.7061 179.244 52.8516 179.244ZM63.7158 168.612V179H60.2002V165.792H63.4961L63.7158 168.612ZM63.2031 171.932H62.251C62.251 170.956 62.3771 170.077 62.6294 169.295C62.8817 168.506 63.2357 167.835 63.6914 167.281C64.1471 166.72 64.6883 166.292 65.3149 166C65.9497 165.698 66.6577 165.548 67.439 165.548C68.0575 165.548 68.623 165.637 69.1357 165.816C69.6484 165.995 70.0879 166.28 70.4541 166.671C70.8285 167.062 71.1133 167.578 71.3086 168.221C71.512 168.864 71.6138 169.649 71.6138 170.577V179H68.0737V170.565C68.0737 169.979 67.9924 169.523 67.8296 169.198C67.6668 168.872 67.4268 168.644 67.1094 168.514C66.8001 168.376 66.4176 168.307 65.9619 168.307C65.4899 168.307 65.0789 168.4 64.729 168.587C64.3872 168.775 64.1024 169.035 63.8745 169.369C63.6548 169.694 63.488 170.077 63.374 170.516C63.2601 170.956 63.2031 171.428 63.2031 171.932ZM82.0874 176.119V160.25H85.6274V179H82.4414L82.0874 176.119ZM73.7378 172.555V172.298C73.7378 171.289 73.8517 170.374 74.0796 169.552C74.3075 168.722 74.6411 168.01 75.0806 167.416C75.52 166.821 76.0612 166.362 76.7041 166.036C77.347 165.711 78.0794 165.548 78.9014 165.548C79.6745 165.548 80.3499 165.711 80.9277 166.036C81.5137 166.362 82.0101 166.826 82.417 167.428C82.832 168.022 83.1657 168.726 83.418 169.54C83.6702 170.345 83.8534 171.228 83.9673 172.188V172.75C83.8534 173.67 83.6702 174.524 83.418 175.313C83.1657 176.103 82.832 176.795 82.417 177.389C82.0101 177.975 81.5137 178.43 80.9277 178.756C80.3418 179.081 79.6582 179.244 78.877 179.244C78.055 179.244 77.3226 179.077 76.6797 178.744C76.0449 178.41 75.5078 177.942 75.0684 177.34C74.637 176.738 74.3075 176.03 74.0796 175.216C73.8517 174.402 73.7378 173.515 73.7378 172.555ZM77.2534 172.298V172.555C77.2534 173.1 77.2941 173.609 77.3755 174.081C77.465 174.553 77.6074 174.972 77.8027 175.338C78.0062 175.696 78.2666 175.977 78.584 176.18C78.9095 176.375 79.3042 176.473 79.7681 176.473C80.3703 176.473 80.8667 176.339 81.2573 176.07C81.6479 175.794 81.945 175.415 82.1484 174.935C82.36 174.455 82.4821 173.902 82.5146 173.275V171.676C82.4902 171.163 82.417 170.703 82.2949 170.296C82.181 169.881 82.0101 169.527 81.7822 169.234C81.5625 168.941 81.2858 168.714 80.9521 168.551C80.6266 168.388 80.2401 168.307 79.7925 168.307C79.3368 168.307 78.9461 168.412 78.6206 168.624C78.2951 168.827 78.0306 169.108 77.8271 169.466C77.6318 169.824 77.4854 170.248 77.3877 170.736C77.2982 171.216 77.2534 171.737 77.2534 172.298ZM102.412 175.838V165.792H105.928V179H102.62L102.412 175.838ZM102.803 173.128L103.84 173.104C103.84 173.983 103.739 174.801 103.535 175.558C103.332 176.306 103.027 176.957 102.62 177.511C102.213 178.056 101.7 178.483 101.082 178.792C100.463 179.094 99.7347 179.244 98.8965 179.244C98.2536 179.244 97.6595 179.155 97.1143 178.976C96.5771 178.788 96.1133 178.5 95.7227 178.109C95.3402 177.71 95.0391 177.201 94.8193 176.583C94.6077 175.956 94.502 175.204 94.502 174.325V165.792H98.0176V174.349C98.0176 174.74 98.0623 175.069 98.1519 175.338C98.2495 175.606 98.3838 175.826 98.5547 175.997C98.7256 176.168 98.925 176.29 99.1528 176.363C99.3888 176.437 99.6493 176.473 99.9341 176.473C100.658 176.473 101.228 176.327 101.643 176.034C102.066 175.741 102.363 175.342 102.534 174.837C102.713 174.325 102.803 173.755 102.803 173.128ZM112.129 168.331V184.078H108.613V165.792H111.873L112.129 168.331ZM120.491 172.25V172.506C120.491 173.466 120.377 174.357 120.149 175.179C119.929 176.001 119.604 176.717 119.172 177.328C118.741 177.93 118.204 178.402 117.561 178.744C116.926 179.077 116.194 179.244 115.364 179.244C114.558 179.244 113.858 179.081 113.264 178.756C112.67 178.43 112.17 177.975 111.763 177.389C111.364 176.795 111.042 176.107 110.798 175.326C110.554 174.544 110.367 173.706 110.237 172.811V172.14C110.367 171.179 110.554 170.3 110.798 169.503C111.042 168.697 111.364 168.001 111.763 167.416C112.17 166.821 112.666 166.362 113.252 166.036C113.846 165.711 114.542 165.548 115.339 165.548C116.178 165.548 116.914 165.707 117.549 166.024C118.192 166.341 118.729 166.797 119.16 167.391C119.6 167.985 119.929 168.693 120.149 169.515C120.377 170.337 120.491 171.249 120.491 172.25ZM116.963 172.506V172.25C116.963 171.688 116.914 171.171 116.816 170.699C116.727 170.219 116.58 169.8 116.377 169.442C116.182 169.084 115.921 168.807 115.596 168.612C115.278 168.408 114.892 168.307 114.436 168.307C113.956 168.307 113.545 168.384 113.203 168.539C112.869 168.693 112.597 168.917 112.385 169.21C112.174 169.503 112.015 169.853 111.909 170.26C111.803 170.667 111.738 171.126 111.714 171.639V173.336C111.755 173.938 111.868 174.479 112.056 174.959C112.243 175.431 112.532 175.806 112.922 176.083C113.313 176.359 113.826 176.498 114.46 176.498C114.924 176.498 115.315 176.396 115.632 176.192C115.95 175.981 116.206 175.692 116.401 175.326C116.605 174.959 116.747 174.536 116.829 174.056C116.918 173.576 116.963 173.059 116.963 172.506ZM128.132 176.498C128.564 176.498 128.946 176.416 129.28 176.253C129.613 176.083 129.874 175.847 130.061 175.545C130.256 175.236 130.358 174.874 130.366 174.459H133.674C133.666 175.387 133.418 176.213 132.93 176.937C132.441 177.653 131.786 178.219 130.964 178.634C130.142 179.041 129.223 179.244 128.206 179.244C127.18 179.244 126.285 179.073 125.52 178.731C124.763 178.39 124.132 177.918 123.628 177.315C123.123 176.705 122.745 175.997 122.493 175.191C122.24 174.378 122.114 173.507 122.114 172.579V172.225C122.114 171.289 122.24 170.418 122.493 169.613C122.745 168.799 123.123 168.091 123.628 167.489C124.132 166.878 124.763 166.402 125.52 166.061C126.277 165.719 127.164 165.548 128.181 165.548C129.264 165.548 130.212 165.755 131.025 166.17C131.847 166.585 132.49 167.18 132.954 167.953C133.426 168.718 133.666 169.625 133.674 170.675H130.366C130.358 170.235 130.264 169.837 130.085 169.479C129.915 169.12 129.662 168.836 129.329 168.624C129.003 168.404 128.6 168.294 128.12 168.294C127.607 168.294 127.188 168.404 126.863 168.624C126.537 168.836 126.285 169.129 126.106 169.503C125.927 169.869 125.801 170.288 125.728 170.76C125.662 171.224 125.63 171.712 125.63 172.225V172.579C125.63 173.092 125.662 173.584 125.728 174.056C125.793 174.528 125.915 174.947 126.094 175.313C126.281 175.68 126.537 175.969 126.863 176.18C127.188 176.392 127.611 176.498 128.132 176.498ZM135.151 172.53V172.274C135.151 171.306 135.29 170.414 135.566 169.601C135.843 168.779 136.246 168.067 136.775 167.464C137.304 166.862 137.955 166.394 138.728 166.061C139.501 165.719 140.388 165.548 141.389 165.548C142.39 165.548 143.281 165.719 144.062 166.061C144.844 166.394 145.499 166.862 146.028 167.464C146.565 168.067 146.972 168.779 147.249 169.601C147.525 170.414 147.664 171.306 147.664 172.274V172.53C147.664 173.491 147.525 174.382 147.249 175.204C146.972 176.017 146.565 176.729 146.028 177.34C145.499 177.942 144.848 178.41 144.075 178.744C143.302 179.077 142.415 179.244 141.414 179.244C140.413 179.244 139.521 179.077 138.74 178.744C137.967 178.41 137.312 177.942 136.775 177.34C136.246 176.729 135.843 176.017 135.566 175.204C135.29 174.382 135.151 173.491 135.151 172.53ZM138.667 172.274V172.53C138.667 173.084 138.716 173.6 138.813 174.081C138.911 174.561 139.066 174.984 139.277 175.35C139.497 175.708 139.782 175.989 140.132 176.192C140.482 176.396 140.909 176.498 141.414 176.498C141.902 176.498 142.321 176.396 142.671 176.192C143.021 175.989 143.302 175.708 143.513 175.35C143.725 174.984 143.879 174.561 143.977 174.081C144.083 173.6 144.136 173.084 144.136 172.53V172.274C144.136 171.737 144.083 171.232 143.977 170.76C143.879 170.28 143.721 169.857 143.501 169.491C143.289 169.116 143.009 168.823 142.659 168.612C142.309 168.4 141.886 168.294 141.389 168.294C140.893 168.294 140.47 168.4 140.12 168.612C139.778 168.823 139.497 169.116 139.277 169.491C139.066 169.857 138.911 170.28 138.813 170.76C138.716 171.232 138.667 171.737 138.667 172.274ZM153.34 168.526V179H149.812V165.792H153.12L153.34 168.526ZM152.852 171.932H151.875C151.875 171.013 151.985 170.166 152.205 169.393C152.432 168.612 152.762 167.936 153.193 167.367C153.633 166.789 154.174 166.341 154.817 166.024C155.46 165.707 156.204 165.548 157.051 165.548C157.637 165.548 158.174 165.637 158.662 165.816C159.15 165.987 159.569 166.26 159.919 166.634C160.278 167 160.554 167.481 160.75 168.075C160.945 168.661 161.042 169.365 161.042 170.187V179H157.527V170.577C157.527 169.975 157.445 169.511 157.283 169.186C157.12 168.86 156.888 168.632 156.587 168.502C156.294 168.372 155.94 168.307 155.525 168.307C155.069 168.307 154.67 168.4 154.329 168.587C153.995 168.775 153.718 169.035 153.499 169.369C153.279 169.694 153.116 170.077 153.01 170.516C152.904 170.956 152.852 171.428 152.852 171.932ZM160.713 171.529L159.456 171.688C159.456 170.825 159.561 170.024 159.773 169.283C159.993 168.543 160.314 167.892 160.737 167.33C161.169 166.769 161.702 166.333 162.336 166.024C162.971 165.707 163.704 165.548 164.534 165.548C165.168 165.548 165.746 165.641 166.267 165.829C166.788 166.008 167.231 166.297 167.598 166.695C167.972 167.086 168.257 167.599 168.452 168.233C168.656 168.868 168.757 169.645 168.757 170.565V179H165.229V170.565C165.229 169.955 165.148 169.491 164.985 169.173C164.831 168.848 164.603 168.624 164.302 168.502C164.009 168.372 163.659 168.307 163.252 168.307C162.829 168.307 162.458 168.392 162.141 168.563C161.824 168.726 161.559 168.954 161.348 169.247C161.136 169.54 160.977 169.881 160.872 170.272C160.766 170.654 160.713 171.074 160.713 171.529ZM175.19 165.792V179H171.663V165.792H175.19ZM171.443 162.35C171.443 161.837 171.622 161.414 171.98 161.08C172.338 160.746 172.818 160.58 173.42 160.58C174.014 160.58 174.491 160.746 174.849 161.08C175.215 161.414 175.398 161.837 175.398 162.35C175.398 162.862 175.215 163.285 174.849 163.619C174.491 163.953 174.014 164.12 173.42 164.12C172.818 164.12 172.338 163.953 171.98 163.619C171.622 163.285 171.443 162.862 171.443 162.35ZM181.538 168.612V179H178.022V165.792H181.318L181.538 168.612ZM181.025 171.932H180.073C180.073 170.956 180.199 170.077 180.452 169.295C180.704 168.506 181.058 167.835 181.514 167.281C181.969 166.72 182.511 166.292 183.137 166C183.772 165.698 184.48 165.548 185.261 165.548C185.88 165.548 186.445 165.637 186.958 165.816C187.471 165.995 187.91 166.28 188.276 166.671C188.651 167.062 188.936 167.578 189.131 168.221C189.334 168.864 189.436 169.649 189.436 170.577V179H185.896V170.565C185.896 169.979 185.815 169.523 185.652 169.198C185.489 168.872 185.249 168.644 184.932 168.514C184.622 168.376 184.24 168.307 183.784 168.307C183.312 168.307 182.901 168.4 182.551 168.587C182.209 168.775 181.925 169.035 181.697 169.369C181.477 169.694 181.31 170.077 181.196 170.516C181.082 170.956 181.025 171.428 181.025 171.932ZM200.471 165.792H203.657V178.561C203.657 179.765 203.389 180.786 202.852 181.625C202.323 182.471 201.582 183.11 200.63 183.541C199.678 183.98 198.571 184.2 197.31 184.2C196.756 184.2 196.17 184.127 195.552 183.98C194.941 183.834 194.355 183.606 193.794 183.297C193.241 182.988 192.777 182.597 192.402 182.125L193.953 180.05C194.36 180.522 194.832 180.888 195.369 181.148C195.906 181.417 196.5 181.551 197.151 181.551C197.786 181.551 198.323 181.433 198.762 181.197C199.202 180.969 199.539 180.632 199.775 180.184C200.011 179.745 200.129 179.212 200.129 178.585V168.844L200.471 165.792ZM191.584 172.555V172.298C191.584 171.289 191.707 170.374 191.951 169.552C192.203 168.722 192.557 168.01 193.013 167.416C193.477 166.821 194.038 166.362 194.697 166.036C195.356 165.711 196.101 165.548 196.931 165.548C197.81 165.548 198.547 165.711 199.141 166.036C199.735 166.362 200.223 166.826 200.605 167.428C200.988 168.022 201.285 168.726 201.497 169.54C201.716 170.345 201.887 171.228 202.009 172.188V172.75C201.887 173.67 201.704 174.524 201.46 175.313C201.216 176.103 200.894 176.795 200.496 177.389C200.097 177.975 199.6 178.43 199.006 178.756C198.42 179.081 197.721 179.244 196.907 179.244C196.093 179.244 195.356 179.077 194.697 178.744C194.046 178.41 193.489 177.942 193.025 177.34C192.561 176.738 192.203 176.03 191.951 175.216C191.707 174.402 191.584 173.515 191.584 172.555ZM195.1 172.298V172.555C195.1 173.1 195.153 173.609 195.259 174.081C195.365 174.553 195.527 174.972 195.747 175.338C195.975 175.696 196.256 175.977 196.589 176.18C196.931 176.375 197.334 176.473 197.798 176.473C198.441 176.473 198.966 176.339 199.373 176.07C199.779 175.794 200.085 175.415 200.288 174.935C200.492 174.455 200.61 173.902 200.642 173.275V171.676C200.626 171.163 200.557 170.703 200.435 170.296C200.312 169.881 200.142 169.527 199.922 169.234C199.702 168.941 199.417 168.714 199.067 168.551C198.717 168.388 198.302 168.307 197.822 168.307C197.358 168.307 196.956 168.412 196.614 168.624C196.28 168.827 195.999 169.108 195.771 169.466C195.552 169.824 195.385 170.248 195.271 170.736C195.157 171.216 195.1 171.737 195.1 172.298ZM34.8828 197.673V208H31.3672V194.792H34.6753L34.8828 197.673ZM38.8623 194.707L38.8013 197.966C38.6304 197.941 38.4229 197.921 38.1787 197.905C37.9427 197.88 37.7271 197.868 37.5317 197.868C37.0353 197.868 36.604 197.933 36.2378 198.063C35.8797 198.186 35.5786 198.369 35.3345 198.613C35.0985 198.857 34.9194 199.154 34.7974 199.504C34.6834 199.854 34.6183 200.253 34.6021 200.7L33.894 200.48C33.894 199.626 33.9795 198.841 34.1504 198.125C34.3213 197.4 34.5695 196.77 34.895 196.232C35.2287 195.695 35.6356 195.28 36.1157 194.987C36.5959 194.694 37.1452 194.548 37.7637 194.548C37.959 194.548 38.1584 194.564 38.3618 194.597C38.5653 194.621 38.7321 194.658 38.8623 194.707ZM46.3574 208.244C45.332 208.244 44.4124 208.081 43.5986 207.756C42.7848 207.422 42.0931 206.962 41.5234 206.376C40.9619 205.791 40.5306 205.111 40.2295 204.338C39.9284 203.557 39.7778 202.727 39.7778 201.848V201.359C39.7778 200.358 39.9202 199.443 40.2051 198.613C40.4899 197.783 40.8968 197.062 41.4258 196.452C41.9629 195.842 42.6139 195.374 43.3789 195.048C44.1439 194.715 45.0065 194.548 45.9668 194.548C46.9027 194.548 47.7327 194.702 48.457 195.012C49.1813 195.321 49.7876 195.76 50.2759 196.33C50.7723 196.9 51.1466 197.583 51.3989 198.381C51.6512 199.17 51.7773 200.049 51.7773 201.018V202.482H41.2793V200.139H48.3228V199.87C48.3228 199.382 48.2332 198.946 48.0542 198.564C47.8833 198.173 47.6229 197.864 47.2729 197.636C46.923 197.408 46.4754 197.294 45.9302 197.294C45.4663 197.294 45.0675 197.396 44.7339 197.6C44.4002 197.803 44.1276 198.088 43.916 198.454C43.7126 198.82 43.5579 199.252 43.4521 199.748C43.3545 200.236 43.3057 200.773 43.3057 201.359V201.848C43.3057 202.377 43.3789 202.865 43.5254 203.312C43.68 203.76 43.8957 204.147 44.1724 204.472C44.4572 204.798 44.799 205.05 45.1978 205.229C45.6047 205.408 46.0645 205.498 46.5771 205.498C47.2119 205.498 47.8019 205.375 48.3472 205.131C48.9006 204.879 49.3766 204.501 49.7754 203.996L51.4844 205.852C51.2077 206.25 50.8293 206.633 50.3491 206.999C49.8771 207.365 49.3075 207.666 48.6401 207.902C47.9728 208.13 47.2119 208.244 46.3574 208.244ZM58.1738 208H54.646V194.194C54.646 193.071 54.8739 192.123 55.3296 191.35C55.7935 190.576 56.4526 189.991 57.3071 189.592C58.1698 189.193 59.2114 188.994 60.4321 188.994C61.1239 188.994 61.7952 189.063 62.4463 189.201C63.0973 189.331 63.7687 189.502 64.4604 189.714L63.9478 192.534C63.5002 192.395 63.02 192.265 62.5073 192.143C61.9946 192.021 61.3761 191.96 60.6519 191.96C59.8381 191.96 59.2196 192.151 58.7964 192.534C58.3813 192.908 58.1738 193.461 58.1738 194.194V208ZM60.7983 194.792V197.282H52.6807V194.792H60.7983ZM66.0962 194.792V208H62.5684V194.792H66.0962ZM72.749 189.25V208H69.2212V189.25H72.749ZM79.3652 189.25V208H75.8374V189.25H79.3652ZM92.0117 197.673V208H88.4961V194.792H91.8042L92.0117 197.673ZM95.9912 194.707L95.9302 197.966C95.7593 197.941 95.5518 197.921 95.3076 197.905C95.0716 197.88 94.856 197.868 94.6606 197.868C94.1642 197.868 93.7329 197.933 93.3667 198.063C93.0086 198.186 92.7075 198.369 92.4634 198.613C92.2274 198.857 92.0483 199.154 91.9263 199.504C91.8123 199.854 91.7472 200.253 91.731 200.7L91.0229 200.48C91.0229 199.626 91.1084 198.841 91.2793 198.125C91.4502 197.4 91.6984 196.77 92.0239 196.232C92.3576 195.695 92.7645 195.28 93.2446 194.987C93.7248 194.694 94.2741 194.548 94.8926 194.548C95.0879 194.548 95.2873 194.564 95.4907 194.597C95.6942 194.621 95.861 194.658 95.9912 194.707ZM103.486 208.244C102.461 208.244 101.541 208.081 100.728 207.756C99.9137 207.422 99.222 206.962 98.6523 206.376C98.0908 205.791 97.6595 205.111 97.3584 204.338C97.0573 203.557 96.9067 202.727 96.9067 201.848V201.359C96.9067 200.358 97.0492 199.443 97.334 198.613C97.6188 197.783 98.0257 197.062 98.5547 196.452C99.0918 195.842 99.7428 195.374 100.508 195.048C101.273 194.715 102.135 194.548 103.096 194.548C104.032 194.548 104.862 194.702 105.586 195.012C106.31 195.321 106.917 195.76 107.405 196.33C107.901 196.9 108.276 197.583 108.528 198.381C108.78 199.17 108.906 200.049 108.906 201.018V202.482H98.4082V200.139H105.452V199.87C105.452 199.382 105.362 198.946 105.183 198.564C105.012 198.173 104.752 197.864 104.402 197.636C104.052 197.408 103.604 197.294 103.059 197.294C102.595 197.294 102.196 197.396 101.863 197.6C101.529 197.803 101.257 198.088 101.045 198.454C100.841 198.82 100.687 199.252 100.581 199.748C100.483 200.236 100.435 200.773 100.435 201.359V201.848C100.435 202.377 100.508 202.865 100.654 203.312C100.809 203.76 101.025 204.147 101.301 204.472C101.586 204.798 101.928 205.05 102.327 205.229C102.734 205.408 103.193 205.498 103.706 205.498C104.341 205.498 104.931 205.375 105.476 205.131C106.029 204.879 106.506 204.501 106.904 203.996L108.613 205.852C108.337 206.25 107.958 206.633 107.478 206.999C107.006 207.365 106.436 207.666 105.769 207.902C105.102 208.13 104.341 208.244 103.486 208.244ZM114.424 197.526V208H110.896V194.792H114.204L114.424 197.526ZM113.936 200.932H112.959C112.959 200.013 113.069 199.166 113.289 198.393C113.516 197.612 113.846 196.936 114.277 196.367C114.717 195.789 115.258 195.341 115.901 195.024C116.544 194.707 117.288 194.548 118.135 194.548C118.721 194.548 119.258 194.637 119.746 194.816C120.234 194.987 120.653 195.26 121.003 195.634C121.361 196 121.638 196.481 121.833 197.075C122.029 197.661 122.126 198.365 122.126 199.187V208H118.611V199.577C118.611 198.975 118.529 198.511 118.367 198.186C118.204 197.86 117.972 197.632 117.671 197.502C117.378 197.372 117.024 197.307 116.609 197.307C116.153 197.307 115.754 197.4 115.413 197.587C115.079 197.775 114.802 198.035 114.583 198.369C114.363 198.694 114.2 199.077 114.094 199.516C113.988 199.956 113.936 200.428 113.936 200.932ZM121.797 200.529L120.54 200.688C120.54 199.825 120.645 199.024 120.857 198.283C121.077 197.543 121.398 196.892 121.821 196.33C122.253 195.769 122.786 195.333 123.42 195.024C124.055 194.707 124.788 194.548 125.618 194.548C126.252 194.548 126.83 194.641 127.351 194.829C127.872 195.008 128.315 195.297 128.682 195.695C129.056 196.086 129.341 196.599 129.536 197.233C129.74 197.868 129.841 198.645 129.841 199.565V208H126.313V199.565C126.313 198.955 126.232 198.491 126.069 198.173C125.915 197.848 125.687 197.624 125.386 197.502C125.093 197.372 124.743 197.307 124.336 197.307C123.913 197.307 123.542 197.392 123.225 197.563C122.908 197.726 122.643 197.954 122.432 198.247C122.22 198.54 122.061 198.881 121.956 199.272C121.85 199.654 121.797 200.074 121.797 200.529ZM136.274 194.792V208H132.747V194.792H136.274ZM132.527 191.35C132.527 190.837 132.706 190.414 133.064 190.08C133.422 189.746 133.902 189.58 134.504 189.58C135.098 189.58 135.575 189.746 135.933 190.08C136.299 190.414 136.482 190.837 136.482 191.35C136.482 191.862 136.299 192.285 135.933 192.619C135.575 192.953 135.098 193.12 134.504 193.12C133.902 193.12 133.422 192.953 133.064 192.619C132.706 192.285 132.527 191.862 132.527 191.35ZM142.622 197.612V208H139.106V194.792H142.402L142.622 197.612ZM142.109 200.932H141.157C141.157 199.956 141.283 199.077 141.536 198.295C141.788 197.506 142.142 196.835 142.598 196.281C143.053 195.72 143.595 195.292 144.221 195C144.856 194.698 145.564 194.548 146.345 194.548C146.964 194.548 147.529 194.637 148.042 194.816C148.555 194.995 148.994 195.28 149.36 195.671C149.735 196.062 150.02 196.578 150.215 197.221C150.418 197.864 150.52 198.649 150.52 199.577V208H146.98V199.565C146.98 198.979 146.899 198.523 146.736 198.198C146.573 197.872 146.333 197.644 146.016 197.514C145.706 197.376 145.324 197.307 144.868 197.307C144.396 197.307 143.985 197.4 143.635 197.587C143.293 197.775 143.009 198.035 142.781 198.369C142.561 198.694 142.394 199.077 142.28 199.516C142.166 199.956 142.109 200.428 142.109 200.932ZM160.994 205.119V189.25H164.534V208H161.348L160.994 205.119ZM152.644 201.555V201.298C152.644 200.289 152.758 199.374 152.986 198.552C153.214 197.722 153.547 197.01 153.987 196.416C154.426 195.821 154.967 195.362 155.61 195.036C156.253 194.711 156.986 194.548 157.808 194.548C158.581 194.548 159.256 194.711 159.834 195.036C160.42 195.362 160.916 195.826 161.323 196.428C161.738 197.022 162.072 197.726 162.324 198.54C162.576 199.345 162.76 200.228 162.874 201.188V201.75C162.76 202.67 162.576 203.524 162.324 204.313C162.072 205.103 161.738 205.795 161.323 206.389C160.916 206.975 160.42 207.43 159.834 207.756C159.248 208.081 158.564 208.244 157.783 208.244C156.961 208.244 156.229 208.077 155.586 207.744C154.951 207.41 154.414 206.942 153.975 206.34C153.543 205.738 153.214 205.03 152.986 204.216C152.758 203.402 152.644 202.515 152.644 201.555ZM156.16 201.298V201.555C156.16 202.1 156.2 202.609 156.282 203.081C156.371 203.553 156.514 203.972 156.709 204.338C156.912 204.696 157.173 204.977 157.49 205.18C157.816 205.375 158.21 205.473 158.674 205.473C159.277 205.473 159.773 205.339 160.164 205.07C160.554 204.794 160.851 204.415 161.055 203.935C161.266 203.455 161.388 202.902 161.421 202.275V200.676C161.396 200.163 161.323 199.703 161.201 199.296C161.087 198.881 160.916 198.527 160.688 198.234C160.469 197.941 160.192 197.714 159.858 197.551C159.533 197.388 159.146 197.307 158.699 197.307C158.243 197.307 157.852 197.412 157.527 197.624C157.201 197.827 156.937 198.108 156.733 198.466C156.538 198.824 156.392 199.248 156.294 199.736C156.204 200.216 156.16 200.737 156.16 201.298ZM173.359 208.244C172.334 208.244 171.414 208.081 170.601 207.756C169.787 207.422 169.095 206.962 168.525 206.376C167.964 205.791 167.533 205.111 167.231 204.338C166.93 203.557 166.78 202.727 166.78 201.848V201.359C166.78 200.358 166.922 199.443 167.207 198.613C167.492 197.783 167.899 197.062 168.428 196.452C168.965 195.842 169.616 195.374 170.381 195.048C171.146 194.715 172.008 194.548 172.969 194.548C173.905 194.548 174.735 194.702 175.459 195.012C176.183 195.321 176.79 195.76 177.278 196.33C177.774 196.9 178.149 197.583 178.401 198.381C178.653 199.17 178.779 200.049 178.779 201.018V202.482H168.281V200.139H175.325V199.87C175.325 199.382 175.235 198.946 175.056 198.564C174.885 198.173 174.625 197.864 174.275 197.636C173.925 197.408 173.477 197.294 172.932 197.294C172.468 197.294 172.069 197.396 171.736 197.6C171.402 197.803 171.13 198.088 170.918 198.454C170.715 198.82 170.56 199.252 170.454 199.748C170.356 200.236 170.308 200.773 170.308 201.359V201.848C170.308 202.377 170.381 202.865 170.527 203.312C170.682 203.76 170.898 204.147 171.174 204.472C171.459 204.798 171.801 205.05 172.2 205.229C172.607 205.408 173.066 205.498 173.579 205.498C174.214 205.498 174.804 205.375 175.349 205.131C175.903 204.879 176.379 204.501 176.777 203.996L178.486 205.852C178.21 206.25 177.831 206.633 177.351 206.999C176.879 207.365 176.309 207.666 175.642 207.902C174.975 208.13 174.214 208.244 173.359 208.244ZM184.297 197.673V208H180.781V194.792H184.089L184.297 197.673ZM188.276 194.707L188.215 197.966C188.044 197.941 187.837 197.921 187.593 197.905C187.357 197.88 187.141 197.868 186.946 197.868C186.449 197.868 186.018 197.933 185.652 198.063C185.294 198.186 184.993 198.369 184.749 198.613C184.513 198.857 184.333 199.154 184.211 199.504C184.097 199.854 184.032 200.253 184.016 200.7L183.308 200.48C183.308 199.626 183.394 198.841 183.564 198.125C183.735 197.4 183.984 196.77 184.309 196.232C184.643 195.695 185.05 195.28 185.53 194.987C186.01 194.694 186.559 194.548 187.178 194.548C187.373 194.548 187.572 194.564 187.776 194.597C187.979 194.621 188.146 194.658 188.276 194.707Z" fill="white"/>
<rect opacity="0.5" x="87.201" y="34" width="44" height="88" rx="22" transform="rotate(27.1827 87.201 34)" fill="white"/>
<circle opacity="0.5" cx="150.5" cy="104.5" r="24.5" fill="white"/>
<line x1="127.306" y1="92.0943" x2="176.306" y2="122.127" stroke="#B5C1E4" stroke-width="5"/>
<path d="M100.171 86.1906L76.6707 73.6906C73.004 82.1906 55.1707 107.191 67.6707 113.691C87.5343 124.02 96.3373 96.1906 100.171 86.1906Z" fill="#B5C1E4"/>
</svg>
