<svg width="240" height="240" viewBox="0 0 240 240" fill="none" xmlns="http://www.w3.org/2000/svg">
<rect width="240" height="240" fill="white"/>
<rect x="10" y="10" width="220" height="220" rx="20" fill="#B2DDAB"/>
<path d="M41.2988 151.672V173H36.9043V151.672H41.2988ZM49.7949 160.783V164.211H40.0977V160.783H49.7949ZM50.8203 151.672V155.114H40.0977V151.672H50.8203ZM57.5586 150.5V173H53.3252V150.5H57.5586ZM69.5996 169.426V162.365C69.5996 161.857 69.5166 161.423 69.3506 161.062C69.1846 160.69 68.9258 160.402 68.5742 160.197C68.2324 159.992 67.7881 159.89 67.2412 159.89C66.7725 159.89 66.3672 159.973 66.0254 160.139C65.6836 160.295 65.4199 160.524 65.2344 160.827C65.0488 161.12 64.9561 161.467 64.9561 161.867H60.7373C60.7373 161.193 60.8936 160.554 61.2061 159.948C61.5186 159.343 61.9727 158.811 62.5684 158.352C63.1641 157.883 63.8721 157.517 64.6924 157.253C65.5225 156.989 66.4502 156.857 67.4756 156.857C68.7061 156.857 69.7998 157.062 70.7568 157.473C71.7139 157.883 72.4658 158.498 73.0127 159.318C73.5693 160.139 73.8477 161.164 73.8477 162.395V169.177C73.8477 170.046 73.9014 170.759 74.0088 171.315C74.1162 171.862 74.2725 172.341 74.4775 172.751V173H70.2148C70.0098 172.57 69.8535 172.033 69.7461 171.389C69.6484 170.734 69.5996 170.08 69.5996 169.426ZM70.1562 163.347L70.1855 165.734H67.8271C67.2705 165.734 66.7871 165.798 66.377 165.925C65.9668 166.052 65.6299 166.232 65.3662 166.467C65.1025 166.691 64.9072 166.955 64.7803 167.258C64.6631 167.561 64.6045 167.893 64.6045 168.254C64.6045 168.615 64.6875 168.942 64.8535 169.235C65.0195 169.519 65.2588 169.743 65.5713 169.909C65.8838 170.065 66.25 170.144 66.6699 170.144C67.3047 170.144 67.8564 170.017 68.3252 169.763C68.7939 169.509 69.1553 169.196 69.4092 168.825C69.6729 168.454 69.8096 168.103 69.8193 167.771L70.9326 169.558C70.7764 169.958 70.5615 170.373 70.2881 170.803C70.0244 171.232 69.6875 171.638 69.2773 172.019C68.8672 172.39 68.374 172.697 67.7979 172.941C67.2217 173.176 66.5381 173.293 65.7471 173.293C64.7412 173.293 63.8281 173.093 63.0078 172.692C62.1973 172.282 61.5527 171.721 61.0742 171.008C60.6055 170.285 60.3711 169.465 60.3711 168.547C60.3711 167.717 60.5273 166.979 60.8398 166.335C61.1523 165.69 61.6113 165.148 62.2168 164.709C62.832 164.26 63.5986 163.923 64.5166 163.698C65.4346 163.464 66.499 163.347 67.71 163.347H70.1562ZM87.1338 157.15H90.957V172.473C90.957 173.918 90.6348 175.144 89.9902 176.149C89.3555 177.165 88.4668 177.932 87.3242 178.449C86.1816 178.977 84.8535 179.24 83.3398 179.24C82.6758 179.24 81.9727 179.152 81.2305 178.977C80.498 178.801 79.7949 178.527 79.1211 178.156C78.457 177.785 77.9004 177.316 77.4512 176.75L79.3115 174.26C79.7998 174.826 80.3662 175.266 81.0107 175.578C81.6553 175.9 82.3682 176.062 83.1494 176.062C83.9111 176.062 84.5557 175.92 85.083 175.637C85.6104 175.363 86.0156 174.958 86.2988 174.421C86.582 173.894 86.7236 173.254 86.7236 172.502V160.812L87.1338 157.15ZM76.4697 165.266V164.958C76.4697 163.747 76.6162 162.648 76.9092 161.662C77.2119 160.666 77.6367 159.812 78.1836 159.099C78.7402 158.386 79.4141 157.834 80.2051 157.443C80.9961 157.053 81.8896 156.857 82.8857 156.857C83.9404 156.857 84.8242 157.053 85.5371 157.443C86.25 157.834 86.8359 158.391 87.2949 159.113C87.7539 159.826 88.1104 160.671 88.3643 161.647C88.6279 162.614 88.833 163.674 88.9795 164.826V165.5C88.833 166.604 88.6133 167.629 88.3203 168.576C88.0273 169.523 87.6416 170.354 87.1631 171.066C86.6846 171.77 86.0889 172.316 85.376 172.707C84.6729 173.098 83.833 173.293 82.8564 173.293C81.8799 173.293 80.9961 173.093 80.2051 172.692C79.4238 172.292 78.7549 171.73 78.1982 171.008C77.6416 170.285 77.2119 169.436 76.9092 168.459C76.6162 167.482 76.4697 166.418 76.4697 165.266ZM80.6885 164.958V165.266C80.6885 165.92 80.752 166.53 80.8789 167.097C81.0059 167.663 81.2012 168.166 81.4648 168.605C81.7383 169.035 82.0752 169.372 82.4756 169.616C82.8857 169.851 83.3691 169.968 83.9258 169.968C84.6973 169.968 85.3271 169.807 85.8154 169.484C86.3037 169.152 86.6699 168.698 86.9141 168.122C87.1582 167.546 87.2998 166.882 87.3389 166.13V164.211C87.3193 163.596 87.2363 163.044 87.0898 162.556C86.9434 162.058 86.7383 161.633 86.4746 161.281C86.2109 160.93 85.8691 160.656 85.4492 160.461C85.0293 160.266 84.5312 160.168 83.9551 160.168C83.3984 160.168 82.915 160.295 82.5049 160.549C82.1045 160.793 81.7676 161.13 81.4941 161.56C81.2305 161.989 81.0303 162.497 80.8936 163.083C80.7568 163.659 80.6885 164.284 80.6885 164.958ZM106.162 150.5V173H101.929V150.5H106.162ZM118.203 169.426V162.365C118.203 161.857 118.12 161.423 117.954 161.062C117.788 160.69 117.529 160.402 117.178 160.197C116.836 159.992 116.392 159.89 115.845 159.89C115.376 159.89 114.971 159.973 114.629 160.139C114.287 160.295 114.023 160.524 113.838 160.827C113.652 161.12 113.56 161.467 113.56 161.867H109.341C109.341 161.193 109.497 160.554 109.81 159.948C110.122 159.343 110.576 158.811 111.172 158.352C111.768 157.883 112.476 157.517 113.296 157.253C114.126 156.989 115.054 156.857 116.079 156.857C117.31 156.857 118.403 157.062 119.36 157.473C120.317 157.883 121.069 158.498 121.616 159.318C122.173 160.139 122.451 161.164 122.451 162.395V169.177C122.451 170.046 122.505 170.759 122.612 171.315C122.72 171.862 122.876 172.341 123.081 172.751V173H118.818C118.613 172.57 118.457 172.033 118.35 171.389C118.252 170.734 118.203 170.08 118.203 169.426ZM118.76 163.347L118.789 165.734H116.431C115.874 165.734 115.391 165.798 114.98 165.925C114.57 166.052 114.233 166.232 113.97 166.467C113.706 166.691 113.511 166.955 113.384 167.258C113.267 167.561 113.208 167.893 113.208 168.254C113.208 168.615 113.291 168.942 113.457 169.235C113.623 169.519 113.862 169.743 114.175 169.909C114.487 170.065 114.854 170.144 115.273 170.144C115.908 170.144 116.46 170.017 116.929 169.763C117.397 169.509 117.759 169.196 118.013 168.825C118.276 168.454 118.413 168.103 118.423 167.771L119.536 169.558C119.38 169.958 119.165 170.373 118.892 170.803C118.628 171.232 118.291 171.638 117.881 172.019C117.471 172.39 116.978 172.697 116.401 172.941C115.825 173.176 115.142 173.293 114.351 173.293C113.345 173.293 112.432 173.093 111.611 172.692C110.801 172.282 110.156 171.721 109.678 171.008C109.209 170.285 108.975 169.465 108.975 168.547C108.975 167.717 109.131 166.979 109.443 166.335C109.756 165.69 110.215 165.148 110.82 164.709C111.436 164.26 112.202 163.923 113.12 163.698C114.038 163.464 115.103 163.347 116.313 163.347H118.76ZM129.922 160.607V173H125.703V157.15H129.673L129.922 160.607ZM134.697 157.048L134.624 160.959C134.419 160.93 134.17 160.905 133.877 160.886C133.594 160.856 133.335 160.842 133.101 160.842C132.505 160.842 131.987 160.92 131.548 161.076C131.118 161.223 130.757 161.442 130.464 161.735C130.181 162.028 129.966 162.385 129.819 162.805C129.683 163.225 129.604 163.703 129.585 164.24L128.735 163.977C128.735 162.951 128.838 162.009 129.043 161.149C129.248 160.28 129.546 159.523 129.937 158.879C130.337 158.234 130.825 157.736 131.401 157.385C131.978 157.033 132.637 156.857 133.379 156.857C133.613 156.857 133.853 156.877 134.097 156.916C134.341 156.945 134.541 156.989 134.697 157.048ZM146.431 157.15H150.254V172.473C150.254 173.918 149.932 175.144 149.287 176.149C148.652 177.165 147.764 177.932 146.621 178.449C145.479 178.977 144.15 179.24 142.637 179.24C141.973 179.24 141.27 179.152 140.527 178.977C139.795 178.801 139.092 178.527 138.418 178.156C137.754 177.785 137.197 177.316 136.748 176.75L138.608 174.26C139.097 174.826 139.663 175.266 140.308 175.578C140.952 175.9 141.665 176.062 142.446 176.062C143.208 176.062 143.853 175.92 144.38 175.637C144.907 175.363 145.312 174.958 145.596 174.421C145.879 173.894 146.021 173.254 146.021 172.502V160.812L146.431 157.15ZM135.767 165.266V164.958C135.767 163.747 135.913 162.648 136.206 161.662C136.509 160.666 136.934 159.812 137.48 159.099C138.037 158.386 138.711 157.834 139.502 157.443C140.293 157.053 141.187 156.857 142.183 156.857C143.237 156.857 144.121 157.053 144.834 157.443C145.547 157.834 146.133 158.391 146.592 159.113C147.051 159.826 147.407 160.671 147.661 161.647C147.925 162.614 148.13 163.674 148.276 164.826V165.5C148.13 166.604 147.91 167.629 147.617 168.576C147.324 169.523 146.938 170.354 146.46 171.066C145.981 171.77 145.386 172.316 144.673 172.707C143.97 173.098 143.13 173.293 142.153 173.293C141.177 173.293 140.293 173.093 139.502 172.692C138.721 172.292 138.052 171.73 137.495 171.008C136.938 170.285 136.509 169.436 136.206 168.459C135.913 167.482 135.767 166.418 135.767 165.266ZM139.985 164.958V165.266C139.985 165.92 140.049 166.53 140.176 167.097C140.303 167.663 140.498 168.166 140.762 168.605C141.035 169.035 141.372 169.372 141.772 169.616C142.183 169.851 142.666 169.968 143.223 169.968C143.994 169.968 144.624 169.807 145.112 169.484C145.601 169.152 145.967 168.698 146.211 168.122C146.455 167.546 146.597 166.882 146.636 166.13V164.211C146.616 163.596 146.533 163.044 146.387 162.556C146.24 162.058 146.035 161.633 145.771 161.281C145.508 160.93 145.166 160.656 144.746 160.461C144.326 160.266 143.828 160.168 143.252 160.168C142.695 160.168 142.212 160.295 141.802 160.549C141.401 160.793 141.064 161.13 140.791 161.56C140.527 161.989 140.327 162.497 140.19 163.083C140.054 163.659 139.985 164.284 139.985 164.958ZM160.83 173.293C159.6 173.293 158.496 173.098 157.52 172.707C156.543 172.307 155.713 171.755 155.029 171.052C154.355 170.349 153.838 169.533 153.477 168.605C153.115 167.668 152.935 166.672 152.935 165.617V165.031C152.935 163.83 153.105 162.731 153.447 161.735C153.789 160.739 154.277 159.875 154.912 159.143C155.557 158.41 156.338 157.849 157.256 157.458C158.174 157.058 159.209 156.857 160.361 156.857C161.484 156.857 162.48 157.043 163.35 157.414C164.219 157.785 164.946 158.312 165.532 158.996C166.128 159.68 166.577 160.5 166.88 161.457C167.183 162.404 167.334 163.459 167.334 164.621V166.379H154.736V163.566H163.188V163.244C163.188 162.658 163.081 162.136 162.866 161.677C162.661 161.208 162.349 160.837 161.929 160.563C161.509 160.29 160.972 160.153 160.317 160.153C159.761 160.153 159.282 160.275 158.882 160.52C158.481 160.764 158.154 161.105 157.9 161.545C157.656 161.984 157.471 162.502 157.344 163.098C157.227 163.684 157.168 164.328 157.168 165.031V165.617C157.168 166.252 157.256 166.838 157.432 167.375C157.617 167.912 157.876 168.376 158.208 168.767C158.55 169.157 158.96 169.46 159.438 169.675C159.927 169.89 160.479 169.997 161.094 169.997C161.855 169.997 162.563 169.851 163.218 169.558C163.882 169.255 164.453 168.801 164.932 168.195L166.982 170.422C166.65 170.9 166.196 171.359 165.62 171.799C165.054 172.238 164.37 172.6 163.569 172.883C162.769 173.156 161.855 173.293 160.83 173.293ZM44.4043 192.15V195.139H35.1758V192.15H44.4043ZM37.4609 188.239H41.6797V203.225C41.6797 203.684 41.7383 204.035 41.8555 204.279C41.9824 204.523 42.168 204.694 42.4121 204.792C42.6562 204.88 42.9639 204.924 43.335 204.924C43.5986 204.924 43.833 204.914 44.0381 204.895C44.2529 204.865 44.4336 204.836 44.5801 204.807L44.5947 207.912C44.2334 208.029 43.8428 208.122 43.4229 208.19C43.0029 208.259 42.5391 208.293 42.0312 208.293C41.1035 208.293 40.293 208.142 39.5996 207.839C38.916 207.526 38.3887 207.028 38.0176 206.345C37.6465 205.661 37.4609 204.763 37.4609 203.649V188.239ZM51.0254 195.607V208H46.8066V192.15H50.7764L51.0254 195.607ZM55.8008 192.048L55.7275 195.959C55.5225 195.93 55.2734 195.905 54.9805 195.886C54.6973 195.856 54.4385 195.842 54.2041 195.842C53.6084 195.842 53.0908 195.92 52.6514 196.076C52.2217 196.223 51.8604 196.442 51.5674 196.735C51.2842 197.028 51.0693 197.385 50.9229 197.805C50.7861 198.225 50.708 198.703 50.6885 199.24L49.8389 198.977C49.8389 197.951 49.9414 197.009 50.1465 196.149C50.3516 195.28 50.6494 194.523 51.04 193.879C51.4404 193.234 51.9287 192.736 52.5049 192.385C53.0811 192.033 53.7402 191.857 54.4824 191.857C54.7168 191.857 54.9561 191.877 55.2002 191.916C55.4443 191.945 55.6445 191.989 55.8008 192.048ZM65.8496 204.426V197.365C65.8496 196.857 65.7666 196.423 65.6006 196.062C65.4346 195.69 65.1758 195.402 64.8242 195.197C64.4824 194.992 64.0381 194.89 63.4912 194.89C63.0225 194.89 62.6172 194.973 62.2754 195.139C61.9336 195.295 61.6699 195.524 61.4844 195.827C61.2988 196.12 61.2061 196.467 61.2061 196.867H56.9873C56.9873 196.193 57.1436 195.554 57.4561 194.948C57.7686 194.343 58.2227 193.811 58.8184 193.352C59.4141 192.883 60.1221 192.517 60.9424 192.253C61.7725 191.989 62.7002 191.857 63.7256 191.857C64.9561 191.857 66.0498 192.062 67.0068 192.473C67.9639 192.883 68.7158 193.498 69.2627 194.318C69.8193 195.139 70.0977 196.164 70.0977 197.395V204.177C70.0977 205.046 70.1514 205.759 70.2588 206.315C70.3662 206.862 70.5225 207.341 70.7275 207.751V208H66.4648C66.2598 207.57 66.1035 207.033 65.9961 206.389C65.8984 205.734 65.8496 205.08 65.8496 204.426ZM66.4062 198.347L66.4355 200.734H64.0771C63.5205 200.734 63.0371 200.798 62.627 200.925C62.2168 201.052 61.8799 201.232 61.6162 201.467C61.3525 201.691 61.1572 201.955 61.0303 202.258C60.9131 202.561 60.8545 202.893 60.8545 203.254C60.8545 203.615 60.9375 203.942 61.1035 204.235C61.2695 204.519 61.5088 204.743 61.8213 204.909C62.1338 205.065 62.5 205.144 62.9199 205.144C63.5547 205.144 64.1064 205.017 64.5752 204.763C65.0439 204.509 65.4053 204.196 65.6592 203.825C65.9229 203.454 66.0596 203.103 66.0693 202.771L67.1826 204.558C67.0264 204.958 66.8115 205.373 66.5381 205.803C66.2744 206.232 65.9375 206.638 65.5273 207.019C65.1172 207.39 64.624 207.697 64.0479 207.941C63.4717 208.176 62.7881 208.293 61.9971 208.293C60.9912 208.293 60.0781 208.093 59.2578 207.692C58.4473 207.282 57.8027 206.721 57.3242 206.008C56.8555 205.285 56.6211 204.465 56.6211 203.547C56.6211 202.717 56.7773 201.979 57.0898 201.335C57.4023 200.69 57.8613 200.148 58.4668 199.709C59.082 199.26 59.8486 198.923 60.7666 198.698C61.6846 198.464 62.749 198.347 63.96 198.347H66.4062ZM77.4805 195.534V208H73.2617V192.15H77.2168L77.4805 195.534ZM76.8652 199.519H75.7227C75.7227 198.347 75.874 197.292 76.1768 196.354C76.4795 195.407 76.9043 194.602 77.4512 193.938C77.998 193.264 78.6475 192.751 79.3994 192.399C80.1611 192.038 81.0107 191.857 81.9482 191.857C82.6904 191.857 83.3691 191.965 83.9844 192.18C84.5996 192.395 85.127 192.736 85.5664 193.205C86.0156 193.674 86.3574 194.294 86.5918 195.065C86.8359 195.837 86.958 196.779 86.958 197.893V208H82.71V197.878C82.71 197.175 82.6123 196.628 82.417 196.237C82.2217 195.847 81.9336 195.573 81.5527 195.417C81.1816 195.251 80.7227 195.168 80.1758 195.168C79.6094 195.168 79.1162 195.28 78.6963 195.505C78.2861 195.729 77.9443 196.042 77.6709 196.442C77.4072 196.833 77.207 197.292 77.0703 197.819C76.9336 198.347 76.8652 198.913 76.8652 199.519ZM98.7354 203.62C98.7354 203.317 98.6475 203.044 98.4717 202.8C98.2959 202.556 97.9688 202.331 97.4902 202.126C97.0215 201.911 96.3428 201.716 95.4541 201.54C94.6533 201.364 93.9062 201.145 93.2129 200.881C92.5293 200.607 91.9336 200.28 91.4258 199.899C90.9277 199.519 90.5371 199.069 90.2539 198.552C89.9707 198.024 89.8291 197.424 89.8291 196.75C89.8291 196.086 89.9707 195.461 90.2539 194.875C90.5469 194.289 90.9619 193.771 91.499 193.322C92.0459 192.863 92.71 192.507 93.4912 192.253C94.2822 191.989 95.1709 191.857 96.1572 191.857C97.5342 191.857 98.7158 192.077 99.7021 192.517C100.698 192.956 101.46 193.562 101.987 194.333C102.524 195.095 102.793 195.964 102.793 196.94H98.5742C98.5742 196.53 98.4863 196.164 98.3105 195.842C98.1445 195.51 97.8809 195.251 97.5195 195.065C97.168 194.87 96.709 194.772 96.1426 194.772C95.6738 194.772 95.2686 194.855 94.9268 195.021C94.585 195.178 94.3213 195.393 94.1357 195.666C93.96 195.93 93.8721 196.223 93.8721 196.545C93.8721 196.789 93.9209 197.009 94.0186 197.204C94.126 197.39 94.2969 197.561 94.5312 197.717C94.7656 197.873 95.0684 198.02 95.4395 198.156C95.8203 198.283 96.2891 198.4 96.8457 198.508C97.9883 198.742 99.0088 199.05 99.9072 199.431C100.806 199.802 101.519 200.31 102.046 200.954C102.573 201.589 102.837 202.424 102.837 203.459C102.837 204.162 102.681 204.807 102.368 205.393C102.056 205.979 101.606 206.491 101.021 206.931C100.435 207.36 99.7314 207.697 98.9111 207.941C98.1006 208.176 97.1875 208.293 96.1719 208.293C94.6973 208.293 93.4473 208.029 92.4219 207.502C91.4062 206.975 90.6348 206.306 90.1074 205.495C89.5898 204.675 89.3311 203.835 89.3311 202.976H93.3301C93.3496 203.552 93.4961 204.016 93.7695 204.367C94.0527 204.719 94.4092 204.973 94.8389 205.129C95.2783 205.285 95.752 205.363 96.2598 205.363C96.8066 205.363 97.2607 205.29 97.6221 205.144C97.9834 204.987 98.2568 204.782 98.4424 204.528C98.6377 204.265 98.7354 203.962 98.7354 203.62ZM114.131 204.426V197.365C114.131 196.857 114.048 196.423 113.882 196.062C113.716 195.69 113.457 195.402 113.105 195.197C112.764 194.992 112.319 194.89 111.772 194.89C111.304 194.89 110.898 194.973 110.557 195.139C110.215 195.295 109.951 195.524 109.766 195.827C109.58 196.12 109.487 196.467 109.487 196.867H105.269C105.269 196.193 105.425 195.554 105.737 194.948C106.05 194.343 106.504 193.811 107.1 193.352C107.695 192.883 108.403 192.517 109.224 192.253C110.054 191.989 110.981 191.857 112.007 191.857C113.237 191.857 114.331 192.062 115.288 192.473C116.245 192.883 116.997 193.498 117.544 194.318C118.101 195.139 118.379 196.164 118.379 197.395V204.177C118.379 205.046 118.433 205.759 118.54 206.315C118.647 206.862 118.804 207.341 119.009 207.751V208H114.746C114.541 207.57 114.385 207.033 114.277 206.389C114.18 205.734 114.131 205.08 114.131 204.426ZM114.688 198.347L114.717 200.734H112.358C111.802 200.734 111.318 200.798 110.908 200.925C110.498 201.052 110.161 201.232 109.897 201.467C109.634 201.691 109.438 201.955 109.312 202.258C109.194 202.561 109.136 202.893 109.136 203.254C109.136 203.615 109.219 203.942 109.385 204.235C109.551 204.519 109.79 204.743 110.103 204.909C110.415 205.065 110.781 205.144 111.201 205.144C111.836 205.144 112.388 205.017 112.856 204.763C113.325 204.509 113.687 204.196 113.94 203.825C114.204 203.454 114.341 203.103 114.351 202.771L115.464 204.558C115.308 204.958 115.093 205.373 114.819 205.803C114.556 206.232 114.219 206.638 113.809 207.019C113.398 207.39 112.905 207.697 112.329 207.941C111.753 208.176 111.069 208.293 110.278 208.293C109.272 208.293 108.359 208.093 107.539 207.692C106.729 207.282 106.084 206.721 105.605 206.008C105.137 205.285 104.902 204.465 104.902 203.547C104.902 202.717 105.059 201.979 105.371 201.335C105.684 200.69 106.143 200.148 106.748 199.709C107.363 199.26 108.13 198.923 109.048 198.698C109.966 198.464 111.03 198.347 112.241 198.347H114.688ZM128.179 204.997C128.696 204.997 129.155 204.899 129.556 204.704C129.956 204.499 130.269 204.216 130.493 203.854C130.728 203.483 130.85 203.049 130.859 202.551H134.829C134.819 203.664 134.521 204.655 133.936 205.524C133.35 206.384 132.563 207.062 131.577 207.561C130.591 208.049 129.487 208.293 128.267 208.293C127.036 208.293 125.962 208.088 125.044 207.678C124.136 207.268 123.379 206.701 122.773 205.979C122.168 205.246 121.714 204.396 121.411 203.43C121.108 202.453 120.957 201.408 120.957 200.295V199.87C120.957 198.747 121.108 197.702 121.411 196.735C121.714 195.759 122.168 194.909 122.773 194.187C123.379 193.454 124.136 192.883 125.044 192.473C125.952 192.062 127.017 191.857 128.237 191.857C129.536 191.857 130.674 192.106 131.65 192.604C132.637 193.103 133.408 193.815 133.965 194.743C134.531 195.661 134.819 196.75 134.829 198.01H130.859C130.85 197.482 130.737 197.004 130.522 196.574C130.317 196.145 130.015 195.803 129.614 195.549C129.224 195.285 128.74 195.153 128.164 195.153C127.549 195.153 127.046 195.285 126.655 195.549C126.265 195.803 125.962 196.154 125.747 196.604C125.532 197.043 125.381 197.546 125.293 198.112C125.215 198.669 125.176 199.255 125.176 199.87V200.295C125.176 200.91 125.215 201.501 125.293 202.067C125.371 202.634 125.518 203.137 125.732 203.576C125.957 204.016 126.265 204.362 126.655 204.616C127.046 204.87 127.554 204.997 128.179 204.997ZM145.039 192.15V195.139H135.811V192.15H145.039ZM138.096 188.239H142.314V203.225C142.314 203.684 142.373 204.035 142.49 204.279C142.617 204.523 142.803 204.694 143.047 204.792C143.291 204.88 143.599 204.924 143.97 204.924C144.233 204.924 144.468 204.914 144.673 204.895C144.888 204.865 145.068 204.836 145.215 204.807L145.229 207.912C144.868 208.029 144.478 208.122 144.058 208.19C143.638 208.259 143.174 208.293 142.666 208.293C141.738 208.293 140.928 208.142 140.234 207.839C139.551 207.526 139.023 207.028 138.652 206.345C138.281 205.661 138.096 204.763 138.096 203.649V188.239ZM151.895 192.15V208H147.661V192.15H151.895ZM147.397 188.02C147.397 187.404 147.612 186.896 148.042 186.496C148.472 186.096 149.048 185.896 149.771 185.896C150.483 185.896 151.055 186.096 151.484 186.496C151.924 186.896 152.144 187.404 152.144 188.02C152.144 188.635 151.924 189.143 151.484 189.543C151.055 189.943 150.483 190.144 149.771 190.144C149.048 190.144 148.472 189.943 148.042 189.543C147.612 189.143 147.397 188.635 147.397 188.02ZM154.707 200.236V199.929C154.707 198.767 154.873 197.697 155.205 196.721C155.537 195.734 156.021 194.88 156.655 194.157C157.29 193.435 158.071 192.873 158.999 192.473C159.927 192.062 160.991 191.857 162.192 191.857C163.394 191.857 164.463 192.062 165.4 192.473C166.338 192.873 167.124 193.435 167.759 194.157C168.403 194.88 168.892 195.734 169.224 196.721C169.556 197.697 169.722 198.767 169.722 199.929V200.236C169.722 201.389 169.556 202.458 169.224 203.444C168.892 204.421 168.403 205.275 167.759 206.008C167.124 206.73 166.343 207.292 165.415 207.692C164.487 208.093 163.423 208.293 162.222 208.293C161.021 208.293 159.951 208.093 159.014 207.692C158.086 207.292 157.3 206.73 156.655 206.008C156.021 205.275 155.537 204.421 155.205 203.444C154.873 202.458 154.707 201.389 154.707 200.236ZM158.926 199.929V200.236C158.926 200.9 158.984 201.521 159.102 202.097C159.219 202.673 159.404 203.181 159.658 203.62C159.922 204.05 160.264 204.387 160.684 204.631C161.104 204.875 161.616 204.997 162.222 204.997C162.808 204.997 163.311 204.875 163.73 204.631C164.15 204.387 164.487 204.05 164.741 203.62C164.995 203.181 165.181 202.673 165.298 202.097C165.425 201.521 165.488 200.9 165.488 200.236V199.929C165.488 199.284 165.425 198.679 165.298 198.112C165.181 197.536 164.99 197.028 164.727 196.589C164.473 196.14 164.136 195.788 163.716 195.534C163.296 195.28 162.788 195.153 162.192 195.153C161.597 195.153 161.089 195.28 160.669 195.534C160.259 195.788 159.922 196.14 159.658 196.589C159.404 197.028 159.219 197.536 159.102 198.112C158.984 198.679 158.926 199.284 158.926 199.929ZM176.445 195.534V208H172.227V192.15H176.182L176.445 195.534ZM175.83 199.519H174.688C174.688 198.347 174.839 197.292 175.142 196.354C175.444 195.407 175.869 194.602 176.416 193.938C176.963 193.264 177.612 192.751 178.364 192.399C179.126 192.038 179.976 191.857 180.913 191.857C181.655 191.857 182.334 191.965 182.949 192.18C183.564 192.395 184.092 192.736 184.531 193.205C184.98 193.674 185.322 194.294 185.557 195.065C185.801 195.837 185.923 196.779 185.923 197.893V208H181.675V197.878C181.675 197.175 181.577 196.628 181.382 196.237C181.187 195.847 180.898 195.573 180.518 195.417C180.146 195.251 179.688 195.168 179.141 195.168C178.574 195.168 178.081 195.28 177.661 195.505C177.251 195.729 176.909 196.042 176.636 196.442C176.372 196.833 176.172 197.292 176.035 197.819C175.898 198.347 175.83 198.913 175.83 199.519ZM197.7 203.62C197.7 203.317 197.612 203.044 197.437 202.8C197.261 202.556 196.934 202.331 196.455 202.126C195.986 201.911 195.308 201.716 194.419 201.54C193.618 201.364 192.871 201.145 192.178 200.881C191.494 200.607 190.898 200.28 190.391 199.899C189.893 199.519 189.502 199.069 189.219 198.552C188.936 198.024 188.794 197.424 188.794 196.75C188.794 196.086 188.936 195.461 189.219 194.875C189.512 194.289 189.927 193.771 190.464 193.322C191.011 192.863 191.675 192.507 192.456 192.253C193.247 191.989 194.136 191.857 195.122 191.857C196.499 191.857 197.681 192.077 198.667 192.517C199.663 192.956 200.425 193.562 200.952 194.333C201.489 195.095 201.758 195.964 201.758 196.94H197.539C197.539 196.53 197.451 196.164 197.275 195.842C197.109 195.51 196.846 195.251 196.484 195.065C196.133 194.87 195.674 194.772 195.107 194.772C194.639 194.772 194.233 194.855 193.892 195.021C193.55 195.178 193.286 195.393 193.101 195.666C192.925 195.93 192.837 196.223 192.837 196.545C192.837 196.789 192.886 197.009 192.983 197.204C193.091 197.39 193.262 197.561 193.496 197.717C193.73 197.873 194.033 198.02 194.404 198.156C194.785 198.283 195.254 198.4 195.811 198.508C196.953 198.742 197.974 199.05 198.872 199.431C199.771 199.802 200.483 200.31 201.011 200.954C201.538 201.589 201.802 202.424 201.802 203.459C201.802 204.162 201.646 204.807 201.333 205.393C201.021 205.979 200.571 206.491 199.985 206.931C199.399 207.36 198.696 207.697 197.876 207.941C197.065 208.176 196.152 208.293 195.137 208.293C193.662 208.293 192.412 208.029 191.387 207.502C190.371 206.975 189.6 206.306 189.072 205.495C188.555 204.675 188.296 203.835 188.296 202.976H192.295C192.314 203.552 192.461 204.016 192.734 204.367C193.018 204.719 193.374 204.973 193.804 205.129C194.243 205.285 194.717 205.363 195.225 205.363C195.771 205.363 196.226 205.29 196.587 205.144C196.948 204.987 197.222 204.782 197.407 204.528C197.603 204.265 197.7 203.962 197.7 203.62Z" fill="white"/>
<rect x="81" y="74" width="20" height="59" fill="white" fill-opacity="0.5"/>
<rect x="150" y="100" width="20" height="33" fill="white" fill-opacity="0.5"/>
<rect x="185" y="100" width="20" height="33" fill="white" fill-opacity="0.5"/>
<rect x="48" y="119" width="20" height="14" fill="white" fill-opacity="0.5"/>
<rect x="114" y="27" width="19" height="106" fill="white" fill-opacity="0.5"/>
</svg>
