<svg width="240" height="240" viewBox="0 0 240 240" fill="none" xmlns="http://www.w3.org/2000/svg">
<rect width="240" height="240" fill="white"/>
<rect x="10" y="10" width="220" height="220" rx="20" fill="#F1A7A7"/>
<path d="M36.2593 161.227H39.3599L43.9253 174.276L48.4907 161.227H51.5913L45.1704 179H42.6802L36.2593 161.227ZM34.5869 161.227H37.6753L38.2368 173.946V179H34.5869V161.227ZM50.1753 161.227H53.2759V179H49.6138V173.946L50.1753 161.227ZM59.9775 165.792V179H56.4497V165.792H59.9775ZM56.23 162.35C56.23 161.837 56.409 161.414 56.7671 161.08C57.1252 160.746 57.6053 160.58 58.2075 160.58C58.8016 160.58 59.2777 160.746 59.6357 161.08C60.002 161.414 60.1851 161.837 60.1851 162.35C60.1851 162.862 60.002 163.285 59.6357 163.619C59.2777 163.953 58.8016 164.12 58.2075 164.12C57.6053 164.12 57.1252 163.953 56.7671 163.619C56.409 163.285 56.23 162.862 56.23 162.35ZM70.0239 175.35C70.0239 175.098 69.9507 174.87 69.8042 174.667C69.6577 174.463 69.3851 174.276 68.9863 174.105C68.5957 173.926 68.0301 173.763 67.2896 173.617C66.6222 173.47 65.9997 173.287 65.4219 173.067C64.8522 172.84 64.3558 172.567 63.9326 172.25C63.5176 171.932 63.1921 171.558 62.9561 171.126C62.7201 170.687 62.6021 170.187 62.6021 169.625C62.6021 169.072 62.7201 168.551 62.9561 168.062C63.2002 167.574 63.5461 167.143 63.9937 166.769C64.4494 166.386 65.0028 166.089 65.6538 165.877C66.313 165.658 67.0535 165.548 67.8755 165.548C69.0229 165.548 70.0076 165.731 70.8296 166.097C71.6597 166.463 72.2944 166.968 72.7339 167.611C73.1815 168.246 73.4053 168.97 73.4053 169.784H69.8896C69.8896 169.442 69.8164 169.137 69.6699 168.868C69.5316 168.591 69.3118 168.376 69.0107 168.221C68.7178 168.058 68.3353 167.977 67.8633 167.977C67.4727 167.977 67.1349 168.046 66.8501 168.185C66.5653 168.315 66.3455 168.494 66.1909 168.722C66.0444 168.941 65.9712 169.186 65.9712 169.454C65.9712 169.658 66.0119 169.841 66.0933 170.003C66.1828 170.158 66.3252 170.3 66.5205 170.431C66.7158 170.561 66.9681 170.683 67.2773 170.797C67.5947 170.903 67.9854 171 68.4492 171.09C69.4014 171.285 70.2518 171.542 71.0005 171.859C71.7492 172.168 72.3433 172.591 72.7827 173.128C73.2222 173.657 73.4419 174.353 73.4419 175.216C73.4419 175.802 73.3117 176.339 73.0513 176.827C72.7909 177.315 72.4165 177.743 71.9282 178.109C71.4399 178.467 70.854 178.748 70.1704 178.951C69.495 179.146 68.734 179.244 67.8877 179.244C66.6589 179.244 65.6172 179.024 64.7627 178.585C63.9163 178.146 63.2734 177.588 62.834 176.913C62.4027 176.229 62.187 175.529 62.187 174.813H65.5195C65.5358 175.293 65.6579 175.68 65.8857 175.973C66.1217 176.266 66.4188 176.477 66.7769 176.607C67.1431 176.738 67.5378 176.803 67.9609 176.803C68.4167 176.803 68.7951 176.742 69.0962 176.62C69.3973 176.489 69.6252 176.319 69.7798 176.107C69.9425 175.887 70.0239 175.635 70.0239 175.35ZM82.8657 175.35C82.8657 175.098 82.7925 174.87 82.646 174.667C82.4995 174.463 82.2269 174.276 81.8281 174.105C81.4375 173.926 80.8719 173.763 80.1313 173.617C79.464 173.47 78.8415 173.287 78.2637 173.067C77.694 172.84 77.1976 172.567 76.7744 172.25C76.3594 171.932 76.0339 171.558 75.7979 171.126C75.5618 170.687 75.4438 170.187 75.4438 169.625C75.4438 169.072 75.5618 168.551 75.7979 168.062C76.042 167.574 76.3879 167.143 76.8354 166.769C77.2912 166.386 77.8446 166.089 78.4956 165.877C79.1548 165.658 79.8953 165.548 80.7173 165.548C81.8647 165.548 82.8494 165.731 83.6714 166.097C84.5015 166.463 85.1362 166.968 85.5757 167.611C86.0233 168.246 86.2471 168.97 86.2471 169.784H82.7314C82.7314 169.442 82.6582 169.137 82.5117 168.868C82.3734 168.591 82.1536 168.376 81.8525 168.221C81.5596 168.058 81.1771 167.977 80.7051 167.977C80.3145 167.977 79.9767 168.046 79.6919 168.185C79.4071 168.315 79.1873 168.494 79.0327 168.722C78.8862 168.941 78.813 169.186 78.813 169.454C78.813 169.658 78.8537 169.841 78.9351 170.003C79.0246 170.158 79.167 170.3 79.3623 170.431C79.5576 170.561 79.8099 170.683 80.1191 170.797C80.4365 170.903 80.8271 171 81.291 171.09C82.2432 171.285 83.0936 171.542 83.8423 171.859C84.591 172.168 85.1851 172.591 85.6245 173.128C86.064 173.657 86.2837 174.353 86.2837 175.216C86.2837 175.802 86.1535 176.339 85.8931 176.827C85.6326 177.315 85.2583 177.743 84.77 178.109C84.2817 178.467 83.6958 178.748 83.0122 178.951C82.3368 179.146 81.5758 179.244 80.7295 179.244C79.5007 179.244 78.459 179.024 77.6045 178.585C76.7581 178.146 76.1152 177.588 75.6758 176.913C75.2445 176.229 75.0288 175.529 75.0288 174.813H78.3613C78.3776 175.293 78.4997 175.68 78.7275 175.973C78.9635 176.266 79.2606 176.477 79.6187 176.607C79.9849 176.738 80.3796 176.803 80.8027 176.803C81.2585 176.803 81.6369 176.742 81.938 176.62C82.2391 176.489 82.467 176.319 82.6216 176.107C82.7843 175.887 82.8657 175.635 82.8657 175.35ZM92.2773 165.792V179H88.7495V165.792H92.2773ZM88.5298 162.35C88.5298 161.837 88.7088 161.414 89.0669 161.08C89.425 160.746 89.9051 160.58 90.5073 160.58C91.1014 160.58 91.5775 160.746 91.9355 161.08C92.3018 161.414 92.4849 161.837 92.4849 162.35C92.4849 162.862 92.3018 163.285 91.9355 163.619C91.5775 163.953 91.1014 164.12 90.5073 164.12C89.9051 164.12 89.425 163.953 89.0669 163.619C88.7088 163.285 88.5298 162.862 88.5298 162.35ZM98.625 168.612V179H95.1094V165.792H98.4053L98.625 168.612ZM98.1123 171.932H97.1602C97.1602 170.956 97.2863 170.077 97.5386 169.295C97.7909 168.506 98.1449 167.835 98.6006 167.281C99.0563 166.72 99.5975 166.292 100.224 166C100.859 165.698 101.567 165.548 102.348 165.548C102.967 165.548 103.532 165.637 104.045 165.816C104.558 165.995 104.997 166.28 105.363 166.671C105.738 167.062 106.022 167.578 106.218 168.221C106.421 168.864 106.523 169.649 106.523 170.577V179H102.983V170.565C102.983 169.979 102.902 169.523 102.739 169.198C102.576 168.872 102.336 168.644 102.019 168.514C101.709 168.376 101.327 168.307 100.871 168.307C100.399 168.307 99.9881 168.4 99.6382 168.587C99.2964 168.775 99.0116 169.035 98.7837 169.369C98.564 169.694 98.3971 170.077 98.2832 170.516C98.1693 170.956 98.1123 171.428 98.1123 171.932ZM117.558 165.792H120.744V178.561C120.744 179.765 120.476 180.786 119.938 181.625C119.41 182.471 118.669 183.11 117.717 183.541C116.765 183.98 115.658 184.2 114.396 184.2C113.843 184.2 113.257 184.127 112.639 183.98C112.028 183.834 111.442 183.606 110.881 183.297C110.327 182.988 109.864 182.597 109.489 182.125L111.04 180.05C111.446 180.522 111.918 180.888 112.456 181.148C112.993 181.417 113.587 181.551 114.238 181.551C114.873 181.551 115.41 181.433 115.849 181.197C116.289 180.969 116.626 180.632 116.862 180.184C117.098 179.745 117.216 179.212 117.216 178.585V168.844L117.558 165.792ZM108.671 172.555V172.298C108.671 171.289 108.793 170.374 109.038 169.552C109.29 168.722 109.644 168.01 110.1 167.416C110.563 166.821 111.125 166.362 111.784 166.036C112.443 165.711 113.188 165.548 114.018 165.548C114.897 165.548 115.633 165.711 116.228 166.036C116.822 166.362 117.31 166.826 117.692 167.428C118.075 168.022 118.372 168.726 118.583 169.54C118.803 170.345 118.974 171.228 119.096 172.188V172.75C118.974 173.67 118.791 174.524 118.547 175.313C118.303 176.103 117.981 176.795 117.583 177.389C117.184 177.975 116.687 178.43 116.093 178.756C115.507 179.081 114.807 179.244 113.994 179.244C113.18 179.244 112.443 179.077 111.784 178.744C111.133 178.41 110.576 177.942 110.112 177.34C109.648 176.738 109.29 176.03 109.038 175.216C108.793 174.402 108.671 173.515 108.671 172.555ZM112.187 172.298V172.555C112.187 173.1 112.24 173.609 112.346 174.081C112.451 174.553 112.614 174.972 112.834 175.338C113.062 175.696 113.343 175.977 113.676 176.18C114.018 176.375 114.421 176.473 114.885 176.473C115.528 176.473 116.053 176.339 116.459 176.07C116.866 175.794 117.172 175.415 117.375 174.935C117.578 174.455 117.696 173.902 117.729 173.275V171.676C117.713 171.163 117.644 170.703 117.521 170.296C117.399 169.881 117.229 169.527 117.009 169.234C116.789 168.941 116.504 168.714 116.154 168.551C115.804 168.388 115.389 168.307 114.909 168.307C114.445 168.307 114.042 168.412 113.701 168.624C113.367 168.827 113.086 169.108 112.858 169.466C112.639 169.824 112.472 170.248 112.358 170.736C112.244 171.216 112.187 171.737 112.187 172.298ZM41.4961 205.021V199.138C41.4961 198.715 41.4269 198.352 41.2886 198.051C41.1502 197.742 40.9346 197.502 40.6416 197.331C40.3568 197.16 39.9865 197.075 39.5308 197.075C39.1401 197.075 38.8024 197.144 38.5176 197.282C38.2327 197.412 38.013 197.604 37.8584 197.856C37.7038 198.1 37.6265 198.389 37.6265 198.723H34.1108C34.1108 198.161 34.241 197.628 34.5015 197.124C34.7619 196.619 35.1403 196.175 35.6367 195.793C36.1331 195.402 36.7231 195.097 37.4067 194.877C38.0985 194.658 38.8716 194.548 39.7261 194.548C40.7515 194.548 41.6629 194.719 42.4604 195.061C43.258 195.402 43.8846 195.915 44.3403 196.599C44.8042 197.282 45.0361 198.137 45.0361 199.162V204.814C45.0361 205.538 45.0809 206.132 45.1704 206.596C45.2599 207.052 45.3901 207.451 45.561 207.792V208H42.0088C41.8379 207.642 41.7077 207.194 41.6182 206.657C41.5368 206.112 41.4961 205.567 41.4961 205.021ZM41.96 199.956L41.9844 201.945H40.019C39.5552 201.945 39.1523 201.998 38.8105 202.104C38.4688 202.21 38.188 202.36 37.9683 202.556C37.7485 202.743 37.5858 202.963 37.48 203.215C37.3823 203.467 37.3335 203.744 37.3335 204.045C37.3335 204.346 37.4027 204.619 37.541 204.863C37.6794 205.099 37.8787 205.286 38.1392 205.424C38.3996 205.555 38.7048 205.62 39.0547 205.62C39.5837 205.62 40.0435 205.514 40.4341 205.302C40.8247 205.091 41.1258 204.83 41.3374 204.521C41.5571 204.212 41.6711 203.919 41.6792 203.642L42.6069 205.131C42.4767 205.465 42.2977 205.811 42.0698 206.169C41.8501 206.527 41.5693 206.865 41.2275 207.182C40.8857 207.491 40.4748 207.748 39.9946 207.951C39.5145 208.146 38.9448 208.244 38.2856 208.244C37.4474 208.244 36.6865 208.077 36.0029 207.744C35.3275 207.402 34.7904 206.934 34.3916 206.34C34.001 205.738 33.8057 205.054 33.8057 204.289C33.8057 203.597 33.9359 202.983 34.1963 202.446C34.4567 201.909 34.8392 201.457 35.3438 201.091C35.8564 200.716 36.4953 200.436 37.2603 200.249C38.0252 200.053 38.9123 199.956 39.9214 199.956H41.96ZM55.5464 205.119V189.25H59.0864V208H55.9004L55.5464 205.119ZM47.1968 201.555V201.298C47.1968 200.289 47.3107 199.374 47.5386 198.552C47.7664 197.722 48.1001 197.01 48.5396 196.416C48.979 195.821 49.5202 195.362 50.1631 195.036C50.806 194.711 51.5384 194.548 52.3604 194.548C53.1335 194.548 53.8089 194.711 54.3867 195.036C54.9727 195.362 55.4691 195.826 55.876 196.428C56.291 197.022 56.6247 197.726 56.877 198.54C57.1292 199.345 57.3123 200.228 57.4263 201.188V201.75C57.3123 202.67 57.1292 203.524 56.877 204.313C56.6247 205.103 56.291 205.795 55.876 206.389C55.4691 206.975 54.9727 207.43 54.3867 207.756C53.8008 208.081 53.1172 208.244 52.3359 208.244C51.514 208.244 50.7816 208.077 50.1387 207.744C49.5039 207.41 48.9668 206.942 48.5273 206.34C48.096 205.738 47.7664 205.03 47.5386 204.216C47.3107 203.402 47.1968 202.515 47.1968 201.555ZM50.7124 201.298V201.555C50.7124 202.1 50.7531 202.609 50.8345 203.081C50.924 203.553 51.0664 203.972 51.2617 204.338C51.4652 204.696 51.7256 204.977 52.043 205.18C52.3685 205.375 52.7632 205.473 53.2271 205.473C53.8293 205.473 54.3257 205.339 54.7163 205.07C55.1069 204.794 55.404 204.415 55.6074 203.935C55.819 203.455 55.9411 202.902 55.9736 202.275V200.676C55.9492 200.163 55.876 199.703 55.7539 199.296C55.64 198.881 55.4691 198.527 55.2412 198.234C55.0215 197.941 54.7448 197.714 54.4111 197.551C54.0856 197.388 53.6991 197.307 53.2515 197.307C52.7957 197.307 52.4051 197.412 52.0796 197.624C51.7541 197.827 51.4896 198.108 51.2861 198.466C51.0908 198.824 50.9443 199.248 50.8467 199.736C50.7572 200.216 50.7124 200.737 50.7124 201.298ZM69.6333 205.119V189.25H73.1733V208H69.9873L69.6333 205.119ZM61.2837 201.555V201.298C61.2837 200.289 61.3976 199.374 61.6255 198.552C61.8534 197.722 62.187 197.01 62.6265 196.416C63.0659 195.821 63.6071 195.362 64.25 195.036C64.8929 194.711 65.6253 194.548 66.4473 194.548C67.2204 194.548 67.8958 194.711 68.4736 195.036C69.0596 195.362 69.556 195.826 69.9629 196.428C70.3779 197.022 70.7116 197.726 70.9639 198.54C71.2161 199.345 71.3993 200.228 71.5132 201.188V201.75C71.3993 202.67 71.2161 203.524 70.9639 204.313C70.7116 205.103 70.3779 205.795 69.9629 206.389C69.556 206.975 69.0596 207.43 68.4736 207.756C67.8877 208.081 67.2041 208.244 66.4229 208.244C65.6009 208.244 64.8685 208.077 64.2256 207.744C63.5908 207.41 63.0537 206.942 62.6143 206.34C62.1829 205.738 61.8534 205.03 61.6255 204.216C61.3976 203.402 61.2837 202.515 61.2837 201.555ZM64.7993 201.298V201.555C64.7993 202.1 64.84 202.609 64.9214 203.081C65.0109 203.553 65.1533 203.972 65.3486 204.338C65.5521 204.696 65.8125 204.977 66.1299 205.18C66.4554 205.375 66.8501 205.473 67.314 205.473C67.9162 205.473 68.4126 205.339 68.8032 205.07C69.1938 204.794 69.4909 204.415 69.6943 203.935C69.9059 203.455 70.028 202.902 70.0605 202.275V200.676C70.0361 200.163 69.9629 199.703 69.8408 199.296C69.7269 198.881 69.556 198.527 69.3281 198.234C69.1084 197.941 68.8317 197.714 68.498 197.551C68.1725 197.388 67.786 197.307 67.3384 197.307C66.8826 197.307 66.492 197.412 66.1665 197.624C65.841 197.827 65.5765 198.108 65.373 198.466C65.1777 198.824 65.0312 199.248 64.9336 199.736C64.8441 200.216 64.7993 200.737 64.7993 201.298ZM79.4355 197.673V208H75.9199V194.792H79.228L79.4355 197.673ZM83.415 194.707L83.354 197.966C83.1831 197.941 82.9756 197.921 82.7314 197.905C82.4954 197.88 82.2798 197.868 82.0845 197.868C81.5881 197.868 81.1567 197.933 80.7905 198.063C80.4325 198.186 80.1313 198.369 79.8872 198.613C79.6512 198.857 79.4722 199.154 79.3501 199.504C79.2362 199.854 79.1711 200.253 79.1548 200.7L78.4468 200.48C78.4468 199.626 78.5322 198.841 78.7031 198.125C78.874 197.4 79.1222 196.77 79.4478 196.232C79.7814 195.695 80.1883 195.28 80.6685 194.987C81.1486 194.694 81.6979 194.548 82.3164 194.548C82.5117 194.548 82.7111 194.564 82.9146 194.597C83.118 194.621 83.2848 194.658 83.415 194.707ZM90.9102 208.244C89.8848 208.244 88.9652 208.081 88.1514 207.756C87.3376 207.422 86.6458 206.962 86.0762 206.376C85.5146 205.791 85.0833 205.111 84.7822 204.338C84.4811 203.557 84.3306 202.727 84.3306 201.848V201.359C84.3306 200.358 84.473 199.443 84.7578 198.613C85.0426 197.783 85.4495 197.062 85.9785 196.452C86.5156 195.842 87.1667 195.374 87.9316 195.048C88.6966 194.715 89.5592 194.548 90.5195 194.548C91.4554 194.548 92.2855 194.702 93.0098 195.012C93.734 195.321 94.3403 195.76 94.8286 196.33C95.325 196.9 95.6994 197.583 95.9517 198.381C96.2039 199.17 96.3301 200.049 96.3301 201.018V202.482H85.832V200.139H92.8755V199.87C92.8755 199.382 92.786 198.946 92.6069 198.564C92.436 198.173 92.1756 197.864 91.8257 197.636C91.4757 197.408 91.0282 197.294 90.4829 197.294C90.019 197.294 89.6203 197.396 89.2866 197.6C88.953 197.803 88.6803 198.088 88.4688 198.454C88.2653 198.82 88.1107 199.252 88.0049 199.748C87.9072 200.236 87.8584 200.773 87.8584 201.359V201.848C87.8584 202.377 87.9316 202.865 88.0781 203.312C88.2327 203.76 88.4484 204.147 88.7251 204.472C89.0099 204.798 89.3517 205.05 89.7505 205.229C90.1574 205.408 90.6172 205.498 91.1299 205.498C91.7646 205.498 92.3547 205.375 92.8999 205.131C93.4533 204.879 93.9294 204.501 94.3281 203.996L96.0371 205.852C95.7604 206.25 95.382 206.633 94.9019 206.999C94.4299 207.365 93.8602 207.666 93.1929 207.902C92.5256 208.13 91.7646 208.244 90.9102 208.244ZM105.473 204.35C105.473 204.098 105.4 203.87 105.253 203.667C105.107 203.463 104.834 203.276 104.436 203.105C104.045 202.926 103.479 202.763 102.739 202.617C102.071 202.47 101.449 202.287 100.871 202.067C100.301 201.84 99.805 201.567 99.3818 201.25C98.9668 200.932 98.6413 200.558 98.4053 200.126C98.1693 199.687 98.0513 199.187 98.0513 198.625C98.0513 198.072 98.1693 197.551 98.4053 197.062C98.6494 196.574 98.9953 196.143 99.4429 195.769C99.8986 195.386 100.452 195.089 101.103 194.877C101.762 194.658 102.503 194.548 103.325 194.548C104.472 194.548 105.457 194.731 106.279 195.097C107.109 195.463 107.744 195.968 108.183 196.611C108.631 197.246 108.854 197.97 108.854 198.784H105.339C105.339 198.442 105.266 198.137 105.119 197.868C104.981 197.591 104.761 197.376 104.46 197.221C104.167 197.058 103.785 196.977 103.312 196.977C102.922 196.977 102.584 197.046 102.299 197.185C102.014 197.315 101.795 197.494 101.64 197.722C101.494 197.941 101.42 198.186 101.42 198.454C101.42 198.658 101.461 198.841 101.542 199.003C101.632 199.158 101.774 199.3 101.97 199.431C102.165 199.561 102.417 199.683 102.727 199.797C103.044 199.903 103.435 200 103.898 200.09C104.851 200.285 105.701 200.542 106.45 200.859C107.198 201.168 107.792 201.591 108.232 202.128C108.671 202.657 108.891 203.353 108.891 204.216C108.891 204.802 108.761 205.339 108.5 205.827C108.24 206.315 107.866 206.743 107.377 207.109C106.889 207.467 106.303 207.748 105.62 207.951C104.944 208.146 104.183 208.244 103.337 208.244C102.108 208.244 101.066 208.024 100.212 207.585C99.3656 207.146 98.7227 206.588 98.2832 205.913C97.8519 205.229 97.6362 204.529 97.6362 203.813H100.969C100.985 204.293 101.107 204.68 101.335 204.973C101.571 205.266 101.868 205.477 102.226 205.607C102.592 205.738 102.987 205.803 103.41 205.803C103.866 205.803 104.244 205.742 104.545 205.62C104.847 205.489 105.074 205.319 105.229 205.107C105.392 204.887 105.473 204.635 105.473 204.35ZM118.315 204.35C118.315 204.098 118.242 203.87 118.095 203.667C117.949 203.463 117.676 203.276 117.277 203.105C116.887 202.926 116.321 202.763 115.581 202.617C114.913 202.47 114.291 202.287 113.713 202.067C113.143 201.84 112.647 201.567 112.224 201.25C111.809 200.932 111.483 200.558 111.247 200.126C111.011 199.687 110.893 199.187 110.893 198.625C110.893 198.072 111.011 197.551 111.247 197.062C111.491 196.574 111.837 196.143 112.285 195.769C112.74 195.386 113.294 195.089 113.945 194.877C114.604 194.658 115.345 194.548 116.167 194.548C117.314 194.548 118.299 194.731 119.121 195.097C119.951 195.463 120.585 195.968 121.025 196.611C121.472 197.246 121.696 197.97 121.696 198.784H118.181C118.181 198.442 118.107 198.137 117.961 197.868C117.823 197.591 117.603 197.376 117.302 197.221C117.009 197.058 116.626 196.977 116.154 196.977C115.764 196.977 115.426 197.046 115.141 197.185C114.856 197.315 114.637 197.494 114.482 197.722C114.335 197.941 114.262 198.186 114.262 198.454C114.262 198.658 114.303 198.841 114.384 199.003C114.474 199.158 114.616 199.3 114.812 199.431C115.007 199.561 115.259 199.683 115.568 199.797C115.886 199.903 116.276 200 116.74 200.09C117.692 200.285 118.543 200.542 119.292 200.859C120.04 201.168 120.634 201.591 121.074 202.128C121.513 202.657 121.733 203.353 121.733 204.216C121.733 204.802 121.603 205.339 121.342 205.827C121.082 206.315 120.708 206.743 120.219 207.109C119.731 207.467 119.145 207.748 118.461 207.951C117.786 208.146 117.025 208.244 116.179 208.244C114.95 208.244 113.908 208.024 113.054 207.585C112.207 207.146 111.564 206.588 111.125 205.913C110.694 205.229 110.478 204.529 110.478 203.813H113.811C113.827 204.293 113.949 204.68 114.177 204.973C114.413 205.266 114.71 205.477 115.068 205.607C115.434 205.738 115.829 205.803 116.252 205.803C116.708 205.803 117.086 205.742 117.387 205.62C117.688 205.489 117.916 205.319 118.071 205.107C118.234 204.887 118.315 204.635 118.315 204.35ZM133.952 194.792V208H130.424V194.792H133.952ZM130.205 191.35C130.205 190.837 130.384 190.414 130.742 190.08C131.1 189.746 131.58 189.58 132.182 189.58C132.776 189.58 133.252 189.746 133.61 190.08C133.977 190.414 134.16 190.837 134.16 191.35C134.16 191.862 133.977 192.285 133.61 192.619C133.252 192.953 132.776 193.12 132.182 193.12C131.58 193.12 131.1 192.953 130.742 192.619C130.384 192.285 130.205 191.862 130.205 191.35ZM140.3 197.612V208H136.784V194.792H140.08L140.3 197.612ZM139.787 200.932H138.835C138.835 199.956 138.961 199.077 139.213 198.295C139.466 197.506 139.82 196.835 140.275 196.281C140.731 195.72 141.272 195.292 141.899 195C142.534 194.698 143.242 194.548 144.023 194.548C144.641 194.548 145.207 194.637 145.72 194.816C146.232 194.995 146.672 195.28 147.038 195.671C147.412 196.062 147.697 196.578 147.893 197.221C148.096 197.864 148.198 198.649 148.198 199.577V208H144.658V199.565C144.658 198.979 144.576 198.523 144.414 198.198C144.251 197.872 144.011 197.644 143.693 197.514C143.384 197.376 143.002 197.307 142.546 197.307C142.074 197.307 141.663 197.4 141.313 197.587C140.971 197.775 140.686 198.035 140.458 198.369C140.239 198.694 140.072 199.077 139.958 199.516C139.844 199.956 139.787 200.428 139.787 200.932ZM155.351 208H151.811V193.62C151.811 192.619 152.006 191.777 152.397 191.093C152.796 190.402 153.353 189.881 154.069 189.531C154.794 189.173 155.652 188.994 156.645 188.994C156.971 188.994 157.284 189.018 157.585 189.067C157.886 189.108 158.179 189.16 158.464 189.226L158.427 191.875C158.273 191.834 158.11 191.805 157.939 191.789C157.768 191.773 157.569 191.765 157.341 191.765C156.918 191.765 156.556 191.838 156.254 191.984C155.961 192.123 155.738 192.33 155.583 192.607C155.428 192.884 155.351 193.221 155.351 193.62V208ZM157.988 194.792V197.282H149.846V194.792H157.988ZM159.27 201.53V201.274C159.27 200.306 159.408 199.414 159.685 198.601C159.961 197.779 160.364 197.067 160.893 196.464C161.422 195.862 162.073 195.394 162.846 195.061C163.619 194.719 164.506 194.548 165.507 194.548C166.508 194.548 167.399 194.719 168.181 195.061C168.962 195.394 169.617 195.862 170.146 196.464C170.683 197.067 171.09 197.779 171.367 198.601C171.643 199.414 171.782 200.306 171.782 201.274V201.53C171.782 202.491 171.643 203.382 171.367 204.204C171.09 205.017 170.683 205.729 170.146 206.34C169.617 206.942 168.966 207.41 168.193 207.744C167.42 208.077 166.533 208.244 165.532 208.244C164.531 208.244 163.64 208.077 162.858 207.744C162.085 207.41 161.43 206.942 160.893 206.34C160.364 205.729 159.961 205.017 159.685 204.204C159.408 203.382 159.27 202.491 159.27 201.53ZM162.785 201.274V201.53C162.785 202.084 162.834 202.6 162.932 203.081C163.029 203.561 163.184 203.984 163.396 204.35C163.615 204.708 163.9 204.989 164.25 205.192C164.6 205.396 165.027 205.498 165.532 205.498C166.02 205.498 166.439 205.396 166.789 205.192C167.139 204.989 167.42 204.708 167.631 204.35C167.843 203.984 167.998 203.561 168.095 203.081C168.201 202.6 168.254 202.084 168.254 201.53V201.274C168.254 200.737 168.201 200.232 168.095 199.76C167.998 199.28 167.839 198.857 167.619 198.491C167.408 198.116 167.127 197.823 166.777 197.612C166.427 197.4 166.004 197.294 165.507 197.294C165.011 197.294 164.588 197.4 164.238 197.612C163.896 197.823 163.615 198.116 163.396 198.491C163.184 198.857 163.029 199.28 162.932 199.76C162.834 200.232 162.785 200.737 162.785 201.274Z" fill="white"/>
<rect x="30.5" y="55.5" width="180" height="25" rx="2.5" stroke="white" stroke-opacity="0.5" stroke-width="5"/>
<rect x="30.5" y="97.5" width="57" height="25" rx="2.5" stroke="white" stroke-opacity="0.5" stroke-width="5"/>
<rect x="100.5" y="97.5" width="110" height="25" rx="2.5" stroke="white" stroke-opacity="0.5" stroke-width="5"/>
</svg>
