<svg width="240" height="240" viewBox="0 0 240 240" fill="none" xmlns="http://www.w3.org/2000/svg">
<rect width="240" height="240" fill="white"/>
<rect x="10" y="10" width="220" height="220" rx="20" fill="#B2DDAB"/>
<path d="M34.5869 189.227H41.2153C42.5744 189.227 43.7422 189.43 44.7188 189.837C45.7035 190.244 46.4603 190.846 46.9893 191.644C47.5182 192.441 47.7827 193.422 47.7827 194.585C47.7827 195.538 47.62 196.355 47.2944 197.039C46.9771 197.715 46.5254 198.28 45.9395 198.736C45.3617 199.183 44.6821 199.542 43.9009 199.81L42.7412 200.42H36.9795L36.9551 197.564H41.2397C41.8826 197.564 42.4157 197.45 42.8389 197.222C43.262 196.994 43.5794 196.677 43.791 196.27C44.0107 195.863 44.1206 195.391 44.1206 194.854C44.1206 194.284 44.0148 193.792 43.8032 193.377C43.5916 192.962 43.2702 192.645 42.8389 192.425C42.4076 192.205 41.8664 192.095 41.2153 192.095H38.249V207H34.5869V189.227ZM44.5234 207L40.4707 199.078L44.3403 199.053L48.4419 206.829V207H44.5234ZM56.4619 207.244C55.4365 207.244 54.5169 207.081 53.7031 206.756C52.8893 206.422 52.1976 205.962 51.6279 205.376C51.0664 204.791 50.6351 204.111 50.334 203.338C50.0329 202.557 49.8823 201.727 49.8823 200.848V200.359C49.8823 199.358 50.0247 198.443 50.3096 197.613C50.5944 196.783 51.0013 196.062 51.5303 195.452C52.0674 194.842 52.7184 194.374 53.4834 194.048C54.2484 193.715 55.111 193.548 56.0713 193.548C57.0072 193.548 57.8372 193.702 58.5615 194.012C59.2858 194.321 59.8921 194.76 60.3804 195.33C60.8768 195.9 61.2511 196.583 61.5034 197.381C61.7557 198.17 61.8818 199.049 61.8818 200.018V201.482H51.3838V199.139H58.4272V198.87C58.4272 198.382 58.3377 197.946 58.1587 197.564C57.9878 197.173 57.7274 196.864 57.3774 196.636C57.0275 196.408 56.5799 196.294 56.0347 196.294C55.5708 196.294 55.172 196.396 54.8384 196.6C54.5047 196.803 54.2321 197.088 54.0205 197.454C53.8171 197.82 53.6624 198.252 53.5566 198.748C53.459 199.236 53.4102 199.773 53.4102 200.359V200.848C53.4102 201.377 53.4834 201.865 53.6299 202.312C53.7845 202.76 54.0002 203.147 54.2769 203.472C54.5617 203.798 54.9035 204.05 55.3022 204.229C55.7091 204.408 56.1689 204.498 56.6816 204.498C57.3164 204.498 57.9064 204.375 58.4517 204.131C59.005 203.879 59.4811 203.501 59.8799 202.996L61.5889 204.852C61.3122 205.25 60.9338 205.633 60.4536 205.999C59.9816 206.365 59.4119 206.666 58.7446 206.902C58.0773 207.13 57.3164 207.244 56.4619 207.244ZM71.0249 203.35C71.0249 203.098 70.9517 202.87 70.8052 202.667C70.6587 202.463 70.3861 202.276 69.9873 202.105C69.5967 201.926 69.0311 201.763 68.2905 201.617C67.6232 201.47 67.0007 201.287 66.4229 201.067C65.8532 200.84 65.3568 200.567 64.9336 200.25C64.5186 199.932 64.193 199.558 63.957 199.126C63.721 198.687 63.603 198.187 63.603 197.625C63.603 197.072 63.721 196.551 63.957 196.062C64.2012 195.574 64.547 195.143 64.9946 194.769C65.4504 194.386 66.0037 194.089 66.6548 193.877C67.314 193.658 68.0545 193.548 68.8765 193.548C70.0239 193.548 71.0086 193.731 71.8306 194.097C72.6606 194.463 73.2954 194.968 73.7349 195.611C74.1825 196.246 74.4062 196.97 74.4062 197.784H70.8906C70.8906 197.442 70.8174 197.137 70.6709 196.868C70.5326 196.591 70.3128 196.376 70.0117 196.221C69.7188 196.058 69.3363 195.977 68.8643 195.977C68.4736 195.977 68.1359 196.046 67.8511 196.185C67.5662 196.315 67.3465 196.494 67.1919 196.722C67.0454 196.941 66.9722 197.186 66.9722 197.454C66.9722 197.658 67.0129 197.841 67.0942 198.003C67.1838 198.158 67.3262 198.3 67.5215 198.431C67.7168 198.561 67.9691 198.683 68.2783 198.797C68.5957 198.903 68.9863 199 69.4502 199.09C70.4023 199.285 71.2528 199.542 72.0015 199.859C72.7502 200.168 73.3442 200.591 73.7837 201.128C74.2231 201.657 74.4429 202.353 74.4429 203.216C74.4429 203.802 74.3127 204.339 74.0522 204.827C73.7918 205.315 73.4175 205.743 72.9292 206.109C72.4409 206.467 71.855 206.748 71.1714 206.951C70.4959 207.146 69.735 207.244 68.8887 207.244C67.6598 207.244 66.6182 207.024 65.7637 206.585C64.9173 206.146 64.2744 205.588 63.835 204.913C63.4036 204.229 63.188 203.529 63.188 202.813H66.5205C66.5368 203.293 66.6589 203.68 66.8867 203.973C67.1227 204.266 67.4198 204.477 67.7778 204.607C68.144 204.738 68.5387 204.803 68.9619 204.803C69.4176 204.803 69.7961 204.742 70.0972 204.62C70.3983 204.489 70.6261 204.319 70.7808 204.107C70.9435 203.887 71.0249 203.635 71.0249 203.35ZM83.1953 193.792V196.282H75.5049V193.792H83.1953ZM77.4092 190.533H80.9248V203.021C80.9248 203.403 80.9736 203.696 81.0713 203.899C81.1771 204.103 81.3317 204.245 81.5352 204.327C81.7386 204.4 81.995 204.437 82.3042 204.437C82.5239 204.437 82.7192 204.428 82.8901 204.412C83.0692 204.388 83.2197 204.363 83.3418 204.339L83.354 206.927C83.0529 207.024 82.7274 207.102 82.3774 207.159C82.0275 207.216 81.641 207.244 81.2178 207.244C80.4447 207.244 79.7692 207.118 79.1914 206.866C78.6217 206.605 78.1823 206.19 77.873 205.621C77.5638 205.051 77.4092 204.302 77.4092 203.375V190.533ZM84.3184 200.53V200.274C84.3184 199.306 84.4567 198.414 84.7334 197.601C85.0101 196.779 85.4129 196.067 85.9419 195.464C86.4709 194.862 87.1219 194.394 87.895 194.061C88.6681 193.719 89.5552 193.548 90.5562 193.548C91.5571 193.548 92.4482 193.719 93.2295 194.061C94.0107 194.394 94.6659 194.862 95.1948 195.464C95.7319 196.067 96.1388 196.779 96.4155 197.601C96.6922 198.414 96.8306 199.306 96.8306 200.274V200.53C96.8306 201.491 96.6922 202.382 96.4155 203.204C96.1388 204.017 95.7319 204.729 95.1948 205.34C94.6659 205.942 94.0148 206.41 93.2417 206.744C92.4686 207.077 91.5815 207.244 90.5806 207.244C89.5796 207.244 88.6885 207.077 87.9072 206.744C87.1341 206.41 86.479 205.942 85.9419 205.34C85.4129 204.729 85.0101 204.017 84.7334 203.204C84.4567 202.382 84.3184 201.491 84.3184 200.53ZM87.834 200.274V200.53C87.834 201.084 87.8828 201.6 87.9805 202.081C88.0781 202.561 88.2327 202.984 88.4443 203.35C88.6641 203.708 88.9489 203.989 89.2988 204.192C89.6488 204.396 90.076 204.498 90.5806 204.498C91.0688 204.498 91.488 204.396 91.8379 204.192C92.1878 203.989 92.4686 203.708 92.6802 203.35C92.8918 202.984 93.0464 202.561 93.144 202.081C93.2498 201.6 93.3027 201.084 93.3027 200.53V200.274C93.3027 199.737 93.2498 199.232 93.144 198.76C93.0464 198.28 92.8877 197.857 92.668 197.491C92.4564 197.116 92.1756 196.823 91.8257 196.612C91.4757 196.4 91.0526 196.294 90.5562 196.294C90.0597 196.294 89.6366 196.4 89.2866 196.612C88.9448 196.823 88.6641 197.116 88.4443 197.491C88.2327 197.857 88.0781 198.28 87.9805 198.76C87.8828 199.232 87.834 199.737 87.834 200.274ZM104.448 204.498C104.879 204.498 105.262 204.416 105.595 204.253C105.929 204.083 106.189 203.847 106.376 203.545C106.572 203.236 106.674 202.874 106.682 202.459H109.99C109.982 203.387 109.733 204.213 109.245 204.937C108.757 205.653 108.102 206.219 107.28 206.634C106.458 207.041 105.538 207.244 104.521 207.244C103.496 207.244 102.6 207.073 101.835 206.731C101.079 206.39 100.448 205.918 99.9434 205.315C99.4388 204.705 99.0604 203.997 98.8081 203.191C98.5558 202.378 98.4297 201.507 98.4297 200.579V200.225C98.4297 199.289 98.5558 198.418 98.8081 197.613C99.0604 196.799 99.4388 196.091 99.9434 195.489C100.448 194.878 101.079 194.402 101.835 194.061C102.592 193.719 103.479 193.548 104.497 193.548C105.579 193.548 106.527 193.755 107.341 194.17C108.163 194.585 108.806 195.18 109.27 195.953C109.742 196.718 109.982 197.625 109.99 198.675H106.682C106.674 198.235 106.58 197.837 106.401 197.479C106.23 197.12 105.978 196.836 105.644 196.624C105.319 196.404 104.916 196.294 104.436 196.294C103.923 196.294 103.504 196.404 103.178 196.624C102.853 196.836 102.6 197.129 102.421 197.503C102.242 197.869 102.116 198.288 102.043 198.76C101.978 199.224 101.945 199.712 101.945 200.225V200.579C101.945 201.092 101.978 201.584 102.043 202.056C102.108 202.528 102.23 202.947 102.409 203.313C102.596 203.68 102.853 203.969 103.178 204.18C103.504 204.392 103.927 204.498 104.448 204.498ZM115.544 188.238V207H112.028V188.238H115.544ZM123.869 193.792L118.132 200.335L115.056 203.448L113.774 200.909L116.215 197.808L119.646 193.792H123.869ZM120.219 207L116.313 200.896L118.742 198.772L124.272 207H120.219ZM138.75 203.35C138.75 203.098 138.676 202.87 138.53 202.667C138.383 202.463 138.111 202.276 137.712 202.105C137.321 201.926 136.756 201.763 136.015 201.617C135.348 201.47 134.725 201.287 134.147 201.067C133.578 200.84 133.081 200.567 132.658 200.25C132.243 199.932 131.918 199.558 131.682 199.126C131.446 198.687 131.328 198.187 131.328 197.625C131.328 197.072 131.446 196.551 131.682 196.062C131.926 195.574 132.272 195.143 132.719 194.769C133.175 194.386 133.728 194.089 134.379 193.877C135.039 193.658 135.779 193.548 136.601 193.548C137.749 193.548 138.733 193.731 139.555 194.097C140.385 194.463 141.02 194.968 141.459 195.611C141.907 196.246 142.131 196.97 142.131 197.784H138.615C138.615 197.442 138.542 197.137 138.396 196.868C138.257 196.591 138.037 196.376 137.736 196.221C137.443 196.058 137.061 195.977 136.589 195.977C136.198 195.977 135.861 196.046 135.576 196.185C135.291 196.315 135.071 196.494 134.917 196.722C134.77 196.941 134.697 197.186 134.697 197.454C134.697 197.658 134.737 197.841 134.819 198.003C134.908 198.158 135.051 198.3 135.246 198.431C135.441 198.561 135.694 198.683 136.003 198.797C136.32 198.903 136.711 199 137.175 199.09C138.127 199.285 138.977 199.542 139.726 199.859C140.475 200.168 141.069 200.591 141.508 201.128C141.948 201.657 142.167 202.353 142.167 203.216C142.167 203.802 142.037 204.339 141.777 204.827C141.516 205.315 141.142 205.743 140.654 206.109C140.166 206.467 139.58 206.748 138.896 206.951C138.221 207.146 137.46 207.244 136.613 207.244C135.384 207.244 134.343 207.024 133.488 206.585C132.642 206.146 131.999 205.588 131.56 204.913C131.128 204.229 130.913 203.529 130.913 202.813H134.245C134.261 203.293 134.383 203.68 134.611 203.973C134.847 204.266 135.144 204.477 135.502 204.607C135.869 204.738 136.263 204.803 136.687 204.803C137.142 204.803 137.521 204.742 137.822 204.62C138.123 204.489 138.351 204.319 138.505 204.107C138.668 203.887 138.75 203.635 138.75 203.35ZM152.263 203.838V193.792H155.778V207H152.47L152.263 203.838ZM152.653 201.128L153.691 201.104C153.691 201.983 153.589 202.801 153.386 203.558C153.182 204.306 152.877 204.957 152.47 205.511C152.063 206.056 151.551 206.483 150.932 206.792C150.314 207.094 149.585 207.244 148.747 207.244C148.104 207.244 147.51 207.155 146.965 206.976C146.428 206.788 145.964 206.5 145.573 206.109C145.191 205.71 144.89 205.201 144.67 204.583C144.458 203.956 144.353 203.204 144.353 202.325V193.792H147.868V202.349C147.868 202.74 147.913 203.069 148.002 203.338C148.1 203.606 148.234 203.826 148.405 203.997C148.576 204.168 148.776 204.29 149.003 204.363C149.239 204.437 149.5 204.473 149.785 204.473C150.509 204.473 151.079 204.327 151.494 204.034C151.917 203.741 152.214 203.342 152.385 202.837C152.564 202.325 152.653 201.755 152.653 201.128ZM161.979 196.331V212.078H158.464V193.792H161.723L161.979 196.331ZM170.341 200.25V200.506C170.341 201.466 170.227 202.357 170 203.179C169.78 204.001 169.454 204.717 169.023 205.328C168.592 205.93 168.055 206.402 167.412 206.744C166.777 207.077 166.044 207.244 165.214 207.244C164.409 207.244 163.709 207.081 163.115 206.756C162.521 206.43 162.02 205.975 161.613 205.389C161.215 204.795 160.893 204.107 160.649 203.326C160.405 202.544 160.218 201.706 160.087 200.811V200.14C160.218 199.179 160.405 198.3 160.649 197.503C160.893 196.697 161.215 196.001 161.613 195.416C162.02 194.821 162.517 194.362 163.103 194.036C163.697 193.711 164.392 193.548 165.19 193.548C166.028 193.548 166.765 193.707 167.399 194.024C168.042 194.341 168.579 194.797 169.011 195.391C169.45 195.985 169.78 196.693 170 197.515C170.227 198.337 170.341 199.249 170.341 200.25ZM166.813 200.506V200.25C166.813 199.688 166.765 199.171 166.667 198.699C166.577 198.219 166.431 197.8 166.228 197.442C166.032 197.084 165.772 196.807 165.446 196.612C165.129 196.408 164.742 196.307 164.287 196.307C163.806 196.307 163.396 196.384 163.054 196.539C162.72 196.693 162.447 196.917 162.236 197.21C162.024 197.503 161.866 197.853 161.76 198.26C161.654 198.667 161.589 199.126 161.564 199.639V201.336C161.605 201.938 161.719 202.479 161.906 202.959C162.093 203.431 162.382 203.806 162.773 204.083C163.164 204.359 163.676 204.498 164.311 204.498C164.775 204.498 165.166 204.396 165.483 204.192C165.8 203.981 166.057 203.692 166.252 203.326C166.455 202.959 166.598 202.536 166.679 202.056C166.769 201.576 166.813 201.059 166.813 200.506ZM176.042 196.331V212.078H172.526V193.792H175.786L176.042 196.331ZM184.404 200.25V200.506C184.404 201.466 184.29 202.357 184.062 203.179C183.842 204.001 183.517 204.717 183.085 205.328C182.654 205.93 182.117 206.402 181.474 206.744C180.839 207.077 180.107 207.244 179.277 207.244C178.471 207.244 177.771 207.081 177.177 206.756C176.583 206.43 176.083 205.975 175.676 205.389C175.277 204.795 174.956 204.107 174.711 203.326C174.467 202.544 174.28 201.706 174.15 200.811V200.14C174.28 199.179 174.467 198.3 174.711 197.503C174.956 196.697 175.277 196.001 175.676 195.416C176.083 194.821 176.579 194.362 177.165 194.036C177.759 193.711 178.455 193.548 179.252 193.548C180.091 193.548 180.827 193.707 181.462 194.024C182.105 194.341 182.642 194.797 183.073 195.391C183.513 195.985 183.842 196.693 184.062 197.515C184.29 198.337 184.404 199.249 184.404 200.25ZM180.876 200.506V200.25C180.876 199.688 180.827 199.171 180.729 198.699C180.64 198.219 180.493 197.8 180.29 197.442C180.095 197.084 179.834 196.807 179.509 196.612C179.191 196.408 178.805 196.307 178.349 196.307C177.869 196.307 177.458 196.384 177.116 196.539C176.783 196.693 176.51 196.917 176.298 197.21C176.087 197.503 175.928 197.853 175.822 198.26C175.716 198.667 175.651 199.126 175.627 199.639V201.336C175.668 201.938 175.782 202.479 175.969 202.959C176.156 203.431 176.445 203.806 176.835 204.083C177.226 204.359 177.739 204.498 178.374 204.498C178.837 204.498 179.228 204.396 179.545 204.192C179.863 203.981 180.119 203.692 180.314 203.326C180.518 202.959 180.66 202.536 180.742 202.056C180.831 201.576 180.876 201.059 180.876 200.506ZM190.3 188.25V207H186.772V188.25H190.3ZM197.124 205.511L200.627 193.792H204.399L199.089 208.99C198.975 209.323 198.82 209.681 198.625 210.064C198.438 210.446 198.181 210.809 197.856 211.15C197.539 211.5 197.136 211.785 196.647 212.005C196.167 212.225 195.577 212.334 194.877 212.334C194.544 212.334 194.271 212.314 194.06 212.273C193.848 212.233 193.596 212.176 193.303 212.103V209.527C193.392 209.527 193.486 209.527 193.583 209.527C193.681 209.535 193.775 209.539 193.864 209.539C194.328 209.539 194.707 209.486 195 209.38C195.292 209.275 195.528 209.112 195.708 208.892C195.887 208.681 196.029 208.404 196.135 208.062L197.124 205.511ZM195.659 193.792L198.527 203.362L199.028 207.085L196.635 207.342L191.887 193.792H195.659Z" fill="white"/>
<path d="M55 64L31.2721 116.634L88.7183 110.866L55 64ZM165.566 149.21C135.17 158.308 112.68 161.34 96.5496 155.755C81.1511 150.423 70.1832 136.639 64.3975 107.785L54.5926 109.751C60.7156 140.287 73.1006 158.218 93.2777 165.205C112.723 171.937 138.031 167.89 168.434 158.79L165.566 149.21Z" fill="white" fill-opacity="0.5"/>
<path d="M183.556 151.56L206.989 98.7937L149.576 104.884L183.556 151.56ZM72.5142 66.971C102.859 57.7026 125.332 54.5445 141.493 60.0391C156.921 65.2844 167.966 79.0067 173.914 107.828L183.707 105.807C177.413 75.3057 164.928 57.4444 144.712 50.5713C125.229 43.9477 99.9444 48.1367 69.593 57.4072L72.5142 66.971Z" fill="white" fill-opacity="0.5"/>
</svg>
