<svg width="240" height="240" viewBox="0 0 240 240" fill="none" xmlns="http://www.w3.org/2000/svg">
<rect width="240" height="240" fill="white"/>
<rect x="10" y="10" width="220" height="220" rx="20" fill="#F1A7A7"/>
<path d="M44.8398 175.349C44.8398 175.032 44.791 174.747 44.6934 174.495C44.6038 174.234 44.4329 173.998 44.1807 173.787C43.9284 173.567 43.5744 173.351 43.1187 173.14C42.6629 172.928 42.0729 172.708 41.3486 172.48C40.543 172.22 39.778 171.927 39.0537 171.602C38.3376 171.276 37.7028 170.898 37.1494 170.466C36.6042 170.027 36.1729 169.518 35.8555 168.94C35.5462 168.363 35.3916 167.691 35.3916 166.926C35.3916 166.186 35.5544 165.514 35.8799 164.912C36.2054 164.302 36.6611 163.781 37.2471 163.35C37.833 162.91 38.5247 162.572 39.3223 162.336C40.1279 162.1 41.0109 161.982 41.9712 161.982C43.2814 161.982 44.4248 162.218 45.4014 162.69C46.3779 163.162 47.1348 163.809 47.6719 164.631C48.2171 165.453 48.4897 166.393 48.4897 167.451H44.8521C44.8521 166.93 44.7422 166.475 44.5225 166.084C44.3109 165.685 43.9854 165.372 43.5459 165.144C43.1146 164.916 42.5693 164.802 41.9102 164.802C41.2754 164.802 40.7464 164.9 40.3232 165.095C39.9001 165.282 39.5827 165.539 39.3711 165.864C39.1595 166.182 39.0537 166.54 39.0537 166.938C39.0537 167.24 39.127 167.512 39.2734 167.756C39.4281 168 39.6559 168.228 39.957 168.44C40.2581 168.652 40.6284 168.851 41.0679 169.038C41.5073 169.225 42.016 169.408 42.5938 169.587C43.5622 169.88 44.4126 170.21 45.145 170.576C45.8856 170.942 46.5041 171.353 47.0005 171.809C47.4969 172.265 47.8713 172.782 48.1235 173.359C48.3758 173.937 48.502 174.592 48.502 175.325C48.502 176.098 48.3514 176.79 48.0503 177.4C47.7492 178.01 47.3138 178.527 46.7441 178.95C46.1745 179.373 45.495 179.695 44.7056 179.915C43.9162 180.134 43.0332 180.244 42.0566 180.244C41.1777 180.244 40.311 180.13 39.4565 179.902C38.6021 179.666 37.8249 179.312 37.125 178.84C36.4333 178.368 35.8799 177.766 35.4648 177.034C35.0498 176.301 34.8423 175.435 34.8423 174.434H38.5166C38.5166 174.987 38.6021 175.455 38.7729 175.837C38.9438 176.22 39.1839 176.529 39.4932 176.765C39.8105 177.001 40.1849 177.172 40.6162 177.278C41.0557 177.384 41.5358 177.437 42.0566 177.437C42.6914 177.437 43.2122 177.347 43.6191 177.168C44.0342 176.989 44.3394 176.741 44.5347 176.423C44.7381 176.106 44.8398 175.748 44.8398 175.349ZM57.2422 166.792V169.282H49.5518V166.792H57.2422ZM51.4561 163.533H54.9717V176.021C54.9717 176.403 55.0205 176.696 55.1182 176.899C55.224 177.103 55.3786 177.245 55.582 177.327C55.7855 177.4 56.0418 177.437 56.3511 177.437C56.5708 177.437 56.7661 177.428 56.937 177.412C57.116 177.388 57.2666 177.363 57.3887 177.339L57.4009 179.927C57.0998 180.024 56.7743 180.102 56.4243 180.159C56.0744 180.216 55.6878 180.244 55.2646 180.244C54.4915 180.244 53.8161 180.118 53.2383 179.866C52.6686 179.605 52.2292 179.19 51.9199 178.621C51.6107 178.051 51.4561 177.302 51.4561 176.375V163.533ZM67.0566 176.838V166.792H70.5723V180H67.2642L67.0566 176.838ZM67.4473 174.128L68.4849 174.104C68.4849 174.983 68.3831 175.801 68.1797 176.558C67.9762 177.306 67.6711 177.957 67.2642 178.511C66.8573 179.056 66.3446 179.483 65.7261 179.792C65.1076 180.094 64.3792 180.244 63.541 180.244C62.8981 180.244 62.304 180.155 61.7588 179.976C61.2217 179.788 60.7578 179.5 60.3672 179.109C59.9847 178.71 59.6836 178.201 59.4639 177.583C59.2523 176.956 59.1465 176.204 59.1465 175.325V166.792H62.6621V175.349C62.6621 175.74 62.7069 176.069 62.7964 176.338C62.894 176.606 63.0283 176.826 63.1992 176.997C63.3701 177.168 63.5695 177.29 63.7974 177.363C64.0334 177.437 64.2938 177.473 64.5786 177.473C65.3029 177.473 65.8726 177.327 66.2876 177.034C66.7108 176.741 67.0078 176.342 67.1787 175.837C67.3577 175.325 67.4473 174.755 67.4473 174.128ZM78.7144 177.498C79.1457 177.498 79.5282 177.416 79.8618 177.253C80.1955 177.083 80.4559 176.847 80.6431 176.545C80.8384 176.236 80.9401 175.874 80.9482 175.459H84.2563C84.2482 176.387 84 177.213 83.5117 177.937C83.0234 178.653 82.3683 179.219 81.5464 179.634C80.7244 180.041 79.8049 180.244 78.7876 180.244C77.7622 180.244 76.867 180.073 76.1021 179.731C75.3452 179.39 74.7145 178.918 74.21 178.315C73.7054 177.705 73.327 176.997 73.0747 176.191C72.8224 175.378 72.6963 174.507 72.6963 173.579V173.225C72.6963 172.289 72.8224 171.418 73.0747 170.613C73.327 169.799 73.7054 169.091 74.21 168.489C74.7145 167.878 75.3452 167.402 76.1021 167.061C76.8589 166.719 77.7459 166.548 78.7632 166.548C79.8455 166.548 80.7936 166.755 81.6074 167.17C82.4294 167.585 83.0723 168.18 83.5361 168.953C84.0081 169.718 84.2482 170.625 84.2563 171.675H80.9482C80.9401 171.235 80.8465 170.837 80.6675 170.479C80.4966 170.12 80.2443 169.836 79.9106 169.624C79.5851 169.404 79.1823 169.294 78.7021 169.294C78.1895 169.294 77.7703 169.404 77.4448 169.624C77.1193 169.836 76.867 170.129 76.688 170.503C76.509 170.869 76.3828 171.288 76.3096 171.76C76.2445 172.224 76.2119 172.712 76.2119 173.225V173.579C76.2119 174.092 76.2445 174.584 76.3096 175.056C76.3747 175.528 76.4967 175.947 76.6758 176.313C76.863 176.68 77.1193 176.969 77.4448 177.18C77.7703 177.392 78.1935 177.498 78.7144 177.498ZM89.8105 161.238V180H86.2949V161.238H89.8105ZM98.1357 166.792L92.3984 173.335L89.3223 176.448L88.0405 173.909L90.4819 170.808L93.9121 166.792H98.1357ZM94.4858 180L90.5796 173.896L93.0088 171.772L98.5386 180H94.4858ZM107.242 162.227L100.724 181.526H98.1113L104.63 162.227H107.242ZM116.727 177.119V161.25H120.267V180H117.081L116.727 177.119ZM108.377 173.555V173.298C108.377 172.289 108.491 171.374 108.719 170.552C108.947 169.722 109.281 169.01 109.72 168.416C110.16 167.821 110.701 167.362 111.344 167.036C111.987 166.711 112.719 166.548 113.541 166.548C114.314 166.548 114.99 166.711 115.567 167.036C116.153 167.362 116.65 167.826 117.057 168.428C117.472 169.022 117.805 169.726 118.058 170.54C118.31 171.345 118.493 172.228 118.607 173.188V173.75C118.493 174.67 118.31 175.524 118.058 176.313C117.805 177.103 117.472 177.795 117.057 178.389C116.65 178.975 116.153 179.43 115.567 179.756C114.981 180.081 114.298 180.244 113.517 180.244C112.695 180.244 111.962 180.077 111.319 179.744C110.685 179.41 110.147 178.942 109.708 178.34C109.277 177.738 108.947 177.03 108.719 176.216C108.491 175.402 108.377 174.515 108.377 173.555ZM111.893 173.298V173.555C111.893 174.1 111.934 174.609 112.015 175.081C112.105 175.553 112.247 175.972 112.442 176.338C112.646 176.696 112.906 176.977 113.224 177.18C113.549 177.375 113.944 177.473 114.408 177.473C115.01 177.473 115.506 177.339 115.897 177.07C116.288 176.794 116.585 176.415 116.788 175.935C117 175.455 117.122 174.902 117.154 174.275V172.676C117.13 172.163 117.057 171.703 116.935 171.296C116.821 170.881 116.65 170.527 116.422 170.234C116.202 169.941 115.925 169.714 115.592 169.551C115.266 169.388 114.88 169.307 114.432 169.307C113.976 169.307 113.586 169.412 113.26 169.624C112.935 169.827 112.67 170.108 112.467 170.466C112.271 170.824 112.125 171.248 112.027 171.736C111.938 172.216 111.893 172.737 111.893 173.298ZM129.093 180.244C128.067 180.244 127.148 180.081 126.334 179.756C125.52 179.422 124.828 178.962 124.259 178.376C123.697 177.791 123.266 177.111 122.965 176.338C122.664 175.557 122.513 174.727 122.513 173.848V173.359C122.513 172.358 122.656 171.443 122.94 170.613C123.225 169.783 123.632 169.062 124.161 168.452C124.698 167.842 125.349 167.374 126.114 167.048C126.879 166.715 127.742 166.548 128.702 166.548C129.638 166.548 130.468 166.702 131.192 167.012C131.917 167.321 132.523 167.76 133.011 168.33C133.508 168.9 133.882 169.583 134.134 170.381C134.387 171.17 134.513 172.049 134.513 173.018V174.482H124.015V172.139H131.058V171.87C131.058 171.382 130.969 170.946 130.79 170.564C130.619 170.173 130.358 169.864 130.008 169.636C129.658 169.408 129.211 169.294 128.666 169.294C128.202 169.294 127.803 169.396 127.469 169.6C127.136 169.803 126.863 170.088 126.651 170.454C126.448 170.82 126.293 171.252 126.188 171.748C126.09 172.236 126.041 172.773 126.041 173.359V173.848C126.041 174.377 126.114 174.865 126.261 175.312C126.415 175.76 126.631 176.147 126.908 176.472C127.193 176.798 127.534 177.05 127.933 177.229C128.34 177.408 128.8 177.498 129.312 177.498C129.947 177.498 130.537 177.375 131.083 177.131C131.636 176.879 132.112 176.501 132.511 175.996L134.22 177.852C133.943 178.25 133.565 178.633 133.084 178.999C132.612 179.365 132.043 179.666 131.375 179.902C130.708 180.13 129.947 180.244 129.093 180.244ZM140.226 161.25V180H136.698V161.25H140.226ZM150.26 177.021V171.138C150.26 170.715 150.191 170.352 150.052 170.051C149.914 169.742 149.698 169.502 149.405 169.331C149.12 169.16 148.75 169.075 148.294 169.075C147.904 169.075 147.566 169.144 147.281 169.282C146.996 169.412 146.777 169.604 146.622 169.856C146.467 170.1 146.39 170.389 146.39 170.723H142.875C142.875 170.161 143.005 169.628 143.265 169.124C143.526 168.619 143.904 168.175 144.4 167.793C144.897 167.402 145.487 167.097 146.17 166.877C146.862 166.658 147.635 166.548 148.49 166.548C149.515 166.548 150.427 166.719 151.224 167.061C152.022 167.402 152.648 167.915 153.104 168.599C153.568 169.282 153.8 170.137 153.8 171.162V176.814C153.8 177.538 153.845 178.132 153.934 178.596C154.024 179.052 154.154 179.451 154.325 179.792V180H150.772C150.602 179.642 150.471 179.194 150.382 178.657C150.3 178.112 150.26 177.567 150.26 177.021ZM150.724 171.956L150.748 173.945H148.783C148.319 173.945 147.916 173.998 147.574 174.104C147.232 174.21 146.952 174.36 146.732 174.556C146.512 174.743 146.349 174.963 146.244 175.215C146.146 175.467 146.097 175.744 146.097 176.045C146.097 176.346 146.166 176.619 146.305 176.863C146.443 177.099 146.642 177.286 146.903 177.424C147.163 177.555 147.468 177.62 147.818 177.62C148.347 177.62 148.807 177.514 149.198 177.302C149.588 177.091 149.889 176.83 150.101 176.521C150.321 176.212 150.435 175.919 150.443 175.642L151.371 177.131C151.24 177.465 151.061 177.811 150.833 178.169C150.614 178.527 150.333 178.865 149.991 179.182C149.649 179.491 149.238 179.748 148.758 179.951C148.278 180.146 147.708 180.244 147.049 180.244C146.211 180.244 145.45 180.077 144.767 179.744C144.091 179.402 143.554 178.934 143.155 178.34C142.765 177.738 142.569 177.054 142.569 176.289C142.569 175.597 142.7 174.983 142.96 174.446C143.22 173.909 143.603 173.457 144.107 173.091C144.62 172.716 145.259 172.436 146.024 172.249C146.789 172.053 147.676 171.956 148.685 171.956H150.724ZM160.233 178.511L163.736 166.792H167.508L162.198 181.99C162.084 182.323 161.93 182.681 161.734 183.064C161.547 183.446 161.291 183.809 160.965 184.15C160.648 184.5 160.245 184.785 159.757 185.005C159.277 185.225 158.687 185.334 157.987 185.334C157.653 185.334 157.381 185.314 157.169 185.273C156.957 185.233 156.705 185.176 156.412 185.103V182.527C156.502 182.527 156.595 182.527 156.693 182.527C156.791 182.535 156.884 182.539 156.974 182.539C157.438 182.539 157.816 182.486 158.109 182.38C158.402 182.275 158.638 182.112 158.817 181.892C158.996 181.681 159.138 181.404 159.244 181.062L160.233 178.511ZM158.768 166.792L161.637 176.362L162.137 180.085L159.745 180.342L154.996 166.792H158.768ZM174.82 180.244C173.795 180.244 172.875 180.081 172.062 179.756C171.248 179.422 170.556 178.962 169.986 178.376C169.425 177.791 168.993 177.111 168.692 176.338C168.391 175.557 168.241 174.727 168.241 173.848V173.359C168.241 172.358 168.383 171.443 168.668 170.613C168.953 169.783 169.36 169.062 169.889 168.452C170.426 167.842 171.077 167.374 171.842 167.048C172.607 166.715 173.469 166.548 174.43 166.548C175.366 166.548 176.196 166.702 176.92 167.012C177.644 167.321 178.25 167.76 178.739 168.33C179.235 168.9 179.61 169.583 179.862 170.381C180.114 171.17 180.24 172.049 180.24 173.018V174.482H169.742V172.139H176.786V171.87C176.786 171.382 176.696 170.946 176.517 170.564C176.346 170.173 176.086 169.864 175.736 169.636C175.386 169.408 174.938 169.294 174.393 169.294C173.929 169.294 173.53 169.396 173.197 169.6C172.863 169.803 172.59 170.088 172.379 170.454C172.175 170.82 172.021 171.252 171.915 171.748C171.817 172.236 171.769 172.773 171.769 173.359V173.848C171.769 174.377 171.842 174.865 171.988 175.312C172.143 175.76 172.359 176.147 172.635 176.472C172.92 176.798 173.262 177.05 173.661 177.229C174.068 177.408 174.527 177.498 175.04 177.498C175.675 177.498 176.265 177.375 176.81 177.131C177.363 176.879 177.84 176.501 178.238 175.996L179.947 177.852C179.671 178.25 179.292 178.633 178.812 178.999C178.34 179.365 177.77 179.666 177.103 179.902C176.436 180.13 175.675 180.244 174.82 180.244ZM190.042 177.119V161.25H193.583V180H190.396L190.042 177.119ZM181.693 173.555V173.298C181.693 172.289 181.807 171.374 182.035 170.552C182.263 169.722 182.596 169.01 183.036 168.416C183.475 167.821 184.016 167.362 184.659 167.036C185.302 166.711 186.035 166.548 186.856 166.548C187.63 166.548 188.305 166.711 188.883 167.036C189.469 167.362 189.965 167.826 190.372 168.428C190.787 169.022 191.121 169.726 191.373 170.54C191.625 171.345 191.808 172.228 191.922 173.188V173.75C191.808 174.67 191.625 175.524 191.373 176.313C191.121 177.103 190.787 177.795 190.372 178.389C189.965 178.975 189.469 179.43 188.883 179.756C188.297 180.081 187.613 180.244 186.832 180.244C186.01 180.244 185.278 180.077 184.635 179.744C184 179.41 183.463 178.942 183.023 178.34C182.592 177.738 182.263 177.03 182.035 176.216C181.807 175.402 181.693 174.515 181.693 173.555ZM185.208 173.298V173.555C185.208 174.1 185.249 174.609 185.331 175.081C185.42 175.553 185.562 175.972 185.758 176.338C185.961 176.696 186.222 176.977 186.539 177.18C186.865 177.375 187.259 177.473 187.723 177.473C188.325 177.473 188.822 177.339 189.212 177.07C189.603 176.794 189.9 176.415 190.104 175.935C190.315 175.455 190.437 174.902 190.47 174.275V172.676C190.445 172.163 190.372 171.703 190.25 171.296C190.136 170.881 189.965 170.527 189.737 170.234C189.518 169.941 189.241 169.714 188.907 169.551C188.582 169.388 188.195 169.307 187.748 169.307C187.292 169.307 186.901 169.412 186.576 169.624C186.25 169.827 185.986 170.108 185.782 170.466C185.587 170.824 185.44 171.248 185.343 171.736C185.253 172.216 185.208 172.737 185.208 173.298ZM42.4961 206.021V200.138C42.4961 199.715 42.4269 199.352 42.2886 199.051C42.1502 198.742 41.9346 198.502 41.6416 198.331C41.3568 198.16 40.9865 198.075 40.5308 198.075C40.1401 198.075 39.8024 198.144 39.5176 198.282C39.2327 198.412 39.013 198.604 38.8584 198.856C38.7038 199.1 38.6265 199.389 38.6265 199.723H35.1108C35.1108 199.161 35.241 198.628 35.5015 198.124C35.7619 197.619 36.1403 197.175 36.6367 196.793C37.1331 196.402 37.7231 196.097 38.4067 195.877C39.0985 195.658 39.8716 195.548 40.7261 195.548C41.7515 195.548 42.6629 195.719 43.4604 196.061C44.258 196.402 44.8846 196.915 45.3403 197.599C45.8042 198.282 46.0361 199.137 46.0361 200.162V205.814C46.0361 206.538 46.0809 207.132 46.1704 207.596C46.2599 208.052 46.3901 208.451 46.561 208.792V209H43.0088C42.8379 208.642 42.7077 208.194 42.6182 207.657C42.5368 207.112 42.4961 206.567 42.4961 206.021ZM42.96 200.956L42.9844 202.945H41.019C40.5552 202.945 40.1523 202.998 39.8105 203.104C39.4688 203.21 39.188 203.36 38.9683 203.556C38.7485 203.743 38.5858 203.963 38.48 204.215C38.3823 204.467 38.3335 204.744 38.3335 205.045C38.3335 205.346 38.4027 205.619 38.541 205.863C38.6794 206.099 38.8787 206.286 39.1392 206.424C39.3996 206.555 39.7048 206.62 40.0547 206.62C40.5837 206.62 41.0435 206.514 41.4341 206.302C41.8247 206.091 42.1258 205.83 42.3374 205.521C42.5571 205.212 42.6711 204.919 42.6792 204.642L43.6069 206.131C43.4767 206.465 43.2977 206.811 43.0698 207.169C42.8501 207.527 42.5693 207.865 42.2275 208.182C41.8857 208.491 41.4748 208.748 40.9946 208.951C40.5145 209.146 39.9448 209.244 39.2856 209.244C38.4474 209.244 37.6865 209.077 37.0029 208.744C36.3275 208.402 35.7904 207.934 35.3916 207.34C35.001 206.738 34.8057 206.054 34.8057 205.289C34.8057 204.597 34.9359 203.983 35.1963 203.446C35.4567 202.909 35.8392 202.457 36.3438 202.091C36.8564 201.716 37.4953 201.436 38.2603 201.249C39.0252 201.053 39.9123 200.956 40.9214 200.956H42.96ZM52.2617 198.331V214.078H48.7461V195.792H52.0054L52.2617 198.331ZM60.6235 202.25V202.506C60.6235 203.466 60.5096 204.357 60.2817 205.179C60.062 206.001 59.7365 206.717 59.3052 207.328C58.8739 207.93 58.3368 208.402 57.6938 208.744C57.0591 209.077 56.3267 209.244 55.4966 209.244C54.6909 209.244 53.991 209.081 53.397 208.756C52.8029 208.43 52.3024 207.975 51.8955 207.389C51.4967 206.795 51.1753 206.107 50.9312 205.326C50.687 204.544 50.4998 203.706 50.3696 202.811V202.14C50.4998 201.179 50.687 200.3 50.9312 199.503C51.1753 198.697 51.4967 198.001 51.8955 197.416C52.3024 196.821 52.7988 196.362 53.3848 196.036C53.9788 195.711 54.6746 195.548 55.4722 195.548C56.3104 195.548 57.0469 195.707 57.6816 196.024C58.3245 196.341 58.8617 196.797 59.293 197.391C59.7324 197.985 60.062 198.693 60.2817 199.515C60.5096 200.337 60.6235 201.249 60.6235 202.25ZM57.0957 202.506V202.25C57.0957 201.688 57.0469 201.171 56.9492 200.699C56.8597 200.219 56.7132 199.8 56.5098 199.442C56.3145 199.084 56.054 198.807 55.7285 198.612C55.4111 198.408 55.0246 198.307 54.5688 198.307C54.0887 198.307 53.6777 198.384 53.3359 198.539C53.0023 198.693 52.7297 198.917 52.5181 199.21C52.3065 199.503 52.1478 199.853 52.042 200.26C51.9362 200.667 51.8711 201.126 51.8467 201.639V203.336C51.8874 203.938 52.0013 204.479 52.1885 204.959C52.3757 205.431 52.6646 205.806 53.0552 206.083C53.4458 206.359 53.9585 206.498 54.5933 206.498C55.0571 206.498 55.4478 206.396 55.7651 206.192C56.0825 205.981 56.3389 205.692 56.5342 205.326C56.7376 204.959 56.88 204.536 56.9614 204.056C57.0509 203.576 57.0957 203.059 57.0957 202.506ZM66.3242 198.331V214.078H62.8086V195.792H66.0679L66.3242 198.331ZM74.686 202.25V202.506C74.686 203.466 74.5721 204.357 74.3442 205.179C74.1245 206.001 73.799 206.717 73.3677 207.328C72.9364 207.93 72.3993 208.402 71.7563 208.744C71.1216 209.077 70.3892 209.244 69.5591 209.244C68.7534 209.244 68.0535 209.081 67.4595 208.756C66.8654 208.43 66.3649 207.975 65.958 207.389C65.5592 206.795 65.2378 206.107 64.9937 205.326C64.7495 204.544 64.5623 203.706 64.4321 202.811V202.14C64.5623 201.179 64.7495 200.3 64.9937 199.503C65.2378 198.697 65.5592 198.001 65.958 197.416C66.3649 196.821 66.8613 196.362 67.4473 196.036C68.0413 195.711 68.7371 195.548 69.5347 195.548C70.3729 195.548 71.1094 195.707 71.7441 196.024C72.387 196.341 72.9242 196.797 73.3555 197.391C73.7949 197.985 74.1245 198.693 74.3442 199.515C74.5721 200.337 74.686 201.249 74.686 202.25ZM71.1582 202.506V202.25C71.1582 201.688 71.1094 201.171 71.0117 200.699C70.9222 200.219 70.7757 199.8 70.5723 199.442C70.377 199.084 70.1165 198.807 69.791 198.612C69.4736 198.408 69.0871 198.307 68.6313 198.307C68.1512 198.307 67.7402 198.384 67.3984 198.539C67.0648 198.693 66.7922 198.917 66.5806 199.21C66.369 199.503 66.2103 199.853 66.1045 200.26C65.9987 200.667 65.9336 201.126 65.9092 201.639V203.336C65.9499 203.938 66.0638 204.479 66.251 204.959C66.4382 205.431 66.7271 205.806 67.1177 206.083C67.5083 206.359 68.021 206.498 68.6558 206.498C69.1196 206.498 69.5103 206.396 69.8276 206.192C70.145 205.981 70.4014 205.692 70.5967 205.326C70.8001 204.959 70.9425 204.536 71.0239 204.056C71.1134 203.576 71.1582 203.059 71.1582 202.506ZM80.582 190.25V209H77.0542V190.25H80.582ZM87.1982 195.792V209H83.6704V195.792H87.1982ZM83.4507 192.35C83.4507 191.837 83.6297 191.414 83.9878 191.08C84.3459 190.746 84.826 190.58 85.4282 190.58C86.0223 190.58 86.4984 190.746 86.8564 191.08C87.2227 191.414 87.4058 191.837 87.4058 192.35C87.4058 192.862 87.2227 193.285 86.8564 193.619C86.4984 193.953 86.0223 194.12 85.4282 194.12C84.826 194.12 84.3459 193.953 83.9878 193.619C83.6297 193.285 83.4507 192.862 83.4507 192.35ZM95.5601 206.498C95.9914 206.498 96.3739 206.416 96.7075 206.253C97.0412 206.083 97.3016 205.847 97.4888 205.545C97.6841 205.236 97.7858 204.874 97.7939 204.459H101.102C101.094 205.387 100.846 206.213 100.357 206.937C99.8691 207.653 99.214 208.219 98.3921 208.634C97.5701 209.041 96.6506 209.244 95.6333 209.244C94.6079 209.244 93.7127 209.073 92.9478 208.731C92.1909 208.39 91.5602 207.918 91.0557 207.315C90.5511 206.705 90.1727 205.997 89.9204 205.191C89.6681 204.378 89.542 203.507 89.542 202.579V202.225C89.542 201.289 89.6681 200.418 89.9204 199.613C90.1727 198.799 90.5511 198.091 91.0557 197.489C91.5602 196.878 92.1909 196.402 92.9478 196.061C93.7046 195.719 94.5916 195.548 95.6089 195.548C96.6912 195.548 97.6393 195.755 98.4531 196.17C99.2751 196.585 99.918 197.18 100.382 197.953C100.854 198.718 101.094 199.625 101.102 200.675H97.7939C97.7858 200.235 97.6922 199.837 97.5132 199.479C97.3423 199.12 97.09 198.836 96.7563 198.624C96.4308 198.404 96.028 198.294 95.5479 198.294C95.0352 198.294 94.616 198.404 94.2905 198.624C93.965 198.836 93.7127 199.129 93.5337 199.503C93.3547 199.869 93.2285 200.288 93.1553 200.76C93.0902 201.224 93.0576 201.712 93.0576 202.225V202.579C93.0576 203.092 93.0902 203.584 93.1553 204.056C93.2204 204.528 93.3424 204.947 93.5215 205.313C93.7087 205.68 93.965 205.969 94.2905 206.18C94.616 206.392 95.0392 206.498 95.5601 206.498ZM110.27 206.021V200.138C110.27 199.715 110.2 199.352 110.062 199.051C109.924 198.742 109.708 198.502 109.415 198.331C109.13 198.16 108.76 198.075 108.304 198.075C107.914 198.075 107.576 198.144 107.291 198.282C107.006 198.412 106.786 198.604 106.632 198.856C106.477 199.1 106.4 199.389 106.4 199.723H102.884C102.884 199.161 103.014 198.628 103.275 198.124C103.535 197.619 103.914 197.175 104.41 196.793C104.907 196.402 105.497 196.097 106.18 195.877C106.872 195.658 107.645 195.548 108.5 195.548C109.525 195.548 110.436 195.719 111.234 196.061C112.031 196.402 112.658 196.915 113.114 197.599C113.578 198.282 113.81 199.137 113.81 200.162V205.814C113.81 206.538 113.854 207.132 113.944 207.596C114.033 208.052 114.164 208.451 114.334 208.792V209H110.782C110.611 208.642 110.481 208.194 110.392 207.657C110.31 207.112 110.27 206.567 110.27 206.021ZM110.733 200.956L110.758 202.945H108.792C108.329 202.945 107.926 202.998 107.584 203.104C107.242 203.21 106.961 203.36 106.742 203.556C106.522 203.743 106.359 203.963 106.253 204.215C106.156 204.467 106.107 204.744 106.107 205.045C106.107 205.346 106.176 205.619 106.314 205.863C106.453 206.099 106.652 206.286 106.913 206.424C107.173 206.555 107.478 206.62 107.828 206.62C108.357 206.62 108.817 206.514 109.208 206.302C109.598 206.091 109.899 205.83 110.111 205.521C110.331 205.212 110.444 204.919 110.453 204.642L111.38 206.131C111.25 206.465 111.071 206.811 110.843 207.169C110.624 207.527 110.343 207.865 110.001 208.182C109.659 208.491 109.248 208.748 108.768 208.951C108.288 209.146 107.718 209.244 107.059 209.244C106.221 209.244 105.46 209.077 104.776 208.744C104.101 208.402 103.564 207.934 103.165 207.34C102.774 206.738 102.579 206.054 102.579 205.289C102.579 204.597 102.709 203.983 102.97 203.446C103.23 202.909 103.613 202.457 104.117 202.091C104.63 201.716 105.269 201.436 106.034 201.249C106.799 201.053 107.686 200.956 108.695 200.956H110.733ZM122.989 195.792V198.282H115.299V195.792H122.989ZM117.203 192.533H120.719V205.021C120.719 205.403 120.768 205.696 120.865 205.899C120.971 206.103 121.126 206.245 121.329 206.327C121.533 206.4 121.789 206.437 122.098 206.437C122.318 206.437 122.513 206.428 122.684 206.412C122.863 206.388 123.014 206.363 123.136 206.339L123.148 208.927C122.847 209.024 122.521 209.102 122.171 209.159C121.821 209.216 121.435 209.244 121.012 209.244C120.239 209.244 119.563 209.118 118.985 208.866C118.416 208.605 117.976 208.19 117.667 207.621C117.358 207.051 117.203 206.302 117.203 205.375V192.533ZM128.702 195.792V209H125.174V195.792H128.702ZM124.955 192.35C124.955 191.837 125.134 191.414 125.492 191.08C125.85 190.746 126.33 190.58 126.932 190.58C127.526 190.58 128.002 190.746 128.36 191.08C128.727 191.414 128.91 191.837 128.91 192.35C128.91 192.862 128.727 193.285 128.36 193.619C128.002 193.953 127.526 194.12 126.932 194.12C126.33 194.12 125.85 193.953 125.492 193.619C125.134 193.285 124.955 192.862 124.955 192.35ZM131.046 202.53V202.274C131.046 201.306 131.184 200.414 131.461 199.601C131.738 198.779 132.14 198.067 132.669 197.464C133.198 196.862 133.849 196.394 134.623 196.061C135.396 195.719 136.283 195.548 137.284 195.548C138.285 195.548 139.176 195.719 139.957 196.061C140.738 196.394 141.393 196.862 141.922 197.464C142.459 198.067 142.866 198.779 143.143 199.601C143.42 200.414 143.558 201.306 143.558 202.274V202.53C143.558 203.491 143.42 204.382 143.143 205.204C142.866 206.017 142.459 206.729 141.922 207.34C141.393 207.942 140.742 208.41 139.969 208.744C139.196 209.077 138.309 209.244 137.308 209.244C136.307 209.244 135.416 209.077 134.635 208.744C133.862 208.41 133.207 207.942 132.669 207.34C132.14 206.729 131.738 206.017 131.461 205.204C131.184 204.382 131.046 203.491 131.046 202.53ZM134.562 202.274V202.53C134.562 203.084 134.61 203.6 134.708 204.081C134.806 204.561 134.96 204.984 135.172 205.35C135.392 205.708 135.676 205.989 136.026 206.192C136.376 206.396 136.804 206.498 137.308 206.498C137.796 206.498 138.215 206.396 138.565 206.192C138.915 205.989 139.196 205.708 139.408 205.35C139.619 204.984 139.774 204.561 139.872 204.081C139.977 203.6 140.03 203.084 140.03 202.53V202.274C140.03 201.737 139.977 201.232 139.872 200.76C139.774 200.28 139.615 199.857 139.396 199.491C139.184 199.116 138.903 198.823 138.553 198.612C138.203 198.4 137.78 198.294 137.284 198.294C136.787 198.294 136.364 198.4 136.014 198.612C135.672 198.823 135.392 199.116 135.172 199.491C134.96 199.857 134.806 200.28 134.708 200.76C134.61 201.232 134.562 201.737 134.562 202.274ZM149.161 198.612V209H145.646V195.792H148.941L149.161 198.612ZM148.648 201.932H147.696C147.696 200.956 147.822 200.077 148.075 199.295C148.327 198.506 148.681 197.835 149.137 197.281C149.592 196.72 150.134 196.292 150.76 196C151.395 195.698 152.103 195.548 152.884 195.548C153.503 195.548 154.068 195.637 154.581 195.816C155.094 195.995 155.533 196.28 155.899 196.671C156.274 197.062 156.559 197.578 156.754 198.221C156.957 198.864 157.059 199.649 157.059 200.577V209H153.519V200.565C153.519 199.979 153.438 199.523 153.275 199.198C153.112 198.872 152.872 198.644 152.555 198.514C152.245 198.376 151.863 198.307 151.407 198.307C150.935 198.307 150.524 198.4 150.174 198.587C149.833 198.775 149.548 199.035 149.32 199.369C149.1 199.694 148.933 200.077 148.819 200.516C148.705 200.956 148.648 201.428 148.648 201.932ZM166.874 205.35C166.874 205.098 166.8 204.87 166.654 204.667C166.507 204.463 166.235 204.276 165.836 204.105C165.445 203.926 164.88 203.763 164.139 203.617C163.472 203.47 162.849 203.287 162.271 203.067C161.702 202.84 161.205 202.567 160.782 202.25C160.367 201.932 160.042 201.558 159.806 201.126C159.57 200.687 159.452 200.187 159.452 199.625C159.452 199.072 159.57 198.551 159.806 198.062C160.05 197.574 160.396 197.143 160.843 196.769C161.299 196.386 161.852 196.089 162.503 195.877C163.163 195.658 163.903 195.548 164.725 195.548C165.873 195.548 166.857 195.731 167.679 196.097C168.509 196.463 169.144 196.968 169.583 197.611C170.031 198.246 170.255 198.97 170.255 199.784H166.739C166.739 199.442 166.666 199.137 166.52 198.868C166.381 198.591 166.161 198.376 165.86 198.221C165.567 198.058 165.185 197.977 164.713 197.977C164.322 197.977 163.985 198.046 163.7 198.185C163.415 198.315 163.195 198.494 163.041 198.722C162.894 198.941 162.821 199.186 162.821 199.454C162.821 199.658 162.861 199.841 162.943 200.003C163.032 200.158 163.175 200.3 163.37 200.431C163.565 200.561 163.818 200.683 164.127 200.797C164.444 200.903 164.835 201 165.299 201.09C166.251 201.285 167.101 201.542 167.85 201.859C168.599 202.168 169.193 202.591 169.632 203.128C170.072 203.657 170.292 204.353 170.292 205.216C170.292 205.802 170.161 206.339 169.901 206.827C169.64 207.315 169.266 207.743 168.778 208.109C168.29 208.467 167.704 208.748 167.02 208.951C166.345 209.146 165.584 209.244 164.737 209.244C163.508 209.244 162.467 209.024 161.612 208.585C160.766 208.146 160.123 207.588 159.684 206.913C159.252 206.229 159.037 205.529 159.037 204.813H162.369C162.385 205.293 162.507 205.68 162.735 205.973C162.971 206.266 163.268 206.477 163.626 206.607C163.993 206.738 164.387 206.803 164.811 206.803C165.266 206.803 165.645 206.742 165.946 206.62C166.247 206.489 166.475 206.319 166.629 206.107C166.792 205.887 166.874 205.635 166.874 205.35Z" fill="white"/>
<path d="M50 120H74.5L85.5 148L119 127L171 137.5L167.5 102L194.5 90.5L163.5 63L159 28.5L123 50L92 25L74.5 56H45L60.5 90.5L50 120Z" fill="white" fill-opacity="0.5"/>
</svg>
