<svg width="240" height="240" viewBox="0 0 240 240" fill="none" xmlns="http://www.w3.org/2000/svg">
<rect width="240" height="240" fill="white"/>
<rect x="10" y="10" width="220" height="220" rx="20" fill="#D6B2E7"/>
<path d="M41.8896 173.104H45.5396C45.4663 174.3 45.1367 175.362 44.5508 176.29C43.973 177.218 43.1632 177.942 42.1216 178.463C41.0881 178.984 39.8429 179.244 38.3862 179.244C37.2469 179.244 36.2256 179.049 35.3223 178.658C34.4189 178.259 33.6458 177.69 33.0029 176.949C32.3682 176.209 31.884 175.313 31.5503 174.264C31.2166 173.214 31.0498 172.038 31.0498 170.736V169.503C31.0498 168.201 31.2207 167.025 31.5625 165.975C31.9124 164.917 32.4089 164.018 33.0518 163.277C33.7028 162.537 34.48 161.967 35.3833 161.568C36.2866 161.17 37.2957 160.97 38.4106 160.97C39.8918 160.97 41.141 161.239 42.1582 161.776C43.1836 162.313 43.9771 163.054 44.5386 163.998C45.1082 164.942 45.45 166.016 45.564 167.22H41.9019C41.8612 166.504 41.7188 165.898 41.4746 165.401C41.2305 164.897 40.8602 164.518 40.3638 164.266C39.8755 164.006 39.2244 163.875 38.4106 163.875C37.8003 163.875 37.2673 163.989 36.8115 164.217C36.3558 164.445 35.9733 164.791 35.6641 165.255C35.3548 165.719 35.1229 166.305 34.9683 167.013C34.8218 167.713 34.7485 168.535 34.7485 169.479V170.736C34.7485 171.655 34.8177 172.465 34.9561 173.165C35.0944 173.857 35.306 174.443 35.5908 174.923C35.8838 175.395 36.2581 175.753 36.7139 175.997C37.1777 176.233 37.7352 176.351 38.3862 176.351C39.1512 176.351 39.7819 176.229 40.2783 175.985C40.7747 175.741 41.1532 175.379 41.4136 174.898C41.6821 174.418 41.8408 173.82 41.8896 173.104ZM62.5439 169.698V170.541C62.5439 171.891 62.3608 173.104 61.9946 174.178C61.6284 175.252 61.1117 176.168 60.4443 176.925C59.777 177.674 58.9795 178.247 58.0518 178.646C57.1322 179.045 56.1108 179.244 54.9878 179.244C53.8729 179.244 52.8516 179.045 51.9238 178.646C51.0042 178.247 50.2067 177.674 49.5312 176.925C48.8558 176.168 48.3309 175.252 47.9565 174.178C47.5903 173.104 47.4072 171.891 47.4072 170.541V169.698C47.4072 168.339 47.5903 167.127 47.9565 166.061C48.3228 164.986 48.8395 164.071 49.5068 163.314C50.1823 162.557 50.9798 161.979 51.8994 161.581C52.8271 161.182 53.8485 160.982 54.9634 160.982C56.0864 160.982 57.1077 161.182 58.0273 161.581C58.9551 161.979 59.7526 162.557 60.4199 163.314C61.0954 164.071 61.6162 164.986 61.9824 166.061C62.3568 167.127 62.5439 168.339 62.5439 169.698ZM58.8452 170.541V169.674C58.8452 168.73 58.7598 167.9 58.5889 167.184C58.418 166.467 58.1657 165.865 57.832 165.377C57.4984 164.889 57.0915 164.522 56.6113 164.278C56.1312 164.026 55.5819 163.9 54.9634 163.9C54.3449 163.9 53.7956 164.026 53.3154 164.278C52.8434 164.522 52.4406 164.889 52.1069 165.377C51.7814 165.865 51.5332 166.467 51.3623 167.184C51.1914 167.9 51.106 168.73 51.106 169.674V170.541C51.106 171.476 51.1914 172.306 51.3623 173.031C51.5332 173.747 51.7855 174.353 52.1191 174.85C52.4528 175.338 52.8597 175.708 53.3398 175.96C53.82 176.213 54.3693 176.339 54.9878 176.339C55.6063 176.339 56.1556 176.213 56.6357 175.96C57.1159 175.708 57.5187 175.338 57.8442 174.85C58.1698 174.353 58.418 173.747 58.5889 173.031C58.7598 172.306 58.8452 171.476 58.8452 170.541ZM71.3208 175.289L75.5078 161.227H79.585L73.396 179H70.7104L71.3208 175.289ZM67.4634 161.227L71.6382 175.289L72.2729 179H69.563L63.4106 161.227H67.4634ZM85.1392 161.227V179H81.4893V161.227H85.1392ZM94.0259 179H90.1562L90.1807 176.144H94.0259C94.9862 176.144 95.7959 175.928 96.4551 175.497C97.1143 175.057 97.6107 174.418 97.9443 173.58C98.2861 172.742 98.457 171.729 98.457 170.541V169.674C98.457 168.762 98.3594 167.961 98.1641 167.269C97.9769 166.577 97.6961 165.995 97.3218 165.523C96.9474 165.051 96.4876 164.697 95.9424 164.461C95.3971 164.217 94.7705 164.095 94.0625 164.095H90.083V161.227H94.0625C95.2507 161.227 96.3371 161.43 97.3218 161.837C98.3146 162.236 99.1732 162.809 99.8975 163.558C100.622 164.307 101.179 165.202 101.57 166.244C101.969 167.277 102.168 168.429 102.168 169.698V170.541C102.168 171.802 101.969 172.953 101.57 173.995C101.179 175.037 100.622 175.932 99.8975 176.681C99.1813 177.421 98.3228 177.995 97.3218 178.402C96.3289 178.801 95.2303 179 94.0259 179ZM92.2314 161.227V179H88.5693V161.227H92.2314ZM115.327 176.437L118.257 165.792H121.931L117.476 179H115.254L115.327 176.437ZM113.313 165.792L116.255 176.449L116.316 179H114.082L109.626 165.792H113.313ZM130.439 176.021V170.138C130.439 169.715 130.37 169.352 130.232 169.051C130.094 168.742 129.878 168.502 129.585 168.331C129.3 168.16 128.93 168.075 128.474 168.075C128.083 168.075 127.746 168.144 127.461 168.282C127.176 168.412 126.956 168.604 126.802 168.856C126.647 169.1 126.57 169.389 126.57 169.723H123.054C123.054 169.161 123.184 168.628 123.445 168.124C123.705 167.619 124.084 167.175 124.58 166.793C125.076 166.402 125.667 166.097 126.35 165.877C127.042 165.658 127.815 165.548 128.669 165.548C129.695 165.548 130.606 165.719 131.404 166.061C132.201 166.402 132.828 166.915 133.284 167.599C133.748 168.282 133.979 169.137 133.979 170.162V175.814C133.979 176.538 134.024 177.132 134.114 177.596C134.203 178.052 134.333 178.451 134.504 178.792V179H130.952C130.781 178.642 130.651 178.194 130.562 177.657C130.48 177.112 130.439 176.567 130.439 176.021ZM130.903 170.956L130.928 172.945H128.962C128.499 172.945 128.096 172.998 127.754 173.104C127.412 173.21 127.131 173.36 126.912 173.556C126.692 173.743 126.529 173.963 126.423 174.215C126.326 174.467 126.277 174.744 126.277 175.045C126.277 175.346 126.346 175.619 126.484 175.863C126.623 176.099 126.822 176.286 127.083 176.424C127.343 176.555 127.648 176.62 127.998 176.62C128.527 176.62 128.987 176.514 129.377 176.302C129.768 176.091 130.069 175.83 130.281 175.521C130.5 175.212 130.614 174.919 130.623 174.642L131.55 176.131C131.42 176.465 131.241 176.811 131.013 177.169C130.793 177.527 130.513 177.865 130.171 178.182C129.829 178.491 129.418 178.748 128.938 178.951C128.458 179.146 127.888 179.244 127.229 179.244C126.391 179.244 125.63 179.077 124.946 178.744C124.271 178.402 123.734 177.934 123.335 177.34C122.944 176.738 122.749 176.054 122.749 175.289C122.749 174.597 122.879 173.983 123.14 173.446C123.4 172.909 123.783 172.457 124.287 172.091C124.8 171.716 125.439 171.436 126.204 171.249C126.969 171.053 127.856 170.956 128.865 170.956H130.903ZM142.146 176.498C142.577 176.498 142.96 176.416 143.293 176.253C143.627 176.083 143.888 175.847 144.075 175.545C144.27 175.236 144.372 174.874 144.38 174.459H147.688C147.68 175.387 147.432 176.213 146.943 176.937C146.455 177.653 145.8 178.219 144.978 178.634C144.156 179.041 143.236 179.244 142.219 179.244C141.194 179.244 140.299 179.073 139.534 178.731C138.777 178.39 138.146 177.918 137.642 177.315C137.137 176.705 136.759 175.997 136.506 175.191C136.254 174.378 136.128 173.507 136.128 172.579V172.225C136.128 171.289 136.254 170.418 136.506 169.613C136.759 168.799 137.137 168.091 137.642 167.489C138.146 166.878 138.777 166.402 139.534 166.061C140.291 165.719 141.178 165.548 142.195 165.548C143.277 165.548 144.225 165.755 145.039 166.17C145.861 166.585 146.504 167.18 146.968 167.953C147.44 168.718 147.68 169.625 147.688 170.675H144.38C144.372 170.235 144.278 169.837 144.099 169.479C143.928 169.12 143.676 168.836 143.342 168.624C143.017 168.404 142.614 168.294 142.134 168.294C141.621 168.294 141.202 168.404 140.876 168.624C140.551 168.836 140.299 169.129 140.12 169.503C139.941 169.869 139.814 170.288 139.741 170.76C139.676 171.224 139.644 171.712 139.644 172.225V172.579C139.644 173.092 139.676 173.584 139.741 174.056C139.806 174.528 139.928 174.947 140.107 175.313C140.295 175.68 140.551 175.969 140.876 176.18C141.202 176.392 141.625 176.498 142.146 176.498ZM155.183 176.498C155.614 176.498 155.997 176.416 156.331 176.253C156.664 176.083 156.925 175.847 157.112 175.545C157.307 175.236 157.409 174.874 157.417 174.459H160.725C160.717 175.387 160.469 176.213 159.98 176.937C159.492 177.653 158.837 178.219 158.015 178.634C157.193 179.041 156.274 179.244 155.256 179.244C154.231 179.244 153.336 179.073 152.571 178.731C151.814 178.39 151.183 177.918 150.679 177.315C150.174 176.705 149.796 175.997 149.543 175.191C149.291 174.378 149.165 173.507 149.165 172.579V172.225C149.165 171.289 149.291 170.418 149.543 169.613C149.796 168.799 150.174 168.091 150.679 167.489C151.183 166.878 151.814 166.402 152.571 166.061C153.328 165.719 154.215 165.548 155.232 165.548C156.314 165.548 157.262 165.755 158.076 166.17C158.898 166.585 159.541 167.18 160.005 167.953C160.477 168.718 160.717 169.625 160.725 170.675H157.417C157.409 170.235 157.315 169.837 157.136 169.479C156.965 169.12 156.713 168.836 156.379 168.624C156.054 168.404 155.651 168.294 155.171 168.294C154.658 168.294 154.239 168.404 153.914 168.624C153.588 168.836 153.336 169.129 153.157 169.503C152.978 169.869 152.852 170.288 152.778 170.76C152.713 171.224 152.681 171.712 152.681 172.225V172.579C152.681 173.092 152.713 173.584 152.778 174.056C152.843 174.528 152.965 174.947 153.145 175.313C153.332 175.68 153.588 175.969 153.914 176.18C154.239 176.392 154.662 176.498 155.183 176.498ZM166.475 165.792V179H162.947V165.792H166.475ZM162.727 162.35C162.727 161.837 162.906 161.414 163.264 161.08C163.622 160.746 164.102 160.58 164.705 160.58C165.299 160.58 165.775 160.746 166.133 161.08C166.499 161.414 166.682 161.837 166.682 162.35C166.682 162.862 166.499 163.285 166.133 163.619C165.775 163.953 165.299 164.12 164.705 164.12C164.102 164.12 163.622 163.953 163.264 163.619C162.906 163.285 162.727 162.862 162.727 162.35ZM172.822 168.612V179H169.307V165.792H172.603L172.822 168.612ZM172.31 171.932H171.357C171.357 170.956 171.484 170.077 171.736 169.295C171.988 168.506 172.342 167.835 172.798 167.281C173.254 166.72 173.795 166.292 174.421 166C175.056 165.698 175.764 165.548 176.545 165.548C177.164 165.548 177.729 165.637 178.242 165.816C178.755 165.995 179.194 166.28 179.561 166.671C179.935 167.062 180.22 167.578 180.415 168.221C180.618 168.864 180.72 169.649 180.72 170.577V179H177.18V170.565C177.18 169.979 177.099 169.523 176.936 169.198C176.773 168.872 176.533 168.644 176.216 168.514C175.907 168.376 175.524 168.307 175.068 168.307C174.596 168.307 174.185 168.4 173.835 168.587C173.494 168.775 173.209 169.035 172.981 169.369C172.761 169.694 172.594 170.077 172.48 170.516C172.367 170.956 172.31 171.428 172.31 171.932ZM189.473 179.244C188.447 179.244 187.528 179.081 186.714 178.756C185.9 178.422 185.208 177.962 184.639 177.376C184.077 176.791 183.646 176.111 183.345 175.338C183.044 174.557 182.893 173.727 182.893 172.848V172.359C182.893 171.358 183.035 170.443 183.32 169.613C183.605 168.783 184.012 168.062 184.541 167.452C185.078 166.842 185.729 166.374 186.494 166.048C187.259 165.715 188.122 165.548 189.082 165.548C190.018 165.548 190.848 165.702 191.572 166.012C192.297 166.321 192.903 166.76 193.391 167.33C193.888 167.9 194.262 168.583 194.514 169.381C194.766 170.17 194.893 171.049 194.893 172.018V173.482H184.395V171.139H191.438V170.87C191.438 170.382 191.348 169.946 191.169 169.564C190.999 169.173 190.738 168.864 190.388 168.636C190.038 168.408 189.591 168.294 189.045 168.294C188.582 168.294 188.183 168.396 187.849 168.6C187.515 168.803 187.243 169.088 187.031 169.454C186.828 169.82 186.673 170.252 186.567 170.748C186.47 171.236 186.421 171.773 186.421 172.359V172.848C186.421 173.377 186.494 173.865 186.641 174.312C186.795 174.76 187.011 175.147 187.288 175.472C187.572 175.798 187.914 176.05 188.313 176.229C188.72 176.408 189.18 176.498 189.692 176.498C190.327 176.498 190.917 176.375 191.462 176.131C192.016 175.879 192.492 175.501 192.891 174.996L194.6 176.852C194.323 177.25 193.944 177.633 193.464 177.999C192.992 178.365 192.423 178.666 191.755 178.902C191.088 179.13 190.327 179.244 189.473 179.244ZM38.5083 204.35C38.5083 204.098 38.4351 203.87 38.2886 203.667C38.1421 203.463 37.8695 203.276 37.4707 203.105C37.0801 202.926 36.5145 202.763 35.7739 202.617C35.1066 202.47 34.484 202.287 33.9062 202.067C33.3366 201.84 32.8402 201.567 32.417 201.25C32.002 200.932 31.6764 200.558 31.4404 200.126C31.2044 199.687 31.0864 199.187 31.0864 198.625C31.0864 198.072 31.2044 197.551 31.4404 197.062C31.6846 196.574 32.0304 196.143 32.478 195.769C32.9338 195.386 33.4871 195.089 34.1382 194.877C34.7974 194.658 35.5379 194.548 36.3599 194.548C37.5073 194.548 38.492 194.731 39.314 195.097C40.144 195.463 40.7788 195.968 41.2183 196.611C41.6659 197.246 41.8896 197.97 41.8896 198.784H38.374C38.374 198.442 38.3008 198.137 38.1543 197.868C38.016 197.591 37.7962 197.376 37.4951 197.221C37.2021 197.058 36.8197 196.977 36.3477 196.977C35.957 196.977 35.6193 197.046 35.3345 197.185C35.0496 197.315 34.8299 197.494 34.6753 197.722C34.5288 197.941 34.4556 198.186 34.4556 198.454C34.4556 198.658 34.4963 198.841 34.5776 199.003C34.6672 199.158 34.8096 199.3 35.0049 199.431C35.2002 199.561 35.4525 199.683 35.7617 199.797C36.0791 199.903 36.4697 200 36.9336 200.09C37.8857 200.285 38.7362 200.542 39.4849 200.859C40.2336 201.168 40.8276 201.591 41.2671 202.128C41.7065 202.657 41.9263 203.353 41.9263 204.216C41.9263 204.802 41.7961 205.339 41.5356 205.827C41.2752 206.315 40.9009 206.743 40.4126 207.109C39.9243 207.467 39.3384 207.748 38.6548 207.951C37.9793 208.146 37.2184 208.244 36.3721 208.244C35.1432 208.244 34.1016 208.024 33.2471 207.585C32.4007 207.146 31.7578 206.588 31.3184 205.913C30.887 205.229 30.6714 204.529 30.6714 203.813H34.0039C34.0202 204.293 34.1423 204.68 34.3701 204.973C34.6061 205.266 34.9032 205.477 35.2612 205.607C35.6274 205.738 36.0221 205.803 36.4453 205.803C36.901 205.803 37.2795 205.742 37.5806 205.62C37.8817 205.489 38.1095 205.319 38.2642 205.107C38.4269 204.887 38.5083 204.635 38.5083 204.35ZM50.6787 194.792V197.282H42.9883V194.792H50.6787ZM44.8926 191.533H48.4082V204.021C48.4082 204.403 48.457 204.696 48.5547 204.899C48.6605 205.103 48.8151 205.245 49.0186 205.327C49.222 205.4 49.4784 205.437 49.7876 205.437C50.0073 205.437 50.2026 205.428 50.3735 205.412C50.5526 205.388 50.7031 205.363 50.8252 205.339L50.8374 207.927C50.5363 208.024 50.2108 208.102 49.8608 208.159C49.5109 208.216 49.1243 208.244 48.7012 208.244C47.9281 208.244 47.2526 208.118 46.6748 207.866C46.1051 207.605 45.6657 207.19 45.3564 206.621C45.0472 206.051 44.8926 205.302 44.8926 204.375V191.533ZM59.8096 205.021V199.138C59.8096 198.715 59.7404 198.352 59.6021 198.051C59.4637 197.742 59.248 197.502 58.9551 197.331C58.6702 197.16 58.3 197.075 57.8442 197.075C57.4536 197.075 57.1159 197.144 56.8311 197.282C56.5462 197.412 56.3265 197.604 56.1719 197.856C56.0173 198.1 55.9399 198.389 55.9399 198.723H52.4243C52.4243 198.161 52.5545 197.628 52.8149 197.124C53.0754 196.619 53.4538 196.175 53.9502 195.793C54.4466 195.402 55.0366 195.097 55.7202 194.877C56.4119 194.658 57.1851 194.548 58.0396 194.548C59.0649 194.548 59.9764 194.719 60.7739 195.061C61.5715 195.402 62.1981 195.915 62.6538 196.599C63.1177 197.282 63.3496 198.137 63.3496 199.162V204.814C63.3496 205.538 63.3944 206.132 63.4839 206.596C63.5734 207.052 63.7036 207.451 63.8745 207.792V208H60.3223C60.1514 207.642 60.0212 207.194 59.9316 206.657C59.8503 206.112 59.8096 205.567 59.8096 205.021ZM60.2734 199.956L60.2979 201.945H58.3325C57.8687 201.945 57.4658 201.998 57.124 202.104C56.7822 202.21 56.5015 202.36 56.2817 202.556C56.062 202.743 55.8993 202.963 55.7935 203.215C55.6958 203.467 55.647 203.744 55.647 204.045C55.647 204.346 55.7161 204.619 55.8545 204.863C55.9928 205.099 56.1922 205.286 56.4526 205.424C56.7131 205.555 57.0182 205.62 57.3682 205.62C57.8971 205.62 58.3569 205.514 58.7476 205.302C59.1382 205.091 59.4393 204.83 59.6509 204.521C59.8706 204.212 59.9845 203.919 59.9927 203.642L60.9204 205.131C60.7902 205.465 60.6112 205.811 60.3833 206.169C60.1636 206.527 59.8828 206.865 59.541 207.182C59.1992 207.491 58.7882 207.748 58.3081 207.951C57.828 208.146 57.2583 208.244 56.5991 208.244C55.7609 208.244 55 208.077 54.3164 207.744C53.641 207.402 53.1038 206.934 52.7051 206.34C52.3145 205.738 52.1191 205.054 52.1191 204.289C52.1191 203.597 52.2493 202.983 52.5098 202.446C52.7702 201.909 53.1527 201.457 53.6572 201.091C54.1699 200.716 54.8088 200.436 55.5737 200.249C56.3387 200.053 57.2257 199.956 58.2349 199.956H60.2734ZM72.5293 194.792V197.282H64.8389V194.792H72.5293ZM66.7432 191.533H70.2588V204.021C70.2588 204.403 70.3076 204.696 70.4053 204.899C70.5111 205.103 70.6657 205.245 70.8691 205.327C71.0726 205.4 71.3289 205.437 71.6382 205.437C71.8579 205.437 72.0532 205.428 72.2241 205.412C72.4032 205.388 72.5537 205.363 72.6758 205.339L72.688 207.927C72.3869 208.024 72.0614 208.102 71.7114 208.159C71.3615 208.216 70.9749 208.244 70.5518 208.244C69.7786 208.244 69.1032 208.118 68.5254 207.866C67.9557 207.605 67.5163 207.19 67.207 206.621C66.8978 206.051 66.7432 205.302 66.7432 204.375V191.533ZM82.3438 204.838V194.792H85.8594V208H82.5513L82.3438 204.838ZM82.7344 202.128L83.772 202.104C83.772 202.983 83.6702 203.801 83.4668 204.558C83.2633 205.306 82.9582 205.957 82.5513 206.511C82.1444 207.056 81.6317 207.483 81.0132 207.792C80.3947 208.094 79.6663 208.244 78.8281 208.244C78.1852 208.244 77.5911 208.155 77.0459 207.976C76.5088 207.788 76.0449 207.5 75.6543 207.109C75.2718 206.71 74.9707 206.201 74.751 205.583C74.5394 204.956 74.4336 204.204 74.4336 203.325V194.792H77.9492V203.349C77.9492 203.74 77.994 204.069 78.0835 204.338C78.1812 204.606 78.3154 204.826 78.4863 204.997C78.6572 205.168 78.8566 205.29 79.0845 205.363C79.3205 205.437 79.5809 205.473 79.8657 205.473C80.59 205.473 81.1597 205.327 81.5747 205.034C81.9979 204.741 82.2949 204.342 82.4658 203.837C82.6449 203.325 82.7344 202.755 82.7344 202.128ZM95.686 204.35C95.686 204.098 95.6128 203.87 95.4663 203.667C95.3198 203.463 95.0472 203.276 94.6484 203.105C94.2578 202.926 93.6922 202.763 92.9517 202.617C92.2843 202.47 91.6618 202.287 91.084 202.067C90.5143 201.84 90.0179 201.567 89.5947 201.25C89.1797 200.932 88.8542 200.558 88.6182 200.126C88.3822 199.687 88.2642 199.187 88.2642 198.625C88.2642 198.072 88.3822 197.551 88.6182 197.062C88.8623 196.574 89.2082 196.143 89.6558 195.769C90.1115 195.386 90.6649 195.089 91.3159 194.877C91.9751 194.658 92.7157 194.548 93.5376 194.548C94.6851 194.548 95.6698 194.731 96.4917 195.097C97.3218 195.463 97.9565 195.968 98.396 196.611C98.8436 197.246 99.0674 197.97 99.0674 198.784H95.5518C95.5518 198.442 95.4785 198.137 95.332 197.868C95.1937 197.591 94.974 197.376 94.6729 197.221C94.3799 197.058 93.9974 196.977 93.5254 196.977C93.1348 196.977 92.797 197.046 92.5122 197.185C92.2274 197.315 92.0076 197.494 91.853 197.722C91.7065 197.941 91.6333 198.186 91.6333 198.454C91.6333 198.658 91.674 198.841 91.7554 199.003C91.8449 199.158 91.9873 199.3 92.1826 199.431C92.3779 199.561 92.6302 199.683 92.9395 199.797C93.2568 199.903 93.6475 200 94.1113 200.09C95.0635 200.285 95.9139 200.542 96.6626 200.859C97.4113 201.168 98.0054 201.591 98.4448 202.128C98.8843 202.657 99.104 203.353 99.104 204.216C99.104 204.802 98.9738 205.339 98.7134 205.827C98.453 206.315 98.0786 206.743 97.5903 207.109C97.1021 207.467 96.5161 207.748 95.8325 207.951C95.1571 208.146 94.3962 208.244 93.5498 208.244C92.321 208.244 91.2793 208.024 90.4248 207.585C89.5785 207.146 88.9355 206.588 88.4961 205.913C88.0648 205.229 87.8491 204.529 87.8491 203.813H91.1816C91.1979 204.293 91.32 204.68 91.5479 204.973C91.7839 205.266 92.0809 205.477 92.439 205.607C92.8052 205.738 93.1999 205.803 93.623 205.803C94.0788 205.803 94.4572 205.742 94.7583 205.62C95.0594 205.489 95.2873 205.319 95.4419 205.107C95.6047 204.887 95.686 204.635 95.686 204.35ZM113.069 205.498C113.5 205.498 113.883 205.416 114.216 205.253C114.55 205.083 114.81 204.847 114.998 204.545C115.193 204.236 115.295 203.874 115.303 203.459H118.611C118.603 204.387 118.354 205.213 117.866 205.937C117.378 206.653 116.723 207.219 115.901 207.634C115.079 208.041 114.159 208.244 113.142 208.244C112.117 208.244 111.222 208.073 110.457 207.731C109.7 207.39 109.069 206.918 108.564 206.315C108.06 205.705 107.681 204.997 107.429 204.191C107.177 203.378 107.051 202.507 107.051 201.579V201.225C107.051 200.289 107.177 199.418 107.429 198.613C107.681 197.799 108.06 197.091 108.564 196.489C109.069 195.878 109.7 195.402 110.457 195.061C111.213 194.719 112.1 194.548 113.118 194.548C114.2 194.548 115.148 194.755 115.962 195.17C116.784 195.585 117.427 196.18 117.891 196.953C118.363 197.718 118.603 198.625 118.611 199.675H115.303C115.295 199.235 115.201 198.837 115.022 198.479C114.851 198.12 114.599 197.836 114.265 197.624C113.94 197.404 113.537 197.294 113.057 197.294C112.544 197.294 112.125 197.404 111.799 197.624C111.474 197.836 111.222 198.129 111.042 198.503C110.863 198.869 110.737 199.288 110.664 199.76C110.599 200.224 110.566 200.712 110.566 201.225V201.579C110.566 202.092 110.599 202.584 110.664 203.056C110.729 203.528 110.851 203.947 111.03 204.313C111.217 204.68 111.474 204.969 111.799 205.18C112.125 205.392 112.548 205.498 113.069 205.498ZM124.08 189.25V208H120.564V189.25H124.08ZM123.579 200.932H122.615C122.623 200.013 122.745 199.166 122.981 198.393C123.217 197.612 123.555 196.936 123.994 196.367C124.434 195.789 124.958 195.341 125.569 195.024C126.187 194.707 126.871 194.548 127.62 194.548C128.271 194.548 128.861 194.641 129.39 194.829C129.927 195.008 130.387 195.301 130.769 195.708C131.16 196.106 131.461 196.631 131.672 197.282C131.884 197.933 131.99 198.723 131.99 199.65V208H128.45V199.626C128.45 199.04 128.364 198.58 128.193 198.247C128.031 197.905 127.791 197.665 127.473 197.526C127.164 197.38 126.781 197.307 126.326 197.307C125.821 197.307 125.39 197.4 125.032 197.587C124.682 197.775 124.401 198.035 124.189 198.369C123.978 198.694 123.823 199.077 123.726 199.516C123.628 199.956 123.579 200.428 123.579 200.932ZM141.792 205.021V199.138C141.792 198.715 141.723 198.352 141.584 198.051C141.446 197.742 141.23 197.502 140.938 197.331C140.653 197.16 140.282 197.075 139.827 197.075C139.436 197.075 139.098 197.144 138.813 197.282C138.529 197.412 138.309 197.604 138.154 197.856C138 198.1 137.922 198.389 137.922 198.723H134.407C134.407 198.161 134.537 197.628 134.797 197.124C135.058 196.619 135.436 196.175 135.933 195.793C136.429 195.402 137.019 195.097 137.703 194.877C138.394 194.658 139.167 194.548 140.022 194.548C141.047 194.548 141.959 194.719 142.756 195.061C143.554 195.402 144.181 195.915 144.636 196.599C145.1 197.282 145.332 198.137 145.332 199.162V204.814C145.332 205.538 145.377 206.132 145.466 206.596C145.556 207.052 145.686 207.451 145.857 207.792V208H142.305C142.134 207.642 142.004 207.194 141.914 206.657C141.833 206.112 141.792 205.567 141.792 205.021ZM142.256 199.956L142.28 201.945H140.315C139.851 201.945 139.448 201.998 139.106 202.104C138.765 202.21 138.484 202.36 138.264 202.556C138.044 202.743 137.882 202.963 137.776 203.215C137.678 203.467 137.629 203.744 137.629 204.045C137.629 204.346 137.699 204.619 137.837 204.863C137.975 205.099 138.175 205.286 138.435 205.424C138.695 205.555 139.001 205.62 139.351 205.62C139.88 205.62 140.339 205.514 140.73 205.302C141.121 205.091 141.422 204.83 141.633 204.521C141.853 204.212 141.967 203.919 141.975 203.642L142.903 205.131C142.773 205.465 142.594 205.811 142.366 206.169C142.146 206.527 141.865 206.865 141.523 207.182C141.182 207.491 140.771 207.748 140.291 207.951C139.81 208.146 139.241 208.244 138.582 208.244C137.743 208.244 136.982 208.077 136.299 207.744C135.623 207.402 135.086 206.934 134.688 206.34C134.297 205.738 134.102 205.054 134.102 204.289C134.102 203.597 134.232 202.983 134.492 202.446C134.753 201.909 135.135 201.457 135.64 201.091C136.152 200.716 136.791 200.436 137.556 200.249C138.321 200.053 139.208 199.956 140.217 199.956H142.256ZM151.484 197.612V208H147.969V194.792H151.265L151.484 197.612ZM150.972 200.932H150.02C150.02 199.956 150.146 199.077 150.398 198.295C150.65 197.506 151.004 196.835 151.46 196.281C151.916 195.72 152.457 195.292 153.083 195C153.718 194.698 154.426 194.548 155.208 194.548C155.826 194.548 156.392 194.637 156.904 194.816C157.417 194.995 157.856 195.28 158.223 195.671C158.597 196.062 158.882 196.578 159.077 197.221C159.281 197.864 159.382 198.649 159.382 199.577V208H155.842V199.565C155.842 198.979 155.761 198.523 155.598 198.198C155.435 197.872 155.195 197.644 154.878 197.514C154.569 197.376 154.186 197.307 153.73 197.307C153.258 197.307 152.847 197.4 152.498 197.587C152.156 197.775 151.871 198.035 151.643 198.369C151.423 198.694 151.257 199.077 151.143 199.516C151.029 199.956 150.972 200.428 150.972 200.932ZM170.417 194.792H173.604V207.561C173.604 208.765 173.335 209.786 172.798 210.625C172.269 211.471 171.528 212.11 170.576 212.541C169.624 212.98 168.517 213.2 167.256 213.2C166.702 213.2 166.117 213.127 165.498 212.98C164.888 212.834 164.302 212.606 163.74 212.297C163.187 211.988 162.723 211.597 162.349 211.125L163.899 209.05C164.306 209.522 164.778 209.888 165.315 210.148C165.852 210.417 166.446 210.551 167.097 210.551C167.732 210.551 168.269 210.433 168.708 210.197C169.148 209.969 169.486 209.632 169.722 209.184C169.958 208.745 170.076 208.212 170.076 207.585V197.844L170.417 194.792ZM161.531 201.555V201.298C161.531 200.289 161.653 199.374 161.897 198.552C162.149 197.722 162.503 197.01 162.959 196.416C163.423 195.821 163.984 195.362 164.644 195.036C165.303 194.711 166.047 194.548 166.877 194.548C167.756 194.548 168.493 194.711 169.087 195.036C169.681 195.362 170.169 195.826 170.552 196.428C170.934 197.022 171.231 197.726 171.443 198.54C171.663 199.345 171.833 200.228 171.956 201.188V201.75C171.833 202.67 171.65 203.524 171.406 204.313C171.162 205.103 170.841 205.795 170.442 206.389C170.043 206.975 169.547 207.43 168.953 207.756C168.367 208.081 167.667 208.244 166.853 208.244C166.039 208.244 165.303 208.077 164.644 207.744C163.993 207.41 163.435 206.942 162.971 206.34C162.507 205.738 162.149 205.03 161.897 204.216C161.653 203.402 161.531 202.515 161.531 201.555ZM165.046 201.298V201.555C165.046 202.1 165.099 202.609 165.205 203.081C165.311 203.553 165.474 203.972 165.693 204.338C165.921 204.696 166.202 204.977 166.536 205.18C166.877 205.375 167.28 205.473 167.744 205.473C168.387 205.473 168.912 205.339 169.319 205.07C169.726 204.794 170.031 204.415 170.234 203.935C170.438 203.455 170.556 202.902 170.588 202.275V200.676C170.572 200.163 170.503 199.703 170.381 199.296C170.259 198.881 170.088 198.527 169.868 198.234C169.648 197.941 169.364 197.714 169.014 197.551C168.664 197.388 168.249 197.307 167.769 197.307C167.305 197.307 166.902 197.412 166.56 197.624C166.226 197.827 165.946 198.108 165.718 198.466C165.498 198.824 165.331 199.248 165.217 199.736C165.103 200.216 165.046 200.737 165.046 201.298ZM182.417 208.244C181.392 208.244 180.472 208.081 179.658 207.756C178.844 207.422 178.153 206.962 177.583 206.376C177.021 205.791 176.59 205.111 176.289 204.338C175.988 203.557 175.837 202.727 175.837 201.848V201.359C175.837 200.358 175.98 199.443 176.265 198.613C176.549 197.783 176.956 197.062 177.485 196.452C178.022 195.842 178.674 195.374 179.438 195.048C180.203 194.715 181.066 194.548 182.026 194.548C182.962 194.548 183.792 194.702 184.517 195.012C185.241 195.321 185.847 195.76 186.335 196.33C186.832 196.9 187.206 197.583 187.458 198.381C187.711 199.17 187.837 200.049 187.837 201.018V202.482H177.339V200.139H184.382V199.87C184.382 199.382 184.293 198.946 184.114 198.564C183.943 198.173 183.682 197.864 183.333 197.636C182.983 197.408 182.535 197.294 181.99 197.294C181.526 197.294 181.127 197.396 180.793 197.6C180.46 197.803 180.187 198.088 179.976 198.454C179.772 198.82 179.618 199.252 179.512 199.748C179.414 200.236 179.365 200.773 179.365 201.359V201.848C179.365 202.377 179.438 202.865 179.585 203.312C179.74 203.76 179.955 204.147 180.232 204.472C180.517 204.798 180.859 205.05 181.257 205.229C181.664 205.408 182.124 205.498 182.637 205.498C183.271 205.498 183.861 205.375 184.407 205.131C184.96 204.879 185.436 204.501 185.835 203.996L187.544 205.852C187.267 206.25 186.889 206.633 186.409 206.999C185.937 207.365 185.367 207.666 184.7 207.902C184.032 208.13 183.271 208.244 182.417 208.244Z" fill="white"/>
<rect x="150.002" y="49" width="30.4768" height="75.0426" transform="rotate(45.2727 150.002 49)" fill="white" fill-opacity="0.5"/>
<rect x="101.157" y="106.115" width="16.9695" height="19.9257" transform="rotate(45.2727 101.157 106.115)" fill="white" fill-opacity="0.5"/>
<rect x="172.679" y="45.6952" width="5.1249" height="18.4051" transform="rotate(45.2727 172.679 45.6952)" fill="white" fill-opacity="0.5"/>
<rect x="187.213" y="51.9202" width="5.1249" height="24.4636" transform="rotate(133.761 187.213 51.9202)" fill="white" fill-opacity="0.5"/>
<path d="M73.5 146.5L92.5 125.5L94.9022 128L73.5 146.5Z" fill="white" fill-opacity="0.5"/>
</svg>
