<svg width="240" height="240" viewBox="0 0 240 240" fill="none" xmlns="http://www.w3.org/2000/svg">
<rect width="240" height="240" fill="white"/>
<rect x="10" y="10" width="220" height="220" rx="20" fill="#B2DDAB"/>
<path d="M38.249 161.227V179H34.5869V161.227H38.249ZM45.3291 168.819V171.676H37.248V168.819H45.3291ZM46.1836 161.227V164.095H37.248V161.227H46.1836ZM51.7988 160.25V179H48.271V160.25H51.7988ZM61.833 176.021V170.138C61.833 169.715 61.7638 169.352 61.6255 169.051C61.4871 168.742 61.2715 168.502 60.9785 168.331C60.6937 168.16 60.3234 168.075 59.8677 168.075C59.4771 168.075 59.1393 168.144 58.8545 168.282C58.5697 168.412 58.3499 168.604 58.1953 168.856C58.0407 169.1 57.9634 169.389 57.9634 169.723H54.4478C54.4478 169.161 54.578 168.628 54.8384 168.124C55.0988 167.619 55.4772 167.175 55.9736 166.793C56.4701 166.402 57.0601 166.097 57.7437 165.877C58.4354 165.658 59.2085 165.548 60.063 165.548C61.0884 165.548 61.9998 165.719 62.7974 166.061C63.5949 166.402 64.2215 166.915 64.6772 167.599C65.1411 168.282 65.373 169.137 65.373 170.162V175.814C65.373 176.538 65.4178 177.132 65.5073 177.596C65.5968 178.052 65.7271 178.451 65.8979 178.792V179H62.3457C62.1748 178.642 62.0446 178.194 61.9551 177.657C61.8737 177.112 61.833 176.567 61.833 176.021ZM62.2969 170.956L62.3213 172.945H60.356C59.8921 172.945 59.4893 172.998 59.1475 173.104C58.8057 173.21 58.5249 173.36 58.3052 173.556C58.0854 173.743 57.9227 173.963 57.8169 174.215C57.7192 174.467 57.6704 174.744 57.6704 175.045C57.6704 175.346 57.7396 175.619 57.8779 175.863C58.0163 176.099 58.2157 176.286 58.4761 176.424C58.7365 176.555 59.0417 176.62 59.3916 176.62C59.9206 176.62 60.3804 176.514 60.771 176.302C61.1616 176.091 61.4627 175.83 61.6743 175.521C61.894 175.212 62.008 174.919 62.0161 174.642L62.9438 176.131C62.8136 176.465 62.6346 176.811 62.4067 177.169C62.187 177.527 61.9062 177.865 61.5645 178.182C61.2227 178.491 60.8117 178.748 60.3315 178.951C59.8514 179.146 59.2817 179.244 58.6226 179.244C57.7843 179.244 57.0234 179.077 56.3398 178.744C55.6644 178.402 55.1273 177.934 54.7285 177.34C54.3379 176.738 54.1426 176.054 54.1426 175.289C54.1426 174.597 54.2728 173.983 54.5332 173.446C54.7936 172.909 55.1761 172.457 55.6807 172.091C56.1934 171.716 56.8322 171.436 57.5972 171.249C58.3621 171.053 59.2492 170.956 60.2583 170.956H62.2969ZM76.4448 165.792H79.6309V178.561C79.6309 179.765 79.3623 180.786 78.8252 181.625C78.2962 182.471 77.5557 183.11 76.6035 183.541C75.6514 183.98 74.5446 184.2 73.2832 184.2C72.7298 184.2 72.1439 184.127 71.5254 183.98C70.915 183.834 70.3291 183.606 69.7676 183.297C69.2142 182.988 68.7503 182.597 68.376 182.125L69.9263 180.05C70.3332 180.522 70.8052 180.888 71.3423 181.148C71.8794 181.417 72.4735 181.551 73.1245 181.551C73.7593 181.551 74.2964 181.433 74.7358 181.197C75.1753 180.969 75.513 180.632 75.749 180.184C75.985 179.745 76.103 179.212 76.103 178.585V168.844L76.4448 165.792ZM67.5581 172.555V172.298C67.5581 171.289 67.6802 170.374 67.9243 169.552C68.1766 168.722 68.5306 168.01 68.9863 167.416C69.4502 166.821 70.0117 166.362 70.6709 166.036C71.3301 165.711 72.0747 165.548 72.9048 165.548C73.7837 165.548 74.5202 165.711 75.1143 166.036C75.7083 166.362 76.1966 166.826 76.5791 167.428C76.9616 168.022 77.2586 168.726 77.4702 169.54C77.6899 170.345 77.8608 171.228 77.9829 172.188V172.75C77.8608 173.67 77.6777 174.524 77.4336 175.313C77.1895 176.103 76.868 176.795 76.4692 177.389C76.0705 177.975 75.5741 178.43 74.98 178.756C74.394 179.081 73.6942 179.244 72.8804 179.244C72.0666 179.244 71.3301 179.077 70.6709 178.744C70.0199 178.41 69.4624 177.942 68.9985 177.34C68.5347 176.738 68.1766 176.03 67.9243 175.216C67.6802 174.402 67.5581 173.515 67.5581 172.555ZM71.0737 172.298V172.555C71.0737 173.1 71.1266 173.609 71.2324 174.081C71.3382 174.553 71.501 174.972 71.7207 175.338C71.9486 175.696 72.2293 175.977 72.563 176.18C72.9048 176.375 73.3076 176.473 73.7715 176.473C74.4144 176.473 74.9393 176.339 75.3462 176.07C75.7531 175.794 76.0583 175.415 76.2617 174.935C76.4652 174.455 76.5832 173.902 76.6157 173.275V171.676C76.5994 171.163 76.5303 170.703 76.4082 170.296C76.2861 169.881 76.1152 169.527 75.8955 169.234C75.6758 168.941 75.391 168.714 75.041 168.551C74.6911 168.388 74.276 168.307 73.7959 168.307C73.332 168.307 72.9292 168.412 72.5874 168.624C72.2537 168.827 71.973 169.108 71.7451 169.466C71.5254 169.824 71.3586 170.248 71.2446 170.736C71.1307 171.216 71.0737 171.737 71.0737 172.298ZM92.3018 160.25V179H88.7739V160.25H92.3018ZM102.336 176.021V170.138C102.336 169.715 102.267 169.352 102.128 169.051C101.99 168.742 101.774 168.502 101.481 168.331C101.197 168.16 100.826 168.075 100.371 168.075C99.98 168.075 99.6423 168.144 99.3574 168.282C99.0726 168.412 98.8529 168.604 98.6982 168.856C98.5436 169.1 98.4663 169.389 98.4663 169.723H94.9507C94.9507 169.161 95.0809 168.628 95.3413 168.124C95.6017 167.619 95.9801 167.175 96.4766 166.793C96.973 166.402 97.563 166.097 98.2466 165.877C98.9383 165.658 99.7114 165.548 100.566 165.548C101.591 165.548 102.503 165.719 103.3 166.061C104.098 166.402 104.724 166.915 105.18 167.599C105.644 168.282 105.876 169.137 105.876 170.162V175.814C105.876 176.538 105.921 177.132 106.01 177.596C106.1 178.052 106.23 178.451 106.401 178.792V179H102.849C102.678 178.642 102.548 178.194 102.458 177.657C102.377 177.112 102.336 176.567 102.336 176.021ZM102.8 170.956L102.824 172.945H100.859C100.395 172.945 99.9922 172.998 99.6504 173.104C99.3086 173.21 99.0278 173.36 98.8081 173.556C98.5884 173.743 98.4256 173.963 98.3198 174.215C98.2222 174.467 98.1733 174.744 98.1733 175.045C98.1733 175.346 98.2425 175.619 98.3809 175.863C98.5192 176.099 98.7186 176.286 98.979 176.424C99.2394 176.555 99.5446 176.62 99.8945 176.62C100.424 176.62 100.883 176.514 101.274 176.302C101.665 176.091 101.966 175.83 102.177 175.521C102.397 175.212 102.511 174.919 102.519 174.642L103.447 176.131C103.317 176.465 103.138 176.811 102.91 177.169C102.69 177.527 102.409 177.865 102.067 178.182C101.726 178.491 101.315 178.748 100.834 178.951C100.354 179.146 99.7847 179.244 99.1255 179.244C98.2873 179.244 97.5264 179.077 96.8428 178.744C96.1673 178.402 95.6302 177.934 95.2314 177.34C94.8408 176.738 94.6455 176.054 94.6455 175.289C94.6455 174.597 94.7757 173.983 95.0361 173.446C95.2965 172.909 95.679 172.457 96.1836 172.091C96.6963 171.716 97.3351 171.436 98.1001 171.249C98.8651 171.053 99.7521 170.956 100.761 170.956H102.8ZM112.102 168.673V179H108.586V165.792H111.894L112.102 168.673ZM116.081 165.707L116.02 168.966C115.849 168.941 115.642 168.921 115.397 168.905C115.161 168.88 114.946 168.868 114.75 168.868C114.254 168.868 113.823 168.933 113.457 169.063C113.098 169.186 112.797 169.369 112.553 169.613C112.317 169.857 112.138 170.154 112.016 170.504C111.902 170.854 111.837 171.253 111.821 171.7L111.113 171.48C111.113 170.626 111.198 169.841 111.369 169.125C111.54 168.4 111.788 167.77 112.114 167.232C112.447 166.695 112.854 166.28 113.334 165.987C113.815 165.694 114.364 165.548 114.982 165.548C115.178 165.548 115.377 165.564 115.581 165.597C115.784 165.621 115.951 165.658 116.081 165.707ZM125.859 165.792H129.045V178.561C129.045 179.765 128.776 180.786 128.239 181.625C127.71 182.471 126.97 183.11 126.018 183.541C125.065 183.98 123.959 184.2 122.697 184.2C122.144 184.2 121.558 184.127 120.939 183.98C120.329 183.834 119.743 183.606 119.182 183.297C118.628 182.988 118.164 182.597 117.79 182.125L119.34 180.05C119.747 180.522 120.219 180.888 120.756 181.148C121.293 181.417 121.888 181.551 122.539 181.551C123.173 181.551 123.71 181.433 124.15 181.197C124.589 180.969 124.927 180.632 125.163 180.184C125.399 179.745 125.517 179.212 125.517 178.585V168.844L125.859 165.792ZM116.972 172.555V172.298C116.972 171.289 117.094 170.374 117.338 169.552C117.591 168.722 117.945 168.01 118.4 167.416C118.864 166.821 119.426 166.362 120.085 166.036C120.744 165.711 121.489 165.548 122.319 165.548C123.198 165.548 123.934 165.711 124.528 166.036C125.122 166.362 125.611 166.826 125.993 167.428C126.376 168.022 126.673 168.726 126.884 169.54C127.104 170.345 127.275 171.228 127.397 172.188V172.75C127.275 173.67 127.092 174.524 126.848 175.313C126.604 176.103 126.282 176.795 125.883 177.389C125.485 177.975 124.988 178.43 124.394 178.756C123.808 179.081 123.108 179.244 122.294 179.244C121.481 179.244 120.744 179.077 120.085 178.744C119.434 178.41 118.876 177.942 118.413 177.34C117.949 176.738 117.591 176.03 117.338 175.216C117.094 174.402 116.972 173.515 116.972 172.555ZM120.488 172.298V172.555C120.488 173.1 120.541 173.609 120.646 174.081C120.752 174.553 120.915 174.972 121.135 175.338C121.363 175.696 121.643 175.977 121.977 176.18C122.319 176.375 122.722 176.473 123.186 176.473C123.828 176.473 124.353 176.339 124.76 176.07C125.167 175.794 125.472 175.415 125.676 174.935C125.879 174.455 125.997 173.902 126.03 173.275V171.676C126.014 171.163 125.944 170.703 125.822 170.296C125.7 169.881 125.529 169.527 125.31 169.234C125.09 168.941 124.805 168.714 124.455 168.551C124.105 168.388 123.69 168.307 123.21 168.307C122.746 168.307 122.343 168.412 122.001 168.624C121.668 168.827 121.387 169.108 121.159 169.466C120.939 169.824 120.773 170.248 120.659 170.736C120.545 171.216 120.488 171.737 120.488 172.298ZM137.858 179.244C136.833 179.244 135.913 179.081 135.1 178.756C134.286 178.422 133.594 177.962 133.024 177.376C132.463 176.791 132.032 176.111 131.73 175.338C131.429 174.557 131.279 173.727 131.279 172.848V172.359C131.279 171.358 131.421 170.443 131.706 169.613C131.991 168.783 132.398 168.062 132.927 167.452C133.464 166.842 134.115 166.374 134.88 166.048C135.645 165.715 136.507 165.548 137.468 165.548C138.404 165.548 139.234 165.702 139.958 166.012C140.682 166.321 141.289 166.76 141.777 167.33C142.273 167.9 142.648 168.583 142.9 169.381C143.152 170.17 143.278 171.049 143.278 172.018V173.482H132.78V171.139H139.824V170.87C139.824 170.382 139.734 169.946 139.555 169.564C139.384 169.173 139.124 168.864 138.774 168.636C138.424 168.408 137.976 168.294 137.431 168.294C136.967 168.294 136.569 168.396 136.235 168.6C135.901 168.803 135.629 169.088 135.417 169.454C135.214 169.82 135.059 170.252 134.953 170.748C134.855 171.236 134.807 171.773 134.807 172.359V172.848C134.807 173.377 134.88 173.865 135.026 174.312C135.181 174.76 135.397 175.147 135.673 175.472C135.958 175.798 136.3 176.05 136.699 176.229C137.106 176.408 137.565 176.498 138.078 176.498C138.713 176.498 139.303 176.375 139.848 176.131C140.402 175.879 140.878 175.501 141.276 174.996L142.985 176.852C142.709 177.25 142.33 177.633 141.85 177.999C141.378 178.365 140.808 178.666 140.141 178.902C139.474 179.13 138.713 179.244 137.858 179.244ZM40.8369 194.792V197.282H33.1465V194.792H40.8369ZM35.0508 191.533H38.5664V204.021C38.5664 204.403 38.6152 204.696 38.7129 204.899C38.8187 205.103 38.9733 205.245 39.1768 205.327C39.3802 205.4 39.6366 205.437 39.9458 205.437C40.1655 205.437 40.3608 205.428 40.5317 205.412C40.7108 205.388 40.8613 205.363 40.9834 205.339L40.9956 207.927C40.6945 208.024 40.369 208.102 40.019 208.159C39.6691 208.216 39.2826 208.244 38.8594 208.244C38.0863 208.244 37.4108 208.118 36.833 207.866C36.2633 207.605 35.8239 207.19 35.5146 206.621C35.2054 206.051 35.0508 205.302 35.0508 204.375V191.533ZM46.3545 197.673V208H42.8389V194.792H46.147L46.3545 197.673ZM50.334 194.707L50.2729 197.966C50.1021 197.941 49.8945 197.921 49.6504 197.905C49.4144 197.88 49.1987 197.868 49.0034 197.868C48.507 197.868 48.0757 197.933 47.7095 198.063C47.3514 198.186 47.0503 198.369 46.8062 198.613C46.5701 198.857 46.3911 199.154 46.269 199.504C46.1551 199.854 46.09 200.253 46.0737 200.7L45.3657 200.48C45.3657 199.626 45.4512 198.841 45.6221 198.125C45.793 197.4 46.0412 196.77 46.3667 196.232C46.7004 195.695 47.1073 195.28 47.5874 194.987C48.0675 194.694 48.6169 194.548 49.2354 194.548C49.4307 194.548 49.63 194.564 49.8335 194.597C50.0369 194.621 50.2038 194.658 50.334 194.707ZM58.708 205.021V199.138C58.708 198.715 58.6388 198.352 58.5005 198.051C58.3621 197.742 58.1465 197.502 57.8535 197.331C57.5687 197.16 57.1984 197.075 56.7427 197.075C56.3521 197.075 56.0143 197.144 55.7295 197.282C55.4447 197.412 55.2249 197.604 55.0703 197.856C54.9157 198.1 54.8384 198.389 54.8384 198.723H51.3228C51.3228 198.161 51.453 197.628 51.7134 197.124C51.9738 196.619 52.3522 196.175 52.8486 195.793C53.3451 195.402 53.9351 195.097 54.6187 194.877C55.3104 194.658 56.0835 194.548 56.938 194.548C57.9634 194.548 58.8748 194.719 59.6724 195.061C60.4699 195.402 61.0965 195.915 61.5522 196.599C62.0161 197.282 62.248 198.137 62.248 199.162V204.814C62.248 205.538 62.2928 206.132 62.3823 206.596C62.4718 207.052 62.6021 207.451 62.7729 207.792V208H59.2207C59.0498 207.642 58.9196 207.194 58.8301 206.657C58.7487 206.112 58.708 205.567 58.708 205.021ZM59.1719 199.956L59.1963 201.945H57.231C56.7671 201.945 56.3643 201.998 56.0225 202.104C55.6807 202.21 55.3999 202.36 55.1802 202.556C54.9604 202.743 54.7977 202.963 54.6919 203.215C54.5942 203.467 54.5454 203.744 54.5454 204.045C54.5454 204.346 54.6146 204.619 54.7529 204.863C54.8913 205.099 55.0907 205.286 55.3511 205.424C55.6115 205.555 55.9167 205.62 56.2666 205.62C56.7956 205.62 57.2554 205.514 57.646 205.302C58.0366 205.091 58.3377 204.83 58.5493 204.521C58.769 204.212 58.883 203.919 58.8911 203.642L59.8188 205.131C59.6886 205.465 59.5096 205.811 59.2817 206.169C59.062 206.527 58.7812 206.865 58.4395 207.182C58.0977 207.491 57.6867 207.748 57.2065 207.951C56.7264 208.146 56.1567 208.244 55.4976 208.244C54.6593 208.244 53.8984 208.077 53.2148 207.744C52.5394 207.402 52.0023 206.934 51.6035 206.34C51.2129 205.738 51.0176 205.054 51.0176 204.289C51.0176 203.597 51.1478 202.983 51.4082 202.446C51.6686 201.909 52.0511 201.457 52.5557 201.091C53.0684 200.716 53.7072 200.436 54.4722 200.249C55.2371 200.053 56.1242 199.956 57.1333 199.956H59.1719ZM68.4004 197.612V208H64.8848V194.792H68.1807L68.4004 197.612ZM67.8877 200.932H66.9355C66.9355 199.956 67.0617 199.077 67.314 198.295C67.5662 197.506 67.9202 196.835 68.376 196.281C68.8317 195.72 69.3729 195.292 69.9995 195C70.6343 194.698 71.3423 194.548 72.1235 194.548C72.742 194.548 73.3076 194.637 73.8203 194.816C74.333 194.995 74.7725 195.28 75.1387 195.671C75.513 196.062 75.7979 196.578 75.9932 197.221C76.1966 197.864 76.2983 198.649 76.2983 199.577V208H72.7583V199.565C72.7583 198.979 72.6769 198.523 72.5142 198.198C72.3514 197.872 72.1113 197.644 71.7939 197.514C71.4847 197.376 71.1022 197.307 70.6465 197.307C70.1745 197.307 69.7635 197.4 69.4136 197.587C69.0718 197.775 68.7869 198.035 68.5591 198.369C68.3394 198.694 68.1725 199.077 68.0586 199.516C67.9447 199.956 67.8877 200.428 67.8877 200.932ZM86.1128 204.35C86.1128 204.098 86.0396 203.87 85.8931 203.667C85.7466 203.463 85.474 203.276 85.0752 203.105C84.6846 202.926 84.119 202.763 83.3784 202.617C82.7111 202.47 82.0885 202.287 81.5107 202.067C80.9411 201.84 80.4447 201.567 80.0215 201.25C79.6064 200.932 79.2809 200.558 79.0449 200.126C78.8089 199.687 78.6909 199.187 78.6909 198.625C78.6909 198.072 78.8089 197.551 79.0449 197.062C79.2891 196.574 79.6349 196.143 80.0825 195.769C80.5382 195.386 81.0916 195.089 81.7427 194.877C82.4019 194.658 83.1424 194.548 83.9644 194.548C85.1118 194.548 86.0965 194.731 86.9185 195.097C87.7485 195.463 88.3833 195.968 88.8228 196.611C89.2703 197.246 89.4941 197.97 89.4941 198.784H85.9785C85.9785 198.442 85.9053 198.137 85.7588 197.868C85.6204 197.591 85.4007 197.376 85.0996 197.221C84.8066 197.058 84.4242 196.977 83.9521 196.977C83.5615 196.977 83.2238 197.046 82.939 197.185C82.6541 197.315 82.4344 197.494 82.2798 197.722C82.1333 197.941 82.0601 198.186 82.0601 198.454C82.0601 198.658 82.1007 198.841 82.1821 199.003C82.2716 199.158 82.4141 199.3 82.6094 199.431C82.8047 199.561 83.057 199.683 83.3662 199.797C83.6836 199.903 84.0742 200 84.5381 200.09C85.4902 200.285 86.3407 200.542 87.0894 200.859C87.8381 201.168 88.4321 201.591 88.8716 202.128C89.311 202.657 89.5308 203.353 89.5308 204.216C89.5308 204.802 89.4006 205.339 89.1401 205.827C88.8797 206.315 88.5054 206.743 88.0171 207.109C87.5288 207.467 86.9429 207.748 86.2593 207.951C85.5838 208.146 84.8229 208.244 83.9766 208.244C82.7477 208.244 81.7061 208.024 80.8516 207.585C80.0052 207.146 79.3623 206.588 78.9229 205.913C78.4915 205.229 78.2759 204.529 78.2759 203.813H81.6084C81.6247 204.293 81.7467 204.68 81.9746 204.973C82.2106 205.266 82.5076 205.477 82.8657 205.607C83.2319 205.738 83.6266 205.803 84.0498 205.803C84.5055 205.803 84.884 205.742 85.1851 205.62C85.4862 205.489 85.714 205.319 85.8687 205.107C86.0314 204.887 86.1128 204.635 86.1128 204.35ZM98.9424 205.021V199.138C98.9424 198.715 98.8732 198.352 98.7349 198.051C98.5965 197.742 98.3809 197.502 98.0879 197.331C97.8031 197.16 97.4328 197.075 96.9771 197.075C96.5864 197.075 96.2487 197.144 95.9639 197.282C95.679 197.412 95.4593 197.604 95.3047 197.856C95.1501 198.1 95.0728 198.389 95.0728 198.723H91.5571C91.5571 198.161 91.6873 197.628 91.9478 197.124C92.2082 196.619 92.5866 196.175 93.083 195.793C93.5794 195.402 94.1694 195.097 94.853 194.877C95.5448 194.658 96.3179 194.548 97.1724 194.548C98.1978 194.548 99.1092 194.719 99.9067 195.061C100.704 195.402 101.331 195.915 101.787 196.599C102.25 197.282 102.482 198.137 102.482 199.162V204.814C102.482 205.538 102.527 206.132 102.617 206.596C102.706 207.052 102.836 207.451 103.007 207.792V208H99.4551C99.2842 207.642 99.154 207.194 99.0645 206.657C98.9831 206.112 98.9424 205.567 98.9424 205.021ZM99.4062 199.956L99.4307 201.945H97.4653C97.0015 201.945 96.5986 201.998 96.2568 202.104C95.915 202.21 95.6343 202.36 95.4146 202.556C95.1948 202.743 95.0321 202.963 94.9263 203.215C94.8286 203.467 94.7798 203.744 94.7798 204.045C94.7798 204.346 94.849 204.619 94.9873 204.863C95.1257 205.099 95.325 205.286 95.5854 205.424C95.8459 205.555 96.151 205.62 96.501 205.62C97.0299 205.62 97.4897 205.514 97.8804 205.302C98.271 205.091 98.5721 204.83 98.7837 204.521C99.0034 204.212 99.1174 203.919 99.1255 203.642L100.053 205.131C99.923 205.465 99.744 205.811 99.5161 206.169C99.2964 206.527 99.0156 206.865 98.6738 207.182C98.332 207.491 97.9211 207.748 97.4409 207.951C96.9608 208.146 96.3911 208.244 95.7319 208.244C94.8937 208.244 94.1328 208.077 93.4492 207.744C92.7738 207.402 92.2367 206.934 91.8379 206.34C91.4473 205.738 91.252 205.054 91.252 204.289C91.252 203.597 91.3822 202.983 91.6426 202.446C91.903 201.909 92.2855 201.457 92.79 201.091C93.3027 200.716 93.9416 200.436 94.7065 200.249C95.4715 200.053 96.3586 199.956 97.3677 199.956H99.4062ZM110.649 205.498C111.08 205.498 111.463 205.416 111.796 205.253C112.13 205.083 112.39 204.847 112.578 204.545C112.773 204.236 112.875 203.874 112.883 203.459H116.191C116.183 204.387 115.935 205.213 115.446 205.937C114.958 206.653 114.303 207.219 113.481 207.634C112.659 208.041 111.739 208.244 110.722 208.244C109.697 208.244 108.802 208.073 108.037 207.731C107.28 207.39 106.649 206.918 106.145 206.315C105.64 205.705 105.262 204.997 105.009 204.191C104.757 203.378 104.631 202.507 104.631 201.579V201.225C104.631 200.289 104.757 199.418 105.009 198.613C105.262 197.799 105.64 197.091 106.145 196.489C106.649 195.878 107.28 195.402 108.037 195.061C108.793 194.719 109.681 194.548 110.698 194.548C111.78 194.548 112.728 194.755 113.542 195.17C114.364 195.585 115.007 196.18 115.471 196.953C115.943 197.718 116.183 198.625 116.191 199.675H112.883C112.875 199.235 112.781 198.837 112.602 198.479C112.431 198.12 112.179 197.836 111.845 197.624C111.52 197.404 111.117 197.294 110.637 197.294C110.124 197.294 109.705 197.404 109.379 197.624C109.054 197.836 108.802 198.129 108.623 198.503C108.444 198.869 108.317 199.288 108.244 199.76C108.179 200.224 108.146 200.712 108.146 201.225V201.579C108.146 202.092 108.179 202.584 108.244 203.056C108.309 203.528 108.431 203.947 108.61 204.313C108.798 204.68 109.054 204.969 109.379 205.18C109.705 205.392 110.128 205.498 110.649 205.498ZM124.699 194.792V197.282H117.009V194.792H124.699ZM118.913 191.533H122.429V204.021C122.429 204.403 122.478 204.696 122.575 204.899C122.681 205.103 122.836 205.245 123.039 205.327C123.243 205.4 123.499 205.437 123.808 205.437C124.028 205.437 124.223 205.428 124.394 205.412C124.573 205.388 124.724 205.363 124.846 205.339L124.858 207.927C124.557 208.024 124.231 208.102 123.881 208.159C123.531 208.216 123.145 208.244 122.722 208.244C121.949 208.244 121.273 208.118 120.695 207.866C120.126 207.605 119.686 207.19 119.377 206.621C119.068 206.051 118.913 205.302 118.913 204.375V191.533ZM130.412 194.792V208H126.884V194.792H130.412ZM126.665 191.35C126.665 190.837 126.844 190.414 127.202 190.08C127.56 189.746 128.04 189.58 128.642 189.58C129.236 189.58 129.712 189.746 130.07 190.08C130.437 190.414 130.62 190.837 130.62 191.35C130.62 191.862 130.437 192.285 130.07 192.619C129.712 192.953 129.236 193.12 128.642 193.12C128.04 193.12 127.56 192.953 127.202 192.619C126.844 192.285 126.665 191.862 126.665 191.35ZM132.756 201.53V201.274C132.756 200.306 132.894 199.414 133.171 198.601C133.448 197.779 133.85 197.067 134.379 196.464C134.908 195.862 135.559 195.394 136.333 195.061C137.106 194.719 137.993 194.548 138.994 194.548C139.995 194.548 140.886 194.719 141.667 195.061C142.448 195.394 143.103 195.862 143.632 196.464C144.169 197.067 144.576 197.779 144.853 198.601C145.13 199.414 145.268 200.306 145.268 201.274V201.53C145.268 202.491 145.13 203.382 144.853 204.204C144.576 205.017 144.169 205.729 143.632 206.34C143.103 206.942 142.452 207.41 141.679 207.744C140.906 208.077 140.019 208.244 139.018 208.244C138.017 208.244 137.126 208.077 136.345 207.744C135.572 207.41 134.917 206.942 134.379 206.34C133.85 205.729 133.448 205.017 133.171 204.204C132.894 203.382 132.756 202.491 132.756 201.53ZM136.271 201.274V201.53C136.271 202.084 136.32 202.6 136.418 203.081C136.516 203.561 136.67 203.984 136.882 204.35C137.102 204.708 137.386 204.989 137.736 205.192C138.086 205.396 138.514 205.498 139.018 205.498C139.506 205.498 139.925 205.396 140.275 205.192C140.625 204.989 140.906 204.708 141.118 204.35C141.329 203.984 141.484 203.561 141.582 203.081C141.687 202.6 141.74 202.084 141.74 201.53V201.274C141.74 200.737 141.687 200.232 141.582 199.76C141.484 199.28 141.325 198.857 141.105 198.491C140.894 198.116 140.613 197.823 140.263 197.612C139.913 197.4 139.49 197.294 138.994 197.294C138.497 197.294 138.074 197.4 137.724 197.612C137.382 197.823 137.102 198.116 136.882 198.491C136.67 198.857 136.516 199.28 136.418 199.76C136.32 200.232 136.271 200.737 136.271 201.274ZM150.871 197.612V208H147.355V194.792H150.651L150.871 197.612ZM150.358 200.932H149.406C149.406 199.956 149.532 199.077 149.785 198.295C150.037 197.506 150.391 196.835 150.847 196.281C151.302 195.72 151.844 195.292 152.47 195C153.105 194.698 153.813 194.548 154.594 194.548C155.213 194.548 155.778 194.637 156.291 194.816C156.804 194.995 157.243 195.28 157.609 195.671C157.984 196.062 158.269 196.578 158.464 197.221C158.667 197.864 158.769 198.649 158.769 199.577V208H155.229V199.565C155.229 198.979 155.148 198.523 154.985 198.198C154.822 197.872 154.582 197.644 154.265 197.514C153.955 197.376 153.573 197.307 153.117 197.307C152.645 197.307 152.234 197.4 151.884 197.587C151.542 197.775 151.258 198.035 151.03 198.369C150.81 198.694 150.643 199.077 150.529 199.516C150.415 199.956 150.358 200.428 150.358 200.932ZM168.583 204.35C168.583 204.098 168.51 203.87 168.364 203.667C168.217 203.463 167.945 203.276 167.546 203.105C167.155 202.926 166.59 202.763 165.849 202.617C165.182 202.47 164.559 202.287 163.981 202.067C163.412 201.84 162.915 201.567 162.492 201.25C162.077 200.932 161.752 200.558 161.516 200.126C161.28 199.687 161.162 199.187 161.162 198.625C161.162 198.072 161.28 197.551 161.516 197.062C161.76 196.574 162.106 196.143 162.553 195.769C163.009 195.386 163.562 195.089 164.213 194.877C164.873 194.658 165.613 194.548 166.435 194.548C167.583 194.548 168.567 194.731 169.389 195.097C170.219 195.463 170.854 195.968 171.293 196.611C171.741 197.246 171.965 197.97 171.965 198.784H168.449C168.449 198.442 168.376 198.137 168.229 197.868C168.091 197.591 167.871 197.376 167.57 197.221C167.277 197.058 166.895 196.977 166.423 196.977C166.032 196.977 165.694 197.046 165.41 197.185C165.125 197.315 164.905 197.494 164.75 197.722C164.604 197.941 164.531 198.186 164.531 198.454C164.531 198.658 164.571 198.841 164.653 199.003C164.742 199.158 164.885 199.3 165.08 199.431C165.275 199.561 165.528 199.683 165.837 199.797C166.154 199.903 166.545 200 167.009 200.09C167.961 200.285 168.811 200.542 169.56 200.859C170.309 201.168 170.903 201.591 171.342 202.128C171.782 202.657 172.001 203.353 172.001 204.216C172.001 204.802 171.871 205.339 171.611 205.827C171.35 206.315 170.976 206.743 170.488 207.109C170 207.467 169.414 207.748 168.73 207.951C168.055 208.146 167.294 208.244 166.447 208.244C165.218 208.244 164.177 208.024 163.322 207.585C162.476 207.146 161.833 206.588 161.394 205.913C160.962 205.229 160.747 204.529 160.747 203.813H164.079C164.095 204.293 164.217 204.68 164.445 204.973C164.681 205.266 164.978 205.477 165.336 205.607C165.703 205.738 166.097 205.803 166.521 205.803C166.976 205.803 167.355 205.742 167.656 205.62C167.957 205.489 168.185 205.319 168.339 205.107C168.502 204.887 168.583 204.635 168.583 204.35Z" fill="white"/>
<rect x="75" y="79" width="20" height="59" fill="white" fill-opacity="0.5"/>
<rect x="144" y="105" width="20" height="33" fill="white" fill-opacity="0.5"/>
<rect x="179" y="121" width="20" height="17" fill="white" fill-opacity="0.5"/>
<rect x="42" y="124" width="20" height="14" fill="white" fill-opacity="0.5"/>
<rect x="108" y="32" width="19" height="106" fill="white" fill-opacity="0.5"/>
</svg>
