<svg width="240" height="240" viewBox="0 0 240 240" fill="none" xmlns="http://www.w3.org/2000/svg">
<rect width="240" height="240" fill="white"/>
<rect x="10" y="10" width="220" height="220" rx="20" fill="#D6B2E7"/>
<path d="M42.8135 165.266L37.9795 180H34.0854L40.6895 162.227H43.1675L42.8135 165.266ZM46.8296 180L41.9834 165.266L41.5928 162.227H44.0952L50.7358 180H46.8296ZM46.6099 173.384V176.252H37.2227V173.384H46.6099ZM59.3052 173.665H54.7764V170.808H59.3052C60.005 170.808 60.5747 170.694 61.0142 170.466C61.4536 170.23 61.7751 169.905 61.9785 169.49C62.182 169.075 62.2837 168.607 62.2837 168.086C62.2837 167.557 62.182 167.065 61.9785 166.609C61.7751 166.153 61.4536 165.787 61.0142 165.51C60.5747 165.234 60.005 165.095 59.3052 165.095H56.0459V180H52.3838V162.227H59.3052C60.6968 162.227 61.889 162.479 62.8818 162.983C63.8828 163.48 64.6478 164.167 65.1768 165.046C65.7057 165.925 65.9702 166.93 65.9702 168.062C65.9702 169.209 65.7057 170.202 65.1768 171.04C64.6478 171.878 63.8828 172.525 62.8818 172.981C61.889 173.437 60.6968 173.665 59.3052 173.665ZM72.3911 162.227V180H68.7412V162.227H72.3911ZM91.2998 175.349C91.2998 175.032 91.251 174.747 91.1533 174.495C91.0638 174.234 90.8929 173.998 90.6406 173.787C90.3883 173.567 90.0343 173.351 89.5786 173.14C89.1229 172.928 88.5329 172.708 87.8086 172.48C87.0029 172.22 86.238 171.927 85.5137 171.602C84.7975 171.276 84.1628 170.898 83.6094 170.466C83.0641 170.027 82.6328 169.518 82.3154 168.94C82.0062 168.363 81.8516 167.691 81.8516 166.926C81.8516 166.186 82.0143 165.514 82.3398 164.912C82.6654 164.302 83.1211 163.781 83.707 163.35C84.293 162.91 84.9847 162.572 85.7822 162.336C86.5879 162.1 87.4709 161.982 88.4312 161.982C89.7414 161.982 90.8848 162.218 91.8613 162.69C92.8379 163.162 93.5947 163.809 94.1318 164.631C94.6771 165.453 94.9497 166.393 94.9497 167.451H91.312C91.312 166.93 91.2021 166.475 90.9824 166.084C90.7708 165.685 90.4453 165.372 90.0059 165.144C89.5745 164.916 89.0293 164.802 88.3701 164.802C87.7354 164.802 87.2064 164.9 86.7832 165.095C86.36 165.282 86.0426 165.539 85.8311 165.864C85.6195 166.182 85.5137 166.54 85.5137 166.938C85.5137 167.24 85.5869 167.512 85.7334 167.756C85.888 168 86.1159 168.228 86.417 168.44C86.7181 168.652 87.0884 168.851 87.5278 169.038C87.9673 169.225 88.4759 169.408 89.0537 169.587C90.0221 169.88 90.8726 170.21 91.605 170.576C92.3455 170.942 92.964 171.353 93.4604 171.809C93.9569 172.265 94.3312 172.782 94.5835 173.359C94.8358 173.937 94.9619 174.592 94.9619 175.325C94.9619 176.098 94.8114 176.79 94.5103 177.4C94.2091 178.01 93.7738 178.527 93.2041 178.95C92.6344 179.373 91.9549 179.695 91.1655 179.915C90.3761 180.134 89.4932 180.244 88.5166 180.244C87.6377 180.244 86.771 180.13 85.9165 179.902C85.062 179.666 84.2848 179.312 83.585 178.84C82.8932 178.368 82.3398 177.766 81.9248 177.034C81.5098 176.301 81.3022 175.435 81.3022 174.434H84.9766C84.9766 174.987 85.062 175.455 85.2329 175.837C85.4038 176.22 85.6439 176.529 85.9531 176.765C86.2705 177.001 86.6449 177.172 87.0762 177.278C87.5156 177.384 87.9958 177.437 88.5166 177.437C89.1514 177.437 89.6722 177.347 90.0791 177.168C90.4941 176.989 90.7993 176.741 90.9946 176.423C91.1981 176.106 91.2998 175.748 91.2998 175.349ZM103.702 166.792V169.282H96.0117V166.792H103.702ZM97.916 163.533H101.432V176.021C101.432 176.403 101.48 176.696 101.578 176.899C101.684 177.103 101.839 177.245 102.042 177.327C102.245 177.4 102.502 177.437 102.811 177.437C103.031 177.437 103.226 177.428 103.397 177.412C103.576 177.388 103.727 177.363 103.849 177.339L103.861 179.927C103.56 180.024 103.234 180.102 102.884 180.159C102.534 180.216 102.148 180.244 101.725 180.244C100.951 180.244 100.276 180.118 99.6982 179.866C99.1286 179.605 98.6891 179.19 98.3799 178.621C98.0706 178.051 97.916 177.302 97.916 176.375V163.533ZM112.833 177.021V171.138C112.833 170.715 112.764 170.352 112.625 170.051C112.487 169.742 112.271 169.502 111.979 169.331C111.694 169.16 111.323 169.075 110.868 169.075C110.477 169.075 110.139 169.144 109.854 169.282C109.57 169.412 109.35 169.604 109.195 169.856C109.041 170.1 108.963 170.389 108.963 170.723H105.448C105.448 170.161 105.578 169.628 105.838 169.124C106.099 168.619 106.477 168.175 106.974 167.793C107.47 167.402 108.06 167.097 108.744 166.877C109.435 166.658 110.208 166.548 111.063 166.548C112.088 166.548 113 166.719 113.797 167.061C114.595 167.402 115.222 167.915 115.677 168.599C116.141 169.282 116.373 170.137 116.373 171.162V176.814C116.373 177.538 116.418 178.132 116.507 178.596C116.597 179.052 116.727 179.451 116.898 179.792V180H113.346C113.175 179.642 113.045 179.194 112.955 178.657C112.874 178.112 112.833 177.567 112.833 177.021ZM113.297 171.956L113.321 173.945H111.356C110.892 173.945 110.489 173.998 110.147 174.104C109.806 174.21 109.525 174.36 109.305 174.556C109.085 174.743 108.923 174.963 108.817 175.215C108.719 175.467 108.67 175.744 108.67 176.045C108.67 176.346 108.74 176.619 108.878 176.863C109.016 177.099 109.216 177.286 109.476 177.424C109.736 177.555 110.042 177.62 110.392 177.62C110.921 177.62 111.38 177.514 111.771 177.302C112.162 177.091 112.463 176.83 112.674 176.521C112.894 176.212 113.008 175.919 113.016 175.642L113.944 177.131C113.814 177.465 113.635 177.811 113.407 178.169C113.187 178.527 112.906 178.865 112.564 179.182C112.223 179.491 111.812 179.748 111.332 179.951C110.851 180.146 110.282 180.244 109.623 180.244C108.784 180.244 108.023 180.077 107.34 179.744C106.664 179.402 106.127 178.934 105.729 178.34C105.338 177.738 105.143 177.054 105.143 176.289C105.143 175.597 105.273 174.983 105.533 174.446C105.794 173.909 106.176 173.457 106.681 173.091C107.193 172.716 107.832 172.436 108.597 172.249C109.362 172.053 110.249 171.956 111.258 171.956H113.297ZM125.553 166.792V169.282H117.862V166.792H125.553ZM119.767 163.533H123.282V176.021C123.282 176.403 123.331 176.696 123.429 176.899C123.535 177.103 123.689 177.245 123.893 177.327C124.096 177.4 124.352 177.437 124.662 177.437C124.881 177.437 125.077 177.428 125.248 177.412C125.427 177.388 125.577 177.363 125.699 177.339L125.711 179.927C125.41 180.024 125.085 180.102 124.735 180.159C124.385 180.216 123.998 180.244 123.575 180.244C122.802 180.244 122.127 180.118 121.549 179.866C120.979 179.605 120.54 179.19 120.23 178.621C119.921 178.051 119.767 177.302 119.767 176.375V163.533ZM135.367 176.838V166.792H138.883V180H135.575L135.367 176.838ZM135.758 174.128L136.795 174.104C136.795 174.983 136.694 175.801 136.49 176.558C136.287 177.306 135.982 177.957 135.575 178.511C135.168 179.056 134.655 179.483 134.037 179.792C133.418 180.094 132.69 180.244 131.852 180.244C131.209 180.244 130.615 180.155 130.069 179.976C129.532 179.788 129.068 179.5 128.678 179.109C128.295 178.71 127.994 178.201 127.774 177.583C127.563 176.956 127.457 176.204 127.457 175.325V166.792H130.973V175.349C130.973 175.74 131.017 176.069 131.107 176.338C131.205 176.606 131.339 176.826 131.51 176.997C131.681 177.168 131.88 177.29 132.108 177.363C132.344 177.437 132.604 177.473 132.889 177.473C133.613 177.473 134.183 177.327 134.598 177.034C135.021 176.741 135.318 176.342 135.489 175.837C135.668 175.325 135.758 174.755 135.758 174.128ZM148.709 176.35C148.709 176.098 148.636 175.87 148.49 175.667C148.343 175.463 148.071 175.276 147.672 175.105C147.281 174.926 146.716 174.763 145.975 174.617C145.308 174.47 144.685 174.287 144.107 174.067C143.538 173.84 143.041 173.567 142.618 173.25C142.203 172.932 141.878 172.558 141.642 172.126C141.406 171.687 141.288 171.187 141.288 170.625C141.288 170.072 141.406 169.551 141.642 169.062C141.886 168.574 142.232 168.143 142.679 167.769C143.135 167.386 143.688 167.089 144.339 166.877C144.999 166.658 145.739 166.548 146.561 166.548C147.708 166.548 148.693 166.731 149.515 167.097C150.345 167.463 150.98 167.968 151.419 168.611C151.867 169.246 152.091 169.97 152.091 170.784H148.575C148.575 170.442 148.502 170.137 148.355 169.868C148.217 169.591 147.997 169.376 147.696 169.221C147.403 169.058 147.021 168.977 146.549 168.977C146.158 168.977 145.82 169.046 145.536 169.185C145.251 169.315 145.031 169.494 144.876 169.722C144.73 169.941 144.657 170.186 144.657 170.454C144.657 170.658 144.697 170.841 144.779 171.003C144.868 171.158 145.011 171.3 145.206 171.431C145.401 171.561 145.654 171.683 145.963 171.797C146.28 171.903 146.671 172 147.135 172.09C148.087 172.285 148.937 172.542 149.686 172.859C150.435 173.168 151.029 173.591 151.468 174.128C151.908 174.657 152.127 175.353 152.127 176.216C152.127 176.802 151.997 177.339 151.737 177.827C151.476 178.315 151.102 178.743 150.614 179.109C150.125 179.467 149.54 179.748 148.856 179.951C148.181 180.146 147.42 180.244 146.573 180.244C145.344 180.244 144.303 180.024 143.448 179.585C142.602 179.146 141.959 178.588 141.52 177.913C141.088 177.229 140.873 176.529 140.873 175.813H144.205C144.221 176.293 144.343 176.68 144.571 176.973C144.807 177.266 145.104 177.477 145.462 177.607C145.829 177.738 146.223 177.803 146.646 177.803C147.102 177.803 147.481 177.742 147.782 177.62C148.083 177.489 148.311 177.319 148.465 177.107C148.628 176.887 148.709 176.635 148.709 176.35ZM37.2593 191.227H40.3599L44.9253 204.276L49.4907 191.227H52.5913L46.1704 209H43.6802L37.2593 191.227ZM35.5869 191.227H38.6753L39.2368 203.946V209H35.5869V191.227ZM51.1753 191.227H54.2759V209H50.6138V203.946L51.1753 191.227ZM56.7051 202.53V202.274C56.7051 201.306 56.8434 200.414 57.1201 199.601C57.3968 198.779 57.7996 198.067 58.3286 197.464C58.8576 196.862 59.5086 196.394 60.2817 196.061C61.0549 195.719 61.9419 195.548 62.9429 195.548C63.9438 195.548 64.835 195.719 65.6162 196.061C66.3975 196.394 67.0526 196.862 67.5815 197.464C68.1187 198.067 68.5256 198.779 68.8022 199.601C69.0789 200.414 69.2173 201.306 69.2173 202.274V202.53C69.2173 203.491 69.0789 204.382 68.8022 205.204C68.5256 206.017 68.1187 206.729 67.5815 207.34C67.0526 207.942 66.4015 208.41 65.6284 208.744C64.8553 209.077 63.9683 209.244 62.9673 209.244C61.9663 209.244 61.0752 209.077 60.2939 208.744C59.5208 208.41 58.8657 207.942 58.3286 207.34C57.7996 206.729 57.3968 206.017 57.1201 205.204C56.8434 204.382 56.7051 203.491 56.7051 202.53ZM60.2207 202.274V202.53C60.2207 203.084 60.2695 203.6 60.3672 204.081C60.4648 204.561 60.6195 204.984 60.8311 205.35C61.0508 205.708 61.3356 205.989 61.6855 206.192C62.0355 206.396 62.4627 206.498 62.9673 206.498C63.4556 206.498 63.8747 206.396 64.2246 206.192C64.5745 205.989 64.8553 205.708 65.0669 205.35C65.2785 204.984 65.4331 204.561 65.5308 204.081C65.6366 203.6 65.6895 203.084 65.6895 202.53V202.274C65.6895 201.737 65.6366 201.232 65.5308 200.76C65.4331 200.28 65.2744 199.857 65.0547 199.491C64.8431 199.116 64.5623 198.823 64.2124 198.612C63.8625 198.4 63.4393 198.294 62.9429 198.294C62.4465 198.294 62.0233 198.4 61.6733 198.612C61.3315 198.823 61.0508 199.116 60.8311 199.491C60.6195 199.857 60.4648 200.28 60.3672 200.76C60.2695 201.232 60.2207 201.737 60.2207 202.274ZM74.8203 198.612V209H71.3047V195.792H74.6006L74.8203 198.612ZM74.3076 201.932H73.3555C73.3555 200.956 73.4816 200.077 73.7339 199.295C73.9862 198.506 74.3402 197.835 74.7959 197.281C75.2516 196.72 75.7928 196.292 76.4194 196C77.0542 195.698 77.7622 195.548 78.5435 195.548C79.1619 195.548 79.7275 195.637 80.2402 195.816C80.7529 195.995 81.1924 196.28 81.5586 196.671C81.9329 197.062 82.2178 197.578 82.4131 198.221C82.6165 198.864 82.7183 199.649 82.7183 200.577V209H79.1782V200.565C79.1782 199.979 79.0968 199.523 78.9341 199.198C78.7713 198.872 78.5312 198.644 78.2139 198.514C77.9046 198.376 77.5221 198.307 77.0664 198.307C76.5944 198.307 76.1834 198.4 75.8335 198.587C75.4917 198.775 75.2069 199.035 74.979 199.369C74.7593 199.694 74.5924 200.077 74.4785 200.516C74.3646 200.956 74.3076 201.428 74.3076 201.932ZM89.1025 195.792V209H85.5747V195.792H89.1025ZM85.355 192.35C85.355 191.837 85.534 191.414 85.8921 191.08C86.2502 190.746 86.7303 190.58 87.3325 190.58C87.9266 190.58 88.4027 190.746 88.7607 191.08C89.127 191.414 89.3101 191.837 89.3101 192.35C89.3101 192.862 89.127 193.285 88.7607 193.619C88.4027 193.953 87.9266 194.12 87.3325 194.12C86.7303 194.12 86.2502 193.953 85.8921 193.619C85.534 193.285 85.355 192.862 85.355 192.35ZM98.4775 195.792V198.282H90.7871V195.792H98.4775ZM92.6914 192.533H96.207V205.021C96.207 205.403 96.2559 205.696 96.3535 205.899C96.4593 206.103 96.6139 206.245 96.8174 206.327C97.0208 206.4 97.2772 206.437 97.5864 206.437C97.8062 206.437 98.0015 206.428 98.1724 206.412C98.3514 206.388 98.502 206.363 98.624 206.339L98.6362 208.927C98.3351 209.024 98.0096 209.102 97.6597 209.159C97.3097 209.216 96.9232 209.244 96.5 209.244C95.7269 209.244 95.0514 209.118 94.4736 208.866C93.904 208.605 93.4645 208.19 93.1553 207.621C92.846 207.051 92.6914 206.302 92.6914 205.375V192.533ZM99.6006 202.53V202.274C99.6006 201.306 99.7389 200.414 100.016 199.601C100.292 198.779 100.695 198.067 101.224 197.464C101.753 196.862 102.404 196.394 103.177 196.061C103.95 195.719 104.837 195.548 105.838 195.548C106.839 195.548 107.73 195.719 108.512 196.061C109.293 196.394 109.948 196.862 110.477 197.464C111.014 198.067 111.421 198.779 111.698 199.601C111.974 200.414 112.113 201.306 112.113 202.274V202.53C112.113 203.491 111.974 204.382 111.698 205.204C111.421 206.017 111.014 206.729 110.477 207.34C109.948 207.942 109.297 208.41 108.524 208.744C107.751 209.077 106.864 209.244 105.863 209.244C104.862 209.244 103.971 209.077 103.189 208.744C102.416 208.41 101.761 207.942 101.224 207.34C100.695 206.729 100.292 206.017 100.016 205.204C99.7389 204.382 99.6006 203.491 99.6006 202.53ZM103.116 202.274V202.53C103.116 203.084 103.165 203.6 103.263 204.081C103.36 204.561 103.515 204.984 103.727 205.35C103.946 205.708 104.231 205.989 104.581 206.192C104.931 206.396 105.358 206.498 105.863 206.498C106.351 206.498 106.77 206.396 107.12 206.192C107.47 205.989 107.751 205.708 107.962 205.35C108.174 204.984 108.329 204.561 108.426 204.081C108.532 203.6 108.585 203.084 108.585 202.53V202.274C108.585 201.737 108.532 201.232 108.426 200.76C108.329 200.28 108.17 199.857 107.95 199.491C107.739 199.116 107.458 198.823 107.108 198.612C106.758 198.4 106.335 198.294 105.838 198.294C105.342 198.294 104.919 198.4 104.569 198.612C104.227 198.823 103.946 199.116 103.727 199.491C103.515 199.857 103.36 200.28 103.263 200.76C103.165 201.232 103.116 201.737 103.116 202.274ZM117.789 198.673V209H114.273V195.792H117.582L117.789 198.673ZM121.769 195.707L121.708 198.966C121.537 198.941 121.329 198.921 121.085 198.905C120.849 198.88 120.633 198.868 120.438 198.868C119.942 198.868 119.51 198.933 119.144 199.063C118.786 199.186 118.485 199.369 118.241 199.613C118.005 199.857 117.826 200.154 117.704 200.504C117.59 200.854 117.525 201.253 117.508 201.7L116.8 201.48C116.8 200.626 116.886 199.841 117.057 199.125C117.228 198.4 117.476 197.77 117.801 197.232C118.135 196.695 118.542 196.28 119.022 195.987C119.502 195.694 120.051 195.548 120.67 195.548C120.865 195.548 121.065 195.564 121.268 195.597C121.472 195.621 121.638 195.658 121.769 195.707ZM127.14 195.792V209H123.612V195.792H127.14ZM123.392 192.35C123.392 191.837 123.571 191.414 123.929 191.08C124.287 190.746 124.767 190.58 125.37 190.58C125.964 190.58 126.44 190.746 126.798 191.08C127.164 191.414 127.347 191.837 127.347 192.35C127.347 192.862 127.164 193.285 126.798 193.619C126.44 193.953 125.964 194.12 125.37 194.12C124.767 194.12 124.287 193.953 123.929 193.619C123.571 193.285 123.392 192.862 123.392 192.35ZM133.487 198.612V209H129.972V195.792H133.268L133.487 198.612ZM132.975 201.932H132.022C132.022 200.956 132.149 200.077 132.401 199.295C132.653 198.506 133.007 197.835 133.463 197.281C133.919 196.72 134.46 196.292 135.086 196C135.721 195.698 136.429 195.548 137.21 195.548C137.829 195.548 138.395 195.637 138.907 195.816C139.42 195.995 139.859 196.28 140.226 196.671C140.6 197.062 140.885 197.578 141.08 198.221C141.284 198.864 141.385 199.649 141.385 200.577V209H137.845V200.565C137.845 199.979 137.764 199.523 137.601 199.198C137.438 198.872 137.198 198.644 136.881 198.514C136.572 198.376 136.189 198.307 135.733 198.307C135.261 198.307 134.85 198.4 134.5 198.587C134.159 198.775 133.874 199.035 133.646 199.369C133.426 199.694 133.259 200.077 133.146 200.516C133.032 200.956 132.975 201.428 132.975 201.932ZM152.42 195.792H155.606V208.561C155.606 209.765 155.338 210.786 154.801 211.625C154.272 212.471 153.531 213.11 152.579 213.541C151.627 213.98 150.52 214.2 149.259 214.2C148.705 214.2 148.119 214.127 147.501 213.98C146.891 213.834 146.305 213.606 145.743 213.297C145.19 212.988 144.726 212.597 144.352 212.125L145.902 210.05C146.309 210.522 146.781 210.888 147.318 211.148C147.855 211.417 148.449 211.551 149.1 211.551C149.735 211.551 150.272 211.433 150.711 211.197C151.151 210.969 151.489 210.632 151.725 210.184C151.961 209.745 152.079 209.212 152.079 208.585V198.844L152.42 195.792ZM143.534 202.555V202.298C143.534 201.289 143.656 200.374 143.9 199.552C144.152 198.722 144.506 198.01 144.962 197.416C145.426 196.821 145.987 196.362 146.646 196.036C147.306 195.711 148.05 195.548 148.88 195.548C149.759 195.548 150.496 195.711 151.09 196.036C151.684 196.362 152.172 196.826 152.555 197.428C152.937 198.022 153.234 198.726 153.446 199.54C153.666 200.345 153.836 201.228 153.958 202.188V202.75C153.836 203.67 153.653 204.524 153.409 205.313C153.165 206.103 152.844 206.795 152.445 207.389C152.046 207.975 151.55 208.43 150.956 208.756C150.37 209.081 149.67 209.244 148.856 209.244C148.042 209.244 147.306 209.077 146.646 208.744C145.995 208.41 145.438 207.942 144.974 207.34C144.51 206.738 144.152 206.03 143.9 205.216C143.656 204.402 143.534 203.515 143.534 202.555ZM147.049 202.298V202.555C147.049 203.1 147.102 203.609 147.208 204.081C147.314 204.553 147.477 204.972 147.696 205.338C147.924 205.696 148.205 205.977 148.539 206.18C148.88 206.375 149.283 206.473 149.747 206.473C150.39 206.473 150.915 206.339 151.322 206.07C151.729 205.794 152.034 205.415 152.237 204.935C152.441 204.455 152.559 203.902 152.591 203.275V201.676C152.575 201.163 152.506 200.703 152.384 200.296C152.262 199.881 152.091 199.527 151.871 199.234C151.651 198.941 151.367 198.714 151.017 198.551C150.667 198.388 150.252 198.307 149.771 198.307C149.308 198.307 148.905 198.412 148.563 198.624C148.229 198.827 147.949 199.108 147.721 199.466C147.501 199.824 147.334 200.248 147.22 200.736C147.106 201.216 147.049 201.737 147.049 202.298Z" fill="white"/>
<rect x="34" y="84" width="10" height="36" fill="white" fill-opacity="0.5"/>
<rect x="48" y="84" width="10" height="36" fill="white" fill-opacity="0.5"/>
<rect x="62" y="84" width="10" height="36" fill="white" fill-opacity="0.5"/>
<rect x="162" y="84" width="10" height="36" fill="white" fill-opacity="0.5"/>
<rect x="176" y="84" width="10" height="36" fill="white" fill-opacity="0.75"/>
<rect x="190" y="84" width="10" height="36" fill="white"/>
<rect x="118" y="84" width="10" height="36" fill="white" fill-opacity="0.5"/>
<rect x="132" y="84" width="10" height="36" fill="white" fill-opacity="0.5"/>
<rect x="146" y="84" width="10" height="36" fill="white" fill-opacity="0.5"/>
<rect x="76" y="84" width="10" height="36" fill="white" fill-opacity="0.5"/>
<rect x="90" y="84" width="10" height="36" fill="white" fill-opacity="0.5"/>
<rect x="104" y="84" width="10" height="36" fill="white" fill-opacity="0.5"/>
</svg>
