<svg width="240" height="240" viewBox="0 0 240 240" fill="none" xmlns="http://www.w3.org/2000/svg">
<rect width="240" height="240" fill="white"/>
<rect x="10" y="10" width="220" height="220" rx="20" fill="#F1A7A7"/>
<path d="M35.0435 207H31.1738L31.1982 204.144H35.0435C36.0037 204.144 36.8135 203.928 37.4727 203.497C38.1318 203.057 38.6283 202.418 38.9619 201.58C39.3037 200.742 39.4746 199.729 39.4746 198.541V197.674C39.4746 196.762 39.377 195.961 39.1816 195.269C38.9945 194.577 38.7137 193.995 38.3394 193.523C37.965 193.051 37.5052 192.697 36.96 192.461C36.4147 192.217 35.7881 192.095 35.0801 192.095H31.1006V189.227H35.0801C36.2682 189.227 37.3547 189.43 38.3394 189.837C39.3322 190.236 40.1908 190.809 40.915 191.558C41.6393 192.307 42.1968 193.202 42.5874 194.244C42.9862 195.277 43.1855 196.429 43.1855 197.698V198.541C43.1855 199.802 42.9862 200.953 42.5874 201.995C42.1968 203.037 41.6393 203.932 40.915 204.681C40.1989 205.421 39.3403 205.995 38.3394 206.402C37.3465 206.801 36.2479 207 35.0435 207ZM33.249 189.227V207H29.5869V189.227H33.249ZM49.1426 196.673V207H45.627V193.792H48.9351L49.1426 196.673ZM53.1221 193.707L53.061 196.966C52.8901 196.941 52.6826 196.921 52.4385 196.905C52.2025 196.88 51.9868 196.868 51.7915 196.868C51.2951 196.868 50.8638 196.933 50.4976 197.063C50.1395 197.186 49.8384 197.369 49.5942 197.613C49.3582 197.857 49.1792 198.154 49.0571 198.504C48.9432 198.854 48.8781 199.253 48.8618 199.7L48.1538 199.48C48.1538 198.626 48.2393 197.841 48.4102 197.125C48.5811 196.4 48.8293 195.77 49.1548 195.232C49.4884 194.695 49.8953 194.28 50.3755 193.987C50.8556 193.694 51.4049 193.548 52.0234 193.548C52.2188 193.548 52.4181 193.564 52.6216 193.597C52.825 193.621 52.9919 193.658 53.1221 193.707ZM53.8545 200.53V200.274C53.8545 199.306 53.9928 198.414 54.2695 197.601C54.5462 196.779 54.9491 196.067 55.478 195.464C56.007 194.862 56.658 194.394 57.4312 194.061C58.2043 193.719 59.0913 193.548 60.0923 193.548C61.0933 193.548 61.9844 193.719 62.7656 194.061C63.5469 194.394 64.202 194.862 64.731 195.464C65.2681 196.067 65.675 196.779 65.9517 197.601C66.2284 198.414 66.3667 199.306 66.3667 200.274V200.53C66.3667 201.491 66.2284 202.382 65.9517 203.204C65.675 204.017 65.2681 204.729 64.731 205.34C64.202 205.942 63.5509 206.41 62.7778 206.744C62.0047 207.077 61.1177 207.244 60.1167 207.244C59.1157 207.244 58.2246 207.077 57.4434 206.744C56.6702 206.41 56.0151 205.942 55.478 205.34C54.9491 204.729 54.5462 204.017 54.2695 203.204C53.9928 202.382 53.8545 201.491 53.8545 200.53ZM57.3701 200.274V200.53C57.3701 201.084 57.4189 201.6 57.5166 202.081C57.6143 202.561 57.7689 202.984 57.9805 203.35C58.2002 203.708 58.485 203.989 58.835 204.192C59.1849 204.396 59.6121 204.498 60.1167 204.498C60.605 204.498 61.0241 204.396 61.374 204.192C61.724 203.989 62.0047 203.708 62.2163 203.35C62.4279 202.984 62.5825 202.561 62.6802 202.081C62.786 201.6 62.8389 201.084 62.8389 200.53V200.274C62.8389 199.737 62.786 199.232 62.6802 198.76C62.5825 198.28 62.4238 197.857 62.2041 197.491C61.9925 197.116 61.7118 196.823 61.3618 196.612C61.0119 196.4 60.5887 196.294 60.0923 196.294C59.5959 196.294 59.1727 196.4 58.8228 196.612C58.481 196.823 58.2002 197.116 57.9805 197.491C57.7689 197.857 57.6143 198.28 57.5166 198.76C57.4189 199.232 57.3701 199.737 57.3701 200.274ZM72.043 196.331V212.078H68.5273V193.792H71.7866L72.043 196.331ZM80.4048 200.25V200.506C80.4048 201.466 80.2909 202.357 80.063 203.179C79.8433 204.001 79.5177 204.717 79.0864 205.328C78.6551 205.93 78.118 206.402 77.4751 206.744C76.8403 207.077 76.1079 207.244 75.2778 207.244C74.4722 207.244 73.7723 207.081 73.1782 206.756C72.5841 206.43 72.0837 205.975 71.6768 205.389C71.278 204.795 70.9565 204.107 70.7124 203.326C70.4683 202.544 70.2811 201.706 70.1509 200.811V200.14C70.2811 199.179 70.4683 198.3 70.7124 197.503C70.9565 196.697 71.278 196.001 71.6768 195.416C72.0837 194.821 72.5801 194.362 73.166 194.036C73.7601 193.711 74.4559 193.548 75.2534 193.548C76.0916 193.548 76.8281 193.707 77.4629 194.024C78.1058 194.341 78.6429 194.797 79.0742 195.391C79.5137 195.985 79.8433 196.693 80.063 197.515C80.2909 198.337 80.4048 199.249 80.4048 200.25ZM76.877 200.506V200.25C76.877 199.688 76.8281 199.171 76.7305 198.699C76.641 198.219 76.4945 197.8 76.291 197.442C76.0957 197.084 75.8353 196.807 75.5098 196.612C75.1924 196.408 74.8058 196.307 74.3501 196.307C73.87 196.307 73.459 196.384 73.1172 196.539C72.7835 196.693 72.5109 196.917 72.2993 197.21C72.0877 197.503 71.929 197.853 71.8232 198.26C71.7174 198.667 71.6523 199.126 71.6279 199.639V201.336C71.6686 201.938 71.7826 202.479 71.9697 202.959C72.1569 203.431 72.4458 203.806 72.8364 204.083C73.2271 204.359 73.7397 204.498 74.3745 204.498C74.8384 204.498 75.229 204.396 75.5464 204.192C75.8638 203.981 76.1201 203.692 76.3154 203.326C76.5189 202.959 76.6613 202.536 76.7427 202.056C76.8322 201.576 76.877 201.059 76.877 200.506ZM92.5264 193.792V207H88.9985V193.792H92.5264ZM88.7788 190.35C88.7788 189.837 88.9578 189.414 89.3159 189.08C89.674 188.746 90.1541 188.58 90.7563 188.58C91.3504 188.58 91.8265 188.746 92.1846 189.08C92.5508 189.414 92.7339 189.837 92.7339 190.35C92.7339 190.862 92.5508 191.285 92.1846 191.619C91.8265 191.953 91.3504 192.12 90.7563 192.12C90.1541 192.12 89.674 191.953 89.3159 191.619C88.9578 191.285 88.7788 190.862 88.7788 190.35ZM98.874 196.612V207H95.3584V193.792H98.6543L98.874 196.612ZM98.3613 199.932H97.4092C97.4092 198.956 97.5353 198.077 97.7876 197.295C98.0399 196.506 98.3939 195.835 98.8496 195.281C99.3053 194.72 99.8465 194.292 100.473 194C101.108 193.698 101.816 193.548 102.597 193.548C103.216 193.548 103.781 193.637 104.294 193.816C104.807 193.995 105.246 194.28 105.612 194.671C105.987 195.062 106.271 195.578 106.467 196.221C106.67 196.864 106.772 197.649 106.772 198.577V207H103.232V198.565C103.232 197.979 103.151 197.523 102.988 197.198C102.825 196.872 102.585 196.644 102.268 196.514C101.958 196.376 101.576 196.307 101.12 196.307C100.648 196.307 100.237 196.4 99.8872 196.587C99.5454 196.775 99.2606 197.035 99.0327 197.369C98.813 197.694 98.6462 198.077 98.5322 198.516C98.4183 198.956 98.3613 199.428 98.3613 199.932ZM122.812 203.35C122.812 203.098 122.739 202.87 122.592 202.667C122.446 202.463 122.173 202.276 121.774 202.105C121.384 201.926 120.818 201.763 120.078 201.617C119.41 201.47 118.788 201.287 118.21 201.067C117.64 200.84 117.144 200.567 116.721 200.25C116.306 199.932 115.98 199.558 115.744 199.126C115.508 198.687 115.39 198.187 115.39 197.625C115.39 197.072 115.508 196.551 115.744 196.062C115.988 195.574 116.334 195.143 116.782 194.769C117.237 194.386 117.791 194.089 118.442 193.877C119.101 193.658 119.842 193.548 120.664 193.548C121.811 193.548 122.796 193.731 123.618 194.097C124.448 194.463 125.083 194.968 125.522 195.611C125.97 196.246 126.193 196.97 126.193 197.784H122.678C122.678 197.442 122.604 197.137 122.458 196.868C122.32 196.591 122.1 196.376 121.799 196.221C121.506 196.058 121.123 195.977 120.651 195.977C120.261 195.977 119.923 196.046 119.638 196.185C119.353 196.315 119.134 196.494 118.979 196.722C118.833 196.941 118.759 197.186 118.759 197.454C118.759 197.658 118.8 197.841 118.881 198.003C118.971 198.158 119.113 198.3 119.309 198.431C119.504 198.561 119.756 198.683 120.065 198.797C120.383 198.903 120.773 199 121.237 199.09C122.189 199.285 123.04 199.542 123.789 199.859C124.537 200.168 125.131 200.591 125.571 201.128C126.01 201.657 126.23 202.353 126.23 203.216C126.23 203.802 126.1 204.339 125.839 204.827C125.579 205.315 125.205 205.743 124.716 206.109C124.228 206.467 123.642 206.748 122.958 206.951C122.283 207.146 121.522 207.244 120.676 207.244C119.447 207.244 118.405 207.024 117.551 206.585C116.704 206.146 116.062 205.588 115.622 204.913C115.191 204.229 114.975 203.529 114.975 202.813H118.308C118.324 203.293 118.446 203.68 118.674 203.973C118.91 204.266 119.207 204.477 119.565 204.607C119.931 204.738 120.326 204.803 120.749 204.803C121.205 204.803 121.583 204.742 121.884 204.62C122.185 204.489 122.413 204.319 122.568 204.107C122.731 203.887 122.812 203.635 122.812 203.35ZM132.224 193.792V207H128.696V193.792H132.224ZM128.476 190.35C128.476 189.837 128.655 189.414 129.013 189.08C129.371 188.746 129.851 188.58 130.454 188.58C131.048 188.58 131.524 188.746 131.882 189.08C132.248 189.414 132.431 189.837 132.431 190.35C132.431 190.862 132.248 191.285 131.882 191.619C131.524 191.953 131.048 192.12 130.454 192.12C129.851 192.12 129.371 191.953 129.013 191.619C128.655 191.285 128.476 190.862 128.476 190.35ZM143.491 193.792H146.677V206.561C146.677 207.765 146.408 208.786 145.871 209.625C145.342 210.471 144.602 211.11 143.649 211.541C142.697 211.98 141.59 212.2 140.329 212.2C139.776 212.2 139.19 212.127 138.571 211.98C137.961 211.834 137.375 211.606 136.813 211.297C136.26 210.988 135.796 210.597 135.422 210.125L136.972 208.05C137.379 208.522 137.851 208.888 138.388 209.148C138.925 209.417 139.519 209.551 140.17 209.551C140.805 209.551 141.342 209.433 141.782 209.197C142.221 208.969 142.559 208.632 142.795 208.184C143.031 207.745 143.149 207.212 143.149 206.585V196.844L143.491 193.792ZM134.604 200.555V200.298C134.604 199.289 134.726 198.374 134.97 197.552C135.222 196.722 135.576 196.01 136.032 195.416C136.496 194.821 137.058 194.362 137.717 194.036C138.376 193.711 139.121 193.548 139.951 193.548C140.83 193.548 141.566 193.711 142.16 194.036C142.754 194.362 143.243 194.826 143.625 195.428C144.007 196.022 144.305 196.726 144.516 197.54C144.736 198.345 144.907 199.228 145.029 200.188V200.75C144.907 201.67 144.724 202.524 144.479 203.313C144.235 204.103 143.914 204.795 143.515 205.389C143.116 205.975 142.62 206.43 142.026 206.756C141.44 207.081 140.74 207.244 139.926 207.244C139.112 207.244 138.376 207.077 137.717 206.744C137.066 206.41 136.508 205.942 136.044 205.34C135.581 204.738 135.222 204.03 134.97 203.216C134.726 202.402 134.604 201.515 134.604 200.555ZM138.12 200.298V200.555C138.12 201.1 138.173 201.609 138.278 202.081C138.384 202.553 138.547 202.972 138.767 203.338C138.994 203.696 139.275 203.977 139.609 204.18C139.951 204.375 140.354 204.473 140.817 204.473C141.46 204.473 141.985 204.339 142.392 204.07C142.799 203.794 143.104 203.415 143.308 202.935C143.511 202.455 143.629 201.902 143.662 201.275V199.676C143.645 199.163 143.576 198.703 143.454 198.296C143.332 197.881 143.161 197.527 142.941 197.234C142.722 196.941 142.437 196.714 142.087 196.551C141.737 196.388 141.322 196.307 140.842 196.307C140.378 196.307 139.975 196.412 139.633 196.624C139.3 196.827 139.019 197.108 138.791 197.466C138.571 197.824 138.404 198.248 138.291 198.736C138.177 199.216 138.12 199.737 138.12 200.298ZM152.854 196.612V207H149.338V193.792H152.634L152.854 196.612ZM152.341 199.932H151.389C151.389 198.956 151.515 198.077 151.767 197.295C152.019 196.506 152.373 195.835 152.829 195.281C153.285 194.72 153.826 194.292 154.453 194C155.087 193.698 155.795 193.548 156.577 193.548C157.195 193.548 157.761 193.637 158.273 193.816C158.786 193.995 159.226 194.28 159.592 194.671C159.966 195.062 160.251 195.578 160.446 196.221C160.65 196.864 160.751 197.649 160.751 198.577V207H157.211V198.565C157.211 197.979 157.13 197.523 156.967 197.198C156.805 196.872 156.564 196.644 156.247 196.514C155.938 196.376 155.555 196.307 155.1 196.307C154.628 196.307 154.217 196.4 153.867 196.587C153.525 196.775 153.24 197.035 153.012 197.369C152.792 197.694 152.626 198.077 152.512 198.516C152.398 198.956 152.341 199.428 152.341 199.932ZM177.463 203.838V193.792H180.979V207H177.67L177.463 203.838ZM177.854 201.128L178.891 201.104C178.891 201.983 178.789 202.801 178.586 203.558C178.382 204.306 178.077 204.957 177.67 205.511C177.264 206.056 176.751 206.483 176.132 206.792C175.514 207.094 174.785 207.244 173.947 207.244C173.304 207.244 172.71 207.155 172.165 206.976C171.628 206.788 171.164 206.5 170.773 206.109C170.391 205.71 170.09 205.201 169.87 204.583C169.659 203.956 169.553 203.204 169.553 202.325V193.792H173.068V202.349C173.068 202.74 173.113 203.069 173.203 203.338C173.3 203.606 173.435 203.826 173.605 203.997C173.776 204.168 173.976 204.29 174.204 204.363C174.44 204.437 174.7 204.473 174.985 204.473C175.709 204.473 176.279 204.327 176.694 204.034C177.117 203.741 177.414 203.342 177.585 202.837C177.764 202.325 177.854 201.755 177.854 201.128ZM187.18 196.331V212.078H183.664V193.792H186.923L187.18 196.331ZM195.542 200.25V200.506C195.542 201.466 195.428 202.357 195.2 203.179C194.98 204.001 194.654 204.717 194.223 205.328C193.792 205.93 193.255 206.402 192.612 206.744C191.977 207.077 191.245 207.244 190.415 207.244C189.609 207.244 188.909 207.081 188.315 206.756C187.721 206.43 187.22 205.975 186.813 205.389C186.415 204.795 186.093 204.107 185.849 203.326C185.605 202.544 185.418 201.706 185.288 200.811V200.14C185.418 199.179 185.605 198.3 185.849 197.503C186.093 196.697 186.415 196.001 186.813 195.416C187.22 194.821 187.717 194.362 188.303 194.036C188.897 193.711 189.593 193.548 190.39 193.548C191.228 193.548 191.965 193.707 192.6 194.024C193.243 194.341 193.78 194.797 194.211 195.391C194.65 195.985 194.98 196.693 195.2 197.515C195.428 198.337 195.542 199.249 195.542 200.25ZM192.014 200.506V200.25C192.014 199.688 191.965 199.171 191.867 198.699C191.778 198.219 191.631 197.8 191.428 197.442C191.232 197.084 190.972 196.807 190.646 196.612C190.329 196.408 189.943 196.307 189.487 196.307C189.007 196.307 188.596 196.384 188.254 196.539C187.92 196.693 187.648 196.917 187.436 197.21C187.224 197.503 187.066 197.853 186.96 198.26C186.854 198.667 186.789 199.126 186.765 199.639V201.336C186.805 201.938 186.919 202.479 187.106 202.959C187.294 203.431 187.583 203.806 187.973 204.083C188.364 204.359 188.876 204.498 189.511 204.498C189.975 204.498 190.366 204.396 190.683 204.192C191 203.981 191.257 203.692 191.452 203.326C191.656 202.959 191.798 202.536 191.879 202.056C191.969 201.576 192.014 201.059 192.014 200.506ZM204.868 203.35C204.868 203.098 204.794 202.87 204.648 202.667C204.501 202.463 204.229 202.276 203.83 202.105C203.439 201.926 202.874 201.763 202.133 201.617C201.466 201.47 200.843 201.287 200.266 201.067C199.696 200.84 199.2 200.567 198.776 200.25C198.361 199.932 198.036 199.558 197.8 199.126C197.564 198.687 197.446 198.187 197.446 197.625C197.446 197.072 197.564 196.551 197.8 196.062C198.044 195.574 198.39 195.143 198.837 194.769C199.293 194.386 199.847 194.089 200.498 193.877C201.157 193.658 201.897 193.548 202.719 193.548C203.867 193.548 204.851 193.731 205.673 194.097C206.503 194.463 207.138 194.968 207.578 195.611C208.025 196.246 208.249 196.97 208.249 197.784H204.733C204.733 197.442 204.66 197.137 204.514 196.868C204.375 196.591 204.156 196.376 203.854 196.221C203.562 196.058 203.179 195.977 202.707 195.977C202.316 195.977 201.979 196.046 201.694 196.185C201.409 196.315 201.189 196.494 201.035 196.722C200.888 196.941 200.815 197.186 200.815 197.454C200.815 197.658 200.856 197.841 200.937 198.003C201.027 198.158 201.169 198.3 201.364 198.431C201.56 198.561 201.812 198.683 202.121 198.797C202.438 198.903 202.829 199 203.293 199.09C204.245 199.285 205.096 199.542 205.844 199.859C206.593 200.168 207.187 200.591 207.626 201.128C208.066 201.657 208.286 202.353 208.286 203.216C208.286 203.802 208.155 204.339 207.895 204.827C207.635 205.315 207.26 205.743 206.772 206.109C206.284 206.467 205.698 206.748 205.014 206.951C204.339 207.146 203.578 207.244 202.731 207.244C201.503 207.244 200.461 207.024 199.606 206.585C198.76 206.146 198.117 205.588 197.678 204.913C197.246 204.229 197.031 203.529 197.031 202.813H200.363C200.38 203.293 200.502 203.68 200.729 203.973C200.965 204.266 201.263 204.477 201.621 204.607C201.987 204.738 202.382 204.803 202.805 204.803C203.26 204.803 203.639 204.742 203.94 204.62C204.241 204.489 204.469 204.319 204.624 204.107C204.786 203.887 204.868 203.635 204.868 203.35Z" fill="white"/>
<path d="M149.556 162.56L172.989 109.794L115.576 115.884L149.556 162.56ZM38.5142 77.971C68.8588 68.7026 91.3315 65.5445 107.493 71.0391C122.921 76.2844 133.966 90.0067 139.914 118.828L149.707 116.807C143.413 86.3057 130.928 68.4444 110.712 61.5713C91.2294 54.9477 65.9444 59.1367 35.593 68.4072L38.5142 77.971Z" fill="white" fill-opacity="0.5"/>
</svg>
