<svg width="250" height="250" viewBox="0 0 250 250" fill="none" xmlns="http://www.w3.org/2000/svg">
<rect width="250" height="250" fill="white"/>
<rect x="15" y="12" width="225" height="225" rx="20" fill="#B2DDAB"/>
<path d="M42.2988 161.672V183H37.9043V161.672H42.2988ZM50.7949 170.783V174.211H41.0977V170.783H50.7949ZM51.8203 161.672V165.114H41.0977V161.672H51.8203ZM58.5586 160.5V183H54.3252V160.5H58.5586ZM70.5996 179.426V172.365C70.5996 171.857 70.5166 171.423 70.3506 171.062C70.1846 170.69 69.9258 170.402 69.5742 170.197C69.2324 169.992 68.7881 169.89 68.2412 169.89C67.7725 169.89 67.3672 169.973 67.0254 170.139C66.6836 170.295 66.4199 170.524 66.2344 170.827C66.0488 171.12 65.9561 171.467 65.9561 171.867H61.7373C61.7373 171.193 61.8936 170.554 62.2061 169.948C62.5186 169.343 62.9727 168.811 63.5684 168.352C64.1641 167.883 64.8721 167.517 65.6924 167.253C66.5225 166.989 67.4502 166.857 68.4756 166.857C69.7061 166.857 70.7998 167.062 71.7568 167.473C72.7139 167.883 73.4658 168.498 74.0127 169.318C74.5693 170.139 74.8477 171.164 74.8477 172.395V179.177C74.8477 180.046 74.9014 180.759 75.0088 181.315C75.1162 181.862 75.2725 182.341 75.4775 182.751V183H71.2148C71.0098 182.57 70.8535 182.033 70.7461 181.389C70.6484 180.734 70.5996 180.08 70.5996 179.426ZM71.1562 173.347L71.1855 175.734H68.8271C68.2705 175.734 67.7871 175.798 67.377 175.925C66.9668 176.052 66.6299 176.232 66.3662 176.467C66.1025 176.691 65.9072 176.955 65.7803 177.258C65.6631 177.561 65.6045 177.893 65.6045 178.254C65.6045 178.615 65.6875 178.942 65.8535 179.235C66.0195 179.519 66.2588 179.743 66.5713 179.909C66.8838 180.065 67.25 180.144 67.6699 180.144C68.3047 180.144 68.8564 180.017 69.3252 179.763C69.7939 179.509 70.1553 179.196 70.4092 178.825C70.6729 178.454 70.8096 178.103 70.8193 177.771L71.9326 179.558C71.7764 179.958 71.5615 180.373 71.2881 180.803C71.0244 181.232 70.6875 181.638 70.2773 182.019C69.8672 182.39 69.374 182.697 68.7979 182.941C68.2217 183.176 67.5381 183.293 66.7471 183.293C65.7412 183.293 64.8281 183.093 64.0078 182.692C63.1973 182.282 62.5527 181.721 62.0742 181.008C61.6055 180.285 61.3711 179.465 61.3711 178.547C61.3711 177.717 61.5273 176.979 61.8398 176.335C62.1523 175.69 62.6113 175.148 63.2168 174.709C63.832 174.26 64.5986 173.923 65.5166 173.698C66.4346 173.464 67.499 173.347 68.71 173.347H71.1562ZM88.1338 167.15H91.957V182.473C91.957 183.918 91.6348 185.144 90.9902 186.149C90.3555 187.165 89.4668 187.932 88.3242 188.449C87.1816 188.977 85.8535 189.24 84.3398 189.24C83.6758 189.24 82.9727 189.152 82.2305 188.977C81.498 188.801 80.7949 188.527 80.1211 188.156C79.457 187.785 78.9004 187.316 78.4512 186.75L80.3115 184.26C80.7998 184.826 81.3662 185.266 82.0107 185.578C82.6553 185.9 83.3682 186.062 84.1494 186.062C84.9111 186.062 85.5557 185.92 86.083 185.637C86.6104 185.363 87.0156 184.958 87.2988 184.421C87.582 183.894 87.7236 183.254 87.7236 182.502V170.812L88.1338 167.15ZM77.4697 175.266V174.958C77.4697 173.747 77.6162 172.648 77.9092 171.662C78.2119 170.666 78.6367 169.812 79.1836 169.099C79.7402 168.386 80.4141 167.834 81.2051 167.443C81.9961 167.053 82.8896 166.857 83.8857 166.857C84.9404 166.857 85.8242 167.053 86.5371 167.443C87.25 167.834 87.8359 168.391 88.2949 169.113C88.7539 169.826 89.1104 170.671 89.3643 171.647C89.6279 172.614 89.833 173.674 89.9795 174.826V175.5C89.833 176.604 89.6133 177.629 89.3203 178.576C89.0273 179.523 88.6416 180.354 88.1631 181.066C87.6846 181.77 87.0889 182.316 86.376 182.707C85.6729 183.098 84.833 183.293 83.8564 183.293C82.8799 183.293 81.9961 183.093 81.2051 182.692C80.4238 182.292 79.7549 181.73 79.1982 181.008C78.6416 180.285 78.2119 179.436 77.9092 178.459C77.6162 177.482 77.4697 176.418 77.4697 175.266ZM81.6885 174.958V175.266C81.6885 175.92 81.752 176.53 81.8789 177.097C82.0059 177.663 82.2012 178.166 82.4648 178.605C82.7383 179.035 83.0752 179.372 83.4756 179.616C83.8857 179.851 84.3691 179.968 84.9258 179.968C85.6973 179.968 86.3271 179.807 86.8154 179.484C87.3037 179.152 87.6699 178.698 87.9141 178.122C88.1582 177.546 88.2998 176.882 88.3389 176.13V174.211C88.3193 173.596 88.2363 173.044 88.0898 172.556C87.9434 172.058 87.7383 171.633 87.4746 171.281C87.2109 170.93 86.8691 170.656 86.4492 170.461C86.0293 170.266 85.5312 170.168 84.9551 170.168C84.3984 170.168 83.915 170.295 83.5049 170.549C83.1045 170.793 82.7676 171.13 82.4941 171.56C82.2305 171.989 82.0303 172.497 81.8936 173.083C81.7568 173.659 81.6885 174.284 81.6885 174.958ZM107.162 160.5V183H102.929V160.5H107.162ZM119.203 179.426V172.365C119.203 171.857 119.12 171.423 118.954 171.062C118.788 170.69 118.529 170.402 118.178 170.197C117.836 169.992 117.392 169.89 116.845 169.89C116.376 169.89 115.971 169.973 115.629 170.139C115.287 170.295 115.023 170.524 114.838 170.827C114.652 171.12 114.56 171.467 114.56 171.867H110.341C110.341 171.193 110.497 170.554 110.81 169.948C111.122 169.343 111.576 168.811 112.172 168.352C112.768 167.883 113.476 167.517 114.296 167.253C115.126 166.989 116.054 166.857 117.079 166.857C118.31 166.857 119.403 167.062 120.36 167.473C121.317 167.883 122.069 168.498 122.616 169.318C123.173 170.139 123.451 171.164 123.451 172.395V179.177C123.451 180.046 123.505 180.759 123.612 181.315C123.72 181.862 123.876 182.341 124.081 182.751V183H119.818C119.613 182.57 119.457 182.033 119.35 181.389C119.252 180.734 119.203 180.08 119.203 179.426ZM119.76 173.347L119.789 175.734H117.431C116.874 175.734 116.391 175.798 115.98 175.925C115.57 176.052 115.233 176.232 114.97 176.467C114.706 176.691 114.511 176.955 114.384 177.258C114.267 177.561 114.208 177.893 114.208 178.254C114.208 178.615 114.291 178.942 114.457 179.235C114.623 179.519 114.862 179.743 115.175 179.909C115.487 180.065 115.854 180.144 116.273 180.144C116.908 180.144 117.46 180.017 117.929 179.763C118.397 179.509 118.759 179.196 119.013 178.825C119.276 178.454 119.413 178.103 119.423 177.771L120.536 179.558C120.38 179.958 120.165 180.373 119.892 180.803C119.628 181.232 119.291 181.638 118.881 182.019C118.471 182.39 117.978 182.697 117.401 182.941C116.825 183.176 116.142 183.293 115.351 183.293C114.345 183.293 113.432 183.093 112.611 182.692C111.801 182.282 111.156 181.721 110.678 181.008C110.209 180.285 109.975 179.465 109.975 178.547C109.975 177.717 110.131 176.979 110.443 176.335C110.756 175.69 111.215 175.148 111.82 174.709C112.436 174.26 113.202 173.923 114.12 173.698C115.038 173.464 116.103 173.347 117.313 173.347H119.76ZM130.922 170.607V183H126.703V167.15H130.673L130.922 170.607ZM135.697 167.048L135.624 170.959C135.419 170.93 135.17 170.905 134.877 170.886C134.594 170.856 134.335 170.842 134.101 170.842C133.505 170.842 132.987 170.92 132.548 171.076C132.118 171.223 131.757 171.442 131.464 171.735C131.181 172.028 130.966 172.385 130.819 172.805C130.683 173.225 130.604 173.703 130.585 174.24L129.735 173.977C129.735 172.951 129.838 172.009 130.043 171.149C130.248 170.28 130.546 169.523 130.937 168.879C131.337 168.234 131.825 167.736 132.401 167.385C132.978 167.033 133.637 166.857 134.379 166.857C134.613 166.857 134.853 166.877 135.097 166.916C135.341 166.945 135.541 166.989 135.697 167.048ZM147.431 167.15H151.254V182.473C151.254 183.918 150.932 185.144 150.287 186.149C149.652 187.165 148.764 187.932 147.621 188.449C146.479 188.977 145.15 189.24 143.637 189.24C142.973 189.24 142.27 189.152 141.527 188.977C140.795 188.801 140.092 188.527 139.418 188.156C138.754 187.785 138.197 187.316 137.748 186.75L139.608 184.26C140.097 184.826 140.663 185.266 141.308 185.578C141.952 185.9 142.665 186.062 143.446 186.062C144.208 186.062 144.853 185.92 145.38 185.637C145.907 185.363 146.312 184.958 146.596 184.421C146.879 183.894 147.021 183.254 147.021 182.502V170.812L147.431 167.15ZM136.767 175.266V174.958C136.767 173.747 136.913 172.648 137.206 171.662C137.509 170.666 137.934 169.812 138.48 169.099C139.037 168.386 139.711 167.834 140.502 167.443C141.293 167.053 142.187 166.857 143.183 166.857C144.237 166.857 145.121 167.053 145.834 167.443C146.547 167.834 147.133 168.391 147.592 169.113C148.051 169.826 148.407 170.671 148.661 171.647C148.925 172.614 149.13 173.674 149.276 174.826V175.5C149.13 176.604 148.91 177.629 148.617 178.576C148.324 179.523 147.938 180.354 147.46 181.066C146.981 181.77 146.386 182.316 145.673 182.707C144.97 183.098 144.13 183.293 143.153 183.293C142.177 183.293 141.293 183.093 140.502 182.692C139.721 182.292 139.052 181.73 138.495 181.008C137.938 180.285 137.509 179.436 137.206 178.459C136.913 177.482 136.767 176.418 136.767 175.266ZM140.985 174.958V175.266C140.985 175.92 141.049 176.53 141.176 177.097C141.303 177.663 141.498 178.166 141.762 178.605C142.035 179.035 142.372 179.372 142.772 179.616C143.183 179.851 143.666 179.968 144.223 179.968C144.994 179.968 145.624 179.807 146.112 179.484C146.601 179.152 146.967 178.698 147.211 178.122C147.455 177.546 147.597 176.882 147.636 176.13V174.211C147.616 173.596 147.533 173.044 147.387 172.556C147.24 172.058 147.035 171.633 146.771 171.281C146.508 170.93 146.166 170.656 145.746 170.461C145.326 170.266 144.828 170.168 144.252 170.168C143.695 170.168 143.212 170.295 142.802 170.549C142.401 170.793 142.064 171.13 141.791 171.56C141.527 171.989 141.327 172.497 141.19 173.083C141.054 173.659 140.985 174.284 140.985 174.958ZM161.83 183.293C160.6 183.293 159.496 183.098 158.52 182.707C157.543 182.307 156.713 181.755 156.029 181.052C155.355 180.349 154.838 179.533 154.477 178.605C154.115 177.668 153.935 176.672 153.935 175.617V175.031C153.935 173.83 154.105 172.731 154.447 171.735C154.789 170.739 155.277 169.875 155.912 169.143C156.557 168.41 157.338 167.849 158.256 167.458C159.174 167.058 160.209 166.857 161.361 166.857C162.484 166.857 163.48 167.043 164.35 167.414C165.219 167.785 165.946 168.312 166.532 168.996C167.128 169.68 167.577 170.5 167.88 171.457C168.183 172.404 168.334 173.459 168.334 174.621V176.379H155.736V173.566H164.188V173.244C164.188 172.658 164.081 172.136 163.866 171.677C163.661 171.208 163.349 170.837 162.929 170.563C162.509 170.29 161.972 170.153 161.317 170.153C160.761 170.153 160.282 170.275 159.882 170.52C159.481 170.764 159.154 171.105 158.9 171.545C158.656 171.984 158.471 172.502 158.344 173.098C158.227 173.684 158.168 174.328 158.168 175.031V175.617C158.168 176.252 158.256 176.838 158.432 177.375C158.617 177.912 158.876 178.376 159.208 178.767C159.55 179.157 159.96 179.46 160.438 179.675C160.927 179.89 161.479 179.997 162.094 179.997C162.855 179.997 163.563 179.851 164.218 179.558C164.882 179.255 165.453 178.801 165.932 178.195L167.982 180.422C167.65 180.9 167.196 181.359 166.62 181.799C166.054 182.238 165.37 182.6 164.569 182.883C163.769 183.156 162.855 183.293 161.83 183.293ZM45.4043 202.15V205.139H36.1758V202.15H45.4043ZM38.4609 198.239H42.6797V213.225C42.6797 213.684 42.7383 214.035 42.8555 214.279C42.9824 214.523 43.168 214.694 43.4121 214.792C43.6562 214.88 43.9639 214.924 44.335 214.924C44.5986 214.924 44.833 214.914 45.0381 214.895C45.2529 214.865 45.4336 214.836 45.5801 214.807L45.5947 217.912C45.2334 218.029 44.8428 218.122 44.4229 218.19C44.0029 218.259 43.5391 218.293 43.0312 218.293C42.1035 218.293 41.293 218.142 40.5996 217.839C39.916 217.526 39.3887 217.028 39.0176 216.345C38.6465 215.661 38.4609 214.763 38.4609 213.649V198.239ZM52.0254 205.607V218H47.8066V202.15H51.7764L52.0254 205.607ZM56.8008 202.048L56.7275 205.959C56.5225 205.93 56.2734 205.905 55.9805 205.886C55.6973 205.856 55.4385 205.842 55.2041 205.842C54.6084 205.842 54.0908 205.92 53.6514 206.076C53.2217 206.223 52.8604 206.442 52.5674 206.735C52.2842 207.028 52.0693 207.385 51.9229 207.805C51.7861 208.225 51.708 208.703 51.6885 209.24L50.8389 208.977C50.8389 207.951 50.9414 207.009 51.1465 206.149C51.3516 205.28 51.6494 204.523 52.04 203.879C52.4404 203.234 52.9287 202.736 53.5049 202.385C54.0811 202.033 54.7402 201.857 55.4824 201.857C55.7168 201.857 55.9561 201.877 56.2002 201.916C56.4443 201.945 56.6445 201.989 56.8008 202.048ZM66.8496 214.426V207.365C66.8496 206.857 66.7666 206.423 66.6006 206.062C66.4346 205.69 66.1758 205.402 65.8242 205.197C65.4824 204.992 65.0381 204.89 64.4912 204.89C64.0225 204.89 63.6172 204.973 63.2754 205.139C62.9336 205.295 62.6699 205.524 62.4844 205.827C62.2988 206.12 62.2061 206.467 62.2061 206.867H57.9873C57.9873 206.193 58.1436 205.554 58.4561 204.948C58.7686 204.343 59.2227 203.811 59.8184 203.352C60.4141 202.883 61.1221 202.517 61.9424 202.253C62.7725 201.989 63.7002 201.857 64.7256 201.857C65.9561 201.857 67.0498 202.062 68.0068 202.473C68.9639 202.883 69.7158 203.498 70.2627 204.318C70.8193 205.139 71.0977 206.164 71.0977 207.395V214.177C71.0977 215.046 71.1514 215.759 71.2588 216.315C71.3662 216.862 71.5225 217.341 71.7275 217.751V218H67.4648C67.2598 217.57 67.1035 217.033 66.9961 216.389C66.8984 215.734 66.8496 215.08 66.8496 214.426ZM67.4062 208.347L67.4355 210.734H65.0771C64.5205 210.734 64.0371 210.798 63.627 210.925C63.2168 211.052 62.8799 211.232 62.6162 211.467C62.3525 211.691 62.1572 211.955 62.0303 212.258C61.9131 212.561 61.8545 212.893 61.8545 213.254C61.8545 213.615 61.9375 213.942 62.1035 214.235C62.2695 214.519 62.5088 214.743 62.8213 214.909C63.1338 215.065 63.5 215.144 63.9199 215.144C64.5547 215.144 65.1064 215.017 65.5752 214.763C66.0439 214.509 66.4053 214.196 66.6592 213.825C66.9229 213.454 67.0596 213.103 67.0693 212.771L68.1826 214.558C68.0264 214.958 67.8115 215.373 67.5381 215.803C67.2744 216.232 66.9375 216.638 66.5273 217.019C66.1172 217.39 65.624 217.697 65.0479 217.941C64.4717 218.176 63.7881 218.293 62.9971 218.293C61.9912 218.293 61.0781 218.093 60.2578 217.692C59.4473 217.282 58.8027 216.721 58.3242 216.008C57.8555 215.285 57.6211 214.465 57.6211 213.547C57.6211 212.717 57.7773 211.979 58.0898 211.335C58.4023 210.69 58.8613 210.148 59.4668 209.709C60.082 209.26 60.8486 208.923 61.7666 208.698C62.6846 208.464 63.749 208.347 64.96 208.347H67.4062ZM78.4805 205.534V218H74.2617V202.15H78.2168L78.4805 205.534ZM77.8652 209.519H76.7227C76.7227 208.347 76.874 207.292 77.1768 206.354C77.4795 205.407 77.9043 204.602 78.4512 203.938C78.998 203.264 79.6475 202.751 80.3994 202.399C81.1611 202.038 82.0107 201.857 82.9482 201.857C83.6904 201.857 84.3691 201.965 84.9844 202.18C85.5996 202.395 86.127 202.736 86.5664 203.205C87.0156 203.674 87.3574 204.294 87.5918 205.065C87.8359 205.837 87.958 206.779 87.958 207.893V218H83.71V207.878C83.71 207.175 83.6123 206.628 83.417 206.237C83.2217 205.847 82.9336 205.573 82.5527 205.417C82.1816 205.251 81.7227 205.168 81.1758 205.168C80.6094 205.168 80.1162 205.28 79.6963 205.505C79.2861 205.729 78.9443 206.042 78.6709 206.442C78.4072 206.833 78.207 207.292 78.0703 207.819C77.9336 208.347 77.8652 208.913 77.8652 209.519ZM99.7354 213.62C99.7354 213.317 99.6475 213.044 99.4717 212.8C99.2959 212.556 98.9688 212.331 98.4902 212.126C98.0215 211.911 97.3428 211.716 96.4541 211.54C95.6533 211.364 94.9062 211.145 94.2129 210.881C93.5293 210.607 92.9336 210.28 92.4258 209.899C91.9277 209.519 91.5371 209.069 91.2539 208.552C90.9707 208.024 90.8291 207.424 90.8291 206.75C90.8291 206.086 90.9707 205.461 91.2539 204.875C91.5469 204.289 91.9619 203.771 92.499 203.322C93.0459 202.863 93.71 202.507 94.4912 202.253C95.2822 201.989 96.1709 201.857 97.1572 201.857C98.5342 201.857 99.7158 202.077 100.702 202.517C101.698 202.956 102.46 203.562 102.987 204.333C103.524 205.095 103.793 205.964 103.793 206.94H99.5742C99.5742 206.53 99.4863 206.164 99.3105 205.842C99.1445 205.51 98.8809 205.251 98.5195 205.065C98.168 204.87 97.709 204.772 97.1426 204.772C96.6738 204.772 96.2686 204.855 95.9268 205.021C95.585 205.178 95.3213 205.393 95.1357 205.666C94.96 205.93 94.8721 206.223 94.8721 206.545C94.8721 206.789 94.9209 207.009 95.0186 207.204C95.126 207.39 95.2969 207.561 95.5312 207.717C95.7656 207.873 96.0684 208.02 96.4395 208.156C96.8203 208.283 97.2891 208.4 97.8457 208.508C98.9883 208.742 100.009 209.05 100.907 209.431C101.806 209.802 102.519 210.31 103.046 210.954C103.573 211.589 103.837 212.424 103.837 213.459C103.837 214.162 103.681 214.807 103.368 215.393C103.056 215.979 102.606 216.491 102.021 216.931C101.435 217.36 100.731 217.697 99.9111 217.941C99.1006 218.176 98.1875 218.293 97.1719 218.293C95.6973 218.293 94.4473 218.029 93.4219 217.502C92.4062 216.975 91.6348 216.306 91.1074 215.495C90.5898 214.675 90.3311 213.835 90.3311 212.976H94.3301C94.3496 213.552 94.4961 214.016 94.7695 214.367C95.0527 214.719 95.4092 214.973 95.8389 215.129C96.2783 215.285 96.752 215.363 97.2598 215.363C97.8066 215.363 98.2607 215.29 98.6221 215.144C98.9834 214.987 99.2568 214.782 99.4424 214.528C99.6377 214.265 99.7354 213.962 99.7354 213.62ZM115.131 214.426V207.365C115.131 206.857 115.048 206.423 114.882 206.062C114.716 205.69 114.457 205.402 114.105 205.197C113.764 204.992 113.319 204.89 112.772 204.89C112.304 204.89 111.898 204.973 111.557 205.139C111.215 205.295 110.951 205.524 110.766 205.827C110.58 206.12 110.487 206.467 110.487 206.867H106.269C106.269 206.193 106.425 205.554 106.737 204.948C107.05 204.343 107.504 203.811 108.1 203.352C108.695 202.883 109.403 202.517 110.224 202.253C111.054 201.989 111.981 201.857 113.007 201.857C114.237 201.857 115.331 202.062 116.288 202.473C117.245 202.883 117.997 203.498 118.544 204.318C119.101 205.139 119.379 206.164 119.379 207.395V214.177C119.379 215.046 119.433 215.759 119.54 216.315C119.647 216.862 119.804 217.341 120.009 217.751V218H115.746C115.541 217.57 115.385 217.033 115.277 216.389C115.18 215.734 115.131 215.08 115.131 214.426ZM115.688 208.347L115.717 210.734H113.358C112.802 210.734 112.318 210.798 111.908 210.925C111.498 211.052 111.161 211.232 110.897 211.467C110.634 211.691 110.438 211.955 110.312 212.258C110.194 212.561 110.136 212.893 110.136 213.254C110.136 213.615 110.219 213.942 110.385 214.235C110.551 214.519 110.79 214.743 111.103 214.909C111.415 215.065 111.781 215.144 112.201 215.144C112.836 215.144 113.388 215.017 113.856 214.763C114.325 214.509 114.687 214.196 114.94 213.825C115.204 213.454 115.341 213.103 115.351 212.771L116.464 214.558C116.308 214.958 116.093 215.373 115.819 215.803C115.556 216.232 115.219 216.638 114.809 217.019C114.398 217.39 113.905 217.697 113.329 217.941C112.753 218.176 112.069 218.293 111.278 218.293C110.272 218.293 109.359 218.093 108.539 217.692C107.729 217.282 107.084 216.721 106.605 216.008C106.137 215.285 105.902 214.465 105.902 213.547C105.902 212.717 106.059 211.979 106.371 211.335C106.684 210.69 107.143 210.148 107.748 209.709C108.363 209.26 109.13 208.923 110.048 208.698C110.966 208.464 112.03 208.347 113.241 208.347H115.688ZM129.179 214.997C129.696 214.997 130.155 214.899 130.556 214.704C130.956 214.499 131.269 214.216 131.493 213.854C131.728 213.483 131.85 213.049 131.859 212.551H135.829C135.819 213.664 135.521 214.655 134.936 215.524C134.35 216.384 133.563 217.062 132.577 217.561C131.591 218.049 130.487 218.293 129.267 218.293C128.036 218.293 126.962 218.088 126.044 217.678C125.136 217.268 124.379 216.701 123.773 215.979C123.168 215.246 122.714 214.396 122.411 213.43C122.108 212.453 121.957 211.408 121.957 210.295V209.87C121.957 208.747 122.108 207.702 122.411 206.735C122.714 205.759 123.168 204.909 123.773 204.187C124.379 203.454 125.136 202.883 126.044 202.473C126.952 202.062 128.017 201.857 129.237 201.857C130.536 201.857 131.674 202.106 132.65 202.604C133.637 203.103 134.408 203.815 134.965 204.743C135.531 205.661 135.819 206.75 135.829 208.01H131.859C131.85 207.482 131.737 207.004 131.522 206.574C131.317 206.145 131.015 205.803 130.614 205.549C130.224 205.285 129.74 205.153 129.164 205.153C128.549 205.153 128.046 205.285 127.655 205.549C127.265 205.803 126.962 206.154 126.747 206.604C126.532 207.043 126.381 207.546 126.293 208.112C126.215 208.669 126.176 209.255 126.176 209.87V210.295C126.176 210.91 126.215 211.501 126.293 212.067C126.371 212.634 126.518 213.137 126.732 213.576C126.957 214.016 127.265 214.362 127.655 214.616C128.046 214.87 128.554 214.997 129.179 214.997ZM146.039 202.15V205.139H136.811V202.15H146.039ZM139.096 198.239H143.314V213.225C143.314 213.684 143.373 214.035 143.49 214.279C143.617 214.523 143.803 214.694 144.047 214.792C144.291 214.88 144.599 214.924 144.97 214.924C145.233 214.924 145.468 214.914 145.673 214.895C145.888 214.865 146.068 214.836 146.215 214.807L146.229 217.912C145.868 218.029 145.478 218.122 145.058 218.19C144.638 218.259 144.174 218.293 143.666 218.293C142.738 218.293 141.928 218.142 141.234 217.839C140.551 217.526 140.023 217.028 139.652 216.345C139.281 215.661 139.096 214.763 139.096 213.649V198.239ZM152.895 202.15V218H148.661V202.15H152.895ZM148.397 198.02C148.397 197.404 148.612 196.896 149.042 196.496C149.472 196.096 150.048 195.896 150.771 195.896C151.483 195.896 152.055 196.096 152.484 196.496C152.924 196.896 153.144 197.404 153.144 198.02C153.144 198.635 152.924 199.143 152.484 199.543C152.055 199.943 151.483 200.144 150.771 200.144C150.048 200.144 149.472 199.943 149.042 199.543C148.612 199.143 148.397 198.635 148.397 198.02ZM155.707 210.236V209.929C155.707 208.767 155.873 207.697 156.205 206.721C156.537 205.734 157.021 204.88 157.655 204.157C158.29 203.435 159.071 202.873 159.999 202.473C160.927 202.062 161.991 201.857 163.192 201.857C164.394 201.857 165.463 202.062 166.4 202.473C167.338 202.873 168.124 203.435 168.759 204.157C169.403 204.88 169.892 205.734 170.224 206.721C170.556 207.697 170.722 208.767 170.722 209.929V210.236C170.722 211.389 170.556 212.458 170.224 213.444C169.892 214.421 169.403 215.275 168.759 216.008C168.124 216.73 167.343 217.292 166.415 217.692C165.487 218.093 164.423 218.293 163.222 218.293C162.021 218.293 160.951 218.093 160.014 217.692C159.086 217.292 158.3 216.73 157.655 216.008C157.021 215.275 156.537 214.421 156.205 213.444C155.873 212.458 155.707 211.389 155.707 210.236ZM159.926 209.929V210.236C159.926 210.9 159.984 211.521 160.102 212.097C160.219 212.673 160.404 213.181 160.658 213.62C160.922 214.05 161.264 214.387 161.684 214.631C162.104 214.875 162.616 214.997 163.222 214.997C163.808 214.997 164.311 214.875 164.73 214.631C165.15 214.387 165.487 214.05 165.741 213.62C165.995 213.181 166.181 212.673 166.298 212.097C166.425 211.521 166.488 210.9 166.488 210.236V209.929C166.488 209.284 166.425 208.679 166.298 208.112C166.181 207.536 165.99 207.028 165.727 206.589C165.473 206.14 165.136 205.788 164.716 205.534C164.296 205.28 163.788 205.153 163.192 205.153C162.597 205.153 162.089 205.28 161.669 205.534C161.259 205.788 160.922 206.14 160.658 206.589C160.404 207.028 160.219 207.536 160.102 208.112C159.984 208.679 159.926 209.284 159.926 209.929ZM177.445 205.534V218H173.227V202.15H177.182L177.445 205.534ZM176.83 209.519H175.688C175.688 208.347 175.839 207.292 176.142 206.354C176.444 205.407 176.869 204.602 177.416 203.938C177.963 203.264 178.612 202.751 179.364 202.399C180.126 202.038 180.976 201.857 181.913 201.857C182.655 201.857 183.334 201.965 183.949 202.18C184.564 202.395 185.092 202.736 185.531 203.205C185.98 203.674 186.322 204.294 186.557 205.065C186.801 205.837 186.923 206.779 186.923 207.893V218H182.675V207.878C182.675 207.175 182.577 206.628 182.382 206.237C182.187 205.847 181.898 205.573 181.518 205.417C181.146 205.251 180.688 205.168 180.141 205.168C179.574 205.168 179.081 205.28 178.661 205.505C178.251 205.729 177.909 206.042 177.636 206.442C177.372 206.833 177.172 207.292 177.035 207.819C176.898 208.347 176.83 208.913 176.83 209.519ZM198.7 213.62C198.7 213.317 198.612 213.044 198.437 212.8C198.261 212.556 197.934 212.331 197.455 212.126C196.986 211.911 196.308 211.716 195.419 211.54C194.618 211.364 193.871 211.145 193.178 210.881C192.494 210.607 191.898 210.28 191.391 209.899C190.893 209.519 190.502 209.069 190.219 208.552C189.936 208.024 189.794 207.424 189.794 206.75C189.794 206.086 189.936 205.461 190.219 204.875C190.512 204.289 190.927 203.771 191.464 203.322C192.011 202.863 192.675 202.507 193.456 202.253C194.247 201.989 195.136 201.857 196.122 201.857C197.499 201.857 198.681 202.077 199.667 202.517C200.663 202.956 201.425 203.562 201.952 204.333C202.489 205.095 202.758 205.964 202.758 206.94H198.539C198.539 206.53 198.451 206.164 198.275 205.842C198.109 205.51 197.846 205.251 197.484 205.065C197.133 204.87 196.674 204.772 196.107 204.772C195.639 204.772 195.233 204.855 194.892 205.021C194.55 205.178 194.286 205.393 194.101 205.666C193.925 205.93 193.837 206.223 193.837 206.545C193.837 206.789 193.886 207.009 193.983 207.204C194.091 207.39 194.262 207.561 194.496 207.717C194.73 207.873 195.033 208.02 195.404 208.156C195.785 208.283 196.254 208.4 196.811 208.508C197.953 208.742 198.974 209.05 199.872 209.431C200.771 209.802 201.483 210.31 202.011 210.954C202.538 211.589 202.802 212.424 202.802 213.459C202.802 214.162 202.646 214.807 202.333 215.393C202.021 215.979 201.571 216.491 200.985 216.931C200.399 217.36 199.696 217.697 198.876 217.941C198.065 218.176 197.152 218.293 196.137 218.293C194.662 218.293 193.412 218.029 192.387 217.502C191.371 216.975 190.6 216.306 190.072 215.495C189.555 214.675 189.296 213.835 189.296 212.976H193.295C193.314 213.552 193.461 214.016 193.734 214.367C194.018 214.719 194.374 214.973 194.804 215.129C195.243 215.285 195.717 215.363 196.225 215.363C196.771 215.363 197.226 215.29 197.587 215.144C197.948 214.987 198.222 214.782 198.407 214.528C198.603 214.265 198.7 213.962 198.7 213.62Z" fill="white"/>
<rect x="82" y="84" width="20" height="59" fill="white" fill-opacity="0.5"/>
<rect x="151" y="110" width="20" height="33" fill="white" fill-opacity="0.5"/>
<rect x="186" y="110" width="20" height="33" fill="white" fill-opacity="0.5"/>
<rect x="49" y="129" width="20" height="14" fill="white" fill-opacity="0.5"/>
<rect x="115" y="37" width="19" height="106" fill="white" fill-opacity="0.5"/>
</svg>
