<svg width="300" height="75" viewBox="0 0 300 75" fill="none" xmlns="http://www.w3.org/2000/svg">
<rect width="300" height="75" rx="8" fill="#2A62FF"/>
<path d="M59.7285 23.4062V49H54.4727V23.4062H59.7285ZM67.6035 23.4062V27.5371H46.7207V23.4062H67.6035ZM71.6894 23.4062H81.2343C83.1913 23.4062 84.873 23.6992 86.2792 24.2852C87.6972 24.8711 88.787 25.7383 89.5487 26.8867C90.3105 28.0352 90.6913 29.4473 90.6913 31.123C90.6913 32.4941 90.457 33.6719 89.9882 34.6562C89.5312 35.6289 88.8808 36.4434 88.037 37.0996C87.205 37.7441 86.2265 38.2598 85.1015 38.6465L83.4316 39.5254H75.1347L75.0995 35.4121H81.2695C82.1952 35.4121 82.9628 35.248 83.5722 34.9199C84.1816 34.5918 84.6386 34.1348 84.9433 33.5488C85.2597 32.9629 85.4179 32.2832 85.4179 31.5098C85.4179 30.6895 85.2655 29.9805 84.9609 29.3828C84.6562 28.7852 84.1933 28.3281 83.5722 28.0117C82.9511 27.6953 82.1718 27.5371 81.2343 27.5371H76.9628V49H71.6894V23.4062ZM85.998 49L80.162 37.5918L85.7343 37.5566L91.6405 48.7539V49H85.998ZM98.5037 23.4062L103.847 35.0781L109.191 23.4062H114.939L106.519 39.6836V49H101.176V39.6836L92.7381 23.4062H98.5037ZM134.009 23.4062V49H128.754V23.4062H134.009ZM150.945 23.4062V49H145.689V23.4062H150.945ZM158.82 23.4062V27.5371H137.937V23.4062H158.82ZM192.831 23.4062V49H187.558L177.275 31.8438V49H172.001V23.4062H177.275L187.576 40.5801V23.4062H192.831ZM219.523 35.6055V36.8184C219.523 38.7637 219.259 40.5098 218.732 42.0566C218.204 43.6035 217.46 44.9219 216.499 46.0117C215.538 47.0898 214.39 47.916 213.054 48.4902C211.73 49.0645 210.259 49.3516 208.642 49.3516C207.036 49.3516 205.566 49.0645 204.23 48.4902C202.906 47.916 201.757 47.0898 200.785 46.0117C199.812 44.9219 199.056 43.6035 198.517 42.0566C197.99 40.5098 197.726 38.7637 197.726 36.8184V35.6055C197.726 33.6484 197.99 31.9023 198.517 30.3672C199.044 28.8203 199.788 27.502 200.749 26.4121C201.722 25.3223 202.87 24.4902 204.195 23.916C205.531 23.3418 207.001 23.0547 208.607 23.0547C210.224 23.0547 211.695 23.3418 213.019 23.916C214.355 24.4902 215.503 25.3223 216.464 26.4121C217.437 27.502 218.187 28.8203 218.714 30.3672C219.253 31.9023 219.523 33.6484 219.523 35.6055ZM214.197 36.8184V35.5703C214.197 34.2109 214.074 33.0156 213.827 31.9844C213.581 30.9531 213.218 30.0859 212.738 29.3828C212.257 28.6797 211.671 28.1523 210.98 27.8008C210.288 27.4375 209.497 27.2559 208.607 27.2559C207.716 27.2559 206.925 27.4375 206.234 27.8008C205.554 28.1523 204.974 28.6797 204.494 29.3828C204.025 30.0859 203.667 30.9531 203.421 31.9844C203.175 33.0156 203.052 34.2109 203.052 35.5703V36.8184C203.052 38.166 203.175 39.3613 203.421 40.4043C203.667 41.4355 204.031 42.3086 204.511 43.0234C204.992 43.7266 205.577 44.2598 206.269 44.623C206.96 44.9863 207.751 45.168 208.642 45.168C209.533 45.168 210.324 44.9863 211.015 44.623C211.706 44.2598 212.286 43.7266 212.755 43.0234C213.224 42.3086 213.581 41.4355 213.827 40.4043C214.074 39.3613 214.197 38.166 214.197 36.8184ZM230.57 44.9395L235.667 23.4062H238.515L239.165 26.9922L233.734 49H230.675L230.57 44.9395ZM227.95 23.4062L232.169 44.9395L231.818 49H228.408L222.73 23.4062H227.95ZM243.648 44.8516L247.814 23.4062H253.034L247.374 49H243.964L243.648 44.8516ZM240.115 23.4062L245.247 45.0273L245.107 49H242.048L236.581 26.9746L237.284 23.4062H240.115Z" fill="white"/>
</svg>
