<svg width="240" height="240" viewBox="0 0 240 240" fill="none" xmlns="http://www.w3.org/2000/svg">
<rect width="240" height="240" fill="white"/>
<rect x="10" y="10" width="220" height="220" rx="20" fill="#B2DDAB"/>
<path d="M38.8398 177.349C38.8398 177.032 38.791 176.747 38.6934 176.495C38.6038 176.234 38.4329 175.998 38.1807 175.787C37.9284 175.567 37.5744 175.351 37.1187 175.14C36.6629 174.928 36.0729 174.708 35.3486 174.48C34.543 174.22 33.778 173.927 33.0537 173.602C32.3376 173.276 31.7028 172.898 31.1494 172.466C30.6042 172.027 30.1729 171.518 29.8555 170.94C29.5462 170.363 29.3916 169.691 29.3916 168.926C29.3916 168.186 29.5544 167.514 29.8799 166.912C30.2054 166.302 30.6611 165.781 31.2471 165.35C31.833 164.91 32.5247 164.572 33.3223 164.336C34.1279 164.1 35.0109 163.982 35.9712 163.982C37.2814 163.982 38.4248 164.218 39.4014 164.69C40.3779 165.162 41.1348 165.809 41.6719 166.631C42.2171 167.453 42.4897 168.393 42.4897 169.451H38.8521C38.8521 168.93 38.7422 168.475 38.5225 168.084C38.3109 167.685 37.9854 167.372 37.5459 167.144C37.1146 166.916 36.5693 166.802 35.9102 166.802C35.2754 166.802 34.7464 166.9 34.3232 167.095C33.9001 167.282 33.5827 167.539 33.3711 167.864C33.1595 168.182 33.0537 168.54 33.0537 168.938C33.0537 169.24 33.127 169.512 33.2734 169.756C33.4281 170 33.6559 170.228 33.957 170.44C34.2581 170.652 34.6284 170.851 35.0679 171.038C35.5073 171.225 36.016 171.408 36.5938 171.587C37.5622 171.88 38.4126 172.21 39.145 172.576C39.8856 172.942 40.5041 173.353 41.0005 173.809C41.4969 174.265 41.8713 174.782 42.1235 175.359C42.3758 175.937 42.502 176.592 42.502 177.325C42.502 178.098 42.3514 178.79 42.0503 179.4C41.7492 180.01 41.3138 180.527 40.7441 180.95C40.1745 181.373 39.495 181.695 38.7056 181.915C37.9162 182.134 37.0332 182.244 36.0566 182.244C35.1777 182.244 34.311 182.13 33.4565 181.902C32.6021 181.666 31.8249 181.312 31.125 180.84C30.4333 180.368 29.8799 179.766 29.4648 179.034C29.0498 178.301 28.8423 177.435 28.8423 176.434H32.5166C32.5166 176.987 32.6021 177.455 32.7729 177.837C32.9438 178.22 33.1839 178.529 33.4932 178.765C33.8105 179.001 34.1849 179.172 34.6162 179.278C35.0557 179.384 35.5358 179.437 36.0566 179.437C36.6914 179.437 37.2122 179.347 37.6191 179.168C38.0342 178.989 38.3394 178.741 38.5347 178.423C38.7381 178.106 38.8398 177.748 38.8398 177.349ZM48.2026 163.25V182H44.687V163.25H48.2026ZM47.7021 174.932H46.7378C46.7459 174.013 46.868 173.166 47.104 172.393C47.34 171.612 47.6777 170.936 48.1172 170.367C48.5566 169.789 49.0815 169.341 49.6919 169.024C50.3104 168.707 50.994 168.548 51.7427 168.548C52.3937 168.548 52.9837 168.641 53.5127 168.829C54.0498 169.008 54.5096 169.301 54.8921 169.708C55.2827 170.106 55.5838 170.631 55.7954 171.282C56.007 171.933 56.1128 172.723 56.1128 173.65V182H52.5728V173.626C52.5728 173.04 52.4873 172.58 52.3164 172.247C52.1536 171.905 51.9136 171.665 51.5962 171.526C51.2869 171.38 50.9045 171.307 50.4487 171.307C49.9442 171.307 49.5129 171.4 49.1548 171.587C48.8049 171.775 48.5241 172.035 48.3125 172.369C48.1009 172.694 47.9463 173.077 47.8486 173.516C47.751 173.956 47.7021 174.428 47.7021 174.932ZM65.915 179.021V173.138C65.915 172.715 65.8459 172.352 65.7075 172.051C65.5692 171.742 65.3535 171.502 65.0605 171.331C64.7757 171.16 64.4054 171.075 63.9497 171.075C63.5591 171.075 63.2214 171.144 62.9365 171.282C62.6517 171.412 62.432 171.604 62.2773 171.856C62.1227 172.1 62.0454 172.389 62.0454 172.723H58.5298C58.5298 172.161 58.66 171.628 58.9204 171.124C59.1808 170.619 59.5592 170.175 60.0557 169.793C60.5521 169.402 61.1421 169.097 61.8257 168.877C62.5174 168.658 63.2905 168.548 64.145 168.548C65.1704 168.548 66.0819 168.719 66.8794 169.061C67.6769 169.402 68.3035 169.915 68.7593 170.599C69.2231 171.282 69.4551 172.137 69.4551 173.162V178.814C69.4551 179.538 69.4998 180.132 69.5894 180.596C69.6789 181.052 69.8091 181.451 69.98 181.792V182H66.4277C66.2568 181.642 66.1266 181.194 66.0371 180.657C65.9557 180.112 65.915 179.567 65.915 179.021ZM66.3789 173.956L66.4033 175.945H64.438C63.9741 175.945 63.5713 175.998 63.2295 176.104C62.8877 176.21 62.6069 176.36 62.3872 176.556C62.1675 176.743 62.0047 176.963 61.8989 177.215C61.8013 177.467 61.7524 177.744 61.7524 178.045C61.7524 178.346 61.8216 178.619 61.96 178.863C62.0983 179.099 62.2977 179.286 62.5581 179.424C62.8185 179.555 63.1237 179.62 63.4736 179.62C64.0026 179.62 64.4624 179.514 64.853 179.302C65.2437 179.091 65.5448 178.83 65.7563 178.521C65.9761 178.212 66.09 177.919 66.0981 177.642L67.0259 179.131C66.8957 179.465 66.7166 179.811 66.4888 180.169C66.269 180.527 65.9883 180.865 65.6465 181.182C65.3047 181.491 64.8937 181.748 64.4136 181.951C63.9334 182.146 63.3638 182.244 62.7046 182.244C61.8664 182.244 61.1055 182.077 60.4219 181.744C59.7464 181.402 59.2093 180.934 58.8105 180.34C58.4199 179.738 58.2246 179.054 58.2246 178.289C58.2246 177.597 58.3548 176.983 58.6152 176.446C58.8757 175.909 59.2581 175.457 59.7627 175.091C60.2754 174.716 60.9142 174.436 61.6792 174.249C62.4442 174.053 63.3312 173.956 64.3403 173.956H66.3789ZM75.6807 171.673V182H72.165V168.792H75.4731L75.6807 171.673ZM79.6602 168.707L79.5991 171.966C79.4282 171.941 79.2207 171.921 78.9766 171.905C78.7406 171.88 78.5249 171.868 78.3296 171.868C77.8332 171.868 77.4019 171.933 77.0356 172.063C76.6776 172.186 76.3765 172.369 76.1323 172.613C75.8963 172.857 75.7173 173.154 75.5952 173.504C75.4813 173.854 75.4162 174.253 75.3999 174.7L74.6919 174.48C74.6919 173.626 74.7773 172.841 74.9482 172.125C75.1191 171.4 75.3674 170.77 75.6929 170.232C76.0265 169.695 76.4334 169.28 76.9136 168.987C77.3937 168.694 77.943 168.548 78.5615 168.548C78.7568 168.548 78.9562 168.564 79.1597 168.597C79.3631 168.621 79.5299 168.658 79.6602 168.707ZM87.1553 182.244C86.1299 182.244 85.2103 182.081 84.3965 181.756C83.5827 181.422 82.891 180.962 82.3213 180.376C81.7598 179.791 81.3285 179.111 81.0273 178.338C80.7262 177.557 80.5757 176.727 80.5757 175.848V175.359C80.5757 174.358 80.7181 173.443 81.0029 172.613C81.2878 171.783 81.6947 171.062 82.2236 170.452C82.7607 169.842 83.4118 169.374 84.1768 169.048C84.9417 168.715 85.8044 168.548 86.7646 168.548C87.7005 168.548 88.5306 168.702 89.2549 169.012C89.9792 169.321 90.5854 169.76 91.0737 170.33C91.5701 170.9 91.9445 171.583 92.1968 172.381C92.4491 173.17 92.5752 174.049 92.5752 175.018V176.482H82.0771V174.139H89.1206V173.87C89.1206 173.382 89.0311 172.946 88.8521 172.564C88.6812 172.173 88.4207 171.864 88.0708 171.636C87.7209 171.408 87.2733 171.294 86.728 171.294C86.2642 171.294 85.8654 171.396 85.5317 171.6C85.1981 171.803 84.9255 172.088 84.7139 172.454C84.5104 172.82 84.3558 173.252 84.25 173.748C84.1523 174.236 84.1035 174.773 84.1035 175.359V175.848C84.1035 176.377 84.1768 176.865 84.3232 177.312C84.4779 177.76 84.6935 178.147 84.9702 178.472C85.255 178.798 85.5968 179.05 85.9956 179.229C86.4025 179.408 86.8623 179.498 87.375 179.498C88.0098 179.498 88.5998 179.375 89.145 179.131C89.6984 178.879 90.1745 178.501 90.5732 177.996L92.2822 179.852C92.0055 180.25 91.6271 180.633 91.147 180.999C90.675 181.365 90.1053 181.666 89.438 181.902C88.7707 182.13 88.0098 182.244 87.1553 182.244ZM104.318 171.331V187.078H100.803V168.792H104.062L104.318 171.331ZM112.68 175.25V175.506C112.68 176.466 112.566 177.357 112.338 178.179C112.119 179.001 111.793 179.717 111.362 180.328C110.931 180.93 110.393 181.402 109.75 181.744C109.116 182.077 108.383 182.244 107.553 182.244C106.748 182.244 106.048 182.081 105.454 181.756C104.86 181.43 104.359 180.975 103.952 180.389C103.553 179.795 103.232 179.107 102.988 178.326C102.744 177.544 102.556 176.706 102.426 175.811V175.14C102.556 174.179 102.744 173.3 102.988 172.503C103.232 171.697 103.553 171.001 103.952 170.416C104.359 169.821 104.855 169.362 105.441 169.036C106.035 168.711 106.731 168.548 107.529 168.548C108.367 168.548 109.104 168.707 109.738 169.024C110.381 169.341 110.918 169.797 111.35 170.391C111.789 170.985 112.119 171.693 112.338 172.515C112.566 173.337 112.68 174.249 112.68 175.25ZM109.152 175.506V175.25C109.152 174.688 109.104 174.171 109.006 173.699C108.916 173.219 108.77 172.8 108.566 172.442C108.371 172.084 108.111 171.807 107.785 171.612C107.468 171.408 107.081 171.307 106.625 171.307C106.145 171.307 105.734 171.384 105.393 171.539C105.059 171.693 104.786 171.917 104.575 172.21C104.363 172.503 104.204 172.853 104.099 173.26C103.993 173.667 103.928 174.126 103.903 174.639V176.336C103.944 176.938 104.058 177.479 104.245 177.959C104.432 178.431 104.721 178.806 105.112 179.083C105.502 179.359 106.015 179.498 106.65 179.498C107.114 179.498 107.504 179.396 107.822 179.192C108.139 178.981 108.396 178.692 108.591 178.326C108.794 177.959 108.937 177.536 109.018 177.056C109.108 176.576 109.152 176.059 109.152 175.506ZM118.381 171.673V182H114.865V168.792H118.173L118.381 171.673ZM122.36 168.707L122.299 171.966C122.128 171.941 121.921 171.921 121.677 171.905C121.441 171.88 121.225 171.868 121.03 171.868C120.533 171.868 120.102 171.933 119.736 172.063C119.378 172.186 119.077 172.369 118.833 172.613C118.597 172.857 118.417 173.154 118.295 173.504C118.181 173.854 118.116 174.253 118.1 174.7L117.392 174.48C117.392 173.626 117.478 172.841 117.648 172.125C117.819 171.4 118.068 170.77 118.393 170.232C118.727 169.695 119.134 169.28 119.614 168.987C120.094 168.694 120.643 168.548 121.262 168.548C121.457 168.548 121.656 168.564 121.86 168.597C122.063 168.621 122.23 168.658 122.36 168.707ZM123.093 175.53V175.274C123.093 174.306 123.231 173.414 123.508 172.601C123.785 171.779 124.187 171.067 124.716 170.464C125.245 169.862 125.896 169.394 126.669 169.061C127.443 168.719 128.33 168.548 129.331 168.548C130.332 168.548 131.223 168.719 132.004 169.061C132.785 169.394 133.44 169.862 133.969 170.464C134.506 171.067 134.913 171.779 135.19 172.601C135.467 173.414 135.605 174.306 135.605 175.274V175.53C135.605 176.491 135.467 177.382 135.19 178.204C134.913 179.017 134.506 179.729 133.969 180.34C133.44 180.942 132.789 181.41 132.016 181.744C131.243 182.077 130.356 182.244 129.355 182.244C128.354 182.244 127.463 182.077 126.682 181.744C125.909 181.41 125.253 180.942 124.716 180.34C124.187 179.729 123.785 179.017 123.508 178.204C123.231 177.382 123.093 176.491 123.093 175.53ZM126.608 175.274V175.53C126.608 176.084 126.657 176.6 126.755 177.081C126.853 177.561 127.007 177.984 127.219 178.35C127.438 178.708 127.723 178.989 128.073 179.192C128.423 179.396 128.85 179.498 129.355 179.498C129.843 179.498 130.262 179.396 130.612 179.192C130.962 178.989 131.243 178.708 131.455 178.35C131.666 177.984 131.821 177.561 131.918 177.081C132.024 176.6 132.077 176.084 132.077 175.53V175.274C132.077 174.737 132.024 174.232 131.918 173.76C131.821 173.28 131.662 172.857 131.442 172.491C131.231 172.116 130.95 171.823 130.6 171.612C130.25 171.4 129.827 171.294 129.331 171.294C128.834 171.294 128.411 171.4 128.061 171.612C127.719 171.823 127.438 172.116 127.219 172.491C127.007 172.857 126.853 173.28 126.755 173.76C126.657 174.232 126.608 174.737 126.608 175.274ZM145.566 179.119V163.25H149.106V182H145.92L145.566 179.119ZM137.216 175.555V175.298C137.216 174.289 137.33 173.374 137.558 172.552C137.786 171.722 138.12 171.01 138.559 170.416C138.999 169.821 139.54 169.362 140.183 169.036C140.826 168.711 141.558 168.548 142.38 168.548C143.153 168.548 143.828 168.711 144.406 169.036C144.992 169.362 145.489 169.826 145.896 170.428C146.311 171.022 146.644 171.726 146.896 172.54C147.149 173.345 147.332 174.228 147.446 175.188V175.75C147.332 176.67 147.149 177.524 146.896 178.313C146.644 179.103 146.311 179.795 145.896 180.389C145.489 180.975 144.992 181.43 144.406 181.756C143.82 182.081 143.137 182.244 142.355 182.244C141.534 182.244 140.801 182.077 140.158 181.744C139.523 181.41 138.986 180.942 138.547 180.34C138.116 179.738 137.786 179.03 137.558 178.216C137.33 177.402 137.216 176.515 137.216 175.555ZM140.732 175.298V175.555C140.732 176.1 140.773 176.609 140.854 177.081C140.944 177.553 141.086 177.972 141.281 178.338C141.485 178.696 141.745 178.977 142.062 179.18C142.388 179.375 142.783 179.473 143.247 179.473C143.849 179.473 144.345 179.339 144.736 179.07C145.126 178.794 145.424 178.415 145.627 177.935C145.839 177.455 145.961 176.902 145.993 176.275V174.676C145.969 174.163 145.896 173.703 145.773 173.296C145.66 172.881 145.489 172.527 145.261 172.234C145.041 171.941 144.764 171.714 144.431 171.551C144.105 171.388 143.719 171.307 143.271 171.307C142.815 171.307 142.425 171.412 142.099 171.624C141.774 171.827 141.509 172.108 141.306 172.466C141.11 172.824 140.964 173.248 140.866 173.736C140.777 174.216 140.732 174.737 140.732 175.298ZM159.665 178.838V168.792H163.181V182H159.873L159.665 178.838ZM160.056 176.128L161.093 176.104C161.093 176.983 160.992 177.801 160.788 178.558C160.585 179.306 160.279 179.957 159.873 180.511C159.466 181.056 158.953 181.483 158.334 181.792C157.716 182.094 156.988 182.244 156.149 182.244C155.507 182.244 154.912 182.155 154.367 181.976C153.83 181.788 153.366 181.5 152.976 181.109C152.593 180.71 152.292 180.201 152.072 179.583C151.861 178.956 151.755 178.204 151.755 177.325V168.792H155.271V177.349C155.271 177.74 155.315 178.069 155.405 178.338C155.502 178.606 155.637 178.826 155.808 178.997C155.979 179.168 156.178 179.29 156.406 179.363C156.642 179.437 156.902 179.473 157.187 179.473C157.911 179.473 158.481 179.327 158.896 179.034C159.319 178.741 159.616 178.342 159.787 177.837C159.966 177.325 160.056 176.755 160.056 176.128ZM171.323 179.498C171.754 179.498 172.137 179.416 172.47 179.253C172.804 179.083 173.064 178.847 173.251 178.545C173.447 178.236 173.549 177.874 173.557 177.459H176.865C176.857 178.387 176.608 179.213 176.12 179.937C175.632 180.653 174.977 181.219 174.155 181.634C173.333 182.041 172.413 182.244 171.396 182.244C170.371 182.244 169.475 182.073 168.71 181.731C167.954 181.39 167.323 180.918 166.818 180.315C166.314 179.705 165.935 178.997 165.683 178.191C165.431 177.378 165.305 176.507 165.305 175.579V175.225C165.305 174.289 165.431 173.418 165.683 172.613C165.935 171.799 166.314 171.091 166.818 170.489C167.323 169.878 167.954 169.402 168.71 169.061C169.467 168.719 170.354 168.548 171.372 168.548C172.454 168.548 173.402 168.755 174.216 169.17C175.038 169.585 175.681 170.18 176.145 170.953C176.617 171.718 176.857 172.625 176.865 173.675H173.557C173.549 173.235 173.455 172.837 173.276 172.479C173.105 172.12 172.853 171.836 172.519 171.624C172.194 171.404 171.791 171.294 171.311 171.294C170.798 171.294 170.379 171.404 170.053 171.624C169.728 171.836 169.475 172.129 169.296 172.503C169.117 172.869 168.991 173.288 168.918 173.76C168.853 174.224 168.82 174.712 168.82 175.225V175.579C168.82 176.092 168.853 176.584 168.918 177.056C168.983 177.528 169.105 177.947 169.284 178.313C169.471 178.68 169.728 178.969 170.053 179.18C170.379 179.392 170.802 179.498 171.323 179.498ZM185.373 168.792V171.282H177.683V168.792H185.373ZM179.587 165.533H183.103V178.021C183.103 178.403 183.151 178.696 183.249 178.899C183.355 179.103 183.509 179.245 183.713 179.327C183.916 179.4 184.173 179.437 184.482 179.437C184.702 179.437 184.897 179.428 185.068 179.412C185.247 179.388 185.397 179.363 185.52 179.339L185.532 181.927C185.231 182.024 184.905 182.102 184.555 182.159C184.205 182.216 183.819 182.244 183.396 182.244C182.622 182.244 181.947 182.118 181.369 181.866C180.799 181.605 180.36 181.19 180.051 180.621C179.742 180.051 179.587 179.302 179.587 178.375V165.533ZM37.1797 207.838V197.792H40.6953V211H37.3872L37.1797 207.838ZM37.5703 205.128L38.6079 205.104C38.6079 205.983 38.5062 206.801 38.3027 207.558C38.0993 208.306 37.7941 208.957 37.3872 209.511C36.9803 210.056 36.4676 210.483 35.8491 210.792C35.2306 211.094 34.5023 211.244 33.6641 211.244C33.0212 211.244 32.4271 211.155 31.8818 210.976C31.3447 210.788 30.8809 210.5 30.4902 210.109C30.1077 209.71 29.8066 209.201 29.5869 208.583C29.3753 207.956 29.2695 207.204 29.2695 206.325V197.792H32.7852V206.349C32.7852 206.74 32.8299 207.069 32.9194 207.338C33.0171 207.606 33.1514 207.826 33.3223 207.997C33.4932 208.168 33.6925 208.29 33.9204 208.363C34.1564 208.437 34.4168 208.473 34.7017 208.473C35.4259 208.473 35.9956 208.327 36.4106 208.034C36.8338 207.741 37.1309 207.342 37.3018 206.837C37.4808 206.325 37.5703 205.755 37.5703 205.128ZM50.522 207.35C50.522 207.098 50.4487 206.87 50.3022 206.667C50.1558 206.463 49.8831 206.276 49.4844 206.105C49.0938 205.926 48.5282 205.763 47.7876 205.617C47.1203 205.47 46.4977 205.287 45.9199 205.067C45.3503 204.84 44.8538 204.567 44.4307 204.25C44.0156 203.932 43.6901 203.558 43.4541 203.126C43.2181 202.687 43.1001 202.187 43.1001 201.625C43.1001 201.072 43.2181 200.551 43.4541 200.062C43.6982 199.574 44.0441 199.143 44.4917 198.769C44.9474 198.386 45.5008 198.089 46.1519 197.877C46.811 197.658 47.5516 197.548 48.3735 197.548C49.521 197.548 50.5057 197.731 51.3276 198.097C52.1577 198.463 52.7925 198.968 53.2319 199.611C53.6795 200.246 53.9033 200.97 53.9033 201.784H50.3877C50.3877 201.442 50.3145 201.137 50.168 200.868C50.0296 200.591 49.8099 200.376 49.5088 200.221C49.2158 200.058 48.8333 199.977 48.3613 199.977C47.9707 199.977 47.633 200.046 47.3481 200.185C47.0633 200.315 46.8436 200.494 46.689 200.722C46.5425 200.941 46.4692 201.186 46.4692 201.454C46.4692 201.658 46.5099 201.841 46.5913 202.003C46.6808 202.158 46.8232 202.3 47.0186 202.431C47.2139 202.561 47.4661 202.683 47.7754 202.797C48.0928 202.903 48.4834 203 48.9473 203.09C49.8994 203.285 50.7498 203.542 51.4985 203.859C52.2472 204.168 52.8413 204.591 53.2808 205.128C53.7202 205.657 53.9399 206.353 53.9399 207.216C53.9399 207.802 53.8097 208.339 53.5493 208.827C53.2889 209.315 52.9146 209.743 52.4263 210.109C51.938 210.467 51.3521 210.748 50.6685 210.951C49.993 211.146 49.2321 211.244 48.3857 211.244C47.1569 211.244 46.1152 211.024 45.2607 210.585C44.4144 210.146 43.7715 209.588 43.332 208.913C42.9007 208.229 42.6851 207.529 42.6851 206.813H46.0176C46.0339 207.293 46.1559 207.68 46.3838 207.973C46.6198 208.266 46.9168 208.477 47.2749 208.607C47.6411 208.738 48.0358 208.803 48.459 208.803C48.9147 208.803 49.2931 208.742 49.5942 208.62C49.8953 208.489 50.1232 208.319 50.2778 208.107C50.4406 207.887 50.522 207.635 50.522 207.35ZM63.3516 208.021V202.138C63.3516 201.715 63.2824 201.352 63.144 201.051C63.0057 200.742 62.79 200.502 62.4971 200.331C62.2122 200.16 61.842 200.075 61.3862 200.075C60.9956 200.075 60.6579 200.144 60.373 200.282C60.0882 200.412 59.8685 200.604 59.7139 200.856C59.5592 201.1 59.4819 201.389 59.4819 201.723H55.9663C55.9663 201.161 56.0965 200.628 56.3569 200.124C56.6174 199.619 56.9958 199.175 57.4922 198.793C57.9886 198.402 58.5786 198.097 59.2622 197.877C59.9539 197.658 60.7271 197.548 61.5815 197.548C62.6069 197.548 63.5184 197.719 64.3159 198.061C65.1134 198.402 65.7401 198.915 66.1958 199.599C66.6597 200.282 66.8916 201.137 66.8916 202.162V207.814C66.8916 208.538 66.9364 209.132 67.0259 209.596C67.1154 210.052 67.2456 210.451 67.4165 210.792V211H63.8643C63.6934 210.642 63.5632 210.194 63.4736 209.657C63.3923 209.112 63.3516 208.567 63.3516 208.021ZM63.8154 202.956L63.8398 204.945H61.8745C61.4106 204.945 61.0078 204.998 60.666 205.104C60.3242 205.21 60.0435 205.36 59.8237 205.556C59.604 205.743 59.4412 205.963 59.3354 206.215C59.2378 206.467 59.189 206.744 59.189 207.045C59.189 207.346 59.2581 207.619 59.3965 207.863C59.5348 208.099 59.7342 208.286 59.9946 208.424C60.255 208.555 60.5602 208.62 60.9102 208.62C61.4391 208.62 61.8989 208.514 62.2896 208.302C62.6802 208.091 62.9813 207.83 63.1929 207.521C63.4126 207.212 63.5265 206.919 63.5347 206.642L64.4624 208.131C64.3322 208.465 64.1532 208.811 63.9253 209.169C63.7056 209.527 63.4248 209.865 63.083 210.182C62.7412 210.491 62.3302 210.748 61.8501 210.951C61.37 211.146 60.8003 211.244 60.1411 211.244C59.3029 211.244 58.542 211.077 57.8584 210.744C57.1829 210.402 56.6458 209.934 56.2471 209.34C55.8564 208.738 55.6611 208.054 55.6611 207.289C55.6611 206.597 55.7913 205.983 56.0518 205.446C56.3122 204.909 56.6947 204.457 57.1992 204.091C57.7119 203.716 58.3507 203.436 59.1157 203.249C59.8807 203.053 60.7677 202.956 61.7769 202.956H63.8154ZM77.9634 197.792H81.1494V210.561C81.1494 211.765 80.8809 212.786 80.3438 213.625C79.8148 214.471 79.0742 215.11 78.1221 215.541C77.1699 215.98 76.0632 216.2 74.8018 216.2C74.2484 216.2 73.6624 216.127 73.0439 215.98C72.4336 215.834 71.8477 215.606 71.2861 215.297C70.7327 214.988 70.2689 214.597 69.8945 214.125L71.4448 212.05C71.8517 212.522 72.3237 212.888 72.8608 213.148C73.3979 213.417 73.992 213.551 74.6431 213.551C75.2778 213.551 75.8149 213.433 76.2544 213.197C76.6938 212.969 77.0316 212.632 77.2676 212.184C77.5036 211.745 77.6216 211.212 77.6216 210.585V200.844L77.9634 197.792ZM69.0767 204.555V204.298C69.0767 203.289 69.1987 202.374 69.4429 201.552C69.6951 200.722 70.0492 200.01 70.5049 199.416C70.9688 198.821 71.5303 198.362 72.1895 198.036C72.8486 197.711 73.5933 197.548 74.4233 197.548C75.3022 197.548 76.0387 197.711 76.6328 198.036C77.2269 198.362 77.7152 198.826 78.0977 199.428C78.4801 200.022 78.7772 200.726 78.9888 201.54C79.2085 202.345 79.3794 203.228 79.5015 204.188V204.75C79.3794 205.67 79.1963 206.524 78.9521 207.313C78.708 208.103 78.3866 208.795 77.9878 209.389C77.589 209.975 77.0926 210.43 76.4985 210.756C75.9126 211.081 75.2127 211.244 74.3989 211.244C73.5851 211.244 72.8486 211.077 72.1895 210.744C71.5384 210.41 70.981 209.942 70.5171 209.34C70.0532 208.738 69.6951 208.03 69.4429 207.216C69.1987 206.402 69.0767 205.515 69.0767 204.555ZM72.5923 204.298V204.555C72.5923 205.1 72.6452 205.609 72.751 206.081C72.8568 206.553 73.0195 206.972 73.2393 207.338C73.4671 207.696 73.7479 207.977 74.0815 208.18C74.4233 208.375 74.8262 208.473 75.29 208.473C75.9329 208.473 76.4578 208.339 76.8647 208.07C77.2716 207.794 77.5768 207.415 77.7803 206.935C77.9837 206.455 78.1017 205.902 78.1343 205.275V203.676C78.118 203.163 78.0488 202.703 77.9268 202.296C77.8047 201.881 77.6338 201.527 77.4141 201.234C77.1943 200.941 76.9095 200.714 76.5596 200.551C76.2096 200.388 75.7946 200.307 75.3145 200.307C74.8506 200.307 74.4478 200.412 74.106 200.624C73.7723 200.827 73.4915 201.108 73.2637 201.466C73.0439 201.824 72.8771 202.248 72.7632 202.736C72.6493 203.216 72.5923 203.737 72.5923 204.298ZM89.9629 211.244C88.9375 211.244 88.0179 211.081 87.2041 210.756C86.3903 210.422 85.6986 209.962 85.1289 209.376C84.5674 208.791 84.1361 208.111 83.835 207.338C83.5339 206.557 83.3833 205.727 83.3833 204.848V204.359C83.3833 203.358 83.5257 202.443 83.8105 201.613C84.0954 200.783 84.5023 200.062 85.0312 199.452C85.5684 198.842 86.2194 198.374 86.9844 198.048C87.7493 197.715 88.612 197.548 89.5723 197.548C90.5081 197.548 91.3382 197.702 92.0625 198.012C92.7868 198.321 93.3931 198.76 93.8813 199.33C94.3778 199.9 94.7521 200.583 95.0044 201.381C95.2567 202.17 95.3828 203.049 95.3828 204.018V205.482H84.8848V203.139H91.9282V202.87C91.9282 202.382 91.8387 201.946 91.6597 201.564C91.4888 201.173 91.2284 200.864 90.8784 200.636C90.5285 200.408 90.0809 200.294 89.5356 200.294C89.0718 200.294 88.673 200.396 88.3394 200.6C88.0057 200.803 87.7331 201.088 87.5215 201.454C87.318 201.82 87.1634 202.252 87.0576 202.748C86.96 203.236 86.9111 203.773 86.9111 204.359V204.848C86.9111 205.377 86.9844 205.865 87.1309 206.312C87.2855 206.76 87.5011 207.147 87.7778 207.472C88.0627 207.798 88.4045 208.05 88.8032 208.229C89.2101 208.408 89.6699 208.498 90.1826 208.498C90.8174 208.498 91.4074 208.375 91.9526 208.131C92.506 207.879 92.9821 207.501 93.3809 206.996L95.0898 208.852C94.8132 209.25 94.4347 209.633 93.9546 209.999C93.4826 210.365 92.9129 210.666 92.2456 210.902C91.5783 211.13 90.8174 211.244 89.9629 211.244ZM110.751 207.35C110.751 207.098 110.678 206.87 110.532 206.667C110.385 206.463 110.113 206.276 109.714 206.105C109.323 205.926 108.758 205.763 108.017 205.617C107.35 205.47 106.727 205.287 106.149 205.067C105.58 204.84 105.083 204.567 104.66 204.25C104.245 203.932 103.92 203.558 103.684 203.126C103.448 202.687 103.33 202.187 103.33 201.625C103.33 201.072 103.448 200.551 103.684 200.062C103.928 199.574 104.274 199.143 104.721 198.769C105.177 198.386 105.73 198.089 106.381 197.877C107.041 197.658 107.781 197.548 108.603 197.548C109.75 197.548 110.735 197.731 111.557 198.097C112.387 198.463 113.022 198.968 113.461 199.611C113.909 200.246 114.133 200.97 114.133 201.784H110.617C110.617 201.442 110.544 201.137 110.397 200.868C110.259 200.591 110.039 200.376 109.738 200.221C109.445 200.058 109.063 199.977 108.591 199.977C108.2 199.977 107.862 200.046 107.578 200.185C107.293 200.315 107.073 200.494 106.918 200.722C106.772 200.941 106.699 201.186 106.699 201.454C106.699 201.658 106.739 201.841 106.821 202.003C106.91 202.158 107.053 202.3 107.248 202.431C107.443 202.561 107.696 202.683 108.005 202.797C108.322 202.903 108.713 203 109.177 203.09C110.129 203.285 110.979 203.542 111.728 203.859C112.477 204.168 113.071 204.591 113.51 205.128C113.95 205.657 114.169 206.353 114.169 207.216C114.169 207.802 114.039 208.339 113.779 208.827C113.518 209.315 113.144 209.743 112.656 210.109C112.167 210.467 111.582 210.748 110.898 210.951C110.222 211.146 109.462 211.244 108.615 211.244C107.386 211.244 106.345 211.024 105.49 210.585C104.644 210.146 104.001 209.588 103.562 208.913C103.13 208.229 102.915 207.529 102.915 206.813H106.247C106.263 207.293 106.385 207.68 106.613 207.973C106.849 208.266 107.146 208.477 107.504 208.607C107.871 208.738 108.265 208.803 108.688 208.803C109.144 208.803 109.523 208.742 109.824 208.62C110.125 208.489 110.353 208.319 110.507 208.107C110.67 207.887 110.751 207.635 110.751 207.35ZM122.922 197.792V200.282H115.231V197.792H122.922ZM117.136 194.533H120.651V207.021C120.651 207.403 120.7 207.696 120.798 207.899C120.904 208.103 121.058 208.245 121.262 208.327C121.465 208.4 121.722 208.437 122.031 208.437C122.25 208.437 122.446 208.428 122.617 208.412C122.796 208.388 122.946 208.363 123.068 208.339L123.081 210.927C122.779 211.024 122.454 211.102 122.104 211.159C121.754 211.216 121.368 211.244 120.944 211.244C120.171 211.244 119.496 211.118 118.918 210.866C118.348 210.605 117.909 210.19 117.6 209.621C117.29 209.051 117.136 208.302 117.136 207.375V194.533ZM132.053 208.021V202.138C132.053 201.715 131.984 201.352 131.845 201.051C131.707 200.742 131.491 200.502 131.198 200.331C130.913 200.16 130.543 200.075 130.087 200.075C129.697 200.075 129.359 200.144 129.074 200.282C128.789 200.412 128.57 200.604 128.415 200.856C128.26 201.1 128.183 201.389 128.183 201.723H124.667C124.667 201.161 124.798 200.628 125.058 200.124C125.319 199.619 125.697 199.175 126.193 198.793C126.69 198.402 127.28 198.097 127.963 197.877C128.655 197.658 129.428 197.548 130.283 197.548C131.308 197.548 132.22 197.719 133.017 198.061C133.815 198.402 134.441 198.915 134.897 199.599C135.361 200.282 135.593 201.137 135.593 202.162V207.814C135.593 208.538 135.638 209.132 135.727 209.596C135.817 210.052 135.947 210.451 136.118 210.792V211H132.565C132.395 210.642 132.264 210.194 132.175 209.657C132.093 209.112 132.053 208.567 132.053 208.021ZM132.517 202.956L132.541 204.945H130.576C130.112 204.945 129.709 204.998 129.367 205.104C129.025 205.21 128.745 205.36 128.525 205.556C128.305 205.743 128.142 205.963 128.037 206.215C127.939 206.467 127.89 206.744 127.89 207.045C127.89 207.346 127.959 207.619 128.098 207.863C128.236 208.099 128.435 208.286 128.696 208.424C128.956 208.555 129.261 208.62 129.611 208.62C130.14 208.62 130.6 208.514 130.991 208.302C131.381 208.091 131.682 207.83 131.894 207.521C132.114 207.212 132.228 206.919 132.236 206.642L133.164 208.131C133.033 208.465 132.854 208.811 132.626 209.169C132.407 209.527 132.126 209.865 131.784 210.182C131.442 210.491 131.031 210.748 130.551 210.951C130.071 211.146 129.501 211.244 128.842 211.244C128.004 211.244 127.243 211.077 126.56 210.744C125.884 210.402 125.347 209.934 124.948 209.34C124.558 208.738 124.362 208.054 124.362 207.289C124.362 206.597 124.493 205.983 124.753 205.446C125.013 204.909 125.396 204.457 125.9 204.091C126.413 203.716 127.052 203.436 127.817 203.249C128.582 203.053 129.469 202.956 130.478 202.956H132.517ZM144.772 197.792V200.282H137.082V197.792H144.772ZM138.986 194.533H142.502V207.021C142.502 207.403 142.551 207.696 142.648 207.899C142.754 208.103 142.909 208.245 143.112 208.327C143.316 208.4 143.572 208.437 143.881 208.437C144.101 208.437 144.296 208.428 144.467 208.412C144.646 208.388 144.797 208.363 144.919 208.339L144.931 210.927C144.63 211.024 144.305 211.102 143.955 211.159C143.605 211.216 143.218 211.244 142.795 211.244C142.022 211.244 141.346 211.118 140.769 210.866C140.199 210.605 139.759 210.19 139.45 209.621C139.141 209.051 138.986 208.302 138.986 207.375V194.533ZM153.916 207.35C153.916 207.098 153.842 206.87 153.696 206.667C153.549 206.463 153.277 206.276 152.878 206.105C152.487 205.926 151.922 205.763 151.181 205.617C150.514 205.47 149.891 205.287 149.313 205.067C148.744 204.84 148.247 204.567 147.824 204.25C147.409 203.932 147.084 203.558 146.848 203.126C146.612 202.687 146.494 202.187 146.494 201.625C146.494 201.072 146.612 200.551 146.848 200.062C147.092 199.574 147.438 199.143 147.885 198.769C148.341 198.386 148.894 198.089 149.545 197.877C150.205 197.658 150.945 197.548 151.767 197.548C152.915 197.548 153.899 197.731 154.721 198.097C155.551 198.463 156.186 198.968 156.625 199.611C157.073 200.246 157.297 200.97 157.297 201.784H153.781C153.781 201.442 153.708 201.137 153.562 200.868C153.423 200.591 153.203 200.376 152.902 200.221C152.609 200.058 152.227 199.977 151.755 199.977C151.364 199.977 151.027 200.046 150.742 200.185C150.457 200.315 150.237 200.494 150.083 200.722C149.936 200.941 149.863 201.186 149.863 201.454C149.863 201.658 149.903 201.841 149.985 202.003C150.074 202.158 150.217 202.3 150.412 202.431C150.607 202.561 150.86 202.683 151.169 202.797C151.486 202.903 151.877 203 152.341 203.09C153.293 203.285 154.143 203.542 154.892 203.859C155.641 204.168 156.235 204.591 156.674 205.128C157.114 205.657 157.333 206.353 157.333 207.216C157.333 207.802 157.203 208.339 156.943 208.827C156.682 209.315 156.308 209.743 155.82 210.109C155.332 210.467 154.746 210.748 154.062 210.951C153.387 211.146 152.626 211.244 151.779 211.244C150.55 211.244 149.509 211.024 148.654 210.585C147.808 210.146 147.165 209.588 146.726 208.913C146.294 208.229 146.079 207.529 146.079 206.813H149.411C149.427 207.293 149.549 207.68 149.777 207.973C150.013 208.266 150.31 208.477 150.668 208.607C151.035 208.738 151.429 208.803 151.853 208.803C152.308 208.803 152.687 208.742 152.988 208.62C153.289 208.489 153.517 208.319 153.671 208.107C153.834 207.887 153.916 207.635 153.916 207.35Z" fill="white"/>
<path d="M53.5607 26.9371C52.9749 26.3513 52.0251 26.3513 51.4393 26.9371L41.8934 36.4831C41.3076 37.0689 41.3076 38.0186 41.8934 38.6044C42.4792 39.1902 43.4289 39.1902 44.0147 38.6044L52.5 30.1191L60.9853 38.6044C61.5711 39.1902 62.5208 39.1902 63.1066 38.6044C63.6924 38.0186 63.6924 37.0689 63.1066 36.4831L53.5607 26.9371ZM54 141.002L54 27.9978H51L51 141.002H54Z" fill="white" fill-opacity="0.5"/>
<path d="M198.067 143.054C198.653 142.468 198.653 141.518 198.067 140.932L188.521 131.387C187.936 130.801 186.986 130.801 186.4 131.387C185.814 131.972 185.814 132.922 186.4 133.508L194.885 141.993L186.4 150.478C185.814 151.064 185.814 152.014 186.4 152.6C186.986 153.185 187.936 153.185 188.521 152.6L198.067 143.054ZM50.9931 143.493H197.007V140.493H50.9931V143.493Z" fill="white" fill-opacity="0.5"/>
<path d="M64 120.22C64.8333 99.5538 71.6 61.5204 92 74.7204C117.5 91.2204 123 131.22 141.5 106.72C160 82.2204 167.5 81.2204 176.5 89.7204" stroke="white" stroke-opacity="0.5" stroke-width="5" stroke-linecap="round"/>
</svg>
