<svg width="200" height="50" viewBox="0 0 200 50" fill="none" xmlns="http://www.w3.org/2000/svg">
<rect width="200" height="50" rx="8" fill="#2A62FF"/>
<path d="M39.1523 15.9375V33H35.6484V15.9375H39.1523ZM44.4023 15.9375V18.6914H30.4805V15.9375H44.4023ZM47.1263 15.9375H53.4895C54.7942 15.9375 55.9153 16.1328 56.8528 16.5234C57.7981 16.9141 58.5247 17.4922 59.0325 18.2578C59.5403 19.0234 59.7942 19.9648 59.7942 21.082C59.7942 21.9961 59.638 22.7812 59.3255 23.4375C59.0208 24.0859 58.5872 24.6289 58.0247 25.0664C57.47 25.4961 56.8177 25.8398 56.0677 26.0977L54.9544 26.6836H49.4231L49.3997 23.9414H53.513C54.1302 23.9414 54.6419 23.832 55.0481 23.6133C55.4544 23.3945 55.7591 23.0898 55.9622 22.6992C56.1731 22.3086 56.2786 21.8555 56.2786 21.3398C56.2786 20.793 56.177 20.3203 55.9739 19.9219C55.7708 19.5234 55.4622 19.2188 55.0481 19.0078C54.6341 18.7969 54.1145 18.6914 53.4895 18.6914H50.6419V33H47.1263V15.9375ZM56.6653 33L52.7747 25.3945L56.4895 25.3711L60.427 32.8359V33H56.6653ZM65.0025 15.9375L68.565 23.7188L72.1275 15.9375H75.9595L70.3463 26.7891V33H66.7838V26.7891L61.1588 15.9375H65.0025ZM88.673 15.9375V33H85.1691V15.9375H88.673ZM99.9633 15.9375V33H96.4594V15.9375H99.9633ZM105.213 15.9375V18.6914H91.2914V15.9375H105.213ZM127.888 15.9375V33H124.372L117.517 21.5625V33H114.001V15.9375H117.517L124.384 27.3867V15.9375H127.888ZM145.682 24.0703V24.8789C145.682 26.1758 145.506 27.3398 145.155 28.3711C144.803 29.4023 144.307 30.2812 143.666 31.0078C143.026 31.7266 142.26 32.2773 141.369 32.6602C140.487 33.043 139.506 33.2344 138.428 33.2344C137.358 33.2344 136.377 33.043 135.487 32.6602C134.604 32.2773 133.838 31.7266 133.19 31.0078C132.541 30.2812 132.037 29.4023 131.678 28.3711C131.326 27.3398 131.151 26.1758 131.151 24.8789V24.0703C131.151 22.7656 131.326 21.6016 131.678 20.5781C132.03 19.5469 132.526 18.668 133.166 17.9414C133.815 17.2148 134.58 16.6602 135.463 16.2773C136.354 15.8945 137.334 15.7031 138.405 15.7031C139.483 15.7031 140.463 15.8945 141.346 16.2773C142.237 16.6602 143.002 17.2148 143.643 17.9414C144.291 18.668 144.791 19.5469 145.143 20.5781C145.502 21.6016 145.682 22.7656 145.682 24.0703ZM142.131 24.8789V24.0469C142.131 23.1406 142.049 22.3438 141.885 21.6562C141.721 20.9688 141.479 20.3906 141.158 19.9219C140.838 19.4531 140.448 19.1016 139.987 18.8672C139.526 18.625 138.998 18.5039 138.405 18.5039C137.811 18.5039 137.283 18.625 136.823 18.8672C136.369 19.1016 135.983 19.4531 135.662 19.9219C135.35 20.3906 135.112 20.9688 134.948 21.6562C134.783 22.3438 134.701 23.1406 134.701 24.0469V24.8789C134.701 25.7773 134.783 26.5742 134.948 27.2695C135.112 27.957 135.354 28.5391 135.674 29.0156C135.994 29.4844 136.385 29.8398 136.846 30.082C137.307 30.3242 137.834 30.4453 138.428 30.4453C139.022 30.4453 139.549 30.3242 140.01 30.082C140.471 29.8398 140.858 29.4844 141.17 29.0156C141.483 28.5391 141.721 27.957 141.885 27.2695C142.049 26.5742 142.131 25.7773 142.131 24.8789ZM153.046 30.293L156.445 15.9375H158.343L158.777 18.3281L155.156 33H153.117L153.046 30.293ZM151.3 15.9375L154.113 30.293L153.878 33H151.605L147.82 15.9375H151.3ZM161.765 30.2344L164.543 15.9375H168.023L164.25 33H161.976L161.765 30.2344ZM159.41 15.9375L162.832 30.3516L162.738 33H160.699L157.054 18.3164L157.523 15.9375H159.41Z" fill="white"/>
</svg>
