<svg width="240" height="240" viewBox="0 0 240 240" fill="none" xmlns="http://www.w3.org/2000/svg">
<rect width="240" height="240" fill="white"/>
<rect x="10" y="10" width="220" height="220" rx="20" fill="#D6B2E7"/>
<path d="M49.1865 169.698V170.541C49.1865 171.891 49.0034 173.104 48.6372 174.178C48.271 175.252 47.7542 176.168 47.0869 176.925C46.4196 177.674 45.6221 178.247 44.6943 178.646C43.7747 179.045 42.7534 179.244 41.6304 179.244C40.5155 179.244 39.4941 179.045 38.5664 178.646C37.6468 178.247 36.8493 177.674 36.1738 176.925C35.4984 176.168 34.9735 175.252 34.5991 174.178C34.2329 173.104 34.0498 171.891 34.0498 170.541V169.698C34.0498 168.339 34.2329 167.127 34.5991 166.061C34.9653 164.986 35.4821 164.071 36.1494 163.314C36.8249 162.557 37.6224 161.979 38.542 161.581C39.4697 161.182 40.491 160.982 41.606 160.982C42.729 160.982 43.7503 161.182 44.6699 161.581C45.5977 161.979 46.3952 162.557 47.0625 163.314C47.738 164.071 48.2588 164.986 48.625 166.061C48.9993 167.127 49.1865 168.339 49.1865 169.698ZM45.4878 170.541V169.674C45.4878 168.73 45.4023 167.9 45.2314 167.184C45.0605 166.467 44.8083 165.865 44.4746 165.377C44.141 164.889 43.734 164.522 43.2539 164.278C42.7738 164.026 42.2244 163.9 41.606 163.9C40.9875 163.9 40.4382 164.026 39.958 164.278C39.486 164.522 39.0832 164.889 38.7495 165.377C38.424 165.865 38.1758 166.467 38.0049 167.184C37.834 167.9 37.7485 168.73 37.7485 169.674V170.541C37.7485 171.476 37.834 172.306 38.0049 173.031C38.1758 173.747 38.4281 174.353 38.7617 174.85C39.0954 175.338 39.5023 175.708 39.9824 175.96C40.4626 176.213 41.0119 176.339 41.6304 176.339C42.2489 176.339 42.7982 176.213 43.2783 175.96C43.7585 175.708 44.1613 175.338 44.4868 174.85C44.8123 174.353 45.0605 173.747 45.2314 173.031C45.4023 172.306 45.4878 171.476 45.4878 170.541ZM55.1191 168.673V179H51.6035V165.792H54.9116L55.1191 168.673ZM59.0986 165.707L59.0376 168.966C58.8667 168.941 58.6592 168.921 58.415 168.905C58.179 168.88 57.9634 168.868 57.7681 168.868C57.2716 168.868 56.8403 168.933 56.4741 169.063C56.116 169.186 55.8149 169.369 55.5708 169.613C55.3348 169.857 55.1558 170.154 55.0337 170.504C54.9198 170.854 54.8547 171.253 54.8384 171.7L54.1304 171.48C54.1304 170.626 54.2158 169.841 54.3867 169.125C54.5576 168.4 54.8058 167.77 55.1313 167.232C55.465 166.695 55.8719 166.28 56.3521 165.987C56.8322 165.694 57.3815 165.548 58 165.548C58.1953 165.548 58.3947 165.564 58.5981 165.597C58.8016 165.621 58.9684 165.658 59.0986 165.707ZM68.3149 176.119V160.25H71.855V179H68.6689L68.3149 176.119ZM59.9653 172.555V172.298C59.9653 171.289 60.0793 170.374 60.3071 169.552C60.535 168.722 60.8687 168.01 61.3081 167.416C61.7476 166.821 62.2887 166.362 62.9316 166.036C63.5745 165.711 64.307 165.548 65.1289 165.548C65.902 165.548 66.5775 165.711 67.1553 166.036C67.7412 166.362 68.2376 166.826 68.6445 167.428C69.0596 168.022 69.3932 168.726 69.6455 169.54C69.8978 170.345 70.0809 171.228 70.1948 172.188V172.75C70.0809 173.67 69.8978 174.524 69.6455 175.313C69.3932 176.103 69.0596 176.795 68.6445 177.389C68.2376 177.975 67.7412 178.43 67.1553 178.756C66.5693 179.081 65.8857 179.244 65.1045 179.244C64.2826 179.244 63.5501 179.077 62.9072 178.744C62.2725 178.41 61.7354 177.942 61.2959 177.34C60.8646 176.738 60.535 176.03 60.3071 175.216C60.0793 174.402 59.9653 173.515 59.9653 172.555ZM63.481 172.298V172.555C63.481 173.1 63.5216 173.609 63.603 174.081C63.6925 174.553 63.835 174.972 64.0303 175.338C64.2337 175.696 64.4941 175.977 64.8115 176.18C65.137 176.375 65.5317 176.473 65.9956 176.473C66.5978 176.473 67.0942 176.339 67.4849 176.07C67.8755 175.794 68.1725 175.415 68.376 174.935C68.5876 174.455 68.7096 173.902 68.7422 173.275V171.676C68.7178 171.163 68.6445 170.703 68.5225 170.296C68.4085 169.881 68.2376 169.527 68.0098 169.234C67.79 168.941 67.5133 168.714 67.1797 168.551C66.8542 168.388 66.4676 168.307 66.02 168.307C65.5643 168.307 65.1737 168.412 64.8481 168.624C64.5226 168.827 64.2581 169.108 64.0547 169.466C63.8594 169.824 63.7129 170.248 63.6152 170.736C63.5257 171.216 63.481 171.737 63.481 172.298ZM80.6807 179.244C79.6553 179.244 78.7357 179.081 77.9219 178.756C77.1081 178.422 76.4163 177.962 75.8467 177.376C75.2852 176.791 74.8538 176.111 74.5527 175.338C74.2516 174.557 74.1011 173.727 74.1011 172.848V172.359C74.1011 171.358 74.2435 170.443 74.5283 169.613C74.8132 168.783 75.2201 168.062 75.749 167.452C76.2861 166.842 76.9372 166.374 77.7021 166.048C78.4671 165.715 79.3298 165.548 80.29 165.548C81.2259 165.548 82.056 165.702 82.7803 166.012C83.5046 166.321 84.1108 166.76 84.5991 167.33C85.0955 167.9 85.4699 168.583 85.7222 169.381C85.9744 170.17 86.1006 171.049 86.1006 172.018V173.482H75.6025V171.139H82.646V170.87C82.646 170.382 82.5565 169.946 82.3774 169.564C82.2065 169.173 81.9461 168.864 81.5962 168.636C81.2463 168.408 80.7987 168.294 80.2534 168.294C79.7896 168.294 79.3908 168.396 79.0571 168.6C78.7235 168.803 78.4508 169.088 78.2393 169.454C78.0358 169.82 77.8812 170.252 77.7754 170.748C77.6777 171.236 77.6289 171.773 77.6289 172.359V172.848C77.6289 173.377 77.7021 173.865 77.8486 174.312C78.0033 174.76 78.2189 175.147 78.4956 175.472C78.7804 175.798 79.1222 176.05 79.521 176.229C79.9279 176.408 80.3877 176.498 80.9004 176.498C81.5352 176.498 82.1252 176.375 82.6704 176.131C83.2238 175.879 83.6999 175.501 84.0986 174.996L85.8076 176.852C85.5309 177.25 85.1525 177.633 84.6724 177.999C84.2004 178.365 83.6307 178.666 82.9634 178.902C82.2961 179.13 81.5352 179.244 80.6807 179.244ZM91.6182 168.673V179H88.1025V165.792H91.4106L91.6182 168.673ZM95.5977 165.707L95.5366 168.966C95.3657 168.941 95.1582 168.921 94.9141 168.905C94.6781 168.88 94.4624 168.868 94.2671 168.868C93.7707 168.868 93.3394 168.933 92.9731 169.063C92.6151 169.186 92.314 169.369 92.0698 169.613C91.8338 169.857 91.6548 170.154 91.5327 170.504C91.4188 170.854 91.3537 171.253 91.3374 171.7L90.6294 171.48C90.6294 170.626 90.7148 169.841 90.8857 169.125C91.0566 168.4 91.3049 167.77 91.6304 167.232C91.964 166.695 92.3709 166.28 92.8511 165.987C93.3312 165.694 93.8805 165.548 94.499 165.548C94.6943 165.548 94.8937 165.564 95.0972 165.597C95.3006 165.621 95.4674 165.658 95.5977 165.707ZM107.976 176.437L110.905 165.792H114.58L110.124 179H107.902L107.976 176.437ZM105.961 165.792L108.903 176.449L108.964 179H106.73L102.275 165.792H105.961ZM115.397 172.53V172.274C115.397 171.306 115.536 170.414 115.812 169.601C116.089 168.779 116.492 168.067 117.021 167.464C117.55 166.862 118.201 166.394 118.974 166.061C119.747 165.719 120.634 165.548 121.635 165.548C122.636 165.548 123.527 165.719 124.309 166.061C125.09 166.394 125.745 166.862 126.274 167.464C126.811 168.067 127.218 168.779 127.495 169.601C127.771 170.414 127.91 171.306 127.91 172.274V172.53C127.91 173.491 127.771 174.382 127.495 175.204C127.218 176.017 126.811 176.729 126.274 177.34C125.745 177.942 125.094 178.41 124.321 178.744C123.548 179.077 122.661 179.244 121.66 179.244C120.659 179.244 119.768 179.077 118.986 178.744C118.213 178.41 117.558 177.942 117.021 177.34C116.492 176.729 116.089 176.017 115.812 175.204C115.536 174.382 115.397 173.491 115.397 172.53ZM118.913 172.274V172.53C118.913 173.084 118.962 173.6 119.06 174.081C119.157 174.561 119.312 174.984 119.523 175.35C119.743 175.708 120.028 175.989 120.378 176.192C120.728 176.396 121.155 176.498 121.66 176.498C122.148 176.498 122.567 176.396 122.917 176.192C123.267 175.989 123.548 175.708 123.759 175.35C123.971 174.984 124.125 174.561 124.223 174.081C124.329 173.6 124.382 173.084 124.382 172.53V172.274C124.382 171.737 124.329 171.232 124.223 170.76C124.125 170.28 123.967 169.857 123.747 169.491C123.535 169.116 123.255 168.823 122.905 168.612C122.555 168.4 122.132 168.294 121.635 168.294C121.139 168.294 120.716 168.4 120.366 168.612C120.024 168.823 119.743 169.116 119.523 169.491C119.312 169.857 119.157 170.28 119.06 170.76C118.962 171.232 118.913 171.737 118.913 172.274ZM133.781 160.25V179H130.253V160.25H133.781ZM144.499 175.838V165.792H148.015V179H144.707L144.499 175.838ZM144.89 173.128L145.927 173.104C145.927 173.983 145.826 174.801 145.622 175.558C145.419 176.306 145.113 176.957 144.707 177.511C144.3 178.056 143.787 178.483 143.168 178.792C142.55 179.094 141.822 179.244 140.983 179.244C140.34 179.244 139.746 179.155 139.201 178.976C138.664 178.788 138.2 178.5 137.81 178.109C137.427 177.71 137.126 177.201 136.906 176.583C136.695 175.956 136.589 175.204 136.589 174.325V165.792H140.104V174.349C140.104 174.74 140.149 175.069 140.239 175.338C140.336 175.606 140.471 175.826 140.642 175.997C140.812 176.168 141.012 176.29 141.24 176.363C141.476 176.437 141.736 176.473 142.021 176.473C142.745 176.473 143.315 176.327 143.73 176.034C144.153 175.741 144.45 175.342 144.621 174.837C144.8 174.325 144.89 173.755 144.89 173.128ZM154.216 168.526V179H150.688V165.792H153.996L154.216 168.526ZM153.728 171.932H152.751C152.751 171.013 152.861 170.166 153.081 169.393C153.308 168.612 153.638 167.936 154.069 167.367C154.509 166.789 155.05 166.341 155.693 166.024C156.336 165.707 157.08 165.548 157.927 165.548C158.513 165.548 159.05 165.637 159.538 165.816C160.026 165.987 160.445 166.26 160.795 166.634C161.153 167 161.43 167.481 161.625 168.075C161.821 168.661 161.918 169.365 161.918 170.187V179H158.403V170.577C158.403 169.975 158.321 169.511 158.159 169.186C157.996 168.86 157.764 168.632 157.463 168.502C157.17 168.372 156.816 168.307 156.401 168.307C155.945 168.307 155.546 168.4 155.205 168.587C154.871 168.775 154.594 169.035 154.375 169.369C154.155 169.694 153.992 170.077 153.886 170.516C153.78 170.956 153.728 171.428 153.728 171.932ZM161.589 171.529L160.332 171.688C160.332 170.825 160.437 170.024 160.649 169.283C160.869 168.543 161.19 167.892 161.613 167.33C162.045 166.769 162.578 166.333 163.212 166.024C163.847 165.707 164.58 165.548 165.41 165.548C166.044 165.548 166.622 165.641 167.143 165.829C167.664 166.008 168.107 166.297 168.474 166.695C168.848 167.086 169.133 167.599 169.328 168.233C169.532 168.868 169.633 169.645 169.633 170.565V179H166.105V170.565C166.105 169.955 166.024 169.491 165.861 169.173C165.707 168.848 165.479 168.624 165.178 168.502C164.885 168.372 164.535 168.307 164.128 168.307C163.705 168.307 163.334 168.392 163.017 168.563C162.7 168.726 162.435 168.954 162.224 169.247C162.012 169.54 161.853 169.881 161.748 170.272C161.642 170.654 161.589 171.074 161.589 171.529ZM178.435 179.244C177.409 179.244 176.49 179.081 175.676 178.756C174.862 178.422 174.17 177.962 173.601 177.376C173.039 176.791 172.608 176.111 172.307 175.338C172.006 174.557 171.855 173.727 171.855 172.848V172.359C171.855 171.358 171.997 170.443 172.282 169.613C172.567 168.783 172.974 168.062 173.503 167.452C174.04 166.842 174.691 166.374 175.456 166.048C176.221 165.715 177.084 165.548 178.044 165.548C178.98 165.548 179.81 165.702 180.534 166.012C181.258 166.321 181.865 166.76 182.353 167.33C182.849 167.9 183.224 168.583 183.476 169.381C183.728 170.17 183.854 171.049 183.854 172.018V173.482H173.356V171.139H180.4V170.87C180.4 170.382 180.31 169.946 180.131 169.564C179.96 169.173 179.7 168.864 179.35 168.636C179 168.408 178.553 168.294 178.007 168.294C177.543 168.294 177.145 168.396 176.811 168.6C176.477 168.803 176.205 169.088 175.993 169.454C175.79 169.82 175.635 170.252 175.529 170.748C175.432 171.236 175.383 171.773 175.383 172.359V172.848C175.383 173.377 175.456 173.865 175.603 174.312C175.757 174.76 175.973 175.147 176.25 175.472C176.534 175.798 176.876 176.05 177.275 176.229C177.682 176.408 178.142 176.498 178.654 176.498C179.289 176.498 179.879 176.375 180.424 176.131C180.978 175.879 181.454 175.501 181.853 174.996L183.562 176.852C183.285 177.25 182.906 177.633 182.426 177.999C181.954 178.365 181.385 178.666 180.717 178.902C180.05 179.13 179.289 179.244 178.435 179.244ZM42.1675 205.119V189.25H45.7075V208H42.5215L42.1675 205.119ZM33.8179 201.555V201.298C33.8179 200.289 33.9318 199.374 34.1597 198.552C34.3875 197.722 34.7212 197.01 35.1606 196.416C35.6001 195.821 36.1413 195.362 36.7842 195.036C37.4271 194.711 38.1595 194.548 38.9814 194.548C39.7546 194.548 40.43 194.711 41.0078 195.036C41.5938 195.362 42.0902 195.826 42.4971 196.428C42.9121 197.022 43.2458 197.726 43.498 198.54C43.7503 199.345 43.9334 200.228 44.0474 201.188V201.75C43.9334 202.67 43.7503 203.524 43.498 204.313C43.2458 205.103 42.9121 205.795 42.4971 206.389C42.0902 206.975 41.5938 207.43 41.0078 207.756C40.4219 208.081 39.7383 208.244 38.957 208.244C38.1351 208.244 37.4027 208.077 36.7598 207.744C36.125 207.41 35.5879 206.942 35.1484 206.34C34.7171 205.738 34.3875 205.03 34.1597 204.216C33.9318 203.402 33.8179 202.515 33.8179 201.555ZM37.3335 201.298V201.555C37.3335 202.1 37.3742 202.609 37.4556 203.081C37.5451 203.553 37.6875 203.972 37.8828 204.338C38.0863 204.696 38.3467 204.977 38.6641 205.18C38.9896 205.375 39.3843 205.473 39.8481 205.473C40.4504 205.473 40.9468 205.339 41.3374 205.07C41.728 204.794 42.0251 204.415 42.2285 203.935C42.4401 203.455 42.5622 202.902 42.5947 202.275V200.676C42.5703 200.163 42.4971 199.703 42.375 199.296C42.2611 198.881 42.0902 198.527 41.8623 198.234C41.6426 197.941 41.3659 197.714 41.0322 197.551C40.7067 197.388 40.3201 197.307 39.8726 197.307C39.4168 197.307 39.0262 197.412 38.7007 197.624C38.3752 197.827 38.1107 198.108 37.9072 198.466C37.7119 198.824 37.5654 199.248 37.4678 199.736C37.3783 200.216 37.3335 200.737 37.3335 201.298ZM51.9697 197.673V208H48.4541V194.792H51.7622L51.9697 197.673ZM55.9492 194.707L55.8882 197.966C55.7173 197.941 55.5098 197.921 55.2656 197.905C55.0296 197.88 54.814 197.868 54.6187 197.868C54.1222 197.868 53.6909 197.933 53.3247 198.063C52.9666 198.186 52.6655 198.369 52.4214 198.613C52.1854 198.857 52.0063 199.154 51.8843 199.504C51.7703 199.854 51.7052 200.253 51.689 200.7L50.981 200.48C50.981 199.626 51.0664 198.841 51.2373 198.125C51.4082 197.4 51.6564 196.77 51.9819 196.232C52.3156 195.695 52.7225 195.28 53.2026 194.987C53.6828 194.694 54.2321 194.548 54.8506 194.548C55.0459 194.548 55.2453 194.564 55.4487 194.597C55.6522 194.621 55.819 194.658 55.9492 194.707ZM56.6816 201.53V201.274C56.6816 200.306 56.82 199.414 57.0967 198.601C57.3734 197.779 57.7762 197.067 58.3052 196.464C58.8341 195.862 59.4852 195.394 60.2583 195.061C61.0314 194.719 61.9185 194.548 62.9194 194.548C63.9204 194.548 64.8115 194.719 65.5928 195.061C66.374 195.394 67.0291 195.862 67.5581 196.464C68.0952 197.067 68.5021 197.779 68.7788 198.601C69.0555 199.414 69.1938 200.306 69.1938 201.274V201.53C69.1938 202.491 69.0555 203.382 68.7788 204.204C68.5021 205.017 68.0952 205.729 67.5581 206.34C67.0291 206.942 66.3781 207.41 65.605 207.744C64.8319 208.077 63.9448 208.244 62.9438 208.244C61.9429 208.244 61.0518 208.077 60.2705 207.744C59.4974 207.41 58.8423 206.942 58.3052 206.34C57.7762 205.729 57.3734 205.017 57.0967 204.204C56.82 203.382 56.6816 202.491 56.6816 201.53ZM60.1973 201.274V201.53C60.1973 202.084 60.2461 202.6 60.3438 203.081C60.4414 203.561 60.596 203.984 60.8076 204.35C61.0273 204.708 61.3122 204.989 61.6621 205.192C62.012 205.396 62.4393 205.498 62.9438 205.498C63.4321 205.498 63.8512 205.396 64.2012 205.192C64.5511 204.989 64.8319 204.708 65.0435 204.35C65.255 203.984 65.4097 203.561 65.5073 203.081C65.6131 202.6 65.666 202.084 65.666 201.53V201.274C65.666 200.737 65.6131 200.232 65.5073 199.76C65.4097 199.28 65.251 198.857 65.0312 198.491C64.8197 198.116 64.5389 197.823 64.189 197.612C63.839 197.4 63.4159 197.294 62.9194 197.294C62.423 197.294 61.9998 197.4 61.6499 197.612C61.3081 197.823 61.0273 198.116 60.8076 198.491C60.596 198.857 60.4414 199.28 60.3438 199.76C60.2461 200.232 60.1973 200.737 60.1973 201.274ZM74.8701 197.331V213.078H71.3545V194.792H74.6138L74.8701 197.331ZM83.2319 201.25V201.506C83.2319 202.466 83.118 203.357 82.8901 204.179C82.6704 205.001 82.3449 205.717 81.9136 206.328C81.4823 206.93 80.9451 207.402 80.3022 207.744C79.6675 208.077 78.9351 208.244 78.105 208.244C77.2993 208.244 76.5994 208.081 76.0054 207.756C75.4113 207.43 74.9108 206.975 74.5039 206.389C74.1051 205.795 73.7837 205.107 73.5396 204.326C73.2954 203.544 73.1082 202.706 72.978 201.811V201.14C73.1082 200.179 73.2954 199.3 73.5396 198.503C73.7837 197.697 74.1051 197.001 74.5039 196.416C74.9108 195.821 75.4072 195.362 75.9932 195.036C76.5872 194.711 77.283 194.548 78.0806 194.548C78.9188 194.548 79.6553 194.707 80.29 195.024C80.9329 195.341 81.4701 195.797 81.9014 196.391C82.3408 196.985 82.6704 197.693 82.8901 198.515C83.118 199.337 83.2319 200.249 83.2319 201.25ZM79.7041 201.506V201.25C79.7041 200.688 79.6553 200.171 79.5576 199.699C79.4681 199.219 79.3216 198.8 79.1182 198.442C78.9229 198.084 78.6624 197.807 78.3369 197.612C78.0195 197.408 77.633 197.307 77.1772 197.307C76.6971 197.307 76.2861 197.384 75.9443 197.539C75.6107 197.693 75.3381 197.917 75.1265 198.21C74.9149 198.503 74.7562 198.853 74.6504 199.26C74.5446 199.667 74.4795 200.126 74.4551 200.639V202.336C74.4958 202.938 74.6097 203.479 74.7969 203.959C74.984 204.431 75.2729 204.806 75.6636 205.083C76.0542 205.359 76.5669 205.498 77.2017 205.498C77.6655 205.498 78.0562 205.396 78.3735 205.192C78.6909 204.981 78.9473 204.692 79.1426 204.326C79.346 203.959 79.4884 203.536 79.5698 203.056C79.6593 202.576 79.7041 202.059 79.7041 201.506Z" fill="white"/>
<path d="M40 40L104 61L136 132L199 144" stroke="white" stroke-opacity="0.5" stroke-width="5"/>
</svg>
