<svg width="240" height="240" viewBox="0 0 240 240" fill="none" xmlns="http://www.w3.org/2000/svg">
<rect width="240" height="240" fill="white"/>
<rect x="10" y="10" width="220" height="220" rx="20" fill="#B2DDAB"/>
<path d="M43.0127 176.144V179H34.0649V176.144H43.0127ZM35.249 161.227V179H31.5869V161.227H35.249ZM52.0215 176.021V170.138C52.0215 169.715 51.9523 169.352 51.814 169.051C51.6756 168.742 51.46 168.502 51.167 168.331C50.8822 168.16 50.5119 168.075 50.0562 168.075C49.6655 168.075 49.3278 168.144 49.043 168.282C48.7581 168.412 48.5384 168.604 48.3838 168.856C48.2292 169.1 48.1519 169.389 48.1519 169.723H44.6362C44.6362 169.161 44.7664 168.628 45.0269 168.124C45.2873 167.619 45.6657 167.175 46.1621 166.793C46.6585 166.402 47.2485 166.097 47.9321 165.877C48.6239 165.658 49.397 165.548 50.2515 165.548C51.2769 165.548 52.1883 165.719 52.9858 166.061C53.7834 166.402 54.41 166.915 54.8657 167.599C55.3296 168.282 55.5615 169.137 55.5615 170.162V175.814C55.5615 176.538 55.6063 177.132 55.6958 177.596C55.7853 178.052 55.9155 178.451 56.0864 178.792V179H52.5342C52.3633 178.642 52.2331 178.194 52.1436 177.657C52.0622 177.112 52.0215 176.567 52.0215 176.021ZM52.4854 170.956L52.5098 172.945H50.5444C50.0806 172.945 49.6777 172.998 49.3359 173.104C48.9941 173.21 48.7134 173.36 48.4937 173.556C48.2739 173.743 48.1112 173.963 48.0054 174.215C47.9077 174.467 47.8589 174.744 47.8589 175.045C47.8589 175.346 47.9281 175.619 48.0664 175.863C48.2048 176.099 48.4041 176.286 48.6646 176.424C48.925 176.555 49.2301 176.62 49.5801 176.62C50.109 176.62 50.5688 176.514 50.9595 176.302C51.3501 176.091 51.6512 175.83 51.8628 175.521C52.0825 175.212 52.1965 174.919 52.2046 174.642L53.1323 176.131C53.0021 176.465 52.8231 176.811 52.5952 177.169C52.3755 177.527 52.0947 177.865 51.7529 178.182C51.4111 178.491 51.0002 178.748 50.52 178.951C50.0399 179.146 49.4702 179.244 48.811 179.244C47.9728 179.244 47.2119 179.077 46.5283 178.744C45.8529 178.402 45.3158 177.934 44.917 177.34C44.5264 176.738 44.3311 176.054 44.3311 175.289C44.3311 174.597 44.4613 173.983 44.7217 173.446C44.9821 172.909 45.3646 172.457 45.8691 172.091C46.3818 171.716 47.0207 171.436 47.7856 171.249C48.5506 171.053 49.4377 170.956 50.4468 170.956H52.4854ZM58.2715 160.25H61.7871V175.973L61.4331 179H58.2715V160.25ZM70.1489 172.262V172.518C70.1489 173.503 70.0431 174.406 69.8315 175.228C69.6281 176.05 69.3107 176.762 68.8794 177.364C68.4481 177.958 67.911 178.422 67.2681 178.756C66.6333 179.081 65.8846 179.244 65.022 179.244C64.2163 179.244 63.5164 179.081 62.9224 178.756C62.3364 178.43 61.8441 177.971 61.4453 177.376C61.0465 176.782 60.7251 176.087 60.481 175.289C60.2368 174.492 60.0537 173.621 59.9316 172.677V172.115C60.0537 171.171 60.2368 170.3 60.481 169.503C60.7251 168.705 61.0465 168.01 61.4453 167.416C61.8441 166.821 62.3364 166.362 62.9224 166.036C63.5083 165.711 64.2 165.548 64.9976 165.548C65.8683 165.548 66.6252 165.715 67.2681 166.048C67.9191 166.374 68.4562 166.838 68.8794 167.44C69.3107 168.034 69.6281 168.742 69.8315 169.564C70.0431 170.378 70.1489 171.277 70.1489 172.262ZM66.6333 172.518V172.262C66.6333 171.725 66.5926 171.22 66.5112 170.748C66.438 170.268 66.3078 169.849 66.1206 169.491C65.9334 169.125 65.6771 168.836 65.3516 168.624C65.0342 168.412 64.6232 168.307 64.1187 168.307C63.6385 168.307 63.2316 168.388 62.8979 168.551C62.5643 168.714 62.2876 168.941 62.0679 169.234C61.8563 169.527 61.6976 169.877 61.5918 170.284C61.486 170.683 61.4209 171.122 61.3965 171.603V173.202C61.4209 173.845 61.5267 174.414 61.7139 174.911C61.9092 175.399 62.2021 175.785 62.5928 176.07C62.9915 176.347 63.5083 176.485 64.1431 176.485C64.6395 176.485 65.0505 176.388 65.376 176.192C65.7015 175.997 65.9538 175.72 66.1328 175.362C66.32 175.004 66.4502 174.585 66.5234 174.105C66.5967 173.617 66.6333 173.088 66.6333 172.518ZM82.0752 168.673V179H78.5596V165.792H81.8677L82.0752 168.673ZM86.0547 165.707L85.9937 168.966C85.8228 168.941 85.6152 168.921 85.3711 168.905C85.1351 168.88 84.9194 168.868 84.7241 168.868C84.2277 168.868 83.7964 168.933 83.4302 169.063C83.0721 169.186 82.771 169.369 82.5269 169.613C82.2909 169.857 82.1118 170.154 81.9897 170.504C81.8758 170.854 81.8107 171.253 81.7944 171.7L81.0864 171.48C81.0864 170.626 81.1719 169.841 81.3428 169.125C81.5137 168.4 81.7619 167.77 82.0874 167.232C82.4211 166.695 82.828 166.28 83.3081 165.987C83.7882 165.694 84.3376 165.548 84.9561 165.548C85.1514 165.548 85.3507 165.564 85.5542 165.597C85.7576 165.621 85.9245 165.658 86.0547 165.707ZM93.5498 179.244C92.5244 179.244 91.6048 179.081 90.791 178.756C89.9772 178.422 89.2855 177.962 88.7158 177.376C88.1543 176.791 87.723 176.111 87.4219 175.338C87.1208 174.557 86.9702 173.727 86.9702 172.848V172.359C86.9702 171.358 87.1126 170.443 87.3975 169.613C87.6823 168.783 88.0892 168.062 88.6182 167.452C89.1553 166.842 89.8063 166.374 90.5713 166.048C91.3363 165.715 92.1989 165.548 93.1592 165.548C94.0951 165.548 94.9251 165.702 95.6494 166.012C96.3737 166.321 96.98 166.76 97.4683 167.33C97.9647 167.9 98.339 168.583 98.5913 169.381C98.8436 170.17 98.9697 171.049 98.9697 172.018V173.482H88.4717V171.139H95.5151V170.87C95.5151 170.382 95.4256 169.946 95.2466 169.564C95.0757 169.173 94.8153 168.864 94.4653 168.636C94.1154 168.408 93.6678 168.294 93.1226 168.294C92.6587 168.294 92.2599 168.396 91.9263 168.6C91.5926 168.803 91.32 169.088 91.1084 169.454C90.9049 169.82 90.7503 170.252 90.6445 170.748C90.5469 171.236 90.498 171.773 90.498 172.359V172.848C90.498 173.377 90.5713 173.865 90.7178 174.312C90.8724 174.76 91.0881 175.147 91.3647 175.472C91.6496 175.798 91.9914 176.05 92.3901 176.229C92.797 176.408 93.2568 176.498 93.7695 176.498C94.4043 176.498 94.9943 176.375 95.5396 176.131C96.0929 175.879 96.569 175.501 96.9678 174.996L98.6768 176.852C98.4001 177.25 98.0216 177.633 97.5415 177.999C97.0695 178.365 96.4998 178.666 95.8325 178.902C95.1652 179.13 94.4043 179.244 93.5498 179.244ZM108.113 175.35C108.113 175.098 108.04 174.87 107.893 174.667C107.747 174.463 107.474 174.276 107.075 174.105C106.685 173.926 106.119 173.763 105.378 173.617C104.711 173.47 104.089 173.287 103.511 173.067C102.941 172.84 102.445 172.567 102.021 172.25C101.606 171.932 101.281 171.558 101.045 171.126C100.809 170.687 100.691 170.187 100.691 169.625C100.691 169.072 100.809 168.551 101.045 168.062C101.289 167.574 101.635 167.143 102.083 166.769C102.538 166.386 103.092 166.089 103.743 165.877C104.402 165.658 105.142 165.548 105.964 165.548C107.112 165.548 108.097 165.731 108.918 166.097C109.749 166.463 110.383 166.968 110.823 167.611C111.27 168.246 111.494 168.97 111.494 169.784H107.979C107.979 169.442 107.905 169.137 107.759 168.868C107.62 168.591 107.401 168.376 107.1 168.221C106.807 168.058 106.424 167.977 105.952 167.977C105.562 167.977 105.224 168.046 104.939 168.185C104.654 168.315 104.434 168.494 104.28 168.722C104.133 168.941 104.06 169.186 104.06 169.454C104.06 169.658 104.101 169.841 104.182 170.003C104.272 170.158 104.414 170.3 104.609 170.431C104.805 170.561 105.057 170.683 105.366 170.797C105.684 170.903 106.074 171 106.538 171.09C107.49 171.285 108.341 171.542 109.089 171.859C109.838 172.168 110.432 172.591 110.872 173.128C111.311 173.657 111.531 174.353 111.531 175.216C111.531 175.802 111.401 176.339 111.14 176.827C110.88 177.315 110.505 177.743 110.017 178.109C109.529 178.467 108.943 178.748 108.259 178.951C107.584 179.146 106.823 179.244 105.977 179.244C104.748 179.244 103.706 179.024 102.852 178.585C102.005 178.146 101.362 177.588 100.923 176.913C100.492 176.229 100.276 175.529 100.276 174.813H103.608C103.625 175.293 103.747 175.68 103.975 175.973C104.211 176.266 104.508 176.477 104.866 176.607C105.232 176.738 105.627 176.803 106.05 176.803C106.506 176.803 106.884 176.742 107.185 176.62C107.486 176.489 107.714 176.319 107.869 176.107C108.031 175.887 108.113 175.635 108.113 175.35ZM121.626 175.838V165.792H125.142V179H121.833L121.626 175.838ZM122.017 173.128L123.054 173.104C123.054 173.983 122.952 174.801 122.749 175.558C122.546 176.306 122.24 176.957 121.833 177.511C121.427 178.056 120.914 178.483 120.295 178.792C119.677 179.094 118.949 179.244 118.11 179.244C117.467 179.244 116.873 179.155 116.328 178.976C115.791 178.788 115.327 178.5 114.937 178.109C114.554 177.71 114.253 177.201 114.033 176.583C113.822 175.956 113.716 175.204 113.716 174.325V165.792H117.231V174.349C117.231 174.74 117.276 175.069 117.366 175.338C117.463 175.606 117.598 175.826 117.769 175.997C117.939 176.168 118.139 176.29 118.367 176.363C118.603 176.437 118.863 176.473 119.148 176.473C119.872 176.473 120.442 176.327 120.857 176.034C121.28 175.741 121.577 175.342 121.748 174.837C121.927 174.325 122.017 173.755 122.017 173.128ZM131.538 160.25V179H128.01V160.25H131.538ZM140.913 165.792V168.282H133.223V165.792H140.913ZM135.127 162.533H138.643V175.021C138.643 175.403 138.691 175.696 138.789 175.899C138.895 176.103 139.049 176.245 139.253 176.327C139.456 176.4 139.713 176.437 140.022 176.437C140.242 176.437 140.437 176.428 140.608 176.412C140.787 176.388 140.938 176.363 141.06 176.339L141.072 178.927C140.771 179.024 140.445 179.102 140.095 179.159C139.745 179.216 139.359 179.244 138.936 179.244C138.162 179.244 137.487 179.118 136.909 178.866C136.34 178.605 135.9 178.19 135.591 177.621C135.282 177.051 135.127 176.302 135.127 175.375V162.533ZM150.056 175.35C150.056 175.098 149.983 174.87 149.836 174.667C149.69 174.463 149.417 174.276 149.019 174.105C148.628 173.926 148.062 173.763 147.322 173.617C146.654 173.47 146.032 173.287 145.454 173.067C144.884 172.84 144.388 172.567 143.965 172.25C143.55 171.932 143.224 171.558 142.988 171.126C142.752 170.687 142.634 170.187 142.634 169.625C142.634 169.072 142.752 168.551 142.988 168.062C143.232 167.574 143.578 167.143 144.026 166.769C144.482 166.386 145.035 166.089 145.686 165.877C146.345 165.658 147.086 165.548 147.908 165.548C149.055 165.548 150.04 165.731 150.862 166.097C151.692 166.463 152.327 166.968 152.766 167.611C153.214 168.246 153.438 168.97 153.438 169.784H149.922C149.922 169.442 149.849 169.137 149.702 168.868C149.564 168.591 149.344 168.376 149.043 168.221C148.75 168.058 148.368 167.977 147.896 167.977C147.505 167.977 147.167 168.046 146.882 168.185C146.597 168.315 146.378 168.494 146.223 168.722C146.077 168.941 146.003 169.186 146.003 169.454C146.003 169.658 146.044 169.841 146.125 170.003C146.215 170.158 146.357 170.3 146.553 170.431C146.748 170.561 147 170.683 147.31 170.797C147.627 170.903 148.018 171 148.481 171.09C149.434 171.285 150.284 171.542 151.033 171.859C151.781 172.168 152.375 172.591 152.815 173.128C153.254 173.657 153.474 174.353 153.474 175.216C153.474 175.802 153.344 176.339 153.083 176.827C152.823 177.315 152.449 177.743 151.96 178.109C151.472 178.467 150.886 178.748 150.203 178.951C149.527 179.146 148.766 179.244 147.92 179.244C146.691 179.244 145.649 179.024 144.795 178.585C143.949 178.146 143.306 177.588 142.866 176.913C142.435 176.229 142.219 175.529 142.219 174.813H145.552C145.568 175.293 145.69 175.68 145.918 175.973C146.154 176.266 146.451 176.477 146.809 176.607C147.175 176.738 147.57 176.803 147.993 176.803C148.449 176.803 148.827 176.742 149.128 176.62C149.43 176.489 149.657 176.319 149.812 176.107C149.975 175.887 150.056 175.635 150.056 175.35ZM39.1675 205.119V189.25H42.7075V208H39.5215L39.1675 205.119ZM30.8179 201.555V201.298C30.8179 200.289 30.9318 199.374 31.1597 198.552C31.3875 197.722 31.7212 197.01 32.1606 196.416C32.6001 195.821 33.1413 195.362 33.7842 195.036C34.4271 194.711 35.1595 194.548 35.9814 194.548C36.7546 194.548 37.43 194.711 38.0078 195.036C38.5938 195.362 39.0902 195.826 39.4971 196.428C39.9121 197.022 40.2458 197.726 40.498 198.54C40.7503 199.345 40.9334 200.228 41.0474 201.188V201.75C40.9334 202.67 40.7503 203.524 40.498 204.313C40.2458 205.103 39.9121 205.795 39.4971 206.389C39.0902 206.975 38.5938 207.43 38.0078 207.756C37.4219 208.081 36.7383 208.244 35.957 208.244C35.1351 208.244 34.4027 208.077 33.7598 207.744C33.125 207.41 32.5879 206.942 32.1484 206.34C31.7171 205.738 31.3875 205.03 31.1597 204.216C30.9318 203.402 30.8179 202.515 30.8179 201.555ZM34.3335 201.298V201.555C34.3335 202.1 34.3742 202.609 34.4556 203.081C34.5451 203.553 34.6875 203.972 34.8828 204.338C35.0863 204.696 35.3467 204.977 35.6641 205.18C35.9896 205.375 36.3843 205.473 36.8481 205.473C37.4504 205.473 37.9468 205.339 38.3374 205.07C38.728 204.794 39.0251 204.415 39.2285 203.935C39.4401 203.455 39.5622 202.902 39.5947 202.275V200.676C39.5703 200.163 39.4971 199.703 39.375 199.296C39.2611 198.881 39.0902 198.527 38.8623 198.234C38.6426 197.941 38.3659 197.714 38.0322 197.551C37.7067 197.388 37.3201 197.307 36.8726 197.307C36.4168 197.307 36.0262 197.412 35.7007 197.624C35.3752 197.827 35.1107 198.108 34.9072 198.466C34.7119 198.824 34.5654 199.248 34.4678 199.736C34.3783 200.216 34.3335 200.737 34.3335 201.298ZM51.5332 208.244C50.5078 208.244 49.5882 208.081 48.7744 207.756C47.9606 207.422 47.2689 206.962 46.6992 206.376C46.1377 205.791 45.7064 205.111 45.4053 204.338C45.1042 203.557 44.9536 202.727 44.9536 201.848V201.359C44.9536 200.358 45.096 199.443 45.3809 198.613C45.6657 197.783 46.0726 197.062 46.6016 196.452C47.1387 195.842 47.7897 195.374 48.5547 195.048C49.3197 194.715 50.1823 194.548 51.1426 194.548C52.0785 194.548 52.9085 194.702 53.6328 195.012C54.3571 195.321 54.9634 195.76 55.4517 196.33C55.9481 196.9 56.3224 197.583 56.5747 198.381C56.827 199.17 56.9531 200.049 56.9531 201.018V202.482H46.4551V200.139H53.4985V199.87C53.4985 199.382 53.409 198.946 53.23 198.564C53.0591 198.173 52.7987 197.864 52.4487 197.636C52.0988 197.408 51.6512 197.294 51.106 197.294C50.6421 197.294 50.2433 197.396 49.9097 197.6C49.576 197.803 49.3034 198.088 49.0918 198.454C48.8883 198.82 48.7337 199.252 48.6279 199.748C48.5303 200.236 48.4814 200.773 48.4814 201.359V201.848C48.4814 202.377 48.5547 202.865 48.7012 203.312C48.8558 203.76 49.0715 204.147 49.3481 204.472C49.633 204.798 49.9748 205.05 50.3735 205.229C50.7804 205.408 51.2402 205.498 51.7529 205.498C52.3877 205.498 52.9777 205.375 53.5229 205.131C54.0763 204.879 54.5524 204.501 54.9512 203.996L56.6602 205.852C56.3835 206.25 56.005 206.633 55.5249 206.999C55.0529 207.365 54.4832 207.666 53.8159 207.902C53.1486 208.13 52.3877 208.244 51.5332 208.244ZM62.666 189.25V208H59.1382V189.25H62.666ZM72.7002 205.021V199.138C72.7002 198.715 72.631 198.352 72.4927 198.051C72.3543 197.742 72.1387 197.502 71.8457 197.331C71.5609 197.16 71.1906 197.075 70.7349 197.075C70.3442 197.075 70.0065 197.144 69.7217 197.282C69.4368 197.412 69.2171 197.604 69.0625 197.856C68.9079 198.1 68.8306 198.389 68.8306 198.723H65.3149C65.3149 198.161 65.4451 197.628 65.7056 197.124C65.966 196.619 66.3444 196.175 66.8408 195.793C67.3372 195.402 67.9272 195.097 68.6108 194.877C69.3026 194.658 70.0757 194.548 70.9302 194.548C71.9556 194.548 72.867 194.719 73.6646 195.061C74.4621 195.402 75.0887 195.915 75.5444 196.599C76.0083 197.282 76.2402 198.137 76.2402 199.162V204.814C76.2402 205.538 76.285 206.132 76.3745 206.596C76.464 207.052 76.5942 207.451 76.7651 207.792V208H73.2129C73.042 207.642 72.9118 207.194 72.8223 206.657C72.7409 206.112 72.7002 205.567 72.7002 205.021ZM73.1641 199.956L73.1885 201.945H71.2231C70.7593 201.945 70.3564 201.998 70.0146 202.104C69.6729 202.21 69.3921 202.36 69.1724 202.556C68.9526 202.743 68.7899 202.963 68.6841 203.215C68.5864 203.467 68.5376 203.744 68.5376 204.045C68.5376 204.346 68.6068 204.619 68.7451 204.863C68.8835 205.099 69.0828 205.286 69.3433 205.424C69.6037 205.555 69.9089 205.62 70.2588 205.62C70.7878 205.62 71.2476 205.514 71.6382 205.302C72.0288 205.091 72.3299 204.83 72.5415 204.521C72.7612 204.212 72.8752 203.919 72.8833 203.642L73.811 205.131C73.6808 205.465 73.5018 205.811 73.2739 206.169C73.0542 206.527 72.7734 206.865 72.4316 207.182C72.0898 207.491 71.6789 207.748 71.1987 207.951C70.7186 208.146 70.1489 208.244 69.4897 208.244C68.6515 208.244 67.8906 208.077 67.207 207.744C66.5316 207.402 65.9945 206.934 65.5957 206.34C65.2051 205.738 65.0098 205.054 65.0098 204.289C65.0098 203.597 65.14 202.983 65.4004 202.446C65.6608 201.909 66.0433 201.457 66.5479 201.091C67.0605 200.716 67.6994 200.436 68.4644 200.249C69.2293 200.053 70.1164 199.956 71.1255 199.956H73.1641ZM82.6733 206.511L86.1768 194.792H89.9487L84.6387 209.99C84.5247 210.323 84.3701 210.681 84.1748 211.064C83.9876 211.446 83.7313 211.809 83.4058 212.15C83.0884 212.5 82.6855 212.785 82.1973 213.005C81.7171 213.225 81.1271 213.334 80.4272 213.334C80.0936 213.334 79.821 213.314 79.6094 213.273C79.3978 213.233 79.1455 213.176 78.8525 213.103V210.527C78.9421 210.527 79.0356 210.527 79.1333 210.527C79.231 210.535 79.3245 210.539 79.4141 210.539C79.8779 210.539 80.2563 210.486 80.5493 210.38C80.8423 210.275 81.0783 210.112 81.2573 209.892C81.4364 209.681 81.5788 209.404 81.6846 209.062L82.6733 206.511ZM81.2085 194.792L84.0771 204.362L84.5776 208.085L82.1851 208.342L77.4365 194.792H81.2085ZM97.2607 208.244C96.2354 208.244 95.3158 208.081 94.502 207.756C93.6882 207.422 92.9964 206.962 92.4268 206.376C91.8652 205.791 91.4339 205.111 91.1328 204.338C90.8317 203.557 90.6812 202.727 90.6812 201.848V201.359C90.6812 200.358 90.8236 199.443 91.1084 198.613C91.3932 197.783 91.8001 197.062 92.3291 196.452C92.8662 195.842 93.5173 195.374 94.2822 195.048C95.0472 194.715 95.9098 194.548 96.8701 194.548C97.806 194.548 98.6361 194.702 99.3604 195.012C100.085 195.321 100.691 195.76 101.179 196.33C101.676 196.9 102.05 197.583 102.302 198.381C102.555 199.17 102.681 200.049 102.681 201.018V202.482H92.1826V200.139H99.2261V199.87C99.2261 199.382 99.1366 198.946 98.9575 198.564C98.7866 198.173 98.5262 197.864 98.1763 197.636C97.8263 197.408 97.3787 197.294 96.8335 197.294C96.3696 197.294 95.9709 197.396 95.6372 197.6C95.3035 197.803 95.0309 198.088 94.8193 198.454C94.6159 198.82 94.4613 199.252 94.3555 199.748C94.2578 200.236 94.209 200.773 94.209 201.359V201.848C94.209 202.377 94.2822 202.865 94.4287 203.312C94.5833 203.76 94.799 204.147 95.0757 204.472C95.3605 204.798 95.7023 205.05 96.1011 205.229C96.508 205.408 96.9678 205.498 97.4805 205.498C98.1152 205.498 98.7052 205.375 99.2505 205.131C99.8039 204.879 100.28 204.501 100.679 203.996L102.388 205.852C102.111 206.25 101.733 206.633 101.252 206.999C100.78 207.365 100.211 207.666 99.5435 207.902C98.8761 208.13 98.1152 208.244 97.2607 208.244ZM112.483 205.119V189.25H116.023V208H112.837L112.483 205.119ZM104.133 201.555V201.298C104.133 200.289 104.247 199.374 104.475 198.552C104.703 197.722 105.037 197.01 105.476 196.416C105.916 195.821 106.457 195.362 107.1 195.036C107.743 194.711 108.475 194.548 109.297 194.548C110.07 194.548 110.745 194.711 111.323 195.036C111.909 195.362 112.406 195.826 112.812 196.428C113.228 197.022 113.561 197.726 113.813 198.54C114.066 199.345 114.249 200.228 114.363 201.188V201.75C114.249 202.67 114.066 203.524 113.813 204.313C113.561 205.103 113.228 205.795 112.812 206.389C112.406 206.975 111.909 207.43 111.323 207.756C110.737 208.081 110.054 208.244 109.272 208.244C108.451 208.244 107.718 208.077 107.075 207.744C106.44 207.41 105.903 206.942 105.464 206.34C105.033 205.738 104.703 205.03 104.475 204.216C104.247 203.402 104.133 202.515 104.133 201.555ZM107.649 201.298V201.555C107.649 202.1 107.69 202.609 107.771 203.081C107.861 203.553 108.003 203.972 108.198 204.338C108.402 204.696 108.662 204.977 108.979 205.18C109.305 205.375 109.7 205.473 110.164 205.473C110.766 205.473 111.262 205.339 111.653 205.07C112.043 204.794 112.34 204.415 112.544 203.935C112.756 203.455 112.878 202.902 112.91 202.275V200.676C112.886 200.163 112.812 199.703 112.69 199.296C112.576 198.881 112.406 198.527 112.178 198.234C111.958 197.941 111.681 197.714 111.348 197.551C111.022 197.388 110.636 197.307 110.188 197.307C109.732 197.307 109.342 197.412 109.016 197.624C108.691 197.827 108.426 198.108 108.223 198.466C108.027 198.824 107.881 199.248 107.783 199.736C107.694 200.216 107.649 200.737 107.649 201.298Z" fill="white"/>
<rect x="36" y="32" width="169" height="109" rx="20" fill="white" fill-opacity="0.5"/>
<rect x="36" y="32" width="169" height="27" rx="13.5" fill="white" fill-opacity="0.5"/>
<rect x="66" y="20" width="5" height="27" rx="2.5" fill="white"/>
<rect x="174" y="20" width="5" height="27" rx="2.5" fill="white"/>
<path d="M107.412 70.1318V120H97.5684V81.4795L85.7422 85.2393V77.4805L106.353 70.1318H107.412ZM132.876 97.3389L125.015 95.459L127.852 70.2344H155.811V78.1982H135.952L134.722 89.2383C135.382 88.8509 136.385 88.4408 137.729 88.0078C139.074 87.5521 140.578 87.3242 142.241 87.3242C144.657 87.3242 146.799 87.7002 148.667 88.4521C150.535 89.2041 152.119 90.2979 153.418 91.7334C154.74 93.1689 155.742 94.9235 156.426 96.9971C157.109 99.0706 157.451 101.418 157.451 104.038C157.451 106.248 157.109 108.356 156.426 110.361C155.742 112.344 154.705 114.121 153.315 115.693C151.925 117.243 150.182 118.462 148.086 119.351C145.99 120.239 143.506 120.684 140.635 120.684C138.493 120.684 136.419 120.365 134.414 119.727C132.432 119.089 130.643 118.143 129.048 116.89C127.476 115.636 126.211 114.121 125.254 112.344C124.32 110.544 123.83 108.493 123.784 106.191H133.56C133.696 107.604 134.061 108.823 134.653 109.849C135.269 110.851 136.077 111.626 137.08 112.173C138.083 112.72 139.256 112.993 140.601 112.993C141.854 112.993 142.925 112.754 143.813 112.275C144.702 111.797 145.42 111.136 145.967 110.293C146.514 109.427 146.912 108.424 147.163 107.285C147.437 106.123 147.573 104.87 147.573 103.525C147.573 102.181 147.414 100.962 147.095 99.8682C146.776 98.7744 146.286 97.8288 145.625 97.0312C144.964 96.2337 144.121 95.6185 143.096 95.1855C142.093 94.7526 140.92 94.5361 139.575 94.5361C137.752 94.5361 136.34 94.821 135.337 95.3906C134.357 95.9603 133.537 96.6097 132.876 97.3389Z" fill="#B2DDAB"/>
</svg>
