<svg width="240" height="240" viewBox="0 0 240 240" fill="none" xmlns="http://www.w3.org/2000/svg">
<rect width="240" height="240" fill="white"/>
<rect x="10" y="10" width="220" height="220" rx="20" fill="#D6B2E7"/>
<path d="M46.4399 168.465V171.322H37.1626V168.465H46.4399ZM38.249 161.227V179H34.5869V161.227H38.249ZM49.0522 161.227V179H45.4023V161.227H49.0522ZM55.7295 165.792V179H52.2017V165.792H55.7295ZM51.9819 162.35C51.9819 161.837 52.161 161.414 52.519 161.08C52.8771 160.746 53.3573 160.58 53.9595 160.58C54.5535 160.58 55.0296 160.746 55.3877 161.08C55.7539 161.414 55.937 161.837 55.937 162.35C55.937 162.862 55.7539 163.285 55.3877 163.619C55.0296 163.953 54.5535 164.12 53.9595 164.12C53.3573 164.12 52.8771 163.953 52.519 163.619C52.161 163.285 51.9819 162.862 51.9819 162.35ZM66.9966 165.792H70.1826V178.561C70.1826 179.765 69.9141 180.786 69.377 181.625C68.848 182.471 68.1074 183.11 67.1553 183.541C66.2031 183.98 65.0964 184.2 63.835 184.2C63.2816 184.2 62.6956 184.127 62.0771 183.98C61.4668 183.834 60.8809 183.606 60.3193 183.297C59.766 182.988 59.3021 182.597 58.9277 182.125L60.478 180.05C60.8849 180.522 61.3569 180.888 61.894 181.148C62.4312 181.417 63.0252 181.551 63.6763 181.551C64.311 181.551 64.8481 181.433 65.2876 181.197C65.7271 180.969 66.0648 180.632 66.3008 180.184C66.5368 179.745 66.6548 179.212 66.6548 178.585V168.844L66.9966 165.792ZM58.1099 172.555V172.298C58.1099 171.289 58.2319 170.374 58.4761 169.552C58.7284 168.722 59.0824 168.01 59.5381 167.416C60.002 166.821 60.5635 166.362 61.2227 166.036C61.8818 165.711 62.6265 165.548 63.4565 165.548C64.3354 165.548 65.0719 165.711 65.666 166.036C66.2601 166.362 66.7484 166.826 67.1309 167.428C67.5133 168.022 67.8104 168.726 68.022 169.54C68.2417 170.345 68.4126 171.228 68.5347 172.188V172.75C68.4126 173.67 68.2295 174.524 67.9854 175.313C67.7412 176.103 67.4198 176.795 67.021 177.389C66.6222 177.975 66.1258 178.43 65.5317 178.756C64.9458 179.081 64.2459 179.244 63.4321 179.244C62.6183 179.244 61.8818 179.077 61.2227 178.744C60.5716 178.41 60.0142 177.942 59.5503 177.34C59.0864 176.738 58.7284 176.03 58.4761 175.216C58.2319 174.402 58.1099 173.515 58.1099 172.555ZM61.6255 172.298V172.555C61.6255 173.1 61.6784 173.609 61.7842 174.081C61.89 174.553 62.0527 174.972 62.2725 175.338C62.5003 175.696 62.7811 175.977 63.1147 176.18C63.4565 176.375 63.8594 176.473 64.3232 176.473C64.9661 176.473 65.491 176.339 65.8979 176.07C66.3049 175.794 66.61 175.415 66.8135 174.935C67.0169 174.455 67.1349 173.902 67.1675 173.275V171.676C67.1512 171.163 67.082 170.703 66.96 170.296C66.8379 169.881 66.667 169.527 66.4473 169.234C66.2275 168.941 65.9427 168.714 65.5928 168.551C65.2428 168.388 64.8278 168.307 64.3477 168.307C63.8838 168.307 63.481 168.412 63.1392 168.624C62.8055 168.827 62.5247 169.108 62.2969 169.466C62.0771 169.824 61.9103 170.248 61.7964 170.736C61.6825 171.216 61.6255 171.737 61.6255 172.298ZM76.3472 160.25V179H72.8315V160.25H76.3472ZM75.8467 171.932H74.8823C74.8905 171.013 75.0125 170.166 75.2485 169.393C75.4845 168.612 75.8223 167.936 76.2617 167.367C76.7012 166.789 77.2261 166.341 77.8364 166.024C78.4549 165.707 79.1385 165.548 79.8872 165.548C80.5382 165.548 81.1283 165.641 81.6572 165.829C82.1943 166.008 82.6541 166.301 83.0366 166.708C83.4272 167.106 83.7284 167.631 83.9399 168.282C84.1515 168.933 84.2573 169.723 84.2573 170.65V179H80.7173V170.626C80.7173 170.04 80.6318 169.58 80.4609 169.247C80.2982 168.905 80.0581 168.665 79.7407 168.526C79.4315 168.38 79.049 168.307 78.5933 168.307C78.0887 168.307 77.6574 168.4 77.2993 168.587C76.9494 168.775 76.6686 169.035 76.457 169.369C76.2454 169.694 76.0908 170.077 75.9932 170.516C75.8955 170.956 75.8467 171.428 75.8467 171.932ZM93.8643 169.991V172.75H86.9673V169.991H93.8643ZM101.286 176.437L104.216 165.792H107.89L103.435 179H101.213L101.286 176.437ZM99.272 165.792L102.214 176.449L102.275 179H100.041L95.5854 165.792H99.272ZM115.373 179.244C114.348 179.244 113.428 179.081 112.614 178.756C111.8 178.422 111.109 177.962 110.539 177.376C109.978 176.791 109.546 176.111 109.245 175.338C108.944 174.557 108.793 173.727 108.793 172.848V172.359C108.793 171.358 108.936 170.443 109.221 169.613C109.506 168.783 109.912 168.062 110.441 167.452C110.979 166.842 111.63 166.374 112.395 166.048C113.16 165.715 114.022 165.548 114.982 165.548C115.918 165.548 116.748 165.702 117.473 166.012C118.197 166.321 118.803 166.76 119.292 167.33C119.788 167.9 120.162 168.583 120.415 169.381C120.667 170.17 120.793 171.049 120.793 172.018V173.482H110.295V171.139H117.338V170.87C117.338 170.382 117.249 169.946 117.07 169.564C116.899 169.173 116.639 168.864 116.289 168.636C115.939 168.408 115.491 168.294 114.946 168.294C114.482 168.294 114.083 168.396 113.75 168.6C113.416 168.803 113.143 169.088 112.932 169.454C112.728 169.82 112.574 170.252 112.468 170.748C112.37 171.236 112.321 171.773 112.321 172.359V172.848C112.321 173.377 112.395 173.865 112.541 174.312C112.696 174.76 112.911 175.147 113.188 175.472C113.473 175.798 113.815 176.05 114.213 176.229C114.62 176.408 115.08 176.498 115.593 176.498C116.228 176.498 116.818 176.375 117.363 176.131C117.916 175.879 118.392 175.501 118.791 174.996L120.5 176.852C120.223 177.25 119.845 177.633 119.365 177.999C118.893 178.365 118.323 178.666 117.656 178.902C116.988 179.13 116.228 179.244 115.373 179.244ZM126.506 160.25V179H122.978V160.25H126.506ZM128.85 172.53V172.274C128.85 171.306 128.988 170.414 129.265 169.601C129.541 168.779 129.944 168.067 130.473 167.464C131.002 166.862 131.653 166.394 132.426 166.061C133.199 165.719 134.086 165.548 135.087 165.548C136.088 165.548 136.979 165.719 137.761 166.061C138.542 166.394 139.197 166.862 139.726 167.464C140.263 168.067 140.67 168.779 140.947 169.601C141.223 170.414 141.362 171.306 141.362 172.274V172.53C141.362 173.491 141.223 174.382 140.947 175.204C140.67 176.017 140.263 176.729 139.726 177.34C139.197 177.942 138.546 178.41 137.773 178.744C137 179.077 136.113 179.244 135.112 179.244C134.111 179.244 133.22 179.077 132.438 178.744C131.665 178.41 131.01 177.942 130.473 177.34C129.944 176.729 129.541 176.017 129.265 175.204C128.988 174.382 128.85 173.491 128.85 172.53ZM132.365 172.274V172.53C132.365 173.084 132.414 173.6 132.512 174.081C132.609 174.561 132.764 174.984 132.976 175.35C133.195 175.708 133.48 175.989 133.83 176.192C134.18 176.396 134.607 176.498 135.112 176.498C135.6 176.498 136.019 176.396 136.369 176.192C136.719 175.989 137 175.708 137.211 175.35C137.423 174.984 137.578 174.561 137.675 174.081C137.781 173.6 137.834 173.084 137.834 172.53V172.274C137.834 171.737 137.781 171.232 137.675 170.76C137.578 170.28 137.419 169.857 137.199 169.491C136.988 169.116 136.707 168.823 136.357 168.612C136.007 168.4 135.584 168.294 135.087 168.294C134.591 168.294 134.168 168.4 133.818 168.612C133.476 168.823 133.195 169.116 132.976 169.491C132.764 169.857 132.609 170.28 132.512 170.76C132.414 171.232 132.365 171.737 132.365 172.274ZM148.979 176.498C149.41 176.498 149.793 176.416 150.126 176.253C150.46 176.083 150.721 175.847 150.908 175.545C151.103 175.236 151.205 174.874 151.213 174.459H154.521C154.513 175.387 154.265 176.213 153.776 176.937C153.288 177.653 152.633 178.219 151.811 178.634C150.989 179.041 150.069 179.244 149.052 179.244C148.027 179.244 147.132 179.073 146.367 178.731C145.61 178.39 144.979 177.918 144.475 177.315C143.97 176.705 143.592 175.997 143.339 175.191C143.087 174.378 142.961 173.507 142.961 172.579V172.225C142.961 171.289 143.087 170.418 143.339 169.613C143.592 168.799 143.97 168.091 144.475 167.489C144.979 166.878 145.61 166.402 146.367 166.061C147.124 165.719 148.011 165.548 149.028 165.548C150.11 165.548 151.058 165.755 151.872 166.17C152.694 166.585 153.337 167.18 153.801 167.953C154.273 168.718 154.513 169.625 154.521 170.675H151.213C151.205 170.235 151.111 169.837 150.932 169.479C150.761 169.12 150.509 168.836 150.175 168.624C149.85 168.404 149.447 168.294 148.967 168.294C148.454 168.294 148.035 168.404 147.709 168.624C147.384 168.836 147.132 169.129 146.953 169.503C146.774 169.869 146.647 170.288 146.574 170.76C146.509 171.224 146.477 171.712 146.477 172.225V172.579C146.477 173.092 146.509 173.584 146.574 174.056C146.639 174.528 146.761 174.947 146.94 175.313C147.128 175.68 147.384 175.969 147.709 176.18C148.035 176.392 148.458 176.498 148.979 176.498ZM160.271 165.792V179H156.743V165.792H160.271ZM156.523 162.35C156.523 161.837 156.702 161.414 157.06 161.08C157.418 160.746 157.898 160.58 158.5 160.58C159.095 160.58 159.571 160.746 159.929 161.08C160.295 161.414 160.478 161.837 160.478 162.35C160.478 162.862 160.295 163.285 159.929 163.619C159.571 163.953 159.095 164.12 158.5 164.12C157.898 164.12 157.418 163.953 157.06 163.619C156.702 163.285 156.523 162.862 156.523 162.35ZM169.646 165.792V168.282H161.955V165.792H169.646ZM163.859 162.533H167.375V175.021C167.375 175.403 167.424 175.696 167.521 175.899C167.627 176.103 167.782 176.245 167.985 176.327C168.189 176.4 168.445 176.437 168.754 176.437C168.974 176.437 169.169 176.428 169.34 176.412C169.519 176.388 169.67 176.363 169.792 176.339L169.804 178.927C169.503 179.024 169.178 179.102 168.828 179.159C168.478 179.216 168.091 179.244 167.668 179.244C166.895 179.244 166.219 179.118 165.642 178.866C165.072 178.605 164.632 178.19 164.323 177.621C164.014 177.051 163.859 176.302 163.859 175.375V162.533ZM175.566 177.511L179.069 165.792H182.841L177.531 180.99C177.417 181.323 177.263 181.681 177.067 182.064C176.88 182.446 176.624 182.809 176.298 183.15C175.981 183.5 175.578 183.785 175.09 184.005C174.61 184.225 174.02 184.334 173.32 184.334C172.986 184.334 172.714 184.314 172.502 184.273C172.29 184.233 172.038 184.176 171.745 184.103V181.527C171.835 181.527 171.928 181.527 172.026 181.527C172.124 181.535 172.217 181.539 172.307 181.539C172.771 181.539 173.149 181.486 173.442 181.38C173.735 181.275 173.971 181.112 174.15 180.892C174.329 180.681 174.471 180.404 174.577 180.062L175.566 177.511ZM174.101 165.792L176.97 175.362L177.47 179.085L175.078 179.342L170.329 165.792H174.101ZM40.8369 194.792V197.282H33.1465V194.792H40.8369ZM35.0508 191.533H38.5664V204.021C38.5664 204.403 38.6152 204.696 38.7129 204.899C38.8187 205.103 38.9733 205.245 39.1768 205.327C39.3802 205.4 39.6366 205.437 39.9458 205.437C40.1655 205.437 40.3608 205.428 40.5317 205.412C40.7108 205.388 40.8613 205.363 40.9834 205.339L40.9956 207.927C40.6945 208.024 40.369 208.102 40.019 208.159C39.6691 208.216 39.2826 208.244 38.8594 208.244C38.0863 208.244 37.4108 208.118 36.833 207.866C36.2633 207.605 35.8239 207.19 35.5146 206.621C35.2054 206.051 35.0508 205.302 35.0508 204.375V191.533ZM46.3545 197.673V208H42.8389V194.792H46.147L46.3545 197.673ZM50.334 194.707L50.2729 197.966C50.1021 197.941 49.8945 197.921 49.6504 197.905C49.4144 197.88 49.1987 197.868 49.0034 197.868C48.507 197.868 48.0757 197.933 47.7095 198.063C47.3514 198.186 47.0503 198.369 46.8062 198.613C46.5701 198.857 46.3911 199.154 46.269 199.504C46.1551 199.854 46.09 200.253 46.0737 200.7L45.3657 200.48C45.3657 199.626 45.4512 198.841 45.6221 198.125C45.793 197.4 46.0412 196.77 46.3667 196.232C46.7004 195.695 47.1073 195.28 47.5874 194.987C48.0675 194.694 48.6169 194.548 49.2354 194.548C49.4307 194.548 49.63 194.564 49.8335 194.597C50.0369 194.621 50.2038 194.658 50.334 194.707ZM58.708 205.021V199.138C58.708 198.715 58.6388 198.352 58.5005 198.051C58.3621 197.742 58.1465 197.502 57.8535 197.331C57.5687 197.16 57.1984 197.075 56.7427 197.075C56.3521 197.075 56.0143 197.144 55.7295 197.282C55.4447 197.412 55.2249 197.604 55.0703 197.856C54.9157 198.1 54.8384 198.389 54.8384 198.723H51.3228C51.3228 198.161 51.453 197.628 51.7134 197.124C51.9738 196.619 52.3522 196.175 52.8486 195.793C53.3451 195.402 53.9351 195.097 54.6187 194.877C55.3104 194.658 56.0835 194.548 56.938 194.548C57.9634 194.548 58.8748 194.719 59.6724 195.061C60.4699 195.402 61.0965 195.915 61.5522 196.599C62.0161 197.282 62.248 198.137 62.248 199.162V204.814C62.248 205.538 62.2928 206.132 62.3823 206.596C62.4718 207.052 62.6021 207.451 62.7729 207.792V208H59.2207C59.0498 207.642 58.9196 207.194 58.8301 206.657C58.7487 206.112 58.708 205.567 58.708 205.021ZM59.1719 199.956L59.1963 201.945H57.231C56.7671 201.945 56.3643 201.998 56.0225 202.104C55.6807 202.21 55.3999 202.36 55.1802 202.556C54.9604 202.743 54.7977 202.963 54.6919 203.215C54.5942 203.467 54.5454 203.744 54.5454 204.045C54.5454 204.346 54.6146 204.619 54.7529 204.863C54.8913 205.099 55.0907 205.286 55.3511 205.424C55.6115 205.555 55.9167 205.62 56.2666 205.62C56.7956 205.62 57.2554 205.514 57.646 205.302C58.0366 205.091 58.3377 204.83 58.5493 204.521C58.769 204.212 58.883 203.919 58.8911 203.642L59.8188 205.131C59.6886 205.465 59.5096 205.811 59.2817 206.169C59.062 206.527 58.7812 206.865 58.4395 207.182C58.0977 207.491 57.6867 207.748 57.2065 207.951C56.7264 208.146 56.1567 208.244 55.4976 208.244C54.6593 208.244 53.8984 208.077 53.2148 207.744C52.5394 207.402 52.0023 206.934 51.6035 206.34C51.2129 205.738 51.0176 205.054 51.0176 204.289C51.0176 203.597 51.1478 202.983 51.4082 202.446C51.6686 201.909 52.0511 201.457 52.5557 201.091C53.0684 200.716 53.7072 200.436 54.4722 200.249C55.2371 200.053 56.1242 199.956 57.1333 199.956H59.1719ZM68.4004 197.612V208H64.8848V194.792H68.1807L68.4004 197.612ZM67.8877 200.932H66.9355C66.9355 199.956 67.0617 199.077 67.314 198.295C67.5662 197.506 67.9202 196.835 68.376 196.281C68.8317 195.72 69.3729 195.292 69.9995 195C70.6343 194.698 71.3423 194.548 72.1235 194.548C72.742 194.548 73.3076 194.637 73.8203 194.816C74.333 194.995 74.7725 195.28 75.1387 195.671C75.513 196.062 75.7979 196.578 75.9932 197.221C76.1966 197.864 76.2983 198.649 76.2983 199.577V208H72.7583V199.565C72.7583 198.979 72.6769 198.523 72.5142 198.198C72.3514 197.872 72.1113 197.644 71.7939 197.514C71.4847 197.376 71.1022 197.307 70.6465 197.307C70.1745 197.307 69.7635 197.4 69.4136 197.587C69.0718 197.775 68.7869 198.035 68.5591 198.369C68.3394 198.694 68.1725 199.077 68.0586 199.516C67.9447 199.956 67.8877 200.428 67.8877 200.932ZM86.1128 204.35C86.1128 204.098 86.0396 203.87 85.8931 203.667C85.7466 203.463 85.474 203.276 85.0752 203.105C84.6846 202.926 84.119 202.763 83.3784 202.617C82.7111 202.47 82.0885 202.287 81.5107 202.067C80.9411 201.84 80.4447 201.567 80.0215 201.25C79.6064 200.932 79.2809 200.558 79.0449 200.126C78.8089 199.687 78.6909 199.187 78.6909 198.625C78.6909 198.072 78.8089 197.551 79.0449 197.062C79.2891 196.574 79.6349 196.143 80.0825 195.769C80.5382 195.386 81.0916 195.089 81.7427 194.877C82.4019 194.658 83.1424 194.548 83.9644 194.548C85.1118 194.548 86.0965 194.731 86.9185 195.097C87.7485 195.463 88.3833 195.968 88.8228 196.611C89.2703 197.246 89.4941 197.97 89.4941 198.784H85.9785C85.9785 198.442 85.9053 198.137 85.7588 197.868C85.6204 197.591 85.4007 197.376 85.0996 197.221C84.8066 197.058 84.4242 196.977 83.9521 196.977C83.5615 196.977 83.2238 197.046 82.939 197.185C82.6541 197.315 82.4344 197.494 82.2798 197.722C82.1333 197.941 82.0601 198.186 82.0601 198.454C82.0601 198.658 82.1007 198.841 82.1821 199.003C82.2716 199.158 82.4141 199.3 82.6094 199.431C82.8047 199.561 83.057 199.683 83.3662 199.797C83.6836 199.903 84.0742 200 84.5381 200.09C85.4902 200.285 86.3407 200.542 87.0894 200.859C87.8381 201.168 88.4321 201.591 88.8716 202.128C89.311 202.657 89.5308 203.353 89.5308 204.216C89.5308 204.802 89.4006 205.339 89.1401 205.827C88.8797 206.315 88.5054 206.743 88.0171 207.109C87.5288 207.467 86.9429 207.748 86.2593 207.951C85.5838 208.146 84.8229 208.244 83.9766 208.244C82.7477 208.244 81.7061 208.024 80.8516 207.585C80.0052 207.146 79.3623 206.588 78.9229 205.913C78.4915 205.229 78.2759 204.529 78.2759 203.813H81.6084C81.6247 204.293 81.7467 204.68 81.9746 204.973C82.2106 205.266 82.5076 205.477 82.8657 205.607C83.2319 205.738 83.6266 205.803 84.0498 205.803C84.5055 205.803 84.884 205.742 85.1851 205.62C85.4862 205.489 85.714 205.319 85.8687 205.107C86.0314 204.887 86.1128 204.635 86.1128 204.35ZM96.2935 208H92.7534V193.62C92.7534 192.619 92.9487 191.777 93.3394 191.093C93.7381 190.402 94.2956 189.881 95.0117 189.531C95.736 189.173 96.5946 188.994 97.5874 188.994C97.9129 188.994 98.2262 189.018 98.5273 189.067C98.8285 189.108 99.1214 189.16 99.4062 189.226L99.3696 191.875C99.215 191.834 99.0522 191.805 98.8813 191.789C98.7104 191.773 98.5111 191.765 98.2832 191.765C97.86 191.765 97.4979 191.838 97.1968 191.984C96.9038 192.123 96.68 192.33 96.5254 192.607C96.3708 192.884 96.2935 193.221 96.2935 193.62V208ZM98.9302 194.792V197.282H90.7881V194.792H98.9302ZM106.56 208.244C105.534 208.244 104.615 208.081 103.801 207.756C102.987 207.422 102.295 206.962 101.726 206.376C101.164 205.791 100.733 205.111 100.432 204.338C100.131 203.557 99.98 202.727 99.98 201.848V201.359C99.98 200.358 100.122 199.443 100.407 198.613C100.692 197.783 101.099 197.062 101.628 196.452C102.165 195.842 102.816 195.374 103.581 195.048C104.346 194.715 105.209 194.548 106.169 194.548C107.105 194.548 107.935 194.702 108.659 195.012C109.383 195.321 109.99 195.76 110.478 196.33C110.974 196.9 111.349 197.583 111.601 198.381C111.853 199.17 111.979 200.049 111.979 201.018V202.482H101.481V200.139H108.525V199.87C108.525 199.382 108.435 198.946 108.256 198.564C108.085 198.173 107.825 197.864 107.475 197.636C107.125 197.408 106.678 197.294 106.132 197.294C105.668 197.294 105.27 197.396 104.936 197.6C104.602 197.803 104.33 198.088 104.118 198.454C103.915 198.82 103.76 199.252 103.654 199.748C103.557 200.236 103.508 200.773 103.508 201.359V201.848C103.508 202.377 103.581 202.865 103.728 203.312C103.882 203.76 104.098 204.147 104.375 204.472C104.659 204.798 105.001 205.05 105.4 205.229C105.807 205.408 106.267 205.498 106.779 205.498C107.414 205.498 108.004 205.375 108.549 205.131C109.103 204.879 109.579 204.501 109.978 203.996L111.687 205.852C111.41 206.25 111.031 206.633 110.551 206.999C110.079 207.365 109.51 207.666 108.842 207.902C108.175 208.13 107.414 208.244 106.56 208.244ZM117.497 197.673V208H113.981V194.792H117.29L117.497 197.673ZM121.477 194.707L121.416 197.966C121.245 197.941 121.037 197.921 120.793 197.905C120.557 197.88 120.341 197.868 120.146 197.868C119.65 197.868 119.218 197.933 118.852 198.063C118.494 198.186 118.193 198.369 117.949 198.613C117.713 198.857 117.534 199.154 117.412 199.504C117.298 199.854 117.233 200.253 117.216 200.7L116.508 200.48C116.508 199.626 116.594 198.841 116.765 198.125C116.936 197.4 117.184 196.77 117.509 196.232C117.843 195.695 118.25 195.28 118.73 194.987C119.21 194.694 119.759 194.548 120.378 194.548C120.573 194.548 120.773 194.564 120.976 194.597C121.18 194.621 121.346 194.658 121.477 194.707ZM130.278 204.35C130.278 204.098 130.205 203.87 130.058 203.667C129.912 203.463 129.639 203.276 129.24 203.105C128.85 202.926 128.284 202.763 127.543 202.617C126.876 202.47 126.254 202.287 125.676 202.067C125.106 201.84 124.61 201.567 124.187 201.25C123.771 200.932 123.446 200.558 123.21 200.126C122.974 199.687 122.856 199.187 122.856 198.625C122.856 198.072 122.974 197.551 123.21 197.062C123.454 196.574 123.8 196.143 124.248 195.769C124.703 195.386 125.257 195.089 125.908 194.877C126.567 194.658 127.307 194.548 128.129 194.548C129.277 194.548 130.262 194.731 131.083 195.097C131.914 195.463 132.548 195.968 132.988 196.611C133.435 197.246 133.659 197.97 133.659 198.784H130.144C130.144 198.442 130.07 198.137 129.924 197.868C129.785 197.591 129.566 197.376 129.265 197.221C128.972 197.058 128.589 196.977 128.117 196.977C127.727 196.977 127.389 197.046 127.104 197.185C126.819 197.315 126.599 197.494 126.445 197.722C126.298 197.941 126.225 198.186 126.225 198.454C126.225 198.658 126.266 198.841 126.347 199.003C126.437 199.158 126.579 199.3 126.774 199.431C126.97 199.561 127.222 199.683 127.531 199.797C127.849 199.903 128.239 200 128.703 200.09C129.655 200.285 130.506 200.542 131.254 200.859C132.003 201.168 132.597 201.591 133.037 202.128C133.476 202.657 133.696 203.353 133.696 204.216C133.696 204.802 133.566 205.339 133.305 205.827C133.045 206.315 132.67 206.743 132.182 207.109C131.694 207.467 131.108 207.748 130.424 207.951C129.749 208.146 128.988 208.244 128.142 208.244C126.913 208.244 125.871 208.024 125.017 207.585C124.17 207.146 123.527 206.588 123.088 205.913C122.657 205.229 122.441 204.529 122.441 203.813H125.773C125.79 204.293 125.912 204.68 126.14 204.973C126.376 205.266 126.673 205.477 127.031 205.607C127.397 205.738 127.792 205.803 128.215 205.803C128.671 205.803 129.049 205.742 129.35 205.62C129.651 205.489 129.879 205.319 130.034 205.107C130.196 204.887 130.278 204.635 130.278 204.35Z" fill="white"/>
<path d="M37 123.706L74.3404 139L100.617 73.0963L161.191 97.2888L193 35" stroke="white" stroke-opacity="0.5" stroke-width="5"/>
</svg>
