<svg width="240" height="240" viewBox="0 0 240 240" fill="none" xmlns="http://www.w3.org/2000/svg">
<rect width="240" height="240" fill="white"/>
<rect x="10" y="10" width="220" height="220" rx="20" fill="#D6B2E7"/>
<path d="M46.4399 168.465V171.322H37.1626V168.465H46.4399ZM38.249 161.227V179H34.5869V161.227H38.249ZM49.0522 161.227V179H45.4023V161.227H49.0522ZM55.7295 165.792V179H52.2017V165.792H55.7295ZM51.9819 162.35C51.9819 161.837 52.161 161.414 52.519 161.08C52.8771 160.746 53.3573 160.58 53.9595 160.58C54.5535 160.58 55.0296 160.746 55.3877 161.08C55.7539 161.414 55.937 161.837 55.937 162.35C55.937 162.862 55.7539 163.285 55.3877 163.619C55.0296 163.953 54.5535 164.12 53.9595 164.12C53.3573 164.12 52.8771 163.953 52.519 163.619C52.161 163.285 51.9819 162.862 51.9819 162.35ZM66.9966 165.792H70.1826V178.561C70.1826 179.765 69.9141 180.786 69.377 181.625C68.848 182.471 68.1074 183.11 67.1553 183.541C66.2031 183.98 65.0964 184.2 63.835 184.2C63.2816 184.2 62.6956 184.127 62.0771 183.98C61.4668 183.834 60.8809 183.606 60.3193 183.297C59.766 182.988 59.3021 182.597 58.9277 182.125L60.478 180.05C60.8849 180.522 61.3569 180.888 61.894 181.148C62.4312 181.417 63.0252 181.551 63.6763 181.551C64.311 181.551 64.8481 181.433 65.2876 181.197C65.7271 180.969 66.0648 180.632 66.3008 180.184C66.5368 179.745 66.6548 179.212 66.6548 178.585V168.844L66.9966 165.792ZM58.1099 172.555V172.298C58.1099 171.289 58.2319 170.374 58.4761 169.552C58.7284 168.722 59.0824 168.01 59.5381 167.416C60.002 166.821 60.5635 166.362 61.2227 166.036C61.8818 165.711 62.6265 165.548 63.4565 165.548C64.3354 165.548 65.0719 165.711 65.666 166.036C66.2601 166.362 66.7484 166.826 67.1309 167.428C67.5133 168.022 67.8104 168.726 68.022 169.54C68.2417 170.345 68.4126 171.228 68.5347 172.188V172.75C68.4126 173.67 68.2295 174.524 67.9854 175.313C67.7412 176.103 67.4198 176.795 67.021 177.389C66.6222 177.975 66.1258 178.43 65.5317 178.756C64.9458 179.081 64.2459 179.244 63.4321 179.244C62.6183 179.244 61.8818 179.077 61.2227 178.744C60.5716 178.41 60.0142 177.942 59.5503 177.34C59.0864 176.738 58.7284 176.03 58.4761 175.216C58.2319 174.402 58.1099 173.515 58.1099 172.555ZM61.6255 172.298V172.555C61.6255 173.1 61.6784 173.609 61.7842 174.081C61.89 174.553 62.0527 174.972 62.2725 175.338C62.5003 175.696 62.7811 175.977 63.1147 176.18C63.4565 176.375 63.8594 176.473 64.3232 176.473C64.9661 176.473 65.491 176.339 65.8979 176.07C66.3049 175.794 66.61 175.415 66.8135 174.935C67.0169 174.455 67.1349 173.902 67.1675 173.275V171.676C67.1512 171.163 67.082 170.703 66.96 170.296C66.8379 169.881 66.667 169.527 66.4473 169.234C66.2275 168.941 65.9427 168.714 65.5928 168.551C65.2428 168.388 64.8278 168.307 64.3477 168.307C63.8838 168.307 63.481 168.412 63.1392 168.624C62.8055 168.827 62.5247 169.108 62.2969 169.466C62.0771 169.824 61.9103 170.248 61.7964 170.736C61.6825 171.216 61.6255 171.737 61.6255 172.298ZM76.3472 160.25V179H72.8315V160.25H76.3472ZM75.8467 171.932H74.8823C74.8905 171.013 75.0125 170.166 75.2485 169.393C75.4845 168.612 75.8223 167.936 76.2617 167.367C76.7012 166.789 77.2261 166.341 77.8364 166.024C78.4549 165.707 79.1385 165.548 79.8872 165.548C80.5382 165.548 81.1283 165.641 81.6572 165.829C82.1943 166.008 82.6541 166.301 83.0366 166.708C83.4272 167.106 83.7284 167.631 83.9399 168.282C84.1515 168.933 84.2573 169.723 84.2573 170.65V179H80.7173V170.626C80.7173 170.04 80.6318 169.58 80.4609 169.247C80.2982 168.905 80.0581 168.665 79.7407 168.526C79.4315 168.38 79.049 168.307 78.5933 168.307C78.0887 168.307 77.6574 168.4 77.2993 168.587C76.9494 168.775 76.6686 169.035 76.457 169.369C76.2454 169.694 76.0908 170.077 75.9932 170.516C75.8955 170.956 75.8467 171.428 75.8467 171.932ZM93.8643 169.991V172.75H86.9673V169.991H93.8643ZM101.286 176.437L104.216 165.792H107.89L103.435 179H101.213L101.286 176.437ZM99.272 165.792L102.214 176.449L102.275 179H100.041L95.5854 165.792H99.272ZM115.373 179.244C114.348 179.244 113.428 179.081 112.614 178.756C111.8 178.422 111.109 177.962 110.539 177.376C109.978 176.791 109.546 176.111 109.245 175.338C108.944 174.557 108.793 173.727 108.793 172.848V172.359C108.793 171.358 108.936 170.443 109.221 169.613C109.506 168.783 109.912 168.062 110.441 167.452C110.979 166.842 111.63 166.374 112.395 166.048C113.16 165.715 114.022 165.548 114.982 165.548C115.918 165.548 116.748 165.702 117.473 166.012C118.197 166.321 118.803 166.76 119.292 167.33C119.788 167.9 120.162 168.583 120.415 169.381C120.667 170.17 120.793 171.049 120.793 172.018V173.482H110.295V171.139H117.338V170.87C117.338 170.382 117.249 169.946 117.07 169.564C116.899 169.173 116.639 168.864 116.289 168.636C115.939 168.408 115.491 168.294 114.946 168.294C114.482 168.294 114.083 168.396 113.75 168.6C113.416 168.803 113.143 169.088 112.932 169.454C112.728 169.82 112.574 170.252 112.468 170.748C112.37 171.236 112.321 171.773 112.321 172.359V172.848C112.321 173.377 112.395 173.865 112.541 174.312C112.696 174.76 112.911 175.147 113.188 175.472C113.473 175.798 113.815 176.05 114.213 176.229C114.62 176.408 115.08 176.498 115.593 176.498C116.228 176.498 116.818 176.375 117.363 176.131C117.916 175.879 118.392 175.501 118.791 174.996L120.5 176.852C120.223 177.25 119.845 177.633 119.365 177.999C118.893 178.365 118.323 178.666 117.656 178.902C116.988 179.13 116.228 179.244 115.373 179.244ZM126.506 160.25V179H122.978V160.25H126.506ZM128.85 172.53V172.274C128.85 171.306 128.988 170.414 129.265 169.601C129.541 168.779 129.944 168.067 130.473 167.464C131.002 166.862 131.653 166.394 132.426 166.061C133.199 165.719 134.086 165.548 135.087 165.548C136.088 165.548 136.979 165.719 137.761 166.061C138.542 166.394 139.197 166.862 139.726 167.464C140.263 168.067 140.67 168.779 140.947 169.601C141.223 170.414 141.362 171.306 141.362 172.274V172.53C141.362 173.491 141.223 174.382 140.947 175.204C140.67 176.017 140.263 176.729 139.726 177.34C139.197 177.942 138.546 178.41 137.773 178.744C137 179.077 136.113 179.244 135.112 179.244C134.111 179.244 133.22 179.077 132.438 178.744C131.665 178.41 131.01 177.942 130.473 177.34C129.944 176.729 129.541 176.017 129.265 175.204C128.988 174.382 128.85 173.491 128.85 172.53ZM132.365 172.274V172.53C132.365 173.084 132.414 173.6 132.512 174.081C132.609 174.561 132.764 174.984 132.976 175.35C133.195 175.708 133.48 175.989 133.83 176.192C134.18 176.396 134.607 176.498 135.112 176.498C135.6 176.498 136.019 176.396 136.369 176.192C136.719 175.989 137 175.708 137.211 175.35C137.423 174.984 137.578 174.561 137.675 174.081C137.781 173.6 137.834 173.084 137.834 172.53V172.274C137.834 171.737 137.781 171.232 137.675 170.76C137.578 170.28 137.419 169.857 137.199 169.491C136.988 169.116 136.707 168.823 136.357 168.612C136.007 168.4 135.584 168.294 135.087 168.294C134.591 168.294 134.168 168.4 133.818 168.612C133.476 168.823 133.195 169.116 132.976 169.491C132.764 169.857 132.609 170.28 132.512 170.76C132.414 171.232 132.365 171.737 132.365 172.274ZM148.979 176.498C149.41 176.498 149.793 176.416 150.126 176.253C150.46 176.083 150.721 175.847 150.908 175.545C151.103 175.236 151.205 174.874 151.213 174.459H154.521C154.513 175.387 154.265 176.213 153.776 176.937C153.288 177.653 152.633 178.219 151.811 178.634C150.989 179.041 150.069 179.244 149.052 179.244C148.027 179.244 147.132 179.073 146.367 178.731C145.61 178.39 144.979 177.918 144.475 177.315C143.97 176.705 143.592 175.997 143.339 175.191C143.087 174.378 142.961 173.507 142.961 172.579V172.225C142.961 171.289 143.087 170.418 143.339 169.613C143.592 168.799 143.97 168.091 144.475 167.489C144.979 166.878 145.61 166.402 146.367 166.061C147.124 165.719 148.011 165.548 149.028 165.548C150.11 165.548 151.058 165.755 151.872 166.17C152.694 166.585 153.337 167.18 153.801 167.953C154.273 168.718 154.513 169.625 154.521 170.675H151.213C151.205 170.235 151.111 169.837 150.932 169.479C150.761 169.12 150.509 168.836 150.175 168.624C149.85 168.404 149.447 168.294 148.967 168.294C148.454 168.294 148.035 168.404 147.709 168.624C147.384 168.836 147.132 169.129 146.953 169.503C146.774 169.869 146.647 170.288 146.574 170.76C146.509 171.224 146.477 171.712 146.477 172.225V172.579C146.477 173.092 146.509 173.584 146.574 174.056C146.639 174.528 146.761 174.947 146.94 175.313C147.128 175.68 147.384 175.969 147.709 176.18C148.035 176.392 148.458 176.498 148.979 176.498ZM160.271 165.792V179H156.743V165.792H160.271ZM156.523 162.35C156.523 161.837 156.702 161.414 157.06 161.08C157.418 160.746 157.898 160.58 158.5 160.58C159.095 160.58 159.571 160.746 159.929 161.08C160.295 161.414 160.478 161.837 160.478 162.35C160.478 162.862 160.295 163.285 159.929 163.619C159.571 163.953 159.095 164.12 158.5 164.12C157.898 164.12 157.418 163.953 157.06 163.619C156.702 163.285 156.523 162.862 156.523 162.35ZM169.646 165.792V168.282H161.955V165.792H169.646ZM163.859 162.533H167.375V175.021C167.375 175.403 167.424 175.696 167.521 175.899C167.627 176.103 167.782 176.245 167.985 176.327C168.189 176.4 168.445 176.437 168.754 176.437C168.974 176.437 169.169 176.428 169.34 176.412C169.519 176.388 169.67 176.363 169.792 176.339L169.804 178.927C169.503 179.024 169.178 179.102 168.828 179.159C168.478 179.216 168.091 179.244 167.668 179.244C166.895 179.244 166.219 179.118 165.642 178.866C165.072 178.605 164.632 178.19 164.323 177.621C164.014 177.051 163.859 176.302 163.859 175.375V162.533ZM175.566 177.511L179.069 165.792H182.841L177.531 180.99C177.417 181.323 177.263 181.681 177.067 182.064C176.88 182.446 176.624 182.809 176.298 183.15C175.981 183.5 175.578 183.785 175.09 184.005C174.61 184.225 174.02 184.334 173.32 184.334C172.986 184.334 172.714 184.314 172.502 184.273C172.29 184.233 172.038 184.176 171.745 184.103V181.527C171.835 181.527 171.928 181.527 172.026 181.527C172.124 181.535 172.217 181.539 172.307 181.539C172.771 181.539 173.149 181.486 173.442 181.38C173.735 181.275 173.971 181.112 174.15 180.892C174.329 180.681 174.471 180.404 174.577 180.062L175.566 177.511ZM174.101 165.792L176.97 175.362L177.47 179.085L175.078 179.342L170.329 165.792H174.101ZM40.8369 194.792V197.282H33.1465V194.792H40.8369ZM35.0508 191.533H38.5664V204.021C38.5664 204.403 38.6152 204.696 38.7129 204.899C38.8187 205.103 38.9733 205.245 39.1768 205.327C39.3802 205.4 39.6366 205.437 39.9458 205.437C40.1655 205.437 40.3608 205.428 40.5317 205.412C40.7108 205.388 40.8613 205.363 40.9834 205.339L40.9956 207.927C40.6945 208.024 40.369 208.102 40.019 208.159C39.6691 208.216 39.2826 208.244 38.8594 208.244C38.0863 208.244 37.4108 208.118 36.833 207.866C36.2633 207.605 35.8239 207.19 35.5146 206.621C35.2054 206.051 35.0508 205.302 35.0508 204.375V191.533ZM46.3545 197.673V208H42.8389V194.792H46.147L46.3545 197.673ZM50.334 194.707L50.2729 197.966C50.1021 197.941 49.8945 197.921 49.6504 197.905C49.4144 197.88 49.1987 197.868 49.0034 197.868C48.507 197.868 48.0757 197.933 47.7095 198.063C47.3514 198.186 47.0503 198.369 46.8062 198.613C46.5701 198.857 46.3911 199.154 46.269 199.504C46.1551 199.854 46.09 200.253 46.0737 200.7L45.3657 200.48C45.3657 199.626 45.4512 198.841 45.6221 198.125C45.793 197.4 46.0412 196.77 46.3667 196.232C46.7004 195.695 47.1073 195.28 47.5874 194.987C48.0675 194.694 48.6169 194.548 49.2354 194.548C49.4307 194.548 49.63 194.564 49.8335 194.597C50.0369 194.621 50.2038 194.658 50.334 194.707ZM58.708 205.021V199.138C58.708 198.715 58.6388 198.352 58.5005 198.051C58.3621 197.742 58.1465 197.502 57.8535 197.331C57.5687 197.16 57.1984 197.075 56.7427 197.075C56.3521 197.075 56.0143 197.144 55.7295 197.282C55.4447 197.412 55.2249 197.604 55.0703 197.856C54.9157 198.1 54.8384 198.389 54.8384 198.723H51.3228C51.3228 198.161 51.453 197.628 51.7134 197.124C51.9738 196.619 52.3522 196.175 52.8486 195.793C53.3451 195.402 53.9351 195.097 54.6187 194.877C55.3104 194.658 56.0835 194.548 56.938 194.548C57.9634 194.548 58.8748 194.719 59.6724 195.061C60.4699 195.402 61.0965 195.915 61.5522 196.599C62.0161 197.282 62.248 198.137 62.248 199.162V204.814C62.248 205.538 62.2928 206.132 62.3823 206.596C62.4718 207.052 62.6021 207.451 62.7729 207.792V208H59.2207C59.0498 207.642 58.9196 207.194 58.8301 206.657C58.7487 206.112 58.708 205.567 58.708 205.021ZM59.1719 199.956L59.1963 201.945H57.231C56.7671 201.945 56.3643 201.998 56.0225 202.104C55.6807 202.21 55.3999 202.36 55.1802 202.556C54.9604 202.743 54.7977 202.963 54.6919 203.215C54.5942 203.467 54.5454 203.744 54.5454 204.045C54.5454 204.346 54.6146 204.619 54.7529 204.863C54.8913 205.099 55.0907 205.286 55.3511 205.424C55.6115 205.555 55.9167 205.62 56.2666 205.62C56.7956 205.62 57.2554 205.514 57.646 205.302C58.0366 205.091 58.3377 204.83 58.5493 204.521C58.769 204.212 58.883 203.919 58.8911 203.642L59.8188 205.131C59.6886 205.465 59.5096 205.811 59.2817 206.169C59.062 206.527 58.7812 206.865 58.4395 207.182C58.0977 207.491 57.6867 207.748 57.2065 207.951C56.7264 208.146 56.1567 208.244 55.4976 208.244C54.6593 208.244 53.8984 208.077 53.2148 207.744C52.5394 207.402 52.0023 206.934 51.6035 206.34C51.2129 205.738 51.0176 205.054 51.0176 204.289C51.0176 203.597 51.1478 202.983 51.4082 202.446C51.6686 201.909 52.0511 201.457 52.5557 201.091C53.0684 200.716 53.7072 200.436 54.4722 200.249C55.2371 200.053 56.1242 199.956 57.1333 199.956H59.1719ZM68.4004 197.612V208H64.8848V194.792H68.1807L68.4004 197.612ZM67.8877 200.932H66.9355C66.9355 199.956 67.0617 199.077 67.314 198.295C67.5662 197.506 67.9202 196.835 68.376 196.281C68.8317 195.72 69.3729 195.292 69.9995 195C70.6343 194.698 71.3423 194.548 72.1235 194.548C72.742 194.548 73.3076 194.637 73.8203 194.816C74.333 194.995 74.7725 195.28 75.1387 195.671C75.513 196.062 75.7979 196.578 75.9932 197.221C76.1966 197.864 76.2983 198.649 76.2983 199.577V208H72.7583V199.565C72.7583 198.979 72.6769 198.523 72.5142 198.198C72.3514 197.872 72.1113 197.644 71.7939 197.514C71.4847 197.376 71.1022 197.307 70.6465 197.307C70.1745 197.307 69.7635 197.4 69.4136 197.587C69.0718 197.775 68.7869 198.035 68.5591 198.369C68.3394 198.694 68.1725 199.077 68.0586 199.516C67.9447 199.956 67.8877 200.428 67.8877 200.932ZM86.1128 204.35C86.1128 204.098 86.0396 203.87 85.8931 203.667C85.7466 203.463 85.474 203.276 85.0752 203.105C84.6846 202.926 84.119 202.763 83.3784 202.617C82.7111 202.47 82.0885 202.287 81.5107 202.067C80.9411 201.84 80.4447 201.567 80.0215 201.25C79.6064 200.932 79.2809 200.558 79.0449 200.126C78.8089 199.687 78.6909 199.187 78.6909 198.625C78.6909 198.072 78.8089 197.551 79.0449 197.062C79.2891 196.574 79.6349 196.143 80.0825 195.769C80.5382 195.386 81.0916 195.089 81.7427 194.877C82.4019 194.658 83.1424 194.548 83.9644 194.548C85.1118 194.548 86.0965 194.731 86.9185 195.097C87.7485 195.463 88.3833 195.968 88.8228 196.611C89.2703 197.246 89.4941 197.97 89.4941 198.784H85.9785C85.9785 198.442 85.9053 198.137 85.7588 197.868C85.6204 197.591 85.4007 197.376 85.0996 197.221C84.8066 197.058 84.4242 196.977 83.9521 196.977C83.5615 196.977 83.2238 197.046 82.939 197.185C82.6541 197.315 82.4344 197.494 82.2798 197.722C82.1333 197.941 82.0601 198.186 82.0601 198.454C82.0601 198.658 82.1007 198.841 82.1821 199.003C82.2716 199.158 82.4141 199.3 82.6094 199.431C82.8047 199.561 83.057 199.683 83.3662 199.797C83.6836 199.903 84.0742 200 84.5381 200.09C85.4902 200.285 86.3407 200.542 87.0894 200.859C87.8381 201.168 88.4321 201.591 88.8716 202.128C89.311 202.657 89.5308 203.353 89.5308 204.216C89.5308 204.802 89.4006 205.339 89.1401 205.827C88.8797 206.315 88.5054 206.743 88.0171 207.109C87.5288 207.467 86.9429 207.748 86.2593 207.951C85.5838 208.146 84.8229 208.244 83.9766 208.244C82.7477 208.244 81.7061 208.024 80.8516 207.585C80.0052 207.146 79.3623 206.588 78.9229 205.913C78.4915 205.229 78.2759 204.529 78.2759 203.813H81.6084C81.6247 204.293 81.7467 204.68 81.9746 204.973C82.2106 205.266 82.5076 205.477 82.8657 205.607C83.2319 205.738 83.6266 205.803 84.0498 205.803C84.5055 205.803 84.884 205.742 85.1851 205.62C85.4862 205.489 85.714 205.319 85.8687 205.107C86.0314 204.887 86.1128 204.635 86.1128 204.35ZM98.9424 205.021V199.138C98.9424 198.715 98.8732 198.352 98.7349 198.051C98.5965 197.742 98.3809 197.502 98.0879 197.331C97.8031 197.16 97.4328 197.075 96.9771 197.075C96.5864 197.075 96.2487 197.144 95.9639 197.282C95.679 197.412 95.4593 197.604 95.3047 197.856C95.1501 198.1 95.0728 198.389 95.0728 198.723H91.5571C91.5571 198.161 91.6873 197.628 91.9478 197.124C92.2082 196.619 92.5866 196.175 93.083 195.793C93.5794 195.402 94.1694 195.097 94.853 194.877C95.5448 194.658 96.3179 194.548 97.1724 194.548C98.1978 194.548 99.1092 194.719 99.9067 195.061C100.704 195.402 101.331 195.915 101.787 196.599C102.25 197.282 102.482 198.137 102.482 199.162V204.814C102.482 205.538 102.527 206.132 102.617 206.596C102.706 207.052 102.836 207.451 103.007 207.792V208H99.4551C99.2842 207.642 99.154 207.194 99.0645 206.657C98.9831 206.112 98.9424 205.567 98.9424 205.021ZM99.4062 199.956L99.4307 201.945H97.4653C97.0015 201.945 96.5986 201.998 96.2568 202.104C95.915 202.21 95.6343 202.36 95.4146 202.556C95.1948 202.743 95.0321 202.963 94.9263 203.215C94.8286 203.467 94.7798 203.744 94.7798 204.045C94.7798 204.346 94.849 204.619 94.9873 204.863C95.1257 205.099 95.325 205.286 95.5854 205.424C95.8459 205.555 96.151 205.62 96.501 205.62C97.0299 205.62 97.4897 205.514 97.8804 205.302C98.271 205.091 98.5721 204.83 98.7837 204.521C99.0034 204.212 99.1174 203.919 99.1255 203.642L100.053 205.131C99.923 205.465 99.744 205.811 99.5161 206.169C99.2964 206.527 99.0156 206.865 98.6738 207.182C98.332 207.491 97.9211 207.748 97.4409 207.951C96.9608 208.146 96.3911 208.244 95.7319 208.244C94.8937 208.244 94.1328 208.077 93.4492 207.744C92.7738 207.402 92.2367 206.934 91.8379 206.34C91.4473 205.738 91.252 205.054 91.252 204.289C91.252 203.597 91.3822 202.983 91.6426 202.446C91.903 201.909 92.2855 201.457 92.79 201.091C93.3027 200.716 93.9416 200.436 94.7065 200.249C95.4715 200.053 96.3586 199.956 97.3677 199.956H99.4062ZM110.649 205.498C111.08 205.498 111.463 205.416 111.796 205.253C112.13 205.083 112.39 204.847 112.578 204.545C112.773 204.236 112.875 203.874 112.883 203.459H116.191C116.183 204.387 115.935 205.213 115.446 205.937C114.958 206.653 114.303 207.219 113.481 207.634C112.659 208.041 111.739 208.244 110.722 208.244C109.697 208.244 108.802 208.073 108.037 207.731C107.28 207.39 106.649 206.918 106.145 206.315C105.64 205.705 105.262 204.997 105.009 204.191C104.757 203.378 104.631 202.507 104.631 201.579V201.225C104.631 200.289 104.757 199.418 105.009 198.613C105.262 197.799 105.64 197.091 106.145 196.489C106.649 195.878 107.28 195.402 108.037 195.061C108.793 194.719 109.681 194.548 110.698 194.548C111.78 194.548 112.728 194.755 113.542 195.17C114.364 195.585 115.007 196.18 115.471 196.953C115.943 197.718 116.183 198.625 116.191 199.675H112.883C112.875 199.235 112.781 198.837 112.602 198.479C112.431 198.12 112.179 197.836 111.845 197.624C111.52 197.404 111.117 197.294 110.637 197.294C110.124 197.294 109.705 197.404 109.379 197.624C109.054 197.836 108.802 198.129 108.623 198.503C108.444 198.869 108.317 199.288 108.244 199.76C108.179 200.224 108.146 200.712 108.146 201.225V201.579C108.146 202.092 108.179 202.584 108.244 203.056C108.309 203.528 108.431 203.947 108.61 204.313C108.798 204.68 109.054 204.969 109.379 205.18C109.705 205.392 110.128 205.498 110.649 205.498ZM124.699 194.792V197.282H117.009V194.792H124.699ZM118.913 191.533H122.429V204.021C122.429 204.403 122.478 204.696 122.575 204.899C122.681 205.103 122.836 205.245 123.039 205.327C123.243 205.4 123.499 205.437 123.808 205.437C124.028 205.437 124.223 205.428 124.394 205.412C124.573 205.388 124.724 205.363 124.846 205.339L124.858 207.927C124.557 208.024 124.231 208.102 123.881 208.159C123.531 208.216 123.145 208.244 122.722 208.244C121.949 208.244 121.273 208.118 120.695 207.866C120.126 207.605 119.686 207.19 119.377 206.621C119.068 206.051 118.913 205.302 118.913 204.375V191.533ZM130.412 194.792V208H126.884V194.792H130.412ZM126.665 191.35C126.665 190.837 126.844 190.414 127.202 190.08C127.56 189.746 128.04 189.58 128.642 189.58C129.236 189.58 129.712 189.746 130.07 190.08C130.437 190.414 130.62 190.837 130.62 191.35C130.62 191.862 130.437 192.285 130.07 192.619C129.712 192.953 129.236 193.12 128.642 193.12C128.04 193.12 127.56 192.953 127.202 192.619C126.844 192.285 126.665 191.862 126.665 191.35ZM132.756 201.53V201.274C132.756 200.306 132.894 199.414 133.171 198.601C133.448 197.779 133.85 197.067 134.379 196.464C134.908 195.862 135.559 195.394 136.333 195.061C137.106 194.719 137.993 194.548 138.994 194.548C139.995 194.548 140.886 194.719 141.667 195.061C142.448 195.394 143.103 195.862 143.632 196.464C144.169 197.067 144.576 197.779 144.853 198.601C145.13 199.414 145.268 200.306 145.268 201.274V201.53C145.268 202.491 145.13 203.382 144.853 204.204C144.576 205.017 144.169 205.729 143.632 206.34C143.103 206.942 142.452 207.41 141.679 207.744C140.906 208.077 140.019 208.244 139.018 208.244C138.017 208.244 137.126 208.077 136.345 207.744C135.572 207.41 134.917 206.942 134.379 206.34C133.85 205.729 133.448 205.017 133.171 204.204C132.894 203.382 132.756 202.491 132.756 201.53ZM136.271 201.274V201.53C136.271 202.084 136.32 202.6 136.418 203.081C136.516 203.561 136.67 203.984 136.882 204.35C137.102 204.708 137.386 204.989 137.736 205.192C138.086 205.396 138.514 205.498 139.018 205.498C139.506 205.498 139.925 205.396 140.275 205.192C140.625 204.989 140.906 204.708 141.118 204.35C141.329 203.984 141.484 203.561 141.582 203.081C141.687 202.6 141.74 202.084 141.74 201.53V201.274C141.74 200.737 141.687 200.232 141.582 199.76C141.484 199.28 141.325 198.857 141.105 198.491C140.894 198.116 140.613 197.823 140.263 197.612C139.913 197.4 139.49 197.294 138.994 197.294C138.497 197.294 138.074 197.4 137.724 197.612C137.382 197.823 137.102 198.116 136.882 198.491C136.67 198.857 136.516 199.28 136.418 199.76C136.32 200.232 136.271 200.737 136.271 201.274ZM150.871 197.612V208H147.355V194.792H150.651L150.871 197.612ZM150.358 200.932H149.406C149.406 199.956 149.532 199.077 149.785 198.295C150.037 197.506 150.391 196.835 150.847 196.281C151.302 195.72 151.844 195.292 152.47 195C153.105 194.698 153.813 194.548 154.594 194.548C155.213 194.548 155.778 194.637 156.291 194.816C156.804 194.995 157.243 195.28 157.609 195.671C157.984 196.062 158.269 196.578 158.464 197.221C158.667 197.864 158.769 198.649 158.769 199.577V208H155.229V199.565C155.229 198.979 155.148 198.523 154.985 198.198C154.822 197.872 154.582 197.644 154.265 197.514C153.955 197.376 153.573 197.307 153.117 197.307C152.645 197.307 152.234 197.4 151.884 197.587C151.542 197.775 151.258 198.035 151.03 198.369C150.81 198.694 150.643 199.077 150.529 199.516C150.415 199.956 150.358 200.428 150.358 200.932ZM168.583 204.35C168.583 204.098 168.51 203.87 168.364 203.667C168.217 203.463 167.945 203.276 167.546 203.105C167.155 202.926 166.59 202.763 165.849 202.617C165.182 202.47 164.559 202.287 163.981 202.067C163.412 201.84 162.915 201.567 162.492 201.25C162.077 200.932 161.752 200.558 161.516 200.126C161.28 199.687 161.162 199.187 161.162 198.625C161.162 198.072 161.28 197.551 161.516 197.062C161.76 196.574 162.106 196.143 162.553 195.769C163.009 195.386 163.562 195.089 164.213 194.877C164.873 194.658 165.613 194.548 166.435 194.548C167.583 194.548 168.567 194.731 169.389 195.097C170.219 195.463 170.854 195.968 171.293 196.611C171.741 197.246 171.965 197.97 171.965 198.784H168.449C168.449 198.442 168.376 198.137 168.229 197.868C168.091 197.591 167.871 197.376 167.57 197.221C167.277 197.058 166.895 196.977 166.423 196.977C166.032 196.977 165.694 197.046 165.41 197.185C165.125 197.315 164.905 197.494 164.75 197.722C164.604 197.941 164.531 198.186 164.531 198.454C164.531 198.658 164.571 198.841 164.653 199.003C164.742 199.158 164.885 199.3 165.08 199.431C165.275 199.561 165.528 199.683 165.837 199.797C166.154 199.903 166.545 200 167.009 200.09C167.961 200.285 168.811 200.542 169.56 200.859C170.309 201.168 170.903 201.591 171.342 202.128C171.782 202.657 172.001 203.353 172.001 204.216C172.001 204.802 171.871 205.339 171.611 205.827C171.35 206.315 170.976 206.743 170.488 207.109C170 207.467 169.414 207.748 168.73 207.951C168.055 208.146 167.294 208.244 166.447 208.244C165.218 208.244 164.177 208.024 163.322 207.585C162.476 207.146 161.833 206.588 161.394 205.913C160.962 205.229 160.747 204.529 160.747 203.813H164.079C164.095 204.293 164.217 204.68 164.445 204.973C164.681 205.266 164.978 205.477 165.336 205.607C165.703 205.738 166.097 205.803 166.521 205.803C166.976 205.803 167.355 205.742 167.656 205.62C167.957 205.489 168.185 205.319 168.339 205.107C168.502 204.887 168.583 204.635 168.583 204.35Z" fill="white"/>
<path d="M37 123.706L74.3404 139L100.617 73.0963L161.191 97.2888L193 35" stroke="white" stroke-opacity="0.5" stroke-width="5"/>
</svg>
