<svg width="240" height="240" viewBox="0 0 240 240" fill="none" xmlns="http://www.w3.org/2000/svg">
<rect width="240" height="240" fill="white"/>
<rect x="10" y="10" width="220" height="220" rx="20" fill="#B5C1E4"/>
<path d="M44.1865 172.698V173.541C44.1865 174.891 44.0034 176.104 43.6372 177.178C43.271 178.252 42.7542 179.168 42.0869 179.925C41.4196 180.674 40.6221 181.247 39.6943 181.646C38.7747 182.045 37.7534 182.244 36.6304 182.244C35.5155 182.244 34.4941 182.045 33.5664 181.646C32.6468 181.247 31.8493 180.674 31.1738 179.925C30.4984 179.168 29.9735 178.252 29.5991 177.178C29.2329 176.104 29.0498 174.891 29.0498 173.541V172.698C29.0498 171.339 29.2329 170.127 29.5991 169.061C29.9653 167.986 30.4821 167.071 31.1494 166.314C31.8249 165.557 32.6224 164.979 33.542 164.581C34.4697 164.182 35.491 163.982 36.606 163.982C37.729 163.982 38.7503 164.182 39.6699 164.581C40.5977 164.979 41.3952 165.557 42.0625 166.314C42.738 167.071 43.2588 167.986 43.625 169.061C43.9993 170.127 44.1865 171.339 44.1865 172.698ZM40.4878 173.541V172.674C40.4878 171.73 40.4023 170.9 40.2314 170.184C40.0605 169.467 39.8083 168.865 39.4746 168.377C39.141 167.889 38.734 167.522 38.2539 167.278C37.7738 167.026 37.2244 166.9 36.606 166.9C35.9875 166.9 35.4382 167.026 34.958 167.278C34.486 167.522 34.0832 167.889 33.7495 168.377C33.424 168.865 33.1758 169.467 33.0049 170.184C32.834 170.9 32.7485 171.73 32.7485 172.674V173.541C32.7485 174.476 32.834 175.306 33.0049 176.031C33.1758 176.747 33.4281 177.353 33.7617 177.85C34.0954 178.338 34.5023 178.708 34.9824 178.96C35.4626 179.213 36.0119 179.339 36.6304 179.339C37.2489 179.339 37.7982 179.213 38.2783 178.96C38.7585 178.708 39.1613 178.338 39.4868 177.85C39.8123 177.353 40.0605 176.747 40.2314 176.031C40.4023 175.306 40.4878 174.476 40.4878 173.541ZM50.0459 171.612V182H46.5303V168.792H49.8262L50.0459 171.612ZM49.5332 174.932H48.5811C48.5811 173.956 48.7072 173.077 48.9595 172.295C49.2118 171.506 49.5658 170.835 50.0215 170.281C50.4772 169.72 51.0184 169.292 51.645 169C52.2798 168.698 52.9878 168.548 53.769 168.548C54.3875 168.548 54.9531 168.637 55.4658 168.816C55.9785 168.995 56.418 169.28 56.7842 169.671C57.1585 170.062 57.4434 170.578 57.6387 171.221C57.8421 171.864 57.9438 172.649 57.9438 173.577V182H54.4038V173.565C54.4038 172.979 54.3224 172.523 54.1597 172.198C53.9969 171.872 53.7568 171.644 53.4395 171.514C53.1302 171.376 52.7477 171.307 52.292 171.307C51.82 171.307 51.409 171.4 51.0591 171.587C50.7173 171.775 50.4325 172.035 50.2046 172.369C49.9849 172.694 49.818 173.077 49.7041 173.516C49.5902 173.956 49.5332 174.428 49.5332 174.932ZM60.6172 163.25H64.1328V178.973L63.7788 182H60.6172V163.25ZM72.4946 175.262V175.518C72.4946 176.503 72.3888 177.406 72.1772 178.228C71.9738 179.05 71.6564 179.762 71.2251 180.364C70.7938 180.958 70.2567 181.422 69.6138 181.756C68.979 182.081 68.2303 182.244 67.3677 182.244C66.562 182.244 65.8621 182.081 65.2681 181.756C64.6821 181.43 64.1898 180.971 63.791 180.376C63.3923 179.782 63.0708 179.087 62.8267 178.289C62.5825 177.492 62.3994 176.621 62.2773 175.677V175.115C62.3994 174.171 62.5825 173.3 62.8267 172.503C63.0708 171.705 63.3923 171.01 63.791 170.416C64.1898 169.821 64.6821 169.362 65.2681 169.036C65.854 168.711 66.5457 168.548 67.3433 168.548C68.214 168.548 68.9709 168.715 69.6138 169.048C70.2648 169.374 70.8019 169.838 71.2251 170.44C71.6564 171.034 71.9738 171.742 72.1772 172.564C72.3888 173.378 72.4946 174.277 72.4946 175.262ZM68.979 175.518V175.262C68.979 174.725 68.9383 174.22 68.8569 173.748C68.7837 173.268 68.6535 172.849 68.4663 172.491C68.2791 172.125 68.0228 171.836 67.6973 171.624C67.3799 171.412 66.9689 171.307 66.4644 171.307C65.9842 171.307 65.5773 171.388 65.2437 171.551C64.91 171.714 64.6333 171.941 64.4136 172.234C64.202 172.527 64.0433 172.877 63.9375 173.284C63.8317 173.683 63.7666 174.122 63.7422 174.603V176.202C63.7666 176.845 63.8724 177.414 64.0596 177.911C64.2549 178.399 64.5479 178.785 64.9385 179.07C65.3372 179.347 65.854 179.485 66.4888 179.485C66.9852 179.485 67.3962 179.388 67.7217 179.192C68.0472 178.997 68.2995 178.72 68.4785 178.362C68.6657 178.004 68.7959 177.585 68.8691 177.105C68.9424 176.617 68.979 176.088 68.979 175.518ZM74.1182 175.53V175.274C74.1182 174.306 74.2565 173.414 74.5332 172.601C74.8099 171.779 75.2127 171.067 75.7417 170.464C76.2707 169.862 76.9217 169.394 77.6948 169.061C78.4679 168.719 79.355 168.548 80.356 168.548C81.3569 168.548 82.248 168.719 83.0293 169.061C83.8105 169.394 84.4657 169.862 84.9946 170.464C85.5317 171.067 85.9386 171.779 86.2153 172.601C86.492 173.414 86.6304 174.306 86.6304 175.274V175.53C86.6304 176.491 86.492 177.382 86.2153 178.204C85.9386 179.017 85.5317 179.729 84.9946 180.34C84.4657 180.942 83.8146 181.41 83.0415 181.744C82.2684 182.077 81.3813 182.244 80.3804 182.244C79.3794 182.244 78.4883 182.077 77.707 181.744C76.9339 181.41 76.2788 180.942 75.7417 180.34C75.2127 179.729 74.8099 179.017 74.5332 178.204C74.2565 177.382 74.1182 176.491 74.1182 175.53ZM77.6338 175.274V175.53C77.6338 176.084 77.6826 176.6 77.7803 177.081C77.8779 177.561 78.0326 177.984 78.2441 178.35C78.4639 178.708 78.7487 178.989 79.0986 179.192C79.4486 179.396 79.8758 179.498 80.3804 179.498C80.8687 179.498 81.2878 179.396 81.6377 179.192C81.9876 178.989 82.2684 178.708 82.48 178.35C82.6916 177.984 82.8462 177.561 82.9438 177.081C83.0496 176.6 83.1025 176.084 83.1025 175.53V175.274C83.1025 174.737 83.0496 174.232 82.9438 173.76C82.8462 173.28 82.6875 172.857 82.4678 172.491C82.2562 172.116 81.9754 171.823 81.6255 171.612C81.2756 171.4 80.8524 171.294 80.356 171.294C79.8595 171.294 79.4364 171.4 79.0864 171.612C78.7446 171.823 78.4639 172.116 78.2441 172.491C78.0326 172.857 77.8779 173.28 77.7803 173.76C77.6826 174.232 77.6338 174.737 77.6338 175.274ZM95.9199 179.021V173.138C95.9199 172.715 95.8507 172.352 95.7124 172.051C95.5741 171.742 95.3584 171.502 95.0654 171.331C94.7806 171.16 94.4103 171.075 93.9546 171.075C93.564 171.075 93.2262 171.144 92.9414 171.282C92.6566 171.412 92.4368 171.604 92.2822 171.856C92.1276 172.1 92.0503 172.389 92.0503 172.723H88.5347C88.5347 172.161 88.6649 171.628 88.9253 171.124C89.1857 170.619 89.5641 170.175 90.0605 169.793C90.557 169.402 91.147 169.097 91.8306 168.877C92.5223 168.658 93.2954 168.548 94.1499 168.548C95.1753 168.548 96.0868 168.719 96.8843 169.061C97.6818 169.402 98.3084 169.915 98.7642 170.599C99.228 171.282 99.46 172.137 99.46 173.162V178.814C99.46 179.538 99.5047 180.132 99.5942 180.596C99.6838 181.052 99.814 181.451 99.9849 181.792V182H96.4326C96.2617 181.642 96.1315 181.194 96.042 180.657C95.9606 180.112 95.9199 179.567 95.9199 179.021ZM96.3838 173.956L96.4082 175.945H94.4429C93.979 175.945 93.5762 175.998 93.2344 176.104C92.8926 176.21 92.6118 176.36 92.3921 176.556C92.1724 176.743 92.0096 176.963 91.9038 177.215C91.8062 177.467 91.7573 177.744 91.7573 178.045C91.7573 178.346 91.8265 178.619 91.9648 178.863C92.1032 179.099 92.3026 179.286 92.563 179.424C92.8234 179.555 93.1286 179.62 93.4785 179.62C94.0075 179.62 94.4673 179.514 94.8579 179.302C95.2485 179.091 95.5496 178.83 95.7612 178.521C95.981 178.212 96.0949 177.919 96.103 177.642L97.0308 179.131C96.9006 179.465 96.7215 179.811 96.4937 180.169C96.2739 180.527 95.9932 180.865 95.6514 181.182C95.3096 181.491 94.8986 181.748 94.4185 181.951C93.9383 182.146 93.3687 182.244 92.7095 182.244C91.8713 182.244 91.1104 182.077 90.4268 181.744C89.7513 181.402 89.2142 180.934 88.8154 180.34C88.4248 179.738 88.2295 179.054 88.2295 178.289C88.2295 177.597 88.3597 176.983 88.6201 176.446C88.8805 175.909 89.263 175.457 89.7676 175.091C90.2803 174.716 90.9191 174.436 91.6841 174.249C92.4491 174.053 93.3361 173.956 94.3452 173.956H96.3838ZM105.686 171.673V182H102.17V168.792H105.478L105.686 171.673ZM109.665 168.707L109.604 171.966C109.433 171.941 109.226 171.921 108.981 171.905C108.745 171.88 108.53 171.868 108.334 171.868C107.838 171.868 107.407 171.933 107.041 172.063C106.682 172.186 106.381 172.369 106.137 172.613C105.901 172.857 105.722 173.154 105.6 173.504C105.486 173.854 105.421 174.253 105.405 174.7L104.697 174.48C104.697 173.626 104.782 172.841 104.953 172.125C105.124 171.4 105.372 170.77 105.698 170.232C106.031 169.695 106.438 169.28 106.918 168.987C107.399 168.694 107.948 168.548 108.566 168.548C108.762 168.548 108.961 168.564 109.165 168.597C109.368 168.621 109.535 168.658 109.665 168.707ZM118.881 179.119V163.25H122.421V182H119.235L118.881 179.119ZM110.532 175.555V175.298C110.532 174.289 110.646 173.374 110.874 172.552C111.101 171.722 111.435 171.01 111.875 170.416C112.314 169.821 112.855 169.362 113.498 169.036C114.141 168.711 114.873 168.548 115.695 168.548C116.468 168.548 117.144 168.711 117.722 169.036C118.308 169.362 118.804 169.826 119.211 170.428C119.626 171.022 119.96 171.726 120.212 172.54C120.464 173.345 120.647 174.228 120.761 175.188V175.75C120.647 176.67 120.464 177.524 120.212 178.313C119.96 179.103 119.626 179.795 119.211 180.389C118.804 180.975 118.308 181.43 117.722 181.756C117.136 182.081 116.452 182.244 115.671 182.244C114.849 182.244 114.117 182.077 113.474 181.744C112.839 181.41 112.302 180.942 111.862 180.34C111.431 179.738 111.101 179.03 110.874 178.216C110.646 177.402 110.532 176.515 110.532 175.555ZM114.047 175.298V175.555C114.047 176.1 114.088 176.609 114.169 177.081C114.259 177.553 114.401 177.972 114.597 178.338C114.8 178.696 115.061 178.977 115.378 179.18C115.703 179.375 116.098 179.473 116.562 179.473C117.164 179.473 117.661 179.339 118.051 179.07C118.442 178.794 118.739 178.415 118.942 177.935C119.154 177.455 119.276 176.902 119.309 176.275V174.676C119.284 174.163 119.211 173.703 119.089 173.296C118.975 172.881 118.804 172.527 118.576 172.234C118.356 171.941 118.08 171.714 117.746 171.551C117.421 171.388 117.034 171.307 116.586 171.307C116.131 171.307 115.74 171.412 115.415 171.624C115.089 171.827 114.825 172.108 114.621 172.466C114.426 172.824 114.279 173.248 114.182 173.736C114.092 174.216 114.047 174.737 114.047 175.298ZM128.879 168.792V182H125.351V168.792H128.879ZM125.131 165.35C125.131 164.837 125.31 164.414 125.668 164.08C126.027 163.746 126.507 163.58 127.109 163.58C127.703 163.58 128.179 163.746 128.537 164.08C128.903 164.414 129.086 164.837 129.086 165.35C129.086 165.862 128.903 166.285 128.537 166.619C128.179 166.953 127.703 167.12 127.109 167.12C126.507 167.12 126.027 166.953 125.668 166.619C125.31 166.285 125.131 165.862 125.131 165.35ZM135.227 171.612V182H131.711V168.792H135.007L135.227 171.612ZM134.714 174.932H133.762C133.762 173.956 133.888 173.077 134.14 172.295C134.392 171.506 134.746 170.835 135.202 170.281C135.658 169.72 136.199 169.292 136.826 169C137.46 168.698 138.168 168.548 138.95 168.548C139.568 168.548 140.134 168.637 140.646 168.816C141.159 168.995 141.599 169.28 141.965 169.671C142.339 170.062 142.624 170.578 142.819 171.221C143.023 171.864 143.125 172.649 143.125 173.577V182H139.584V173.565C139.584 172.979 139.503 172.523 139.34 172.198C139.178 171.872 138.938 171.644 138.62 171.514C138.311 171.376 137.928 171.307 137.473 171.307C137.001 171.307 136.59 171.4 136.24 171.587C135.898 171.775 135.613 172.035 135.385 172.369C135.166 172.694 134.999 173.077 134.885 173.516C134.771 173.956 134.714 174.428 134.714 174.932ZM154.16 168.792H157.346V181.561C157.346 182.765 157.077 183.786 156.54 184.625C156.011 185.471 155.271 186.11 154.318 186.541C153.366 186.98 152.259 187.2 150.998 187.2C150.445 187.2 149.859 187.127 149.24 186.98C148.63 186.834 148.044 186.606 147.482 186.297C146.929 185.988 146.465 185.597 146.091 185.125L147.641 183.05C148.048 183.522 148.52 183.888 149.057 184.148C149.594 184.417 150.188 184.551 150.839 184.551C151.474 184.551 152.011 184.433 152.451 184.197C152.89 183.969 153.228 183.632 153.464 183.184C153.7 182.745 153.818 182.212 153.818 181.585V171.844L154.16 168.792ZM145.273 175.555V175.298C145.273 174.289 145.395 173.374 145.639 172.552C145.891 171.722 146.245 171.01 146.701 170.416C147.165 169.821 147.727 169.362 148.386 169.036C149.045 168.711 149.79 168.548 150.62 168.548C151.499 168.548 152.235 168.711 152.829 169.036C153.423 169.362 153.911 169.826 154.294 170.428C154.676 171.022 154.973 171.726 155.185 172.54C155.405 173.345 155.576 174.228 155.698 175.188V175.75C155.576 176.67 155.393 177.524 155.148 178.313C154.904 179.103 154.583 179.795 154.184 180.389C153.785 180.975 153.289 181.43 152.695 181.756C152.109 182.081 151.409 182.244 150.595 182.244C149.781 182.244 149.045 182.077 148.386 181.744C147.735 181.41 147.177 180.942 146.713 180.34C146.25 179.738 145.891 179.03 145.639 178.216C145.395 177.402 145.273 176.515 145.273 175.555ZM148.789 175.298V175.555C148.789 176.1 148.841 176.609 148.947 177.081C149.053 177.553 149.216 177.972 149.436 178.338C149.663 178.696 149.944 178.977 150.278 179.18C150.62 179.375 151.022 179.473 151.486 179.473C152.129 179.473 152.654 179.339 153.061 179.07C153.468 178.794 153.773 178.415 153.977 177.935C154.18 177.455 154.298 176.902 154.331 176.275V174.676C154.314 174.163 154.245 173.703 154.123 173.296C154.001 172.881 153.83 172.527 153.61 172.234C153.391 171.941 153.106 171.714 152.756 171.551C152.406 171.388 151.991 171.307 151.511 171.307C151.047 171.307 150.644 171.412 150.302 171.624C149.969 171.827 149.688 172.108 149.46 172.466C149.24 172.824 149.073 173.248 148.959 173.736C148.846 174.216 148.789 174.737 148.789 175.298ZM32.8828 200.673V211H29.3672V197.792H32.6753L32.8828 200.673ZM36.8623 197.707L36.8013 200.966C36.6304 200.941 36.4229 200.921 36.1787 200.905C35.9427 200.88 35.7271 200.868 35.5317 200.868C35.0353 200.868 34.604 200.933 34.2378 201.063C33.8797 201.186 33.5786 201.369 33.3345 201.613C33.0985 201.857 32.9194 202.154 32.7974 202.504C32.6834 202.854 32.6183 203.253 32.6021 203.7L31.894 203.48C31.894 202.626 31.9795 201.841 32.1504 201.125C32.3213 200.4 32.5695 199.77 32.895 199.232C33.2287 198.695 33.6356 198.28 34.1157 197.987C34.5959 197.694 35.1452 197.548 35.7637 197.548C35.959 197.548 36.1584 197.564 36.3618 197.597C36.5653 197.621 36.7321 197.658 36.8623 197.707ZM44.3574 211.244C43.332 211.244 42.4124 211.081 41.5986 210.756C40.7848 210.422 40.0931 209.962 39.5234 209.376C38.9619 208.791 38.5306 208.111 38.2295 207.338C37.9284 206.557 37.7778 205.727 37.7778 204.848V204.359C37.7778 203.358 37.9202 202.443 38.2051 201.613C38.4899 200.783 38.8968 200.062 39.4258 199.452C39.9629 198.842 40.6139 198.374 41.3789 198.048C42.1439 197.715 43.0065 197.548 43.9668 197.548C44.9027 197.548 45.7327 197.702 46.457 198.012C47.1813 198.321 47.7876 198.76 48.2759 199.33C48.7723 199.9 49.1466 200.583 49.3989 201.381C49.6512 202.17 49.7773 203.049 49.7773 204.018V205.482H39.2793V203.139H46.3228V202.87C46.3228 202.382 46.2332 201.946 46.0542 201.564C45.8833 201.173 45.6229 200.864 45.2729 200.636C44.923 200.408 44.4754 200.294 43.9302 200.294C43.4663 200.294 43.0675 200.396 42.7339 200.6C42.4002 200.803 42.1276 201.088 41.916 201.454C41.7126 201.82 41.5579 202.252 41.4521 202.748C41.3545 203.236 41.3057 203.773 41.3057 204.359V204.848C41.3057 205.377 41.3789 205.865 41.5254 206.312C41.68 206.76 41.8957 207.147 42.1724 207.472C42.4572 207.798 42.799 208.05 43.1978 208.229C43.6047 208.408 44.0645 208.498 44.5771 208.498C45.2119 208.498 45.8019 208.375 46.3472 208.131C46.9006 207.879 47.3766 207.501 47.7754 206.996L49.4844 208.852C49.2077 209.25 48.8293 209.633 48.3491 209.999C47.8771 210.365 47.3075 210.666 46.6401 210.902C45.9728 211.13 45.2119 211.244 44.3574 211.244ZM55.2949 200.526V211H51.7671V197.792H55.0752L55.2949 200.526ZM54.8066 203.932H53.8301C53.8301 203.013 53.9399 202.166 54.1597 201.393C54.3875 200.612 54.7171 199.936 55.1484 199.367C55.5879 198.789 56.1291 198.341 56.772 198.024C57.4149 197.707 58.1595 197.548 59.0059 197.548C59.5918 197.548 60.1289 197.637 60.6172 197.816C61.1055 197.987 61.5246 198.26 61.8745 198.634C62.2326 199 62.5093 199.481 62.7046 200.075C62.8999 200.661 62.9976 201.365 62.9976 202.187V211H59.4819V202.577C59.4819 201.975 59.4006 201.511 59.2378 201.186C59.075 200.86 58.8431 200.632 58.542 200.502C58.249 200.372 57.895 200.307 57.48 200.307C57.0243 200.307 56.6255 200.4 56.2837 200.587C55.95 200.775 55.6733 201.035 55.4536 201.369C55.2339 201.694 55.0711 202.077 54.9653 202.516C54.8595 202.956 54.8066 203.428 54.8066 203.932ZM62.668 203.529L61.4106 203.688C61.4106 202.825 61.5164 202.024 61.728 201.283C61.9478 200.543 62.2692 199.892 62.6924 199.33C63.1237 198.769 63.6567 198.333 64.2915 198.024C64.9263 197.707 65.6587 197.548 66.4888 197.548C67.1235 197.548 67.7013 197.641 68.2222 197.829C68.743 198.008 69.1865 198.297 69.5527 198.695C69.9271 199.086 70.2119 199.599 70.4072 200.233C70.6107 200.868 70.7124 201.645 70.7124 202.565V211H67.1846V202.565C67.1846 201.955 67.1032 201.491 66.9404 201.173C66.7858 200.848 66.5579 200.624 66.2568 200.502C65.9639 200.372 65.6139 200.307 65.207 200.307C64.7839 200.307 64.4136 200.392 64.0962 200.563C63.7788 200.726 63.5143 200.954 63.3027 201.247C63.0911 201.54 62.9325 201.881 62.8267 202.272C62.7209 202.654 62.668 203.074 62.668 203.529ZM77.1455 197.792V211H73.6177V197.792H77.1455ZM73.3979 194.35C73.3979 193.837 73.577 193.414 73.9351 193.08C74.2931 192.746 74.7733 192.58 75.3755 192.58C75.9696 192.58 76.4456 192.746 76.8037 193.08C77.1699 193.414 77.353 193.837 77.353 194.35C77.353 194.862 77.1699 195.285 76.8037 195.619C76.4456 195.953 75.9696 196.12 75.3755 196.12C74.7733 196.12 74.2931 195.953 73.9351 195.619C73.577 195.285 73.3979 194.862 73.3979 194.35ZM83.4932 200.612V211H79.9775V197.792H83.2734L83.4932 200.612ZM82.9805 203.932H82.0283C82.0283 202.956 82.1545 202.077 82.4067 201.295C82.659 200.506 83.013 199.835 83.4688 199.281C83.9245 198.72 84.4657 198.292 85.0923 198C85.7271 197.698 86.4351 197.548 87.2163 197.548C87.8348 197.548 88.4004 197.637 88.9131 197.816C89.4258 197.995 89.8652 198.28 90.2314 198.671C90.6058 199.062 90.8906 199.578 91.0859 200.221C91.2894 200.864 91.3911 201.649 91.3911 202.577V211H87.8511V202.565C87.8511 201.979 87.7697 201.523 87.6069 201.198C87.4442 200.872 87.2041 200.644 86.8867 200.514C86.5775 200.376 86.195 200.307 85.7393 200.307C85.2673 200.307 84.8563 200.4 84.5063 200.587C84.1646 200.775 83.8797 201.035 83.6519 201.369C83.4321 201.694 83.2653 202.077 83.1514 202.516C83.0374 202.956 82.9805 203.428 82.9805 203.932ZM101.865 208.119V192.25H105.405V211H102.219L101.865 208.119ZM93.5151 204.555V204.298C93.5151 203.289 93.6291 202.374 93.8569 201.552C94.0848 200.722 94.4185 200.01 94.8579 199.416C95.2974 198.821 95.8385 198.362 96.4814 198.036C97.1243 197.711 97.8568 197.548 98.6787 197.548C99.4518 197.548 100.127 197.711 100.705 198.036C101.291 198.362 101.787 198.826 102.194 199.428C102.609 200.022 102.943 200.726 103.195 201.54C103.448 202.345 103.631 203.228 103.745 204.188V204.75C103.631 205.67 103.448 206.524 103.195 207.313C102.943 208.103 102.609 208.795 102.194 209.389C101.787 209.975 101.291 210.43 100.705 210.756C100.119 211.081 99.4355 211.244 98.6543 211.244C97.8324 211.244 97.0999 211.077 96.457 210.744C95.8223 210.41 95.2852 209.942 94.8457 209.34C94.4144 208.738 94.0848 208.03 93.8569 207.216C93.6291 206.402 93.5151 205.515 93.5151 204.555ZM97.0308 204.298V204.555C97.0308 205.1 97.0715 205.609 97.1528 206.081C97.2424 206.553 97.3848 206.972 97.5801 207.338C97.7835 207.696 98.0439 207.977 98.3613 208.18C98.6868 208.375 99.0815 208.473 99.5454 208.473C100.148 208.473 100.644 208.339 101.035 208.07C101.425 207.794 101.722 207.415 101.926 206.935C102.137 206.455 102.259 205.902 102.292 205.275V203.676C102.268 203.163 102.194 202.703 102.072 202.296C101.958 201.881 101.787 201.527 101.56 201.234C101.34 200.941 101.063 200.714 100.729 200.551C100.404 200.388 100.017 200.307 99.5698 200.307C99.1141 200.307 98.7235 200.412 98.3979 200.624C98.0724 200.827 97.8079 201.108 97.6045 201.466C97.4092 201.824 97.2627 202.248 97.165 202.736C97.0755 203.216 97.0308 203.737 97.0308 204.298ZM114.23 211.244C113.205 211.244 112.285 211.081 111.472 210.756C110.658 210.422 109.966 209.962 109.396 209.376C108.835 208.791 108.404 208.111 108.103 207.338C107.801 206.557 107.651 205.727 107.651 204.848V204.359C107.651 203.358 107.793 202.443 108.078 201.613C108.363 200.783 108.77 200.062 109.299 199.452C109.836 198.842 110.487 198.374 111.252 198.048C112.017 197.715 112.88 197.548 113.84 197.548C114.776 197.548 115.606 197.702 116.33 198.012C117.054 198.321 117.661 198.76 118.149 199.33C118.645 199.9 119.02 200.583 119.272 201.381C119.524 202.17 119.65 203.049 119.65 204.018V205.482H109.152V203.139H116.196V202.87C116.196 202.382 116.106 201.946 115.927 201.564C115.756 201.173 115.496 200.864 115.146 200.636C114.796 200.408 114.348 200.294 113.803 200.294C113.339 200.294 112.941 200.396 112.607 200.6C112.273 200.803 112.001 201.088 111.789 201.454C111.586 201.82 111.431 202.252 111.325 202.748C111.228 203.236 111.179 203.773 111.179 204.359V204.848C111.179 205.377 111.252 205.865 111.398 206.312C111.553 206.76 111.769 207.147 112.045 207.472C112.33 207.798 112.672 208.05 113.071 208.229C113.478 208.408 113.938 208.498 114.45 208.498C115.085 208.498 115.675 208.375 116.22 208.131C116.774 207.879 117.25 207.501 117.648 206.996L119.357 208.852C119.081 209.25 118.702 209.633 118.222 209.999C117.75 210.365 117.181 210.666 116.513 210.902C115.846 211.13 115.085 211.244 114.23 211.244ZM125.168 200.673V211H121.652V197.792H124.96L125.168 200.673ZM129.147 197.707L129.086 200.966C128.916 200.941 128.708 200.921 128.464 200.905C128.228 200.88 128.012 200.868 127.817 200.868C127.32 200.868 126.889 200.933 126.523 201.063C126.165 201.186 125.864 201.369 125.62 201.613C125.384 201.857 125.205 202.154 125.083 202.504C124.969 202.854 124.903 203.253 124.887 203.7L124.179 203.48C124.179 202.626 124.265 201.841 124.436 201.125C124.606 200.4 124.855 199.77 125.18 199.232C125.514 198.695 125.921 198.28 126.401 197.987C126.881 197.694 127.43 197.548 128.049 197.548C128.244 197.548 128.444 197.564 128.647 197.597C128.85 197.621 129.017 197.658 129.147 197.707ZM137.949 207.35C137.949 207.098 137.875 206.87 137.729 206.667C137.583 206.463 137.31 206.276 136.911 206.105C136.521 205.926 135.955 205.763 135.214 205.617C134.547 205.47 133.924 205.287 133.347 205.067C132.777 204.84 132.281 204.567 131.857 204.25C131.442 203.932 131.117 203.558 130.881 203.126C130.645 202.687 130.527 202.187 130.527 201.625C130.527 201.072 130.645 200.551 130.881 200.062C131.125 199.574 131.471 199.143 131.918 198.769C132.374 198.386 132.928 198.089 133.579 197.877C134.238 197.658 134.978 197.548 135.8 197.548C136.948 197.548 137.932 197.731 138.754 198.097C139.584 198.463 140.219 198.968 140.659 199.611C141.106 200.246 141.33 200.97 141.33 201.784H137.814C137.814 201.442 137.741 201.137 137.595 200.868C137.456 200.591 137.237 200.376 136.936 200.221C136.643 200.058 136.26 199.977 135.788 199.977C135.397 199.977 135.06 200.046 134.775 200.185C134.49 200.315 134.27 200.494 134.116 200.722C133.969 200.941 133.896 201.186 133.896 201.454C133.896 201.658 133.937 201.841 134.018 202.003C134.108 202.158 134.25 202.3 134.445 202.431C134.641 202.561 134.893 202.683 135.202 202.797C135.52 202.903 135.91 203 136.374 203.09C137.326 203.285 138.177 203.542 138.925 203.859C139.674 204.168 140.268 204.591 140.708 205.128C141.147 205.657 141.367 206.353 141.367 207.216C141.367 207.802 141.236 208.339 140.976 208.827C140.716 209.315 140.341 209.743 139.853 210.109C139.365 210.467 138.779 210.748 138.095 210.951C137.42 211.146 136.659 211.244 135.812 211.244C134.584 211.244 133.542 211.024 132.688 210.585C131.841 210.146 131.198 209.588 130.759 208.913C130.327 208.229 130.112 207.529 130.112 206.813H133.444C133.461 207.293 133.583 207.68 133.811 207.973C134.047 208.266 134.344 208.477 134.702 208.607C135.068 208.738 135.463 208.803 135.886 208.803C136.341 208.803 136.72 208.742 137.021 208.62C137.322 208.489 137.55 208.319 137.705 208.107C137.867 207.887 137.949 207.635 137.949 207.35Z" fill="white"/>
<path d="M121.997 37.0577C74.958 39.3873 70.6285 97.009 73.805 132H166.377C170.824 103.696 169.1 34.725 121.997 37.0577Z" fill="white" fill-opacity="0.5"/>
<path d="M138 137H102C102 144.605 109.472 154 122.83 154C133.517 154 137.396 142.667 138 137Z" fill="white" fill-opacity="0.5"/>
<ellipse cx="153" cy="51.5" rx="15" ry="14.5" fill="white"/>
<path d="M155.79 42.1899V60H152.274V46.2427L148.051 47.5854V44.8145L155.412 42.1899H155.79Z" fill="#B5C1E4"/>
</svg>
