<svg width="250" height="250" viewBox="0 0 250 250" fill="none" xmlns="http://www.w3.org/2000/svg">
<rect width="250" height="250" fill="white"/>
<rect x="15" y="12" width="225" height="225" rx="20" fill="#F1A7A7"/>
<path d="M37.9111 156.672H41.6318L47.1104 172.331L52.5889 156.672H56.3096L48.6045 178H45.6162L37.9111 156.672ZM35.9043 156.672H39.6104L40.2842 171.936V178H35.9043V156.672ZM54.6104 156.672H58.3311V178H53.9365V171.936L54.6104 156.672ZM66.373 162.15V178H62.1396V162.15H66.373ZM61.876 158.02C61.876 157.404 62.0908 156.896 62.5205 156.496C62.9502 156.096 63.5264 155.896 64.249 155.896C64.9619 155.896 65.5332 156.096 65.9629 156.496C66.4023 156.896 66.6221 157.404 66.6221 158.02C66.6221 158.635 66.4023 159.143 65.9629 159.543C65.5332 159.943 64.9619 160.144 64.249 160.144C63.5264 160.144 62.9502 159.943 62.5205 159.543C62.0908 159.143 61.876 158.635 61.876 158.02ZM78.4287 173.62C78.4287 173.317 78.3408 173.044 78.165 172.8C77.9893 172.556 77.6621 172.331 77.1836 172.126C76.7148 171.911 76.0361 171.716 75.1475 171.54C74.3467 171.364 73.5996 171.145 72.9062 170.881C72.2227 170.607 71.627 170.28 71.1191 169.899C70.6211 169.519 70.2305 169.069 69.9473 168.552C69.6641 168.024 69.5225 167.424 69.5225 166.75C69.5225 166.086 69.6641 165.461 69.9473 164.875C70.2402 164.289 70.6553 163.771 71.1924 163.322C71.7393 162.863 72.4033 162.507 73.1846 162.253C73.9756 161.989 74.8643 161.857 75.8506 161.857C77.2275 161.857 78.4092 162.077 79.3955 162.517C80.3916 162.956 81.1533 163.562 81.6807 164.333C82.2178 165.095 82.4863 165.964 82.4863 166.94H78.2676C78.2676 166.53 78.1797 166.164 78.0039 165.842C77.8379 165.51 77.5742 165.251 77.2129 165.065C76.8613 164.87 76.4023 164.772 75.8359 164.772C75.3672 164.772 74.9619 164.855 74.6201 165.021C74.2783 165.178 74.0146 165.393 73.8291 165.666C73.6533 165.93 73.5654 166.223 73.5654 166.545C73.5654 166.789 73.6143 167.009 73.7119 167.204C73.8193 167.39 73.9902 167.561 74.2246 167.717C74.459 167.873 74.7617 168.02 75.1328 168.156C75.5137 168.283 75.9824 168.4 76.5391 168.508C77.6816 168.742 78.7021 169.05 79.6006 169.431C80.499 169.802 81.2119 170.31 81.7393 170.954C82.2666 171.589 82.5303 172.424 82.5303 173.459C82.5303 174.162 82.374 174.807 82.0615 175.393C81.749 175.979 81.2998 176.491 80.7139 176.931C80.1279 177.36 79.4248 177.697 78.6045 177.941C77.7939 178.176 76.8809 178.293 75.8652 178.293C74.3906 178.293 73.1406 178.029 72.1152 177.502C71.0996 176.975 70.3281 176.306 69.8008 175.495C69.2832 174.675 69.0244 173.835 69.0244 172.976H73.0234C73.043 173.552 73.1895 174.016 73.4629 174.367C73.7461 174.719 74.1025 174.973 74.5322 175.129C74.9717 175.285 75.4453 175.363 75.9531 175.363C76.5 175.363 76.9541 175.29 77.3154 175.144C77.6768 174.987 77.9502 174.782 78.1357 174.528C78.3311 174.265 78.4287 173.962 78.4287 173.62ZM93.8389 173.62C93.8389 173.317 93.751 173.044 93.5752 172.8C93.3994 172.556 93.0723 172.331 92.5938 172.126C92.125 171.911 91.4463 171.716 90.5576 171.54C89.7568 171.364 89.0098 171.145 88.3164 170.881C87.6328 170.607 87.0371 170.28 86.5293 169.899C86.0312 169.519 85.6406 169.069 85.3574 168.552C85.0742 168.024 84.9326 167.424 84.9326 166.75C84.9326 166.086 85.0742 165.461 85.3574 164.875C85.6504 164.289 86.0654 163.771 86.6025 163.322C87.1494 162.863 87.8135 162.507 88.5947 162.253C89.3857 161.989 90.2744 161.857 91.2607 161.857C92.6377 161.857 93.8193 162.077 94.8057 162.517C95.8018 162.956 96.5635 163.562 97.0908 164.333C97.6279 165.095 97.8965 165.964 97.8965 166.94H93.6777C93.6777 166.53 93.5898 166.164 93.4141 165.842C93.248 165.51 92.9844 165.251 92.623 165.065C92.2715 164.87 91.8125 164.772 91.2461 164.772C90.7773 164.772 90.3721 164.855 90.0303 165.021C89.6885 165.178 89.4248 165.393 89.2393 165.666C89.0635 165.93 88.9756 166.223 88.9756 166.545C88.9756 166.789 89.0244 167.009 89.1221 167.204C89.2295 167.39 89.4004 167.561 89.6348 167.717C89.8691 167.873 90.1719 168.02 90.543 168.156C90.9238 168.283 91.3926 168.4 91.9492 168.508C93.0918 168.742 94.1123 169.05 95.0107 169.431C95.9092 169.802 96.6221 170.31 97.1494 170.954C97.6768 171.589 97.9404 172.424 97.9404 173.459C97.9404 174.162 97.7842 174.807 97.4717 175.393C97.1592 175.979 96.71 176.491 96.124 176.931C95.5381 177.36 94.835 177.697 94.0146 177.941C93.2041 178.176 92.291 178.293 91.2754 178.293C89.8008 178.293 88.5508 178.029 87.5254 177.502C86.5098 176.975 85.7383 176.306 85.2109 175.495C84.6934 174.675 84.4346 173.835 84.4346 172.976H88.4336C88.4531 173.552 88.5996 174.016 88.873 174.367C89.1562 174.719 89.5127 174.973 89.9424 175.129C90.3818 175.285 90.8555 175.363 91.3633 175.363C91.9102 175.363 92.3643 175.29 92.7256 175.144C93.0869 174.987 93.3604 174.782 93.5459 174.528C93.7412 174.265 93.8389 173.962 93.8389 173.62ZM105.133 162.15V178H100.899V162.15H105.133ZM100.636 158.02C100.636 157.404 100.851 156.896 101.28 156.496C101.71 156.096 102.286 155.896 103.009 155.896C103.722 155.896 104.293 156.096 104.723 156.496C105.162 156.896 105.382 157.404 105.382 158.02C105.382 158.635 105.162 159.143 104.723 159.543C104.293 159.943 103.722 160.144 103.009 160.144C102.286 160.144 101.71 159.943 101.28 159.543C100.851 159.143 100.636 158.635 100.636 158.02ZM112.75 165.534V178H108.531V162.15H112.486L112.75 165.534ZM112.135 169.519H110.992C110.992 168.347 111.144 167.292 111.446 166.354C111.749 165.407 112.174 164.602 112.721 163.938C113.268 163.264 113.917 162.751 114.669 162.399C115.431 162.038 116.28 161.857 117.218 161.857C117.96 161.857 118.639 161.965 119.254 162.18C119.869 162.395 120.396 162.736 120.836 163.205C121.285 163.674 121.627 164.294 121.861 165.065C122.105 165.837 122.228 166.779 122.228 167.893V178H117.979V167.878C117.979 167.175 117.882 166.628 117.687 166.237C117.491 165.847 117.203 165.573 116.822 165.417C116.451 165.251 115.992 165.168 115.445 165.168C114.879 165.168 114.386 165.28 113.966 165.505C113.556 165.729 113.214 166.042 112.94 166.442C112.677 166.833 112.477 167.292 112.34 167.819C112.203 168.347 112.135 168.913 112.135 169.519ZM135.47 162.15H139.293V177.473C139.293 178.918 138.971 180.144 138.326 181.149C137.691 182.165 136.803 182.932 135.66 183.449C134.518 183.977 133.189 184.24 131.676 184.24C131.012 184.24 130.309 184.152 129.566 183.977C128.834 183.801 128.131 183.527 127.457 183.156C126.793 182.785 126.236 182.316 125.787 181.75L127.647 179.26C128.136 179.826 128.702 180.266 129.347 180.578C129.991 180.9 130.704 181.062 131.485 181.062C132.247 181.062 132.892 180.92 133.419 180.637C133.946 180.363 134.352 179.958 134.635 179.421C134.918 178.894 135.06 178.254 135.06 177.502V165.812L135.47 162.15ZM124.806 170.266V169.958C124.806 168.747 124.952 167.648 125.245 166.662C125.548 165.666 125.973 164.812 126.52 164.099C127.076 163.386 127.75 162.834 128.541 162.443C129.332 162.053 130.226 161.857 131.222 161.857C132.276 161.857 133.16 162.053 133.873 162.443C134.586 162.834 135.172 163.391 135.631 164.113C136.09 164.826 136.446 165.671 136.7 166.647C136.964 167.614 137.169 168.674 137.315 169.826V170.5C137.169 171.604 136.949 172.629 136.656 173.576C136.363 174.523 135.978 175.354 135.499 176.066C135.021 176.77 134.425 177.316 133.712 177.707C133.009 178.098 132.169 178.293 131.192 178.293C130.216 178.293 129.332 178.093 128.541 177.692C127.76 177.292 127.091 176.73 126.534 176.008C125.978 175.285 125.548 174.436 125.245 173.459C124.952 172.482 124.806 171.418 124.806 170.266ZM129.024 169.958V170.266C129.024 170.92 129.088 171.53 129.215 172.097C129.342 172.663 129.537 173.166 129.801 173.605C130.074 174.035 130.411 174.372 130.812 174.616C131.222 174.851 131.705 174.968 132.262 174.968C133.033 174.968 133.663 174.807 134.151 174.484C134.64 174.152 135.006 173.698 135.25 173.122C135.494 172.546 135.636 171.882 135.675 171.13V169.211C135.655 168.596 135.572 168.044 135.426 167.556C135.279 167.058 135.074 166.633 134.811 166.281C134.547 165.93 134.205 165.656 133.785 165.461C133.365 165.266 132.867 165.168 132.291 165.168C131.734 165.168 131.251 165.295 130.841 165.549C130.44 165.793 130.104 166.13 129.83 166.56C129.566 166.989 129.366 167.497 129.229 168.083C129.093 168.659 129.024 169.284 129.024 169.958ZM44.1953 209.426V202.365C44.1953 201.857 44.1123 201.423 43.9463 201.062C43.7803 200.69 43.5215 200.402 43.1699 200.197C42.8281 199.992 42.3838 199.89 41.8369 199.89C41.3682 199.89 40.9629 199.973 40.6211 200.139C40.2793 200.295 40.0156 200.524 39.8301 200.827C39.6445 201.12 39.5518 201.467 39.5518 201.867H35.333C35.333 201.193 35.4893 200.554 35.8018 199.948C36.1143 199.343 36.5684 198.811 37.1641 198.352C37.7598 197.883 38.4678 197.517 39.2881 197.253C40.1182 196.989 41.0459 196.857 42.0713 196.857C43.3018 196.857 44.3955 197.062 45.3525 197.473C46.3096 197.883 47.0615 198.498 47.6084 199.318C48.165 200.139 48.4434 201.164 48.4434 202.395V209.177C48.4434 210.046 48.4971 210.759 48.6045 211.315C48.7119 211.862 48.8682 212.341 49.0732 212.751V213H44.8105C44.6055 212.57 44.4492 212.033 44.3418 211.389C44.2441 210.734 44.1953 210.08 44.1953 209.426ZM44.752 203.347L44.7812 205.734H42.4229C41.8662 205.734 41.3828 205.798 40.9727 205.925C40.5625 206.052 40.2256 206.232 39.9619 206.467C39.6982 206.691 39.5029 206.955 39.376 207.258C39.2588 207.561 39.2002 207.893 39.2002 208.254C39.2002 208.615 39.2832 208.942 39.4492 209.235C39.6152 209.519 39.8545 209.743 40.167 209.909C40.4795 210.065 40.8457 210.144 41.2656 210.144C41.9004 210.144 42.4521 210.017 42.9209 209.763C43.3896 209.509 43.751 209.196 44.0049 208.825C44.2686 208.454 44.4053 208.103 44.415 207.771L45.5283 209.558C45.3721 209.958 45.1572 210.373 44.8838 210.803C44.6201 211.232 44.2832 211.638 43.873 212.019C43.4629 212.39 42.9697 212.697 42.3936 212.941C41.8174 213.176 41.1338 213.293 40.3428 213.293C39.3369 213.293 38.4238 213.093 37.6035 212.692C36.793 212.282 36.1484 211.721 35.6699 211.008C35.2012 210.285 34.9668 209.465 34.9668 208.547C34.9668 207.717 35.123 206.979 35.4355 206.335C35.748 205.69 36.207 205.148 36.8125 204.709C37.4277 204.26 38.1943 203.923 39.1123 203.698C40.0303 203.464 41.0947 203.347 42.3057 203.347H44.752ZM61.0557 209.543V190.5H65.3037V213H61.4805L61.0557 209.543ZM51.0361 205.266V204.958C51.0361 203.747 51.1729 202.648 51.4463 201.662C51.7197 200.666 52.1201 199.812 52.6475 199.099C53.1748 198.386 53.8242 197.834 54.5957 197.443C55.3672 197.053 56.2461 196.857 57.2324 196.857C58.1602 196.857 58.9707 197.053 59.6641 197.443C60.3672 197.834 60.9629 198.391 61.4512 199.113C61.9492 199.826 62.3496 200.671 62.6523 201.647C62.9551 202.614 63.1748 203.674 63.3115 204.826V205.5C63.1748 206.604 62.9551 207.629 62.6523 208.576C62.3496 209.523 61.9492 210.354 61.4512 211.066C60.9629 211.77 60.3672 212.316 59.6641 212.707C58.9609 213.098 58.1406 213.293 57.2031 213.293C56.2168 213.293 55.3379 213.093 54.5664 212.692C53.8047 212.292 53.1602 211.73 52.6328 211.008C52.1152 210.285 51.7197 209.436 51.4463 208.459C51.1729 207.482 51.0361 206.418 51.0361 205.266ZM55.2549 204.958V205.266C55.2549 205.92 55.3037 206.53 55.4014 207.097C55.5088 207.663 55.6797 208.166 55.9141 208.605C56.1582 209.035 56.4707 209.372 56.8516 209.616C57.2422 209.851 57.7158 209.968 58.2725 209.968C58.9951 209.968 59.5908 209.807 60.0596 209.484C60.5283 209.152 60.8848 208.698 61.1289 208.122C61.3828 207.546 61.5293 206.882 61.5684 206.13V204.211C61.5391 203.596 61.4512 203.044 61.3047 202.556C61.168 202.058 60.9629 201.633 60.6895 201.281C60.4258 200.93 60.0938 200.656 59.6934 200.461C59.3027 200.266 58.8389 200.168 58.3018 200.168C57.7549 200.168 57.2861 200.295 56.8955 200.549C56.5049 200.793 56.1875 201.13 55.9434 201.56C55.709 201.989 55.5332 202.497 55.416 203.083C55.3086 203.659 55.2549 204.284 55.2549 204.958ZM77.96 209.543V190.5H82.208V213H78.3848L77.96 209.543ZM67.9404 205.266V204.958C67.9404 203.747 68.0771 202.648 68.3506 201.662C68.624 200.666 69.0244 199.812 69.5518 199.099C70.0791 198.386 70.7285 197.834 71.5 197.443C72.2715 197.053 73.1504 196.857 74.1367 196.857C75.0645 196.857 75.875 197.053 76.5684 197.443C77.2715 197.834 77.8672 198.391 78.3555 199.113C78.8535 199.826 79.2539 200.671 79.5566 201.647C79.8594 202.614 80.0791 203.674 80.2158 204.826V205.5C80.0791 206.604 79.8594 207.629 79.5566 208.576C79.2539 209.523 78.8535 210.354 78.3555 211.066C77.8672 211.77 77.2715 212.316 76.5684 212.707C75.8652 213.098 75.0449 213.293 74.1074 213.293C73.1211 213.293 72.2422 213.093 71.4707 212.692C70.709 212.292 70.0645 211.73 69.5371 211.008C69.0195 210.285 68.624 209.436 68.3506 208.459C68.0771 207.482 67.9404 206.418 67.9404 205.266ZM72.1592 204.958V205.266C72.1592 205.92 72.208 206.53 72.3057 207.097C72.4131 207.663 72.584 208.166 72.8184 208.605C73.0625 209.035 73.375 209.372 73.7559 209.616C74.1465 209.851 74.6201 209.968 75.1768 209.968C75.8994 209.968 76.4951 209.807 76.9639 209.484C77.4326 209.152 77.7891 208.698 78.0332 208.122C78.2871 207.546 78.4336 206.882 78.4727 206.13V204.211C78.4434 203.596 78.3555 203.044 78.209 202.556C78.0723 202.058 77.8672 201.633 77.5938 201.281C77.3301 200.93 76.998 200.656 76.5977 200.461C76.207 200.266 75.7432 200.168 75.2061 200.168C74.6592 200.168 74.1904 200.295 73.7998 200.549C73.4092 200.793 73.0918 201.13 72.8477 201.56C72.6133 201.989 72.4375 202.497 72.3203 203.083C72.2129 203.659 72.1592 204.284 72.1592 204.958ZM89.7227 200.607V213H85.5039V197.15H89.4736L89.7227 200.607ZM94.498 197.048L94.4248 200.959C94.2197 200.93 93.9707 200.905 93.6777 200.886C93.3945 200.856 93.1357 200.842 92.9014 200.842C92.3057 200.842 91.7881 200.92 91.3486 201.076C90.9189 201.223 90.5576 201.442 90.2646 201.735C89.9814 202.028 89.7666 202.385 89.6201 202.805C89.4834 203.225 89.4053 203.703 89.3857 204.24L88.5361 203.977C88.5361 202.951 88.6387 202.009 88.8438 201.149C89.0488 200.28 89.3467 199.523 89.7373 198.879C90.1377 198.234 90.626 197.736 91.2021 197.385C91.7783 197.033 92.4375 196.857 93.1797 196.857C93.4141 196.857 93.6533 196.877 93.8975 196.916C94.1416 196.945 94.3418 196.989 94.498 197.048ZM103.492 213.293C102.262 213.293 101.158 213.098 100.182 212.707C99.2051 212.307 98.375 211.755 97.6914 211.052C97.0176 210.349 96.5 209.533 96.1387 208.605C95.7773 207.668 95.5967 206.672 95.5967 205.617V205.031C95.5967 203.83 95.7676 202.731 96.1094 201.735C96.4512 200.739 96.9395 199.875 97.5742 199.143C98.2188 198.41 99 197.849 99.918 197.458C100.836 197.058 101.871 196.857 103.023 196.857C104.146 196.857 105.143 197.043 106.012 197.414C106.881 197.785 107.608 198.312 108.194 198.996C108.79 199.68 109.239 200.5 109.542 201.457C109.845 202.404 109.996 203.459 109.996 204.621V206.379H97.3984V203.566H105.851V203.244C105.851 202.658 105.743 202.136 105.528 201.677C105.323 201.208 105.011 200.837 104.591 200.563C104.171 200.29 103.634 200.153 102.979 200.153C102.423 200.153 101.944 200.275 101.544 200.52C101.144 200.764 100.816 201.105 100.562 201.545C100.318 201.984 100.133 202.502 100.006 203.098C99.8887 203.684 99.8301 204.328 99.8301 205.031V205.617C99.8301 206.252 99.918 206.838 100.094 207.375C100.279 207.912 100.538 208.376 100.87 208.767C101.212 209.157 101.622 209.46 102.101 209.675C102.589 209.89 103.141 209.997 103.756 209.997C104.518 209.997 105.226 209.851 105.88 209.558C106.544 209.255 107.115 208.801 107.594 208.195L109.645 210.422C109.312 210.9 108.858 211.359 108.282 211.799C107.716 212.238 107.032 212.6 106.231 212.883C105.431 213.156 104.518 213.293 103.492 213.293ZM120.968 208.62C120.968 208.317 120.88 208.044 120.704 207.8C120.528 207.556 120.201 207.331 119.723 207.126C119.254 206.911 118.575 206.716 117.687 206.54C116.886 206.364 116.139 206.145 115.445 205.881C114.762 205.607 114.166 205.28 113.658 204.899C113.16 204.519 112.77 204.069 112.486 203.552C112.203 203.024 112.062 202.424 112.062 201.75C112.062 201.086 112.203 200.461 112.486 199.875C112.779 199.289 113.194 198.771 113.731 198.322C114.278 197.863 114.942 197.507 115.724 197.253C116.515 196.989 117.403 196.857 118.39 196.857C119.767 196.857 120.948 197.077 121.935 197.517C122.931 197.956 123.692 198.562 124.22 199.333C124.757 200.095 125.025 200.964 125.025 201.94H120.807C120.807 201.53 120.719 201.164 120.543 200.842C120.377 200.51 120.113 200.251 119.752 200.065C119.4 199.87 118.941 199.772 118.375 199.772C117.906 199.772 117.501 199.855 117.159 200.021C116.817 200.178 116.554 200.393 116.368 200.666C116.192 200.93 116.104 201.223 116.104 201.545C116.104 201.789 116.153 202.009 116.251 202.204C116.358 202.39 116.529 202.561 116.764 202.717C116.998 202.873 117.301 203.02 117.672 203.156C118.053 203.283 118.521 203.4 119.078 203.508C120.221 203.742 121.241 204.05 122.14 204.431C123.038 204.802 123.751 205.31 124.278 205.954C124.806 206.589 125.069 207.424 125.069 208.459C125.069 209.162 124.913 209.807 124.601 210.393C124.288 210.979 123.839 211.491 123.253 211.931C122.667 212.36 121.964 212.697 121.144 212.941C120.333 213.176 119.42 213.293 118.404 213.293C116.93 213.293 115.68 213.029 114.654 212.502C113.639 211.975 112.867 211.306 112.34 210.495C111.822 209.675 111.563 208.835 111.563 207.976H115.562C115.582 208.552 115.729 209.016 116.002 209.367C116.285 209.719 116.642 209.973 117.071 210.129C117.511 210.285 117.984 210.363 118.492 210.363C119.039 210.363 119.493 210.29 119.854 210.144C120.216 209.987 120.489 209.782 120.675 209.528C120.87 209.265 120.968 208.962 120.968 208.62ZM136.378 208.62C136.378 208.317 136.29 208.044 136.114 207.8C135.938 207.556 135.611 207.331 135.133 207.126C134.664 206.911 133.985 206.716 133.097 206.54C132.296 206.364 131.549 206.145 130.855 205.881C130.172 205.607 129.576 205.28 129.068 204.899C128.57 204.519 128.18 204.069 127.896 203.552C127.613 203.024 127.472 202.424 127.472 201.75C127.472 201.086 127.613 200.461 127.896 199.875C128.189 199.289 128.604 198.771 129.142 198.322C129.688 197.863 130.353 197.507 131.134 197.253C131.925 196.989 132.813 196.857 133.8 196.857C135.177 196.857 136.358 197.077 137.345 197.517C138.341 197.956 139.103 198.562 139.63 199.333C140.167 200.095 140.436 200.964 140.436 201.94H136.217C136.217 201.53 136.129 201.164 135.953 200.842C135.787 200.51 135.523 200.251 135.162 200.065C134.811 199.87 134.352 199.772 133.785 199.772C133.316 199.772 132.911 199.855 132.569 200.021C132.228 200.178 131.964 200.393 131.778 200.666C131.603 200.93 131.515 201.223 131.515 201.545C131.515 201.789 131.563 202.009 131.661 202.204C131.769 202.39 131.939 202.561 132.174 202.717C132.408 202.873 132.711 203.02 133.082 203.156C133.463 203.283 133.932 203.4 134.488 203.508C135.631 203.742 136.651 204.05 137.55 204.431C138.448 204.802 139.161 205.31 139.688 205.954C140.216 206.589 140.479 207.424 140.479 208.459C140.479 209.162 140.323 209.807 140.011 210.393C139.698 210.979 139.249 211.491 138.663 211.931C138.077 212.36 137.374 212.697 136.554 212.941C135.743 213.176 134.83 213.293 133.814 213.293C132.34 213.293 131.09 213.029 130.064 212.502C129.049 211.975 128.277 211.306 127.75 210.495C127.232 209.675 126.974 208.835 126.974 207.976H130.973C130.992 208.552 131.139 209.016 131.412 209.367C131.695 209.719 132.052 209.973 132.481 210.129C132.921 210.285 133.395 210.363 133.902 210.363C134.449 210.363 134.903 210.29 135.265 210.144C135.626 209.987 135.899 209.782 136.085 209.528C136.28 209.265 136.378 208.962 136.378 208.62ZM155.143 197.15V213H150.909V197.15H155.143ZM150.646 193.02C150.646 192.404 150.86 191.896 151.29 191.496C151.72 191.096 152.296 190.896 153.019 190.896C153.731 190.896 154.303 191.096 154.732 191.496C155.172 191.896 155.392 192.404 155.392 193.02C155.392 193.635 155.172 194.143 154.732 194.543C154.303 194.943 153.731 195.144 153.019 195.144C152.296 195.144 151.72 194.943 151.29 194.543C150.86 194.143 150.646 193.635 150.646 193.02ZM162.76 200.534V213H158.541V197.15H162.496L162.76 200.534ZM162.145 204.519H161.002C161.002 203.347 161.153 202.292 161.456 201.354C161.759 200.407 162.184 199.602 162.73 198.938C163.277 198.264 163.927 197.751 164.679 197.399C165.44 197.038 166.29 196.857 167.228 196.857C167.97 196.857 168.648 196.965 169.264 197.18C169.879 197.395 170.406 197.736 170.846 198.205C171.295 198.674 171.637 199.294 171.871 200.065C172.115 200.837 172.237 201.779 172.237 202.893V213H167.989V202.878C167.989 202.175 167.892 201.628 167.696 201.237C167.501 200.847 167.213 200.573 166.832 200.417C166.461 200.251 166.002 200.168 165.455 200.168C164.889 200.168 164.396 200.28 163.976 200.505C163.565 200.729 163.224 201.042 162.95 201.442C162.687 201.833 162.486 202.292 162.35 202.819C162.213 203.347 162.145 203.913 162.145 204.519ZM180.821 213H176.573V195.744C176.573 194.543 176.808 193.532 177.276 192.712C177.755 191.882 178.424 191.257 179.283 190.837C180.152 190.407 181.183 190.192 182.374 190.192C182.765 190.192 183.141 190.222 183.502 190.28C183.863 190.329 184.215 190.393 184.557 190.471L184.513 193.649C184.327 193.601 184.132 193.566 183.927 193.547C183.722 193.527 183.482 193.518 183.209 193.518C182.701 193.518 182.267 193.605 181.905 193.781C181.554 193.947 181.285 194.196 181.1 194.528C180.914 194.86 180.821 195.266 180.821 195.744V213ZM183.985 197.15V200.139H174.215V197.15H183.985ZM185.523 205.236V204.929C185.523 203.767 185.689 202.697 186.021 201.721C186.354 200.734 186.837 199.88 187.472 199.157C188.106 198.435 188.888 197.873 189.815 197.473C190.743 197.062 191.808 196.857 193.009 196.857C194.21 196.857 195.279 197.062 196.217 197.473C197.154 197.873 197.94 198.435 198.575 199.157C199.22 199.88 199.708 200.734 200.04 201.721C200.372 202.697 200.538 203.767 200.538 204.929V205.236C200.538 206.389 200.372 207.458 200.04 208.444C199.708 209.421 199.22 210.275 198.575 211.008C197.94 211.73 197.159 212.292 196.231 212.692C195.304 213.093 194.239 213.293 193.038 213.293C191.837 213.293 190.768 213.093 189.83 212.692C188.902 212.292 188.116 211.73 187.472 211.008C186.837 210.275 186.354 209.421 186.021 208.444C185.689 207.458 185.523 206.389 185.523 205.236ZM189.742 204.929V205.236C189.742 205.9 189.801 206.521 189.918 207.097C190.035 207.673 190.221 208.181 190.475 208.62C190.738 209.05 191.08 209.387 191.5 209.631C191.92 209.875 192.433 209.997 193.038 209.997C193.624 209.997 194.127 209.875 194.547 209.631C194.967 209.387 195.304 209.05 195.558 208.62C195.812 208.181 195.997 207.673 196.114 207.097C196.241 206.521 196.305 205.9 196.305 205.236V204.929C196.305 204.284 196.241 203.679 196.114 203.112C195.997 202.536 195.807 202.028 195.543 201.589C195.289 201.14 194.952 200.788 194.532 200.534C194.112 200.28 193.604 200.153 193.009 200.153C192.413 200.153 191.905 200.28 191.485 200.534C191.075 200.788 190.738 201.14 190.475 201.589C190.221 202.028 190.035 202.536 189.918 203.112C189.801 203.679 189.742 204.284 189.742 204.929Z" fill="white"/>
<rect x="40.5" y="54.5" width="173" height="26" rx="2.5" stroke="white" stroke-opacity="0.5" stroke-width="5"/>
<rect x="40.5" y="96.5" width="50" height="26" rx="2.5" stroke="white" stroke-opacity="0.5" stroke-width="5"/>
<rect x="108.5" y="96.5" width="108" height="26" rx="2.5" stroke="white" stroke-opacity="0.5" stroke-width="5"/>
</svg>
