<svg width="240" height="240" viewBox="0 0 240 240" fill="none" xmlns="http://www.w3.org/2000/svg">
<rect width="240" height="240" fill="white"/>
<rect x="10" y="10" width="220" height="220" rx="20" fill="#B5C1E4"/>
<path d="M35.481 161.227V179H31.8311V161.227H35.481ZM42.1338 168.612V179H38.6182V165.792H41.9141L42.1338 168.612ZM41.6211 171.932H40.6689C40.6689 170.956 40.7951 170.077 41.0474 169.295C41.2996 168.506 41.6536 167.835 42.1094 167.281C42.5651 166.72 43.1063 166.292 43.7329 166C44.3677 165.698 45.0757 165.548 45.8569 165.548C46.4754 165.548 47.041 165.637 47.5537 165.816C48.0664 165.995 48.5059 166.28 48.8721 166.671C49.2464 167.062 49.5312 167.578 49.7266 168.221C49.93 168.864 50.0317 169.649 50.0317 170.577V179H46.4917V170.565C46.4917 169.979 46.4103 169.523 46.2476 169.198C46.0848 168.872 45.8447 168.644 45.5273 168.514C45.2181 168.376 44.8356 168.307 44.3799 168.307C43.9079 168.307 43.4969 168.4 43.147 168.587C42.8052 168.775 42.5203 169.035 42.2925 169.369C42.0728 169.694 41.9059 170.077 41.792 170.516C41.6781 170.956 41.6211 171.428 41.6211 171.932ZM57.1973 176.437L60.127 165.792H63.8013L59.3457 179H57.124L57.1973 176.437ZM55.1831 165.792L58.125 176.449L58.186 179H55.9521L51.4966 165.792H55.1831ZM72.3096 176.021V170.138C72.3096 169.715 72.2404 169.352 72.1021 169.051C71.9637 168.742 71.748 168.502 71.4551 168.331C71.1702 168.16 70.8 168.075 70.3442 168.075C69.9536 168.075 69.6159 168.144 69.3311 168.282C69.0462 168.412 68.8265 168.604 68.6719 168.856C68.5173 169.1 68.4399 169.389 68.4399 169.723H64.9243C64.9243 169.161 65.0545 168.628 65.3149 168.124C65.5754 167.619 65.9538 167.175 66.4502 166.793C66.9466 166.402 67.5366 166.097 68.2202 165.877C68.9119 165.658 69.6851 165.548 70.5396 165.548C71.5649 165.548 72.4764 165.719 73.2739 166.061C74.0715 166.402 74.6981 166.915 75.1538 167.599C75.6177 168.282 75.8496 169.137 75.8496 170.162V175.814C75.8496 176.538 75.8944 177.132 75.9839 177.596C76.0734 178.052 76.2036 178.451 76.3745 178.792V179H72.8223C72.6514 178.642 72.5212 178.194 72.4316 177.657C72.3503 177.112 72.3096 176.567 72.3096 176.021ZM72.7734 170.956L72.7979 172.945H70.8325C70.3687 172.945 69.9658 172.998 69.624 173.104C69.2822 173.21 69.0015 173.36 68.7817 173.556C68.562 173.743 68.3993 173.963 68.2935 174.215C68.1958 174.467 68.147 174.744 68.147 175.045C68.147 175.346 68.2161 175.619 68.3545 175.863C68.4928 176.099 68.6922 176.286 68.9526 176.424C69.2131 176.555 69.5182 176.62 69.8682 176.62C70.3971 176.62 70.8569 176.514 71.2476 176.302C71.6382 176.091 71.9393 175.83 72.1509 175.521C72.3706 175.212 72.4845 174.919 72.4927 174.642L73.4204 176.131C73.2902 176.465 73.1112 176.811 72.8833 177.169C72.6636 177.527 72.3828 177.865 72.041 178.182C71.6992 178.491 71.2882 178.748 70.8081 178.951C70.328 179.146 69.7583 179.244 69.0991 179.244C68.2609 179.244 67.5 179.077 66.8164 178.744C66.141 178.402 65.6038 177.934 65.2051 177.34C64.8145 176.738 64.6191 176.054 64.6191 175.289C64.6191 174.597 64.7493 173.983 65.0098 173.446C65.2702 172.909 65.6527 172.457 66.1572 172.091C66.6699 171.716 67.3088 171.436 68.0737 171.249C68.8387 171.053 69.7257 170.956 70.7349 170.956H72.7734ZM82.2705 160.25V179H78.7427V160.25H82.2705ZM88.8867 165.792V179H85.3589V165.792H88.8867ZM85.1392 162.35C85.1392 161.837 85.3182 161.414 85.6763 161.08C86.0343 160.746 86.5145 160.58 87.1167 160.58C87.7108 160.58 88.1868 160.746 88.5449 161.08C88.9111 161.414 89.0942 161.837 89.0942 162.35C89.0942 162.862 88.9111 163.285 88.5449 163.619C88.1868 163.953 87.7108 164.12 87.1167 164.12C86.5145 164.12 86.0343 163.953 85.6763 163.619C85.3182 163.285 85.1392 162.862 85.1392 162.35ZM99.5923 176.119V160.25H103.132V179H99.9463L99.5923 176.119ZM91.2427 172.555V172.298C91.2427 171.289 91.3566 170.374 91.5845 169.552C91.8123 168.722 92.146 168.01 92.5854 167.416C93.0249 166.821 93.5661 166.362 94.209 166.036C94.8519 165.711 95.5843 165.548 96.4062 165.548C97.1794 165.548 97.8548 165.711 98.4326 166.036C99.0186 166.362 99.515 166.826 99.9219 167.428C100.337 168.022 100.671 168.726 100.923 169.54C101.175 170.345 101.358 171.228 101.472 172.188V172.75C101.358 173.67 101.175 174.524 100.923 175.313C100.671 176.103 100.337 176.795 99.9219 177.389C99.515 177.975 99.0186 178.43 98.4326 178.756C97.8467 179.081 97.1631 179.244 96.3818 179.244C95.5599 179.244 94.8275 179.077 94.1846 178.744C93.5498 178.41 93.0127 177.942 92.5732 177.34C92.1419 176.738 91.8123 176.03 91.5845 175.216C91.3566 174.402 91.2427 173.515 91.2427 172.555ZM94.7583 172.298V172.555C94.7583 173.1 94.799 173.609 94.8804 174.081C94.9699 174.553 95.1123 174.972 95.3076 175.338C95.5111 175.696 95.7715 175.977 96.0889 176.18C96.4144 176.375 96.8091 176.473 97.2729 176.473C97.8752 176.473 98.3716 176.339 98.7622 176.07C99.1528 175.794 99.4499 175.415 99.6533 174.935C99.8649 174.455 99.987 173.902 100.02 173.275V171.676C99.9951 171.163 99.9219 170.703 99.7998 170.296C99.6859 169.881 99.515 169.527 99.2871 169.234C99.0674 168.941 98.7907 168.714 98.457 168.551C98.1315 168.388 97.745 168.307 97.2974 168.307C96.8416 168.307 96.451 168.412 96.1255 168.624C95.8 168.827 95.5355 169.108 95.332 169.466C95.1367 169.824 94.9902 170.248 94.8926 170.736C94.8031 171.216 94.7583 171.737 94.7583 172.298ZM119.905 176.119V160.25H123.445V179H120.259L119.905 176.119ZM111.555 172.555V172.298C111.555 171.289 111.669 170.374 111.897 169.552C112.125 168.722 112.458 168.01 112.898 167.416C113.337 166.821 113.879 166.362 114.521 166.036C115.164 165.711 115.897 165.548 116.719 165.548C117.492 165.548 118.167 165.711 118.745 166.036C119.331 166.362 119.827 166.826 120.234 167.428C120.649 168.022 120.983 168.726 121.235 169.54C121.488 170.345 121.671 171.228 121.785 172.188V172.75C121.671 173.67 121.488 174.524 121.235 175.313C120.983 176.103 120.649 176.795 120.234 177.389C119.827 177.975 119.331 178.43 118.745 178.756C118.159 179.081 117.476 179.244 116.694 179.244C115.872 179.244 115.14 179.077 114.497 178.744C113.862 178.41 113.325 177.942 112.886 177.34C112.454 176.738 112.125 176.03 111.897 175.216C111.669 174.402 111.555 173.515 111.555 172.555ZM115.071 172.298V172.555C115.071 173.1 115.111 173.609 115.193 174.081C115.282 174.553 115.425 174.972 115.62 175.338C115.824 175.696 116.084 175.977 116.401 176.18C116.727 176.375 117.122 176.473 117.585 176.473C118.188 176.473 118.684 176.339 119.075 176.07C119.465 175.794 119.762 175.415 119.966 174.935C120.177 174.455 120.299 173.902 120.332 173.275V171.676C120.308 171.163 120.234 170.703 120.112 170.296C119.998 169.881 119.827 169.527 119.6 169.234C119.38 168.941 119.103 168.714 118.77 168.551C118.444 168.388 118.057 168.307 117.61 168.307C117.154 168.307 116.764 168.412 116.438 168.624C116.112 168.827 115.848 169.108 115.645 169.466C115.449 169.824 115.303 170.248 115.205 170.736C115.116 171.216 115.071 171.737 115.071 172.298ZM133.32 176.021V170.138C133.32 169.715 133.251 169.352 133.113 169.051C132.974 168.742 132.759 168.502 132.466 168.331C132.181 168.16 131.811 168.075 131.355 168.075C130.964 168.075 130.627 168.144 130.342 168.282C130.057 168.412 129.837 168.604 129.683 168.856C129.528 169.1 129.451 169.389 129.451 169.723H125.935C125.935 169.161 126.065 168.628 126.326 168.124C126.586 167.619 126.965 167.175 127.461 166.793C127.957 166.402 128.547 166.097 129.231 165.877C129.923 165.658 130.696 165.548 131.55 165.548C132.576 165.548 133.487 165.719 134.285 166.061C135.082 166.402 135.709 166.915 136.165 167.599C136.628 168.282 136.86 169.137 136.86 170.162V175.814C136.86 176.538 136.905 177.132 136.995 177.596C137.084 178.052 137.214 178.451 137.385 178.792V179H133.833C133.662 178.642 133.532 178.194 133.442 177.657C133.361 177.112 133.32 176.567 133.32 176.021ZM133.784 170.956L133.809 172.945H131.843C131.379 172.945 130.977 172.998 130.635 173.104C130.293 173.21 130.012 173.36 129.792 173.556C129.573 173.743 129.41 173.963 129.304 174.215C129.207 174.467 129.158 174.744 129.158 175.045C129.158 175.346 129.227 175.619 129.365 175.863C129.504 176.099 129.703 176.286 129.963 176.424C130.224 176.555 130.529 176.62 130.879 176.62C131.408 176.62 131.868 176.514 132.258 176.302C132.649 176.091 132.95 175.83 133.162 175.521C133.381 175.212 133.495 174.919 133.503 174.642L134.431 176.131C134.301 176.465 134.122 176.811 133.894 177.169C133.674 177.527 133.394 177.865 133.052 178.182C132.71 178.491 132.299 178.748 131.819 178.951C131.339 179.146 130.769 179.244 130.11 179.244C129.272 179.244 128.511 179.077 127.827 178.744C127.152 178.402 126.615 177.934 126.216 177.34C125.825 176.738 125.63 176.054 125.63 175.289C125.63 174.597 125.76 173.983 126.021 173.446C126.281 172.909 126.663 172.457 127.168 172.091C127.681 171.716 128.319 171.436 129.084 171.249C129.849 171.053 130.736 170.956 131.746 170.956H133.784ZM146.04 165.792V168.282H138.35V165.792H146.04ZM140.254 162.533H143.77V175.021C143.77 175.403 143.818 175.696 143.916 175.899C144.022 176.103 144.176 176.245 144.38 176.327C144.583 176.4 144.84 176.437 145.149 176.437C145.369 176.437 145.564 176.428 145.735 176.412C145.914 176.388 146.064 176.363 146.187 176.339L146.199 178.927C145.898 179.024 145.572 179.102 145.222 179.159C144.872 179.216 144.486 179.244 144.062 179.244C143.289 179.244 142.614 179.118 142.036 178.866C141.466 178.605 141.027 178.19 140.718 177.621C140.409 177.051 140.254 176.302 140.254 175.375V162.533ZM155.171 176.021V170.138C155.171 169.715 155.102 169.352 154.963 169.051C154.825 168.742 154.609 168.502 154.316 168.331C154.032 168.16 153.661 168.075 153.206 168.075C152.815 168.075 152.477 168.144 152.192 168.282C151.908 168.412 151.688 168.604 151.533 168.856C151.379 169.1 151.301 169.389 151.301 169.723H147.786C147.786 169.161 147.916 168.628 148.176 168.124C148.437 167.619 148.815 167.175 149.312 166.793C149.808 166.402 150.398 166.097 151.082 165.877C151.773 165.658 152.546 165.548 153.401 165.548C154.426 165.548 155.338 165.719 156.135 166.061C156.933 166.402 157.559 166.915 158.015 167.599C158.479 168.282 158.711 169.137 158.711 170.162V175.814C158.711 176.538 158.756 177.132 158.845 177.596C158.935 178.052 159.065 178.451 159.236 178.792V179H155.684C155.513 178.642 155.382 178.194 155.293 177.657C155.212 177.112 155.171 176.567 155.171 176.021ZM155.635 170.956L155.659 172.945H153.694C153.23 172.945 152.827 172.998 152.485 173.104C152.144 173.21 151.863 173.36 151.643 173.556C151.423 173.743 151.261 173.963 151.155 174.215C151.057 174.467 151.008 174.744 151.008 175.045C151.008 175.346 151.077 175.619 151.216 175.863C151.354 176.099 151.554 176.286 151.814 176.424C152.074 176.555 152.38 176.62 152.729 176.62C153.258 176.62 153.718 176.514 154.109 176.302C154.5 176.091 154.801 175.83 155.012 175.521C155.232 175.212 155.346 174.919 155.354 174.642L156.282 176.131C156.152 176.465 155.972 176.811 155.745 177.169C155.525 177.527 155.244 177.865 154.902 178.182C154.561 178.491 154.15 178.748 153.669 178.951C153.189 179.146 152.62 179.244 151.96 179.244C151.122 179.244 150.361 179.077 149.678 178.744C149.002 178.402 148.465 177.934 148.066 177.34C147.676 176.738 147.48 176.054 147.48 175.289C147.48 174.597 147.611 173.983 147.871 173.446C148.132 172.909 148.514 172.457 149.019 172.091C149.531 171.716 150.17 171.436 150.935 171.249C151.7 171.053 152.587 170.956 153.596 170.956H155.635ZM161.421 160.25H164.937V175.973L164.583 179H161.421V160.25ZM173.298 172.262V172.518C173.298 173.503 173.193 174.406 172.981 175.228C172.778 176.05 172.46 176.762 172.029 177.364C171.597 177.958 171.06 178.422 170.417 178.756C169.783 179.081 169.034 179.244 168.171 179.244C167.366 179.244 166.666 179.081 166.072 178.756C165.486 178.43 164.993 177.971 164.595 177.376C164.196 176.782 163.875 176.087 163.63 175.289C163.386 174.492 163.203 173.621 163.081 172.677V172.115C163.203 171.171 163.386 170.3 163.63 169.503C163.875 168.705 164.196 168.01 164.595 167.416C164.993 166.821 165.486 166.362 166.072 166.036C166.658 165.711 167.349 165.548 168.147 165.548C169.018 165.548 169.775 165.715 170.417 166.048C171.069 166.374 171.606 166.838 172.029 167.44C172.46 168.034 172.778 168.742 172.981 169.564C173.193 170.378 173.298 171.277 173.298 172.262ZM169.783 172.518V172.262C169.783 171.725 169.742 171.22 169.661 170.748C169.587 170.268 169.457 169.849 169.27 169.491C169.083 169.125 168.826 168.836 168.501 168.624C168.184 168.412 167.773 168.307 167.268 168.307C166.788 168.307 166.381 168.388 166.047 168.551C165.714 168.714 165.437 168.941 165.217 169.234C165.006 169.527 164.847 169.877 164.741 170.284C164.635 170.683 164.57 171.122 164.546 171.603V173.202C164.57 173.845 164.676 174.414 164.863 174.911C165.059 175.399 165.352 175.785 165.742 176.07C166.141 176.347 166.658 176.485 167.292 176.485C167.789 176.485 168.2 176.388 168.525 176.192C168.851 175.997 169.103 175.72 169.282 175.362C169.469 175.004 169.6 174.585 169.673 174.105C169.746 173.617 169.783 173.088 169.783 172.518ZM182.612 176.021V170.138C182.612 169.715 182.543 169.352 182.405 169.051C182.266 168.742 182.051 168.502 181.758 168.331C181.473 168.16 181.103 168.075 180.647 168.075C180.256 168.075 179.919 168.144 179.634 168.282C179.349 168.412 179.129 168.604 178.975 168.856C178.82 169.1 178.743 169.389 178.743 169.723H175.227C175.227 169.161 175.357 168.628 175.618 168.124C175.878 167.619 176.257 167.175 176.753 166.793C177.249 166.402 177.839 166.097 178.523 165.877C179.215 165.658 179.988 165.548 180.842 165.548C181.868 165.548 182.779 165.719 183.577 166.061C184.374 166.402 185.001 166.915 185.457 167.599C185.92 168.282 186.152 169.137 186.152 170.162V175.814C186.152 176.538 186.197 177.132 186.287 177.596C186.376 178.052 186.506 178.451 186.677 178.792V179H183.125C182.954 178.642 182.824 178.194 182.734 177.657C182.653 177.112 182.612 176.567 182.612 176.021ZM183.076 170.956L183.101 172.945H181.135C180.671 172.945 180.269 172.998 179.927 173.104C179.585 173.21 179.304 173.36 179.084 173.556C178.865 173.743 178.702 173.963 178.596 174.215C178.499 174.467 178.45 174.744 178.45 175.045C178.45 175.346 178.519 175.619 178.657 175.863C178.796 176.099 178.995 176.286 179.255 176.424C179.516 176.555 179.821 176.62 180.171 176.62C180.7 176.62 181.16 176.514 181.55 176.302C181.941 176.091 182.242 175.83 182.454 175.521C182.673 175.212 182.787 174.919 182.795 174.642L183.723 176.131C183.593 176.465 183.414 176.811 183.186 177.169C182.966 177.527 182.686 177.865 182.344 178.182C182.002 178.491 181.591 178.748 181.111 178.951C180.631 179.146 180.061 179.244 179.402 179.244C178.564 179.244 177.803 179.077 177.119 178.744C176.444 178.402 175.907 177.934 175.508 177.34C175.117 176.738 174.922 176.054 174.922 175.289C174.922 174.597 175.052 173.983 175.312 173.446C175.573 172.909 175.955 172.457 176.46 172.091C176.973 171.716 177.611 171.436 178.376 171.249C179.141 171.053 180.028 170.956 181.038 170.956H183.076ZM196.003 175.35C196.003 175.098 195.93 174.87 195.784 174.667C195.637 174.463 195.365 174.276 194.966 174.105C194.575 173.926 194.01 173.763 193.269 173.617C192.602 173.47 191.979 173.287 191.401 173.067C190.832 172.84 190.335 172.567 189.912 172.25C189.497 171.932 189.172 171.558 188.936 171.126C188.7 170.687 188.582 170.187 188.582 169.625C188.582 169.072 188.7 168.551 188.936 168.062C189.18 167.574 189.526 167.143 189.973 166.769C190.429 166.386 190.982 166.089 191.633 165.877C192.292 165.658 193.033 165.548 193.855 165.548C195.002 165.548 195.987 165.731 196.809 166.097C197.639 166.463 198.274 166.968 198.713 167.611C199.161 168.246 199.385 168.97 199.385 169.784H195.869C195.869 169.442 195.796 169.137 195.649 168.868C195.511 168.591 195.291 168.376 194.99 168.221C194.697 168.058 194.315 167.977 193.843 167.977C193.452 167.977 193.114 168.046 192.83 168.185C192.545 168.315 192.325 168.494 192.17 168.722C192.024 168.941 191.951 169.186 191.951 169.454C191.951 169.658 191.991 169.841 192.073 170.003C192.162 170.158 192.305 170.3 192.5 170.431C192.695 170.561 192.948 170.683 193.257 170.797C193.574 170.903 193.965 171 194.429 171.09C195.381 171.285 196.231 171.542 196.98 171.859C197.729 172.168 198.323 172.591 198.762 173.128C199.202 173.657 199.421 174.353 199.421 175.216C199.421 175.802 199.291 176.339 199.031 176.827C198.77 177.315 198.396 177.743 197.908 178.109C197.419 178.467 196.833 178.748 196.15 178.951C195.474 179.146 194.714 179.244 193.867 179.244C192.638 179.244 191.597 179.024 190.742 178.585C189.896 178.146 189.253 177.588 188.813 176.913C188.382 176.229 188.167 175.529 188.167 174.813H191.499C191.515 175.293 191.637 175.68 191.865 175.973C192.101 176.266 192.398 176.477 192.756 176.607C193.123 176.738 193.517 176.803 193.94 176.803C194.396 176.803 194.775 176.742 195.076 176.62C195.377 176.489 195.605 176.319 195.759 176.107C195.922 175.887 196.003 175.635 196.003 175.35ZM207.783 179.244C206.758 179.244 205.838 179.081 205.024 178.756C204.211 178.422 203.519 177.962 202.949 177.376C202.388 176.791 201.956 176.111 201.655 175.338C201.354 174.557 201.204 173.727 201.204 172.848V172.359C201.204 171.358 201.346 170.443 201.631 169.613C201.916 168.783 202.323 168.062 202.852 167.452C203.389 166.842 204.04 166.374 204.805 166.048C205.57 165.715 206.432 165.548 207.393 165.548C208.328 165.548 209.159 165.702 209.883 166.012C210.607 166.321 211.213 166.76 211.702 167.33C212.198 167.9 212.572 168.583 212.825 169.381C213.077 170.17 213.203 171.049 213.203 172.018V173.482H202.705V171.139H209.749V170.87C209.749 170.382 209.659 169.946 209.48 169.564C209.309 169.173 209.049 168.864 208.699 168.636C208.349 168.408 207.901 168.294 207.356 168.294C206.892 168.294 206.493 168.396 206.16 168.6C205.826 168.803 205.553 169.088 205.342 169.454C205.138 169.82 204.984 170.252 204.878 170.748C204.78 171.236 204.731 171.773 204.731 172.359V172.848C204.731 173.377 204.805 173.865 204.951 174.312C205.106 174.76 205.321 175.147 205.598 175.472C205.883 175.798 206.225 176.05 206.624 176.229C207.03 176.408 207.49 176.498 208.003 176.498C208.638 176.498 209.228 176.375 209.773 176.131C210.326 175.879 210.802 175.501 211.201 174.996L212.91 176.852C212.633 177.25 212.255 177.633 211.775 177.999C211.303 178.365 210.733 178.666 210.066 178.902C209.399 179.13 208.638 179.244 207.783 179.244ZM35.7617 208H32.2339V194.194C32.2339 193.071 32.4618 192.123 32.9175 191.35C33.3813 190.576 34.0405 189.991 34.895 189.592C35.7576 189.193 36.7993 188.994 38.02 188.994C38.7118 188.994 39.3831 189.063 40.0342 189.201C40.6852 189.331 41.3566 189.502 42.0483 189.714L41.5356 192.534C41.0881 192.395 40.6079 192.265 40.0952 192.143C39.5825 192.021 38.964 191.96 38.2397 191.96C37.4259 191.96 36.8075 192.151 36.3843 192.534C35.9692 192.908 35.7617 193.461 35.7617 194.194V208ZM38.3862 194.792V197.282H30.2686V194.792H38.3862ZM43.6841 194.792V208H40.1562V194.792H43.6841ZM52.7051 208.244C51.6797 208.244 50.7601 208.081 49.9463 207.756C49.1325 207.422 48.4408 206.962 47.8711 206.376C47.3096 205.791 46.8783 205.111 46.5771 204.338C46.276 203.557 46.1255 202.727 46.1255 201.848V201.359C46.1255 200.358 46.2679 199.443 46.5527 198.613C46.8376 197.783 47.2445 197.062 47.7734 196.452C48.3105 195.842 48.9616 195.374 49.7266 195.048C50.4915 194.715 51.3542 194.548 52.3145 194.548C53.2503 194.548 54.0804 194.702 54.8047 195.012C55.529 195.321 56.1353 195.76 56.6235 196.33C57.12 196.9 57.4943 197.583 57.7466 198.381C57.9989 199.17 58.125 200.049 58.125 201.018V202.482H47.627V200.139H54.6704V199.87C54.6704 199.382 54.5809 198.946 54.4019 198.564C54.231 198.173 53.9705 197.864 53.6206 197.636C53.2707 197.408 52.8231 197.294 52.2778 197.294C51.814 197.294 51.4152 197.396 51.0815 197.6C50.7479 197.803 50.4753 198.088 50.2637 198.454C50.0602 198.82 49.9056 199.252 49.7998 199.748C49.7021 200.236 49.6533 200.773 49.6533 201.359V201.848C49.6533 202.377 49.7266 202.865 49.873 203.312C50.0277 203.76 50.2433 204.147 50.52 204.472C50.8049 204.798 51.1466 205.05 51.5454 205.229C51.9523 205.408 52.4121 205.498 52.9248 205.498C53.5596 205.498 54.1496 205.375 54.6948 205.131C55.2482 204.879 55.7243 204.501 56.123 203.996L57.832 205.852C57.5553 206.25 57.1769 206.633 56.6968 206.999C56.2248 207.365 55.6551 207.666 54.9878 207.902C54.3205 208.13 53.5596 208.244 52.7051 208.244ZM63.8379 189.25V208H60.3101V189.25H63.8379ZM74.5435 205.119V189.25H78.0835V208H74.8975L74.5435 205.119ZM66.1938 201.555V201.298C66.1938 200.289 66.3078 199.374 66.5356 198.552C66.7635 197.722 67.0972 197.01 67.5366 196.416C67.9761 195.821 68.5173 195.362 69.1602 195.036C69.8031 194.711 70.5355 194.548 71.3574 194.548C72.1305 194.548 72.806 194.711 73.3838 195.036C73.9697 195.362 74.4661 195.826 74.873 196.428C75.2881 197.022 75.6217 197.726 75.874 198.54C76.1263 199.345 76.3094 200.228 76.4233 201.188V201.75C76.3094 202.67 76.1263 203.524 75.874 204.313C75.6217 205.103 75.2881 205.795 74.873 206.389C74.4661 206.975 73.9697 207.43 73.3838 207.756C72.7979 208.081 72.1143 208.244 71.333 208.244C70.5111 208.244 69.7786 208.077 69.1357 207.744C68.501 207.41 67.9639 206.942 67.5244 206.34C67.0931 205.738 66.7635 205.03 66.5356 204.216C66.3078 203.402 66.1938 202.515 66.1938 201.555ZM69.7095 201.298V201.555C69.7095 202.1 69.7502 202.609 69.8315 203.081C69.9211 203.553 70.0635 203.972 70.2588 204.338C70.4622 204.696 70.7227 204.977 71.04 205.18C71.3656 205.375 71.7603 205.473 72.2241 205.473C72.8263 205.473 73.3228 205.339 73.7134 205.07C74.104 204.794 74.401 204.415 74.6045 203.935C74.8161 203.455 74.9382 202.902 74.9707 202.275V200.676C74.9463 200.163 74.873 199.703 74.751 199.296C74.637 198.881 74.4661 198.527 74.2383 198.234C74.0186 197.941 73.7419 197.714 73.4082 197.551C73.0827 197.388 72.6961 197.307 72.2485 197.307C71.7928 197.307 71.4022 197.412 71.0767 197.624C70.7511 197.827 70.4867 198.108 70.2832 198.466C70.0879 198.824 69.9414 199.248 69.8438 199.736C69.7542 200.216 69.7095 200.737 69.7095 201.298ZM87.9712 204.35C87.9712 204.098 87.8979 203.87 87.7515 203.667C87.605 203.463 87.3324 203.276 86.9336 203.105C86.543 202.926 85.9774 202.763 85.2368 202.617C84.5695 202.47 83.9469 202.287 83.3691 202.067C82.7995 201.84 82.3031 201.567 81.8799 201.25C81.4648 200.932 81.1393 200.558 80.9033 200.126C80.6673 199.687 80.5493 199.187 80.5493 198.625C80.5493 198.072 80.6673 197.551 80.9033 197.062C81.1475 196.574 81.4933 196.143 81.9409 195.769C82.3966 195.386 82.95 195.089 83.6011 194.877C84.2603 194.658 85.0008 194.548 85.8228 194.548C86.9702 194.548 87.9549 194.731 88.7769 195.097C89.6069 195.463 90.2417 195.968 90.6812 196.611C91.1287 197.246 91.3525 197.97 91.3525 198.784H87.8369C87.8369 198.442 87.7637 198.137 87.6172 197.868C87.4788 197.591 87.2591 197.376 86.958 197.221C86.665 197.058 86.2826 196.977 85.8105 196.977C85.4199 196.977 85.0822 197.046 84.7974 197.185C84.5125 197.315 84.2928 197.494 84.1382 197.722C83.9917 197.941 83.9185 198.186 83.9185 198.454C83.9185 198.658 83.9591 198.841 84.0405 199.003C84.13 199.158 84.2725 199.3 84.4678 199.431C84.6631 199.561 84.9154 199.683 85.2246 199.797C85.542 199.903 85.9326 200 86.3965 200.09C87.3486 200.285 88.1991 200.542 88.9478 200.859C89.6965 201.168 90.2905 201.591 90.73 202.128C91.1694 202.657 91.3892 203.353 91.3892 204.216C91.3892 204.802 91.259 205.339 90.9985 205.827C90.7381 206.315 90.3638 206.743 89.8755 207.109C89.3872 207.467 88.8013 207.748 88.1177 207.951C87.4422 208.146 86.6813 208.244 85.835 208.244C84.6061 208.244 83.5645 208.024 82.71 207.585C81.8636 207.146 81.2207 206.588 80.7812 205.913C80.3499 205.229 80.1343 204.529 80.1343 203.813H83.4668C83.4831 204.293 83.6051 204.68 83.833 204.973C84.069 205.266 84.366 205.477 84.7241 205.607C85.0903 205.738 85.485 205.803 85.9082 205.803C86.3639 205.803 86.7424 205.742 87.0435 205.62C87.3446 205.489 87.5724 205.319 87.7271 205.107C87.8898 204.887 87.9712 204.635 87.9712 204.35Z" fill="white"/>
<ellipse cx="120" cy="64" rx="36" ry="11" fill="white" fill-opacity="0.5"/>
<path d="M122.441 79.9725C101.053 79.9725 90.2128 76.8516 84 71L85.5532 129.907C94.484 136.929 103.027 142 122.441 142C141.856 142 148.457 136.929 157 129.907V71C150.399 78.022 135.644 79.9725 122.441 79.9725Z" fill="white" fill-opacity="0.5"/>
</svg>
