<svg width="240" height="240" viewBox="0 0 240 240" fill="none" xmlns="http://www.w3.org/2000/svg">
<rect width="240" height="240" fill="white"/>
<rect x="10" y="10" width="220" height="220" rx="20" fill="#B2C1E7"/>
<path d="M42.5083 172.665H37.9795V169.808H42.5083C43.2082 169.808 43.7778 169.694 44.2173 169.466C44.6567 169.23 44.9782 168.905 45.1816 168.49C45.3851 168.075 45.4868 167.607 45.4868 167.086C45.4868 166.557 45.3851 166.065 45.1816 165.609C44.9782 165.153 44.6567 164.787 44.2173 164.51C43.7778 164.234 43.2082 164.095 42.5083 164.095H39.249V179H35.5869V161.227H42.5083C43.8999 161.227 45.0921 161.479 46.085 161.983C47.0859 162.48 47.8509 163.167 48.3799 164.046C48.9089 164.925 49.1733 165.93 49.1733 167.062C49.1733 168.209 48.9089 169.202 48.3799 170.04C47.8509 170.878 47.0859 171.525 46.085 171.981C45.0921 172.437 43.8999 172.665 42.5083 172.665ZM50.748 172.53V172.274C50.748 171.306 50.8864 170.414 51.1631 169.601C51.4398 168.779 51.8426 168.067 52.3716 167.464C52.9006 166.862 53.5516 166.394 54.3247 166.061C55.0978 165.719 55.9849 165.548 56.9858 165.548C57.9868 165.548 58.8779 165.719 59.6592 166.061C60.4404 166.394 61.0955 166.862 61.6245 167.464C62.1616 168.067 62.5685 168.779 62.8452 169.601C63.1219 170.414 63.2603 171.306 63.2603 172.274V172.53C63.2603 173.491 63.1219 174.382 62.8452 175.204C62.5685 176.017 62.1616 176.729 61.6245 177.34C61.0955 177.942 60.4445 178.41 59.6714 178.744C58.8983 179.077 58.0112 179.244 57.0103 179.244C56.0093 179.244 55.1182 179.077 54.3369 178.744C53.5638 178.41 52.9087 177.942 52.3716 177.34C51.8426 176.729 51.4398 176.017 51.1631 175.204C50.8864 174.382 50.748 173.491 50.748 172.53ZM54.2637 172.274V172.53C54.2637 173.084 54.3125 173.6 54.4102 174.081C54.5078 174.561 54.6624 174.984 54.874 175.35C55.0938 175.708 55.3786 175.989 55.7285 176.192C56.0785 176.396 56.5057 176.498 57.0103 176.498C57.4985 176.498 57.9176 176.396 58.2676 176.192C58.6175 175.989 58.8983 175.708 59.1099 175.35C59.3215 174.984 59.4761 174.561 59.5737 174.081C59.6795 173.6 59.7324 173.084 59.7324 172.53V172.274C59.7324 171.737 59.6795 171.232 59.5737 170.76C59.4761 170.28 59.3174 169.857 59.0977 169.491C58.8861 169.116 58.6053 168.823 58.2554 168.612C57.9054 168.4 57.4823 168.294 56.9858 168.294C56.4894 168.294 56.0662 168.4 55.7163 168.612C55.3745 168.823 55.0938 169.116 54.874 169.491C54.6624 169.857 54.5078 170.28 54.4102 170.76C54.3125 171.232 54.2637 171.737 54.2637 172.274ZM64.8594 172.53V172.274C64.8594 171.306 64.9977 170.414 65.2744 169.601C65.5511 168.779 65.9539 168.067 66.4829 167.464C67.0119 166.862 67.6629 166.394 68.436 166.061C69.2091 165.719 70.0962 165.548 71.0972 165.548C72.0981 165.548 72.9893 165.719 73.7705 166.061C74.5518 166.394 75.2069 166.862 75.7358 167.464C76.2729 168.067 76.6799 168.779 76.9565 169.601C77.2332 170.414 77.3716 171.306 77.3716 172.274V172.53C77.3716 173.491 77.2332 174.382 76.9565 175.204C76.6799 176.017 76.2729 176.729 75.7358 177.34C75.2069 177.942 74.5558 178.41 73.7827 178.744C73.0096 179.077 72.1226 179.244 71.1216 179.244C70.1206 179.244 69.2295 179.077 68.4482 178.744C67.6751 178.41 67.02 177.942 66.4829 177.34C65.9539 176.729 65.5511 176.017 65.2744 175.204C64.9977 174.382 64.8594 173.491 64.8594 172.53ZM68.375 172.274V172.53C68.375 173.084 68.4238 173.6 68.5215 174.081C68.6191 174.561 68.7738 174.984 68.9854 175.35C69.2051 175.708 69.4899 175.989 69.8398 176.192C70.1898 176.396 70.617 176.498 71.1216 176.498C71.6099 176.498 72.029 176.396 72.3789 176.192C72.7288 175.989 73.0096 175.708 73.2212 175.35C73.4328 174.984 73.5874 174.561 73.6851 174.081C73.7909 173.6 73.8438 173.084 73.8438 172.53V172.274C73.8438 171.737 73.7909 171.232 73.6851 170.76C73.5874 170.28 73.4287 169.857 73.209 169.491C72.9974 169.116 72.7166 168.823 72.3667 168.612C72.0168 168.4 71.5936 168.294 71.0972 168.294C70.6007 168.294 70.1776 168.4 69.8276 168.612C69.4858 168.823 69.2051 169.116 68.9854 169.491C68.7738 169.857 68.6191 170.28 68.5215 170.76C68.4238 171.232 68.375 171.737 68.375 172.274ZM83.0479 168.673V179H79.5322V165.792H82.8403L83.0479 168.673ZM87.0273 165.707L86.9663 168.966C86.7954 168.941 86.5879 168.921 86.3438 168.905C86.1077 168.88 85.8921 168.868 85.6968 168.868C85.2004 168.868 84.769 168.933 84.4028 169.063C84.0448 169.186 83.7437 169.369 83.4995 169.613C83.2635 169.857 83.0845 170.154 82.9624 170.504C82.8485 170.854 82.7834 171.253 82.7671 171.7L82.0591 171.48C82.0591 170.626 82.1445 169.841 82.3154 169.125C82.4863 168.4 82.7345 167.77 83.0601 167.232C83.3937 166.695 83.8006 166.28 84.2808 165.987C84.7609 165.694 85.3102 165.548 85.9287 165.548C86.124 165.548 86.3234 165.564 86.5269 165.597C86.7303 165.621 86.8971 165.658 87.0273 165.707ZM98.6851 175.582L101.432 165.792H103.666L102.945 169.637L100.199 179H98.3311L98.6851 175.582ZM97.2935 165.792L99.2588 175.57L99.4419 179H97.2446L93.8999 165.792H97.2935ZM106.18 175.411L108.097 165.792H111.502L108.158 179H105.973L106.18 175.411ZM103.971 165.792L106.705 175.509L107.083 179H105.204L102.457 169.649L101.761 165.792H103.971ZM120.401 176.021V170.138C120.401 169.715 120.332 169.352 120.194 169.051C120.056 168.742 119.84 168.502 119.547 168.331C119.262 168.16 118.892 168.075 118.436 168.075C118.045 168.075 117.708 168.144 117.423 168.282C117.138 168.412 116.918 168.604 116.764 168.856C116.609 169.1 116.532 169.389 116.532 169.723H113.016C113.016 169.161 113.146 168.628 113.407 168.124C113.667 167.619 114.046 167.175 114.542 166.793C115.038 166.402 115.628 166.097 116.312 165.877C117.004 165.658 117.777 165.548 118.631 165.548C119.657 165.548 120.568 165.719 121.366 166.061C122.163 166.402 122.79 166.915 123.246 167.599C123.709 168.282 123.941 169.137 123.941 170.162V175.814C123.941 176.538 123.986 177.132 124.076 177.596C124.165 178.052 124.295 178.451 124.466 178.792V179H120.914C120.743 178.642 120.613 178.194 120.523 177.657C120.442 177.112 120.401 176.567 120.401 176.021ZM120.865 170.956L120.89 172.945H118.924C118.46 172.945 118.058 172.998 117.716 173.104C117.374 173.21 117.093 173.36 116.874 173.556C116.654 173.743 116.491 173.963 116.385 174.215C116.288 174.467 116.239 174.744 116.239 175.045C116.239 175.346 116.308 175.619 116.446 175.863C116.585 176.099 116.784 176.286 117.044 176.424C117.305 176.555 117.61 176.62 117.96 176.62C118.489 176.62 118.949 176.514 119.339 176.302C119.73 176.091 120.031 175.83 120.243 175.521C120.462 175.212 120.576 174.919 120.584 174.642L121.512 176.131C121.382 176.465 121.203 176.811 120.975 177.169C120.755 177.527 120.475 177.865 120.133 178.182C119.791 178.491 119.38 178.748 118.9 178.951C118.42 179.146 117.85 179.244 117.191 179.244C116.353 179.244 115.592 179.077 114.908 178.744C114.233 178.402 113.696 177.934 113.297 177.34C112.906 176.738 112.711 176.054 112.711 175.289C112.711 174.597 112.841 173.983 113.102 173.446C113.362 172.909 113.744 172.457 114.249 172.091C114.762 171.716 115.401 171.436 116.166 171.249C116.931 171.053 117.818 170.956 118.827 170.956H120.865ZM130.167 168.673V179H126.651V165.792H129.959L130.167 168.673ZM134.146 165.707L134.085 168.966C133.915 168.941 133.707 168.921 133.463 168.905C133.227 168.88 133.011 168.868 132.816 168.868C132.319 168.868 131.888 168.933 131.522 169.063C131.164 169.186 130.863 169.369 130.619 169.613C130.383 169.857 130.204 170.154 130.082 170.504C129.968 170.854 129.903 171.253 129.886 171.7L129.178 171.48C129.178 170.626 129.264 169.841 129.435 169.125C129.605 168.4 129.854 167.77 130.179 167.232C130.513 166.695 130.92 166.28 131.4 165.987C131.88 165.694 132.429 165.548 133.048 165.548C133.243 165.548 133.443 165.564 133.646 165.597C133.849 165.621 134.016 165.658 134.146 165.707ZM141.642 179.244C140.616 179.244 139.697 179.081 138.883 178.756C138.069 178.422 137.377 177.962 136.808 177.376C136.246 176.791 135.815 176.111 135.514 175.338C135.213 174.557 135.062 173.727 135.062 172.848V172.359C135.062 171.358 135.204 170.443 135.489 169.613C135.774 168.783 136.181 168.062 136.71 167.452C137.247 166.842 137.898 166.374 138.663 166.048C139.428 165.715 140.291 165.548 141.251 165.548C142.187 165.548 143.017 165.702 143.741 166.012C144.465 166.321 145.072 166.76 145.56 167.33C146.056 167.9 146.431 168.583 146.683 169.381C146.935 170.17 147.062 171.049 147.062 172.018V173.482H136.563V171.139H143.607V170.87C143.607 170.382 143.517 169.946 143.338 169.564C143.167 169.173 142.907 168.864 142.557 168.636C142.207 168.408 141.76 168.294 141.214 168.294C140.75 168.294 140.352 168.396 140.018 168.6C139.684 168.803 139.412 169.088 139.2 169.454C138.997 169.82 138.842 170.252 138.736 170.748C138.639 171.236 138.59 171.773 138.59 172.359V172.848C138.59 173.377 138.663 173.865 138.81 174.312C138.964 174.76 139.18 175.147 139.457 175.472C139.741 175.798 140.083 176.05 140.482 176.229C140.889 176.408 141.349 176.498 141.861 176.498C142.496 176.498 143.086 176.375 143.631 176.131C144.185 175.879 144.661 175.501 145.06 174.996L146.769 176.852C146.492 177.25 146.113 177.633 145.633 177.999C145.161 178.365 144.592 178.666 143.924 178.902C143.257 179.13 142.496 179.244 141.642 179.244ZM152.494 160.25V179H148.978V160.25H152.494ZM151.993 171.932H151.029C151.037 171.013 151.159 170.166 151.395 169.393C151.631 168.612 151.969 167.936 152.408 167.367C152.848 166.789 153.373 166.341 153.983 166.024C154.601 165.707 155.285 165.548 156.034 165.548C156.685 165.548 157.275 165.641 157.804 165.829C158.341 166.008 158.801 166.301 159.183 166.708C159.574 167.106 159.875 167.631 160.086 168.282C160.298 168.933 160.404 169.723 160.404 170.65V179H156.864V170.626C156.864 170.04 156.778 169.58 156.607 169.247C156.445 168.905 156.205 168.665 155.887 168.526C155.578 168.38 155.195 168.307 154.74 168.307C154.235 168.307 153.804 168.4 153.446 168.587C153.096 168.775 152.815 169.035 152.604 169.369C152.392 169.694 152.237 170.077 152.14 170.516C152.042 170.956 151.993 171.428 151.993 171.932ZM162.516 172.53V172.274C162.516 171.306 162.654 170.414 162.931 169.601C163.207 168.779 163.61 168.067 164.139 167.464C164.668 166.862 165.319 166.394 166.092 166.061C166.865 165.719 167.752 165.548 168.753 165.548C169.754 165.548 170.646 165.719 171.427 166.061C172.208 166.394 172.863 166.862 173.392 167.464C173.929 168.067 174.336 168.779 174.613 169.601C174.889 170.414 175.028 171.306 175.028 172.274V172.53C175.028 173.491 174.889 174.382 174.613 175.204C174.336 176.017 173.929 176.729 173.392 177.34C172.863 177.942 172.212 178.41 171.439 178.744C170.666 179.077 169.779 179.244 168.778 179.244C167.777 179.244 166.886 179.077 166.104 178.744C165.331 178.41 164.676 177.942 164.139 177.34C163.61 176.729 163.207 176.017 162.931 175.204C162.654 174.382 162.516 173.491 162.516 172.53ZM166.031 172.274V172.53C166.031 173.084 166.08 173.6 166.178 174.081C166.275 174.561 166.43 174.984 166.642 175.35C166.861 175.708 167.146 175.989 167.496 176.192C167.846 176.396 168.273 176.498 168.778 176.498C169.266 176.498 169.685 176.396 170.035 176.192C170.385 175.989 170.666 175.708 170.877 175.35C171.089 174.984 171.244 174.561 171.341 174.081C171.447 173.6 171.5 173.084 171.5 172.53V172.274C171.5 171.737 171.447 171.232 171.341 170.76C171.244 170.28 171.085 169.857 170.865 169.491C170.654 169.116 170.373 168.823 170.023 168.612C169.673 168.4 169.25 168.294 168.753 168.294C168.257 168.294 167.834 168.4 167.484 168.612C167.142 168.823 166.861 169.116 166.642 169.491C166.43 169.857 166.275 170.28 166.178 170.76C166.08 171.232 166.031 171.737 166.031 172.274ZM185.001 175.838V165.792H188.517V179H185.208L185.001 175.838ZM185.392 173.128L186.429 173.104C186.429 173.983 186.327 174.801 186.124 175.558C185.921 176.306 185.615 176.957 185.208 177.511C184.802 178.056 184.289 178.483 183.67 178.792C183.052 179.094 182.324 179.244 181.485 179.244C180.842 179.244 180.248 179.155 179.703 178.976C179.166 178.788 178.702 178.5 178.312 178.109C177.929 177.71 177.628 177.201 177.408 176.583C177.197 175.956 177.091 175.204 177.091 174.325V165.792H180.606V174.349C180.606 174.74 180.651 175.069 180.741 175.338C180.838 175.606 180.973 175.826 181.144 175.997C181.314 176.168 181.514 176.29 181.742 176.363C181.978 176.437 182.238 176.473 182.523 176.473C183.247 176.473 183.817 176.327 184.232 176.034C184.655 175.741 184.952 175.342 185.123 174.837C185.302 174.325 185.392 173.755 185.392 173.128ZM198.343 175.35C198.343 175.098 198.27 174.87 198.124 174.667C197.977 174.463 197.704 174.276 197.306 174.105C196.915 173.926 196.349 173.763 195.609 173.617C194.942 173.47 194.319 173.287 193.741 173.067C193.172 172.84 192.675 172.567 192.252 172.25C191.837 171.932 191.511 171.558 191.275 171.126C191.039 170.687 190.921 170.187 190.921 169.625C190.921 169.072 191.039 168.551 191.275 168.062C191.52 167.574 191.865 167.143 192.313 166.769C192.769 166.386 193.322 166.089 193.973 165.877C194.632 165.658 195.373 165.548 196.195 165.548C197.342 165.548 198.327 165.731 199.149 166.097C199.979 166.463 200.614 166.968 201.053 167.611C201.501 168.246 201.725 168.97 201.725 169.784H198.209C198.209 169.442 198.136 169.137 197.989 168.868C197.851 168.591 197.631 168.376 197.33 168.221C197.037 168.058 196.655 167.977 196.183 167.977C195.792 167.977 195.454 168.046 195.169 168.185C194.885 168.315 194.665 168.494 194.51 168.722C194.364 168.941 194.291 169.186 194.291 169.454C194.291 169.658 194.331 169.841 194.413 170.003C194.502 170.158 194.645 170.3 194.84 170.431C195.035 170.561 195.287 170.683 195.597 170.797C195.914 170.903 196.305 171 196.769 171.09C197.721 171.285 198.571 171.542 199.32 171.859C200.069 172.168 200.663 172.591 201.102 173.128C201.542 173.657 201.761 174.353 201.761 175.216C201.761 175.802 201.631 176.339 201.371 176.827C201.11 177.315 200.736 177.743 200.248 178.109C199.759 178.467 199.173 178.748 198.49 178.951C197.814 179.146 197.053 179.244 196.207 179.244C194.978 179.244 193.937 179.024 193.082 178.585C192.236 178.146 191.593 177.588 191.153 176.913C190.722 176.229 190.506 175.529 190.506 174.813H193.839C193.855 175.293 193.977 175.68 194.205 175.973C194.441 176.266 194.738 176.477 195.096 176.607C195.462 176.738 195.857 176.803 196.28 176.803C196.736 176.803 197.114 176.742 197.416 176.62C197.717 176.489 197.944 176.319 198.099 176.107C198.262 175.887 198.343 175.635 198.343 175.35ZM210.123 179.244C209.098 179.244 208.178 179.081 207.364 178.756C206.55 178.422 205.859 177.962 205.289 177.376C204.728 176.791 204.296 176.111 203.995 175.338C203.694 174.557 203.543 173.727 203.543 172.848V172.359C203.543 171.358 203.686 170.443 203.971 169.613C204.256 168.783 204.662 168.062 205.191 167.452C205.729 166.842 206.38 166.374 207.145 166.048C207.91 165.715 208.772 165.548 209.732 165.548C210.668 165.548 211.498 165.702 212.223 166.012C212.947 166.321 213.553 166.76 214.042 167.33C214.538 167.9 214.912 168.583 215.165 169.381C215.417 170.17 215.543 171.049 215.543 172.018V173.482H205.045V171.139H212.088V170.87C212.088 170.382 211.999 169.946 211.82 169.564C211.649 169.173 211.389 168.864 211.039 168.636C210.689 168.408 210.241 168.294 209.696 168.294C209.232 168.294 208.833 168.396 208.5 168.6C208.166 168.803 207.893 169.088 207.682 169.454C207.478 169.82 207.324 170.252 207.218 170.748C207.12 171.236 207.071 171.773 207.071 172.359V172.848C207.071 173.377 207.145 173.865 207.291 174.312C207.446 174.76 207.661 175.147 207.938 175.472C208.223 175.798 208.565 176.05 208.963 176.229C209.37 176.408 209.83 176.498 210.343 176.498C210.978 176.498 211.568 176.375 212.113 176.131C212.666 175.879 213.142 175.501 213.541 174.996L215.25 176.852C214.973 177.25 214.595 177.633 214.115 177.999C213.643 178.365 213.073 178.666 212.406 178.902C211.738 179.13 210.978 179.244 210.123 179.244ZM40.8237 205.498C41.255 205.498 41.6375 205.416 41.9712 205.253C42.3049 205.083 42.5653 204.847 42.7524 204.545C42.9478 204.236 43.0495 203.874 43.0576 203.459H46.3657C46.3576 204.387 46.1094 205.213 45.6211 205.937C45.1328 206.653 44.4777 207.219 43.6558 207.634C42.8338 208.041 41.9142 208.244 40.897 208.244C39.8716 208.244 38.9764 208.073 38.2114 207.731C37.4546 207.39 36.8239 206.918 36.3193 206.315C35.8148 205.705 35.4364 204.997 35.1841 204.191C34.9318 203.378 34.8057 202.507 34.8057 201.579V201.225C34.8057 200.289 34.9318 199.418 35.1841 198.613C35.4364 197.799 35.8148 197.091 36.3193 196.489C36.8239 195.878 37.4546 195.402 38.2114 195.061C38.9683 194.719 39.8553 194.548 40.8726 194.548C41.9549 194.548 42.903 194.755 43.7168 195.17C44.5387 195.585 45.1816 196.18 45.6455 196.953C46.1175 197.718 46.3576 198.625 46.3657 199.675H43.0576C43.0495 199.235 42.9559 198.837 42.7769 198.479C42.606 198.12 42.3537 197.836 42.02 197.624C41.6945 197.404 41.2917 197.294 40.8115 197.294C40.2988 197.294 39.8797 197.404 39.5542 197.624C39.2287 197.836 38.9764 198.129 38.7974 198.503C38.6183 198.869 38.4922 199.288 38.4189 199.76C38.3538 200.224 38.3213 200.712 38.3213 201.225V201.579C38.3213 202.092 38.3538 202.584 38.4189 203.056C38.484 203.528 38.6061 203.947 38.7852 204.313C38.9723 204.68 39.2287 204.969 39.5542 205.18C39.8797 205.392 40.3029 205.498 40.8237 205.498ZM47.8428 201.53V201.274C47.8428 200.306 47.9811 199.414 48.2578 198.601C48.5345 197.779 48.9373 197.067 49.4663 196.464C49.9953 195.862 50.6463 195.394 51.4194 195.061C52.1925 194.719 53.0796 194.548 54.0806 194.548C55.0815 194.548 55.9727 194.719 56.7539 195.061C57.5352 195.394 58.1903 195.862 58.7192 196.464C59.2563 197.067 59.6632 197.779 59.9399 198.601C60.2166 199.414 60.355 200.306 60.355 201.274V201.53C60.355 202.491 60.2166 203.382 59.9399 204.204C59.6632 205.017 59.2563 205.729 58.7192 206.34C58.1903 206.942 57.5392 207.41 56.7661 207.744C55.993 208.077 55.106 208.244 54.105 208.244C53.104 208.244 52.2129 208.077 51.4316 207.744C50.6585 207.41 50.0034 206.942 49.4663 206.34C48.9373 205.729 48.5345 205.017 48.2578 204.204C47.9811 203.382 47.8428 202.491 47.8428 201.53ZM51.3584 201.274V201.53C51.3584 202.084 51.4072 202.6 51.5049 203.081C51.6025 203.561 51.7572 203.984 51.9688 204.35C52.1885 204.708 52.4733 204.989 52.8232 205.192C53.1732 205.396 53.6004 205.498 54.105 205.498C54.5933 205.498 55.0124 205.396 55.3623 205.192C55.7122 204.989 55.993 204.708 56.2046 204.35C56.4162 203.984 56.5708 203.561 56.6685 203.081C56.7743 202.6 56.8271 202.084 56.8271 201.53V201.274C56.8271 200.737 56.7743 200.232 56.6685 199.76C56.5708 199.28 56.4121 198.857 56.1924 198.491C55.9808 198.116 55.7 197.823 55.3501 197.612C55.0002 197.4 54.577 197.294 54.0806 197.294C53.5841 197.294 53.161 197.4 52.811 197.612C52.4692 197.823 52.1885 198.116 51.9688 198.491C51.7572 198.857 51.6025 199.28 51.5049 199.76C51.4072 200.232 51.3584 200.737 51.3584 201.274ZM65.958 197.612V208H62.4424V194.792H65.7383L65.958 197.612ZM65.4453 200.932H64.4932C64.4932 199.956 64.6193 199.077 64.8716 198.295C65.1239 197.506 65.4779 196.835 65.9336 196.281C66.3893 195.72 66.9305 195.292 67.5571 195C68.1919 194.698 68.8999 194.548 69.6812 194.548C70.2996 194.548 70.8652 194.637 71.3779 194.816C71.8906 194.995 72.3301 195.28 72.6963 195.671C73.0706 196.062 73.3555 196.578 73.5508 197.221C73.7542 197.864 73.856 198.649 73.856 199.577V208H70.3159V199.565C70.3159 198.979 70.2345 198.523 70.0718 198.198C69.909 197.872 69.6689 197.644 69.3516 197.514C69.0423 197.376 68.6598 197.307 68.2041 197.307C67.7321 197.307 67.3211 197.4 66.9712 197.587C66.6294 197.775 66.3446 198.035 66.1167 198.369C65.897 198.694 65.7301 199.077 65.6162 199.516C65.5023 199.956 65.4453 200.428 65.4453 200.932ZM84.3296 205.119V189.25H87.8696V208H84.6836L84.3296 205.119ZM75.98 201.555V201.298C75.98 200.289 76.0939 199.374 76.3218 198.552C76.5496 197.722 76.8833 197.01 77.3228 196.416C77.7622 195.821 78.3034 195.362 78.9463 195.036C79.5892 194.711 80.3216 194.548 81.1436 194.548C81.9167 194.548 82.5921 194.711 83.1699 195.036C83.7559 195.362 84.2523 195.826 84.6592 196.428C85.0742 197.022 85.4079 197.726 85.6602 198.54C85.9124 199.345 86.0955 200.228 86.2095 201.188V201.75C86.0955 202.67 85.9124 203.524 85.6602 204.313C85.4079 205.103 85.0742 205.795 84.6592 206.389C84.2523 206.975 83.7559 207.43 83.1699 207.756C82.584 208.081 81.9004 208.244 81.1191 208.244C80.2972 208.244 79.5648 208.077 78.9219 207.744C78.2871 207.41 77.75 206.942 77.3105 206.34C76.8792 205.738 76.5496 205.03 76.3218 204.216C76.0939 203.402 75.98 202.515 75.98 201.555ZM79.4956 201.298V201.555C79.4956 202.1 79.5363 202.609 79.6177 203.081C79.7072 203.553 79.8496 203.972 80.0449 204.338C80.2484 204.696 80.5088 204.977 80.8262 205.18C81.1517 205.375 81.5464 205.473 82.0103 205.473C82.6125 205.473 83.1089 205.339 83.4995 205.07C83.8901 204.794 84.1872 204.415 84.3906 203.935C84.6022 203.455 84.7243 202.902 84.7568 202.275V200.676C84.7324 200.163 84.6592 199.703 84.5371 199.296C84.4232 198.881 84.2523 198.527 84.0244 198.234C83.8047 197.941 83.528 197.714 83.1943 197.551C82.8688 197.388 82.4823 197.307 82.0347 197.307C81.5789 197.307 81.1883 197.412 80.8628 197.624C80.5373 197.827 80.2728 198.108 80.0693 198.466C79.874 198.824 79.7275 199.248 79.6299 199.736C79.5404 200.216 79.4956 200.737 79.4956 201.298ZM94.3271 194.792V208H90.7993V194.792H94.3271ZM90.5796 191.35C90.5796 190.837 90.7586 190.414 91.1167 190.08C91.4748 189.746 91.9549 189.58 92.5571 189.58C93.1512 189.58 93.6273 189.746 93.9854 190.08C94.3516 190.414 94.5347 190.837 94.5347 191.35C94.5347 191.862 94.3516 192.285 93.9854 192.619C93.6273 192.953 93.1512 193.12 92.5571 193.12C91.9549 193.12 91.4748 192.953 91.1167 192.619C90.7586 192.285 90.5796 191.862 90.5796 191.35ZM103.702 194.792V197.282H96.0117V194.792H103.702ZM97.916 191.533H101.432V204.021C101.432 204.403 101.48 204.696 101.578 204.899C101.684 205.103 101.839 205.245 102.042 205.327C102.245 205.4 102.502 205.437 102.811 205.437C103.031 205.437 103.226 205.428 103.397 205.412C103.576 205.388 103.727 205.363 103.849 205.339L103.861 207.927C103.56 208.024 103.234 208.102 102.884 208.159C102.534 208.216 102.148 208.244 101.725 208.244C100.951 208.244 100.276 208.118 99.6982 207.866C99.1286 207.605 98.6891 207.19 98.3799 206.621C98.0706 206.051 97.916 205.302 97.916 204.375V191.533ZM109.415 194.792V208H105.887V194.792H109.415ZM105.667 191.35C105.667 190.837 105.847 190.414 106.205 190.08C106.563 189.746 107.043 189.58 107.645 189.58C108.239 189.58 108.715 189.746 109.073 190.08C109.439 190.414 109.623 190.837 109.623 191.35C109.623 191.862 109.439 192.285 109.073 192.619C108.715 192.953 108.239 193.12 107.645 193.12C107.043 193.12 106.563 192.953 106.205 192.619C105.847 192.285 105.667 191.862 105.667 191.35ZM111.759 201.53V201.274C111.759 200.306 111.897 199.414 112.174 198.601C112.451 197.779 112.853 197.067 113.382 196.464C113.911 195.862 114.562 195.394 115.335 195.061C116.109 194.719 116.996 194.548 117.997 194.548C118.998 194.548 119.889 194.719 120.67 195.061C121.451 195.394 122.106 195.862 122.635 196.464C123.172 197.067 123.579 197.779 123.856 198.601C124.133 199.414 124.271 200.306 124.271 201.274V201.53C124.271 202.491 124.133 203.382 123.856 204.204C123.579 205.017 123.172 205.729 122.635 206.34C122.106 206.942 121.455 207.41 120.682 207.744C119.909 208.077 119.022 208.244 118.021 208.244C117.02 208.244 116.129 208.077 115.348 207.744C114.575 207.41 113.919 206.942 113.382 206.34C112.853 205.729 112.451 205.017 112.174 204.204C111.897 203.382 111.759 202.491 111.759 201.53ZM115.274 201.274V201.53C115.274 202.084 115.323 202.6 115.421 203.081C115.519 203.561 115.673 203.984 115.885 204.35C116.104 204.708 116.389 204.989 116.739 205.192C117.089 205.396 117.516 205.498 118.021 205.498C118.509 205.498 118.928 205.396 119.278 205.192C119.628 204.989 119.909 204.708 120.121 204.35C120.332 203.984 120.487 203.561 120.584 203.081C120.69 202.6 120.743 202.084 120.743 201.53V201.274C120.743 200.737 120.69 200.232 120.584 199.76C120.487 199.28 120.328 198.857 120.108 198.491C119.897 198.116 119.616 197.823 119.266 197.612C118.916 197.4 118.493 197.294 117.997 197.294C117.5 197.294 117.077 197.4 116.727 197.612C116.385 197.823 116.104 198.116 115.885 198.491C115.673 198.857 115.519 199.28 115.421 199.76C115.323 200.232 115.274 200.737 115.274 201.274ZM129.874 197.612V208H126.358V194.792H129.654L129.874 197.612ZM129.361 200.932H128.409C128.409 199.956 128.535 199.077 128.788 198.295C129.04 197.506 129.394 196.835 129.85 196.281C130.305 195.72 130.847 195.292 131.473 195C132.108 194.698 132.816 194.548 133.597 194.548C134.216 194.548 134.781 194.637 135.294 194.816C135.807 194.995 136.246 195.28 136.612 195.671C136.987 196.062 137.271 196.578 137.467 197.221C137.67 197.864 137.772 198.649 137.772 199.577V208H134.232V199.565C134.232 198.979 134.151 198.523 133.988 198.198C133.825 197.872 133.585 197.644 133.268 197.514C132.958 197.376 132.576 197.307 132.12 197.307C131.648 197.307 131.237 197.4 130.887 197.587C130.545 197.775 130.261 198.035 130.033 198.369C129.813 198.694 129.646 199.077 129.532 199.516C129.418 199.956 129.361 200.428 129.361 200.932ZM147.586 204.35C147.586 204.098 147.513 203.87 147.367 203.667C147.22 203.463 146.948 203.276 146.549 203.105C146.158 202.926 145.593 202.763 144.852 202.617C144.185 202.47 143.562 202.287 142.984 202.067C142.415 201.84 141.918 201.567 141.495 201.25C141.08 200.932 140.755 200.558 140.519 200.126C140.283 199.687 140.165 199.187 140.165 198.625C140.165 198.072 140.283 197.551 140.519 197.062C140.763 196.574 141.109 196.143 141.556 195.769C142.012 195.386 142.565 195.089 143.216 194.877C143.875 194.658 144.616 194.548 145.438 194.548C146.585 194.548 147.57 194.731 148.392 195.097C149.222 195.463 149.857 195.968 150.296 196.611C150.744 197.246 150.968 197.97 150.968 198.784H147.452C147.452 198.442 147.379 198.137 147.232 197.868C147.094 197.591 146.874 197.376 146.573 197.221C146.28 197.058 145.898 196.977 145.426 196.977C145.035 196.977 144.697 197.046 144.413 197.185C144.128 197.315 143.908 197.494 143.753 197.722C143.607 197.941 143.534 198.186 143.534 198.454C143.534 198.658 143.574 198.841 143.656 199.003C143.745 199.158 143.888 199.3 144.083 199.431C144.278 199.561 144.531 199.683 144.84 199.797C145.157 199.903 145.548 200 146.012 200.09C146.964 200.285 147.814 200.542 148.563 200.859C149.312 201.168 149.906 201.591 150.345 202.128C150.785 202.657 151.004 203.353 151.004 204.216C151.004 204.802 150.874 205.339 150.614 205.827C150.353 206.315 149.979 206.743 149.491 207.109C149.002 207.467 148.417 207.748 147.733 207.951C147.057 208.146 146.297 208.244 145.45 208.244C144.221 208.244 143.18 208.024 142.325 207.585C141.479 207.146 140.836 206.588 140.396 205.913C139.965 205.229 139.75 204.529 139.75 203.813H143.082C143.098 204.293 143.22 204.68 143.448 204.973C143.684 205.266 143.981 205.477 144.339 205.607C144.706 205.738 145.1 205.803 145.523 205.803C145.979 205.803 146.358 205.742 146.659 205.62C146.96 205.489 147.188 205.319 147.342 205.107C147.505 204.887 147.586 204.635 147.586 204.35Z" fill="white"/>
<rect x="105" y="28" width="30" height="121" rx="10" fill="white" fill-opacity="0.5"/>
<rect x="105" y="97" width="30" height="52" rx="10" fill="white" fill-opacity="0.5"/>
<rect x="105" y="51" width="19" height="4" fill="white" fill-opacity="0.5"/>
<rect x="105" y="40" width="19" height="4" fill="white" fill-opacity="0.5"/>
<rect x="105" y="63" width="19" height="4" fill="white" fill-opacity="0.5"/>
<rect x="105" y="75" width="19" height="4" fill="white" fill-opacity="0.5"/>
<rect x="105" y="86" width="19" height="4" fill="white" fill-opacity="0.5"/>
</svg>
