<svg width="242" height="242" viewBox="0 0 242 242" fill="none" xmlns="http://www.w3.org/2000/svg">
<rect width="242" height="242" fill="white"/>
<rect x="13" y="12" width="217" height="217" rx="20" fill="#B2DDAB"/>
<path d="M40.1992 164.781V179H37.2695V164.781H40.1992ZM45.8633 170.855V173.141H39.3984V170.855H45.8633ZM46.5469 164.781V167.076H39.3984V164.781H46.5469ZM51.0391 164V179H48.2168V164H51.0391ZM59.0664 176.617V171.91C59.0664 171.572 59.0111 171.282 58.9004 171.041C58.7897 170.794 58.6172 170.602 58.3828 170.465C58.1549 170.328 57.8587 170.26 57.4941 170.26C57.1816 170.26 56.9115 170.315 56.6836 170.426C56.4557 170.53 56.2799 170.683 56.1562 170.885C56.0326 171.08 55.9707 171.311 55.9707 171.578H53.1582C53.1582 171.129 53.2624 170.702 53.4707 170.299C53.679 169.895 53.9818 169.54 54.3789 169.234C54.776 168.922 55.248 168.678 55.7949 168.502C56.3483 168.326 56.9668 168.238 57.6504 168.238C58.4707 168.238 59.1999 168.375 59.8379 168.648C60.4759 168.922 60.9772 169.332 61.3418 169.879C61.7129 170.426 61.8984 171.109 61.8984 171.93V176.451C61.8984 177.031 61.9342 177.506 62.0059 177.877C62.0775 178.242 62.1816 178.561 62.3184 178.834V179H59.4766C59.3398 178.714 59.2357 178.355 59.1641 177.926C59.099 177.49 59.0664 177.053 59.0664 176.617ZM59.4375 172.564L59.457 174.156H57.8848C57.5137 174.156 57.1914 174.199 56.918 174.283C56.6445 174.368 56.4199 174.488 56.2441 174.645C56.0684 174.794 55.9382 174.97 55.8535 175.172C55.7754 175.374 55.7363 175.595 55.7363 175.836C55.7363 176.077 55.7917 176.295 55.9023 176.49C56.013 176.679 56.1725 176.829 56.3809 176.939C56.5892 177.044 56.8333 177.096 57.1133 177.096C57.5365 177.096 57.9043 177.011 58.2168 176.842C58.5293 176.673 58.7702 176.464 58.9395 176.217C59.1152 175.969 59.2064 175.735 59.2129 175.514L59.9551 176.705C59.8509 176.972 59.7077 177.249 59.5254 177.535C59.3496 177.822 59.125 178.092 58.8516 178.346C58.5781 178.593 58.2493 178.798 57.8652 178.961C57.4811 179.117 57.0254 179.195 56.498 179.195C55.8275 179.195 55.2188 179.062 54.6719 178.795C54.1315 178.521 53.7018 178.147 53.3828 177.672C53.0703 177.19 52.9141 176.643 52.9141 176.031C52.9141 175.478 53.0182 174.986 53.2266 174.557C53.4349 174.127 53.7409 173.766 54.1445 173.473C54.5547 173.173 55.0658 172.949 55.6777 172.799C56.2897 172.643 56.9993 172.564 57.8066 172.564H59.4375ZM70.7559 168.434H73.3047V178.648C73.3047 179.612 73.0898 180.429 72.6602 181.1C72.237 181.777 71.6445 182.288 70.8828 182.633C70.1211 182.984 69.2357 183.16 68.2266 183.16C67.7839 183.16 67.3151 183.102 66.8203 182.984C66.332 182.867 65.8633 182.685 65.4141 182.438C64.9714 182.19 64.6003 181.878 64.3008 181.5L65.541 179.84C65.8665 180.217 66.2441 180.51 66.6738 180.719C67.1035 180.934 67.5788 181.041 68.0996 181.041C68.6074 181.041 69.0371 180.947 69.3887 180.758C69.7402 180.576 70.0104 180.305 70.1992 179.947C70.388 179.596 70.4824 179.169 70.4824 178.668V170.875L70.7559 168.434ZM63.6465 173.844V173.639C63.6465 172.831 63.7441 172.099 63.9395 171.441C64.1413 170.777 64.4245 170.208 64.7891 169.732C65.1602 169.257 65.6094 168.889 66.1367 168.629C66.6641 168.368 67.2598 168.238 67.9238 168.238C68.627 168.238 69.2161 168.368 69.6914 168.629C70.1667 168.889 70.5573 169.26 70.8633 169.742C71.1693 170.217 71.4069 170.781 71.5762 171.432C71.752 172.076 71.8887 172.783 71.9863 173.551V174C71.8887 174.736 71.7422 175.419 71.5469 176.051C71.3516 176.682 71.0944 177.236 70.7754 177.711C70.4564 178.18 70.0592 178.544 69.584 178.805C69.1152 179.065 68.5553 179.195 67.9043 179.195C67.2533 179.195 66.6641 179.062 66.1367 178.795C65.6159 178.528 65.1699 178.154 64.7988 177.672C64.4277 177.19 64.1413 176.624 63.9395 175.973C63.7441 175.322 63.6465 174.612 63.6465 173.844ZM66.459 173.639V173.844C66.459 174.28 66.5013 174.687 66.5859 175.064C66.6706 175.442 66.8008 175.777 66.9766 176.07C67.1589 176.357 67.3835 176.581 67.6504 176.744C67.9238 176.9 68.2461 176.979 68.6172 176.979C69.1315 176.979 69.5514 176.871 69.877 176.656C70.2025 176.435 70.4466 176.132 70.6094 175.748C70.7721 175.364 70.8665 174.921 70.8926 174.42V173.141C70.8796 172.73 70.8242 172.363 70.7266 172.037C70.6289 171.705 70.4922 171.422 70.3164 171.188C70.1406 170.953 69.9128 170.771 69.6328 170.641C69.3529 170.51 69.0208 170.445 68.6367 170.445C68.2656 170.445 67.9434 170.53 67.6699 170.699C67.403 170.862 67.1784 171.087 66.9961 171.373C66.8203 171.66 66.6868 171.998 66.5957 172.389C66.5046 172.773 66.459 173.189 66.459 173.639ZM83.4414 164V179H80.6191V164H83.4414ZM91.4688 176.617V171.91C91.4688 171.572 91.4134 171.282 91.3027 171.041C91.1921 170.794 91.0195 170.602 90.7852 170.465C90.5573 170.328 90.2611 170.26 89.8965 170.26C89.584 170.26 89.3138 170.315 89.0859 170.426C88.8581 170.53 88.6823 170.683 88.5586 170.885C88.4349 171.08 88.373 171.311 88.373 171.578H85.5605C85.5605 171.129 85.6647 170.702 85.873 170.299C86.0814 169.895 86.3841 169.54 86.7812 169.234C87.1784 168.922 87.6504 168.678 88.1973 168.502C88.7507 168.326 89.3691 168.238 90.0527 168.238C90.873 168.238 91.6022 168.375 92.2402 168.648C92.8783 168.922 93.3796 169.332 93.7441 169.879C94.1152 170.426 94.3008 171.109 94.3008 171.93V176.451C94.3008 177.031 94.3366 177.506 94.4082 177.877C94.4798 178.242 94.584 178.561 94.7207 178.834V179H91.8789C91.7422 178.714 91.638 178.355 91.5664 177.926C91.5013 177.49 91.4688 177.053 91.4688 176.617ZM91.8398 172.564L91.8594 174.156H90.2871C89.916 174.156 89.5938 174.199 89.3203 174.283C89.0469 174.368 88.8223 174.488 88.6465 174.645C88.4707 174.794 88.3405 174.97 88.2559 175.172C88.1777 175.374 88.1387 175.595 88.1387 175.836C88.1387 176.077 88.194 176.295 88.3047 176.49C88.4154 176.679 88.5749 176.829 88.7832 176.939C88.9915 177.044 89.2357 177.096 89.5156 177.096C89.9388 177.096 90.3066 177.011 90.6191 176.842C90.9316 176.673 91.1725 176.464 91.3418 176.217C91.5176 175.969 91.6087 175.735 91.6152 175.514L92.3574 176.705C92.2533 176.972 92.11 177.249 91.9277 177.535C91.752 177.822 91.5273 178.092 91.2539 178.346C90.9805 178.593 90.6517 178.798 90.2676 178.961C89.8835 179.117 89.4277 179.195 88.9004 179.195C88.2298 179.195 87.6211 179.062 87.0742 178.795C86.5339 178.521 86.1042 178.147 85.7852 177.672C85.4727 177.19 85.3164 176.643 85.3164 176.031C85.3164 175.478 85.4206 174.986 85.6289 174.557C85.8372 174.127 86.1432 173.766 86.5469 173.473C86.957 173.173 87.4681 172.949 88.0801 172.799C88.6921 172.643 89.4017 172.564 90.209 172.564H91.8398ZM99.2812 170.738V179H96.4688V168.434H99.1152L99.2812 170.738ZM102.465 168.365L102.416 170.973C102.279 170.953 102.113 170.937 101.918 170.924C101.729 170.904 101.557 170.895 101.4 170.895C101.003 170.895 100.658 170.947 100.365 171.051C100.079 171.148 99.8379 171.295 99.6426 171.49C99.4538 171.686 99.3105 171.923 99.2129 172.203C99.1217 172.483 99.0697 172.802 99.0566 173.16L98.4902 172.984C98.4902 172.301 98.5586 171.673 98.6953 171.1C98.832 170.52 99.0306 170.016 99.291 169.586C99.5579 169.156 99.8835 168.824 100.268 168.59C100.652 168.355 101.091 168.238 101.586 168.238C101.742 168.238 101.902 168.251 102.064 168.277C102.227 168.297 102.361 168.326 102.465 168.365ZM110.287 168.434H112.836V178.648C112.836 179.612 112.621 180.429 112.191 181.1C111.768 181.777 111.176 182.288 110.414 182.633C109.652 182.984 108.767 183.16 107.758 183.16C107.315 183.16 106.846 183.102 106.352 182.984C105.863 182.867 105.395 182.685 104.945 182.438C104.503 182.19 104.132 181.878 103.832 181.5L105.072 179.84C105.398 180.217 105.775 180.51 106.205 180.719C106.635 180.934 107.11 181.041 107.631 181.041C108.139 181.041 108.568 180.947 108.92 180.758C109.271 180.576 109.542 180.305 109.73 179.947C109.919 179.596 110.014 179.169 110.014 178.668V170.875L110.287 168.434ZM103.178 173.844V173.639C103.178 172.831 103.275 172.099 103.471 171.441C103.673 170.777 103.956 170.208 104.32 169.732C104.691 169.257 105.141 168.889 105.668 168.629C106.195 168.368 106.791 168.238 107.455 168.238C108.158 168.238 108.747 168.368 109.223 168.629C109.698 168.889 110.089 169.26 110.395 169.742C110.701 170.217 110.938 170.781 111.107 171.432C111.283 172.076 111.42 172.783 111.518 173.551V174C111.42 174.736 111.273 175.419 111.078 176.051C110.883 176.682 110.626 177.236 110.307 177.711C109.988 178.18 109.59 178.544 109.115 178.805C108.646 179.065 108.087 179.195 107.436 179.195C106.785 179.195 106.195 179.062 105.668 178.795C105.147 178.528 104.701 178.154 104.33 177.672C103.959 177.19 103.673 176.624 103.471 175.973C103.275 175.322 103.178 174.612 103.178 173.844ZM105.99 173.639V173.844C105.99 174.28 106.033 174.687 106.117 175.064C106.202 175.442 106.332 175.777 106.508 176.07C106.69 176.357 106.915 176.581 107.182 176.744C107.455 176.9 107.777 176.979 108.148 176.979C108.663 176.979 109.083 176.871 109.408 176.656C109.734 176.435 109.978 176.132 110.141 175.748C110.303 175.364 110.398 174.921 110.424 174.42V173.141C110.411 172.73 110.355 172.363 110.258 172.037C110.16 171.705 110.023 171.422 109.848 171.188C109.672 170.953 109.444 170.771 109.164 170.641C108.884 170.51 108.552 170.445 108.168 170.445C107.797 170.445 107.475 170.53 107.201 170.699C106.934 170.862 106.71 171.087 106.527 171.373C106.352 171.66 106.218 171.998 106.127 172.389C106.036 172.773 105.99 173.189 105.99 173.639ZM119.887 179.195C119.066 179.195 118.331 179.065 117.68 178.805C117.029 178.538 116.475 178.17 116.02 177.701C115.57 177.232 115.225 176.689 114.984 176.07C114.743 175.445 114.623 174.781 114.623 174.078V173.688C114.623 172.887 114.737 172.154 114.965 171.49C115.193 170.826 115.518 170.25 115.941 169.762C116.371 169.273 116.892 168.899 117.504 168.639C118.116 168.372 118.806 168.238 119.574 168.238C120.323 168.238 120.987 168.362 121.566 168.609C122.146 168.857 122.631 169.208 123.021 169.664C123.419 170.12 123.718 170.667 123.92 171.305C124.122 171.936 124.223 172.639 124.223 173.414V174.586H115.824V172.711H121.459V172.496C121.459 172.105 121.387 171.757 121.244 171.451C121.107 171.139 120.899 170.891 120.619 170.709C120.339 170.527 119.981 170.436 119.545 170.436C119.174 170.436 118.855 170.517 118.588 170.68C118.321 170.842 118.103 171.07 117.934 171.363C117.771 171.656 117.647 172.001 117.562 172.398C117.484 172.789 117.445 173.219 117.445 173.688V174.078C117.445 174.501 117.504 174.892 117.621 175.25C117.745 175.608 117.917 175.917 118.139 176.178C118.367 176.438 118.64 176.64 118.959 176.783C119.285 176.926 119.652 176.998 120.062 176.998C120.57 176.998 121.042 176.9 121.479 176.705C121.921 176.503 122.302 176.201 122.621 175.797L123.988 177.281C123.767 177.6 123.464 177.906 123.08 178.199C122.702 178.492 122.247 178.733 121.713 178.922C121.179 179.104 120.57 179.195 119.887 179.195ZM42.2695 191.434V193.426H36.1172V191.434H42.2695ZM37.6406 188.826H40.4531V198.816C40.4531 199.122 40.4922 199.357 40.5703 199.52C40.6549 199.682 40.7786 199.796 40.9414 199.861C41.1042 199.92 41.3092 199.949 41.5566 199.949C41.7324 199.949 41.8887 199.943 42.0254 199.93C42.1686 199.91 42.2891 199.891 42.3867 199.871L42.3965 201.941C42.1556 202.02 41.8952 202.081 41.6152 202.127C41.3353 202.173 41.026 202.195 40.6875 202.195C40.069 202.195 39.5286 202.094 39.0664 201.893C38.6107 201.684 38.2591 201.352 38.0117 200.896C37.7643 200.441 37.6406 199.842 37.6406 199.1V188.826ZM46.6836 193.738V202H43.8711V191.434H46.5176L46.6836 193.738ZM49.8672 191.365L49.8184 193.973C49.6816 193.953 49.5156 193.937 49.3203 193.924C49.1315 193.904 48.959 193.895 48.8027 193.895C48.4056 193.895 48.0605 193.947 47.7676 194.051C47.4811 194.148 47.2402 194.295 47.0449 194.49C46.8561 194.686 46.7129 194.923 46.6152 195.203C46.5241 195.483 46.472 195.802 46.459 196.16L45.8926 195.984C45.8926 195.301 45.9609 194.673 46.0977 194.1C46.2344 193.52 46.4329 193.016 46.6934 192.586C46.9603 192.156 47.2858 191.824 47.6699 191.59C48.054 191.355 48.4935 191.238 48.9883 191.238C49.1445 191.238 49.304 191.251 49.4668 191.277C49.6296 191.297 49.763 191.326 49.8672 191.365ZM56.5664 199.617V194.91C56.5664 194.572 56.5111 194.282 56.4004 194.041C56.2897 193.794 56.1172 193.602 55.8828 193.465C55.6549 193.328 55.3587 193.26 54.9941 193.26C54.6816 193.26 54.4115 193.315 54.1836 193.426C53.9557 193.53 53.7799 193.683 53.6562 193.885C53.5326 194.08 53.4707 194.311 53.4707 194.578H50.6582C50.6582 194.129 50.7624 193.702 50.9707 193.299C51.179 192.895 51.4818 192.54 51.8789 192.234C52.276 191.922 52.748 191.678 53.2949 191.502C53.8483 191.326 54.4668 191.238 55.1504 191.238C55.9707 191.238 56.6999 191.375 57.3379 191.648C57.9759 191.922 58.4772 192.332 58.8418 192.879C59.2129 193.426 59.3984 194.109 59.3984 194.93V199.451C59.3984 200.031 59.4342 200.506 59.5059 200.877C59.5775 201.242 59.6816 201.561 59.8184 201.834V202H56.9766C56.8398 201.714 56.7357 201.355 56.6641 200.926C56.599 200.49 56.5664 200.053 56.5664 199.617ZM56.9375 195.564L56.957 197.156H55.3848C55.0137 197.156 54.6914 197.199 54.418 197.283C54.1445 197.368 53.9199 197.488 53.7441 197.645C53.5684 197.794 53.4382 197.97 53.3535 198.172C53.2754 198.374 53.2363 198.595 53.2363 198.836C53.2363 199.077 53.2917 199.295 53.4023 199.49C53.513 199.679 53.6725 199.829 53.8809 199.939C54.0892 200.044 54.3333 200.096 54.6133 200.096C55.0365 200.096 55.4043 200.011 55.7168 199.842C56.0293 199.673 56.2702 199.464 56.4395 199.217C56.6152 198.969 56.7064 198.735 56.7129 198.514L57.4551 199.705C57.3509 199.972 57.2077 200.249 57.0254 200.535C56.8496 200.822 56.625 201.092 56.3516 201.346C56.0781 201.593 55.7493 201.798 55.3652 201.961C54.9811 202.117 54.5254 202.195 53.998 202.195C53.3275 202.195 52.7188 202.062 52.1719 201.795C51.6315 201.521 51.2018 201.147 50.8828 200.672C50.5703 200.19 50.4141 199.643 50.4141 199.031C50.4141 198.478 50.5182 197.986 50.7266 197.557C50.9349 197.127 51.2409 196.766 51.6445 196.473C52.0547 196.173 52.5658 195.949 53.1777 195.799C53.7897 195.643 54.4993 195.564 55.3066 195.564H56.9375ZM64.3203 193.689V202H61.5078V191.434H64.1445L64.3203 193.689ZM63.9102 196.346H63.1484C63.1484 195.564 63.2493 194.861 63.4512 194.236C63.653 193.605 63.9362 193.068 64.3008 192.625C64.6654 192.176 65.0983 191.834 65.5996 191.6C66.1074 191.359 66.6738 191.238 67.2988 191.238C67.7936 191.238 68.2461 191.31 68.6562 191.453C69.0664 191.596 69.418 191.824 69.7109 192.137C70.0104 192.449 70.2383 192.863 70.3945 193.377C70.5573 193.891 70.6387 194.52 70.6387 195.262V202H67.8066V195.252C67.8066 194.783 67.7415 194.419 67.6113 194.158C67.4811 193.898 67.2891 193.715 67.0352 193.611C66.7878 193.501 66.4818 193.445 66.1172 193.445C65.7396 193.445 65.4108 193.52 65.1309 193.67C64.8574 193.82 64.6296 194.028 64.4473 194.295C64.2715 194.555 64.138 194.861 64.0469 195.213C63.9557 195.564 63.9102 195.942 63.9102 196.346ZM78.4902 199.08C78.4902 198.878 78.4316 198.696 78.3145 198.533C78.1973 198.37 77.9792 198.221 77.6602 198.084C77.3477 197.941 76.8952 197.811 76.3027 197.693C75.7689 197.576 75.2708 197.43 74.8086 197.254C74.3529 197.072 73.9557 196.854 73.6172 196.6C73.2852 196.346 73.0247 196.046 72.8359 195.701C72.6471 195.35 72.5527 194.949 72.5527 194.5C72.5527 194.057 72.6471 193.641 72.8359 193.25C73.0312 192.859 73.3079 192.514 73.666 192.215C74.0306 191.909 74.4733 191.671 74.9941 191.502C75.5215 191.326 76.1139 191.238 76.7715 191.238C77.6895 191.238 78.4772 191.385 79.1348 191.678C79.7988 191.971 80.3066 192.374 80.6582 192.889C81.0163 193.396 81.1953 193.976 81.1953 194.627H78.3828C78.3828 194.354 78.3242 194.109 78.207 193.895C78.0964 193.673 77.9206 193.501 77.6797 193.377C77.4453 193.247 77.1393 193.182 76.7617 193.182C76.4492 193.182 76.179 193.237 75.9512 193.348C75.7233 193.452 75.5475 193.595 75.4238 193.777C75.3066 193.953 75.248 194.148 75.248 194.363C75.248 194.526 75.2806 194.673 75.3457 194.803C75.4173 194.926 75.5312 195.04 75.6875 195.145C75.8438 195.249 76.0456 195.346 76.293 195.438C76.5469 195.522 76.8594 195.6 77.2305 195.672C77.9922 195.828 78.6725 196.033 79.2715 196.287C79.8704 196.535 80.3457 196.873 80.6973 197.303C81.0488 197.726 81.2246 198.283 81.2246 198.973C81.2246 199.441 81.1204 199.871 80.9121 200.262C80.7038 200.652 80.4043 200.994 80.0137 201.287C79.623 201.574 79.1543 201.798 78.6074 201.961C78.0671 202.117 77.4583 202.195 76.7812 202.195C75.7982 202.195 74.9648 202.02 74.2812 201.668C73.6042 201.316 73.0898 200.87 72.7383 200.33C72.3932 199.783 72.2207 199.223 72.2207 198.65H74.8867C74.8997 199.035 74.9974 199.344 75.1797 199.578C75.3685 199.812 75.6061 199.982 75.8926 200.086C76.1855 200.19 76.5013 200.242 76.8398 200.242C77.2044 200.242 77.5072 200.193 77.748 200.096C77.9889 199.992 78.1712 199.855 78.2949 199.686C78.4251 199.51 78.4902 199.308 78.4902 199.08ZM88.7539 199.617V194.91C88.7539 194.572 88.6986 194.282 88.5879 194.041C88.4772 193.794 88.3047 193.602 88.0703 193.465C87.8424 193.328 87.5462 193.26 87.1816 193.26C86.8691 193.26 86.599 193.315 86.3711 193.426C86.1432 193.53 85.9674 193.683 85.8438 193.885C85.7201 194.08 85.6582 194.311 85.6582 194.578H82.8457C82.8457 194.129 82.9499 193.702 83.1582 193.299C83.3665 192.895 83.6693 192.54 84.0664 192.234C84.4635 191.922 84.9355 191.678 85.4824 191.502C86.0358 191.326 86.6543 191.238 87.3379 191.238C88.1582 191.238 88.8874 191.375 89.5254 191.648C90.1634 191.922 90.6647 192.332 91.0293 192.879C91.4004 193.426 91.5859 194.109 91.5859 194.93V199.451C91.5859 200.031 91.6217 200.506 91.6934 200.877C91.765 201.242 91.8691 201.561 92.0059 201.834V202H89.1641C89.0273 201.714 88.9232 201.355 88.8516 200.926C88.7865 200.49 88.7539 200.053 88.7539 199.617ZM89.125 195.564L89.1445 197.156H87.5723C87.2012 197.156 86.8789 197.199 86.6055 197.283C86.332 197.368 86.1074 197.488 85.9316 197.645C85.7559 197.794 85.6257 197.97 85.541 198.172C85.4629 198.374 85.4238 198.595 85.4238 198.836C85.4238 199.077 85.4792 199.295 85.5898 199.49C85.7005 199.679 85.86 199.829 86.0684 199.939C86.2767 200.044 86.5208 200.096 86.8008 200.096C87.224 200.096 87.5918 200.011 87.9043 199.842C88.2168 199.673 88.4577 199.464 88.627 199.217C88.8027 198.969 88.8939 198.735 88.9004 198.514L89.6426 199.705C89.5384 199.972 89.3952 200.249 89.2129 200.535C89.0371 200.822 88.8125 201.092 88.5391 201.346C88.2656 201.593 87.9368 201.798 87.5527 201.961C87.1686 202.117 86.7129 202.195 86.1855 202.195C85.515 202.195 84.9062 202.062 84.3594 201.795C83.819 201.521 83.3893 201.147 83.0703 200.672C82.7578 200.19 82.6016 199.643 82.6016 199.031C82.6016 198.478 82.7057 197.986 82.9141 197.557C83.1224 197.127 83.4284 196.766 83.832 196.473C84.2422 196.173 84.7533 195.949 85.3652 195.799C85.9772 195.643 86.6868 195.564 87.4941 195.564H89.125ZM98.1191 199.998C98.4642 199.998 98.7702 199.933 99.0371 199.803C99.304 199.666 99.5124 199.477 99.6621 199.236C99.8184 198.989 99.8997 198.699 99.9062 198.367H102.553C102.546 199.109 102.348 199.77 101.957 200.35C101.566 200.923 101.042 201.375 100.385 201.707C99.7272 202.033 98.9915 202.195 98.1777 202.195C97.3574 202.195 96.6413 202.059 96.0293 201.785C95.4238 201.512 94.9193 201.134 94.5156 200.652C94.112 200.164 93.8092 199.598 93.6074 198.953C93.4056 198.302 93.3047 197.605 93.3047 196.863V196.58C93.3047 195.831 93.4056 195.135 93.6074 194.49C93.8092 193.839 94.112 193.273 94.5156 192.791C94.9193 192.303 95.4238 191.922 96.0293 191.648C96.6348 191.375 97.3444 191.238 98.1582 191.238C99.0241 191.238 99.7826 191.404 100.434 191.736C101.091 192.068 101.605 192.544 101.977 193.162C102.354 193.774 102.546 194.5 102.553 195.34H99.9062C99.8997 194.988 99.8249 194.669 99.6816 194.383C99.5449 194.096 99.3431 193.868 99.0762 193.699C98.8158 193.523 98.4935 193.436 98.1094 193.436C97.6992 193.436 97.3639 193.523 97.1035 193.699C96.8431 193.868 96.6413 194.103 96.498 194.402C96.3548 194.695 96.2539 195.031 96.1953 195.408C96.1432 195.779 96.1172 196.17 96.1172 196.58V196.863C96.1172 197.273 96.1432 197.667 96.1953 198.045C96.2474 198.423 96.3451 198.758 96.4883 199.051C96.638 199.344 96.8431 199.575 97.1035 199.744C97.3639 199.913 97.7025 199.998 98.1191 199.998ZM109.359 191.434V193.426H103.207V191.434H109.359ZM104.73 188.826H107.543V198.816C107.543 199.122 107.582 199.357 107.66 199.52C107.745 199.682 107.868 199.796 108.031 199.861C108.194 199.92 108.399 199.949 108.646 199.949C108.822 199.949 108.979 199.943 109.115 199.93C109.258 199.91 109.379 199.891 109.477 199.871L109.486 201.941C109.245 202.02 108.985 202.081 108.705 202.127C108.425 202.173 108.116 202.195 107.777 202.195C107.159 202.195 106.618 202.094 106.156 201.893C105.701 201.684 105.349 201.352 105.102 200.896C104.854 200.441 104.73 199.842 104.73 199.1V188.826ZM113.93 191.434V202H111.107V191.434H113.93ZM110.932 188.68C110.932 188.27 111.075 187.931 111.361 187.664C111.648 187.397 112.032 187.264 112.514 187.264C112.989 187.264 113.37 187.397 113.656 187.664C113.949 187.931 114.096 188.27 114.096 188.68C114.096 189.09 113.949 189.428 113.656 189.695C113.37 189.962 112.989 190.096 112.514 190.096C112.032 190.096 111.648 189.962 111.361 189.695C111.075 189.428 110.932 189.09 110.932 188.68ZM115.805 196.824V196.619C115.805 195.844 115.915 195.132 116.137 194.48C116.358 193.823 116.68 193.253 117.104 192.771C117.527 192.29 118.048 191.915 118.666 191.648C119.285 191.375 119.994 191.238 120.795 191.238C121.596 191.238 122.309 191.375 122.934 191.648C123.559 191.915 124.083 192.29 124.506 192.771C124.936 193.253 125.261 193.823 125.482 194.48C125.704 195.132 125.814 195.844 125.814 196.619V196.824C125.814 197.592 125.704 198.305 125.482 198.963C125.261 199.614 124.936 200.184 124.506 200.672C124.083 201.154 123.562 201.528 122.943 201.795C122.325 202.062 121.615 202.195 120.814 202.195C120.014 202.195 119.301 202.062 118.676 201.795C118.057 201.528 117.533 201.154 117.104 200.672C116.68 200.184 116.358 199.614 116.137 198.963C115.915 198.305 115.805 197.592 115.805 196.824ZM118.617 196.619V196.824C118.617 197.267 118.656 197.68 118.734 198.064C118.812 198.449 118.936 198.787 119.105 199.08C119.281 199.367 119.509 199.591 119.789 199.754C120.069 199.917 120.411 199.998 120.814 199.998C121.205 199.998 121.54 199.917 121.82 199.754C122.1 199.591 122.325 199.367 122.494 199.08C122.663 198.787 122.787 198.449 122.865 198.064C122.95 197.68 122.992 197.267 122.992 196.824V196.619C122.992 196.189 122.95 195.786 122.865 195.408C122.787 195.024 122.66 194.686 122.484 194.393C122.315 194.093 122.09 193.859 121.811 193.689C121.531 193.52 121.192 193.436 120.795 193.436C120.398 193.436 120.059 193.52 119.779 193.689C119.506 193.859 119.281 194.093 119.105 194.393C118.936 194.686 118.812 195.024 118.734 195.408C118.656 195.786 118.617 196.189 118.617 196.619ZM130.297 193.689V202H127.484V191.434H130.121L130.297 193.689ZM129.887 196.346H129.125C129.125 195.564 129.226 194.861 129.428 194.236C129.63 193.605 129.913 193.068 130.277 192.625C130.642 192.176 131.075 191.834 131.576 191.6C132.084 191.359 132.65 191.238 133.275 191.238C133.77 191.238 134.223 191.31 134.633 191.453C135.043 191.596 135.395 191.824 135.688 192.137C135.987 192.449 136.215 192.863 136.371 193.377C136.534 193.891 136.615 194.52 136.615 195.262V202H133.783V195.252C133.783 194.783 133.718 194.419 133.588 194.158C133.458 193.898 133.266 193.715 133.012 193.611C132.764 193.501 132.458 193.445 132.094 193.445C131.716 193.445 131.387 193.52 131.107 193.67C130.834 193.82 130.606 194.028 130.424 194.295C130.248 194.555 130.115 194.861 130.023 195.213C129.932 195.564 129.887 195.942 129.887 196.346ZM144.467 199.08C144.467 198.878 144.408 198.696 144.291 198.533C144.174 198.37 143.956 198.221 143.637 198.084C143.324 197.941 142.872 197.811 142.279 197.693C141.745 197.576 141.247 197.43 140.785 197.254C140.329 197.072 139.932 196.854 139.594 196.6C139.262 196.346 139.001 196.046 138.812 195.701C138.624 195.35 138.529 194.949 138.529 194.5C138.529 194.057 138.624 193.641 138.812 193.25C139.008 192.859 139.285 192.514 139.643 192.215C140.007 191.909 140.45 191.671 140.971 191.502C141.498 191.326 142.09 191.238 142.748 191.238C143.666 191.238 144.454 191.385 145.111 191.678C145.775 191.971 146.283 192.374 146.635 192.889C146.993 193.396 147.172 193.976 147.172 194.627H144.359C144.359 194.354 144.301 194.109 144.184 193.895C144.073 193.673 143.897 193.501 143.656 193.377C143.422 193.247 143.116 193.182 142.738 193.182C142.426 193.182 142.156 193.237 141.928 193.348C141.7 193.452 141.524 193.595 141.4 193.777C141.283 193.953 141.225 194.148 141.225 194.363C141.225 194.526 141.257 194.673 141.322 194.803C141.394 194.926 141.508 195.04 141.664 195.145C141.82 195.249 142.022 195.346 142.27 195.438C142.523 195.522 142.836 195.6 143.207 195.672C143.969 195.828 144.649 196.033 145.248 196.287C145.847 196.535 146.322 196.873 146.674 197.303C147.025 197.726 147.201 198.283 147.201 198.973C147.201 199.441 147.097 199.871 146.889 200.262C146.68 200.652 146.381 200.994 145.99 201.287C145.6 201.574 145.131 201.798 144.584 201.961C144.044 202.117 143.435 202.195 142.758 202.195C141.775 202.195 140.941 202.02 140.258 201.668C139.581 201.316 139.066 200.87 138.715 200.33C138.37 199.783 138.197 199.223 138.197 198.65H140.863C140.876 199.035 140.974 199.344 141.156 199.578C141.345 199.812 141.583 199.982 141.869 200.086C142.162 200.19 142.478 200.242 142.816 200.242C143.181 200.242 143.484 200.193 143.725 200.096C143.965 199.992 144.148 199.855 144.271 199.686C144.402 199.51 144.467 199.308 144.467 199.08Z" fill="white"/>
<rect x="71" y="77" width="16" height="56" fill="white" fill-opacity="0.5"/>
<rect x="127" y="102" width="16" height="31" fill="white" fill-opacity="0.5"/>
<rect x="156" y="102" width="16" height="31" fill="white" fill-opacity="0.5"/>
<rect x="98" y="33" width="16" height="100" fill="white" fill-opacity="0.5"/>
</svg>
