<svg width="250" height="250" viewBox="0 0 250 250" fill="none" xmlns="http://www.w3.org/2000/svg">
<rect width="250" height="250" fill="white"/>
<rect x="15" y="12" width="225" height="225" rx="20" fill="#D6B2E7"/>
<path d="M50.1279 165.358V168.786H38.9951V165.358H50.1279ZM40.2988 156.672V178H35.9043V156.672H40.2988ZM53.2627 156.672V178H48.8828V156.672H53.2627ZM61.2754 162.15V178H57.042V162.15H61.2754ZM56.7783 158.02C56.7783 157.404 56.9932 156.896 57.4229 156.496C57.8525 156.096 58.4287 155.896 59.1514 155.896C59.8643 155.896 60.4355 156.096 60.8652 156.496C61.3047 156.896 61.5244 157.404 61.5244 158.02C61.5244 158.635 61.3047 159.143 60.8652 159.543C60.4355 159.943 59.8643 160.144 59.1514 160.144C58.4287 160.144 57.8525 159.943 57.4229 159.543C56.9932 159.143 56.7783 158.635 56.7783 158.02ZM74.7959 162.15H78.6191V177.473C78.6191 178.918 78.2969 180.144 77.6523 181.149C77.0176 182.165 76.1289 182.932 74.9863 183.449C73.8438 183.977 72.5156 184.24 71.002 184.24C70.3379 184.24 69.6348 184.152 68.8926 183.977C68.1602 183.801 67.457 183.527 66.7832 183.156C66.1191 182.785 65.5625 182.316 65.1133 181.75L66.9736 179.26C67.4619 179.826 68.0283 180.266 68.6729 180.578C69.3174 180.9 70.0303 181.062 70.8115 181.062C71.5732 181.062 72.2178 180.92 72.7451 180.637C73.2725 180.363 73.6777 179.958 73.9609 179.421C74.2441 178.894 74.3857 178.254 74.3857 177.502V165.812L74.7959 162.15ZM64.1318 170.266V169.958C64.1318 168.747 64.2783 167.648 64.5713 166.662C64.874 165.666 65.2988 164.812 65.8457 164.099C66.4023 163.386 67.0762 162.834 67.8672 162.443C68.6582 162.053 69.5518 161.857 70.5479 161.857C71.6025 161.857 72.4863 162.053 73.1992 162.443C73.9121 162.834 74.498 163.391 74.957 164.113C75.416 164.826 75.7725 165.671 76.0264 166.647C76.29 167.614 76.4951 168.674 76.6416 169.826V170.5C76.4951 171.604 76.2754 172.629 75.9824 173.576C75.6895 174.523 75.3037 175.354 74.8252 176.066C74.3467 176.77 73.751 177.316 73.0381 177.707C72.335 178.098 71.4951 178.293 70.5186 178.293C69.542 178.293 68.6582 178.093 67.8672 177.692C67.0859 177.292 66.417 176.73 65.8604 176.008C65.3037 175.285 64.874 174.436 64.5713 173.459C64.2783 172.482 64.1318 171.418 64.1318 170.266ZM68.3506 169.958V170.266C68.3506 170.92 68.4141 171.53 68.541 172.097C68.668 172.663 68.8633 173.166 69.127 173.605C69.4004 174.035 69.7373 174.372 70.1377 174.616C70.5479 174.851 71.0312 174.968 71.5879 174.968C72.3594 174.968 72.9893 174.807 73.4775 174.484C73.9658 174.152 74.332 173.698 74.5762 173.122C74.8203 172.546 74.9619 171.882 75.001 171.13V169.211C74.9814 168.596 74.8984 168.044 74.752 167.556C74.6055 167.058 74.4004 166.633 74.1367 166.281C73.873 165.93 73.5312 165.656 73.1113 165.461C72.6914 165.266 72.1934 165.168 71.6172 165.168C71.0605 165.168 70.5771 165.295 70.167 165.549C69.7666 165.793 69.4297 166.13 69.1562 166.56C68.8926 166.989 68.6924 167.497 68.5557 168.083C68.4189 168.659 68.3506 169.284 68.3506 169.958ZM86.0166 155.5V178H81.7979V155.5H86.0166ZM85.416 169.519H84.2588C84.2686 168.415 84.415 167.399 84.6982 166.472C84.9814 165.534 85.3867 164.724 85.9141 164.04C86.4414 163.347 87.0713 162.81 87.8037 162.429C88.5459 162.048 89.3662 161.857 90.2646 161.857C91.0459 161.857 91.7539 161.97 92.3887 162.194C93.0332 162.409 93.585 162.761 94.0439 163.249C94.5127 163.728 94.874 164.357 95.1279 165.139C95.3818 165.92 95.5088 166.867 95.5088 167.98V178H91.2607V167.951C91.2607 167.248 91.1582 166.696 90.9531 166.296C90.7578 165.886 90.4697 165.598 90.0889 165.432C89.7178 165.256 89.2588 165.168 88.7119 165.168C88.1064 165.168 87.5889 165.28 87.1592 165.505C86.7393 165.729 86.4023 166.042 86.1484 166.442C85.8945 166.833 85.709 167.292 85.5918 167.819C85.4746 168.347 85.416 168.913 85.416 169.519ZM107.037 167.189V170.5H98.7607V167.189H107.037ZM115.943 174.924L119.459 162.15H123.868L118.521 178H115.855L115.943 174.924ZM113.526 162.15L117.057 174.938L117.13 178H114.449L109.103 162.15H113.526ZM132.848 178.293C131.617 178.293 130.514 178.098 129.537 177.707C128.561 177.307 127.73 176.755 127.047 176.052C126.373 175.349 125.855 174.533 125.494 173.605C125.133 172.668 124.952 171.672 124.952 170.617V170.031C124.952 168.83 125.123 167.731 125.465 166.735C125.807 165.739 126.295 164.875 126.93 164.143C127.574 163.41 128.355 162.849 129.273 162.458C130.191 162.058 131.227 161.857 132.379 161.857C133.502 161.857 134.498 162.043 135.367 162.414C136.236 162.785 136.964 163.312 137.55 163.996C138.146 164.68 138.595 165.5 138.897 166.457C139.2 167.404 139.352 168.459 139.352 169.621V171.379H126.754V168.566H135.206V168.244C135.206 167.658 135.099 167.136 134.884 166.677C134.679 166.208 134.366 165.837 133.946 165.563C133.526 165.29 132.989 165.153 132.335 165.153C131.778 165.153 131.3 165.275 130.899 165.52C130.499 165.764 130.172 166.105 129.918 166.545C129.674 166.984 129.488 167.502 129.361 168.098C129.244 168.684 129.186 169.328 129.186 170.031V170.617C129.186 171.252 129.273 171.838 129.449 172.375C129.635 172.912 129.894 173.376 130.226 173.767C130.567 174.157 130.978 174.46 131.456 174.675C131.944 174.89 132.496 174.997 133.111 174.997C133.873 174.997 134.581 174.851 135.235 174.558C135.899 174.255 136.471 173.801 136.949 173.195L139 175.422C138.668 175.9 138.214 176.359 137.638 176.799C137.071 177.238 136.388 177.6 135.587 177.883C134.786 178.156 133.873 178.293 132.848 178.293ZM146.207 155.5V178H141.974V155.5H146.207ZM149.02 170.236V169.929C149.02 168.767 149.186 167.697 149.518 166.721C149.85 165.734 150.333 164.88 150.968 164.157C151.603 163.435 152.384 162.873 153.312 162.473C154.239 162.062 155.304 161.857 156.505 161.857C157.706 161.857 158.775 162.062 159.713 162.473C160.65 162.873 161.437 163.435 162.071 164.157C162.716 164.88 163.204 165.734 163.536 166.721C163.868 167.697 164.034 168.767 164.034 169.929V170.236C164.034 171.389 163.868 172.458 163.536 173.444C163.204 174.421 162.716 175.275 162.071 176.008C161.437 176.73 160.655 177.292 159.728 177.692C158.8 178.093 157.735 178.293 156.534 178.293C155.333 178.293 154.264 178.093 153.326 177.692C152.398 177.292 151.612 176.73 150.968 176.008C150.333 175.275 149.85 174.421 149.518 173.444C149.186 172.458 149.02 171.389 149.02 170.236ZM153.238 169.929V170.236C153.238 170.9 153.297 171.521 153.414 172.097C153.531 172.673 153.717 173.181 153.971 173.62C154.234 174.05 154.576 174.387 154.996 174.631C155.416 174.875 155.929 174.997 156.534 174.997C157.12 174.997 157.623 174.875 158.043 174.631C158.463 174.387 158.8 174.05 159.054 173.62C159.308 173.181 159.493 172.673 159.61 172.097C159.737 171.521 159.801 170.9 159.801 170.236V169.929C159.801 169.284 159.737 168.679 159.61 168.112C159.493 167.536 159.303 167.028 159.039 166.589C158.785 166.14 158.448 165.788 158.028 165.534C157.608 165.28 157.101 165.153 156.505 165.153C155.909 165.153 155.401 165.28 154.981 165.534C154.571 165.788 154.234 166.14 153.971 166.589C153.717 167.028 153.531 167.536 153.414 168.112C153.297 168.679 153.238 169.284 153.238 169.929ZM173.175 174.997C173.692 174.997 174.151 174.899 174.552 174.704C174.952 174.499 175.265 174.216 175.489 173.854C175.724 173.483 175.846 173.049 175.855 172.551H179.825C179.815 173.664 179.518 174.655 178.932 175.524C178.346 176.384 177.56 177.062 176.573 177.561C175.587 178.049 174.483 178.293 173.263 178.293C172.032 178.293 170.958 178.088 170.04 177.678C169.132 177.268 168.375 176.701 167.77 175.979C167.164 175.246 166.71 174.396 166.407 173.43C166.104 172.453 165.953 171.408 165.953 170.295V169.87C165.953 168.747 166.104 167.702 166.407 166.735C166.71 165.759 167.164 164.909 167.77 164.187C168.375 163.454 169.132 162.883 170.04 162.473C170.948 162.062 172.013 161.857 173.233 161.857C174.532 161.857 175.67 162.106 176.646 162.604C177.633 163.103 178.404 163.815 178.961 164.743C179.527 165.661 179.815 166.75 179.825 168.01H175.855C175.846 167.482 175.733 167.004 175.519 166.574C175.313 166.145 175.011 165.803 174.61 165.549C174.22 165.285 173.736 165.153 173.16 165.153C172.545 165.153 172.042 165.285 171.651 165.549C171.261 165.803 170.958 166.154 170.743 166.604C170.528 167.043 170.377 167.546 170.289 168.112C170.211 168.669 170.172 169.255 170.172 169.87V170.295C170.172 170.91 170.211 171.501 170.289 172.067C170.367 172.634 170.514 173.137 170.729 173.576C170.953 174.016 171.261 174.362 171.651 174.616C172.042 174.87 172.55 174.997 173.175 174.997ZM186.725 162.15V178H182.491V162.15H186.725ZM182.228 158.02C182.228 157.404 182.442 156.896 182.872 156.496C183.302 156.096 183.878 155.896 184.601 155.896C185.313 155.896 185.885 156.096 186.314 156.496C186.754 156.896 186.974 157.404 186.974 158.02C186.974 158.635 186.754 159.143 186.314 159.543C185.885 159.943 185.313 160.144 184.601 160.144C183.878 160.144 183.302 159.943 182.872 159.543C182.442 159.143 182.228 158.635 182.228 158.02ZM197.975 162.15V165.139H188.746V162.15H197.975ZM191.031 158.239H195.25V173.225C195.25 173.684 195.309 174.035 195.426 174.279C195.553 174.523 195.738 174.694 195.982 174.792C196.227 174.88 196.534 174.924 196.905 174.924C197.169 174.924 197.403 174.914 197.608 174.895C197.823 174.865 198.004 174.836 198.15 174.807L198.165 177.912C197.804 178.029 197.413 178.122 196.993 178.19C196.573 178.259 196.109 178.293 195.602 178.293C194.674 178.293 193.863 178.142 193.17 177.839C192.486 177.526 191.959 177.028 191.588 176.345C191.217 175.661 191.031 174.763 191.031 173.649V158.239ZM205.079 176.213L209.283 162.15H213.81L207.438 180.388C207.301 180.788 207.115 181.218 206.881 181.677C206.656 182.136 206.349 182.57 205.958 182.98C205.577 183.4 205.094 183.742 204.508 184.006C203.932 184.27 203.224 184.401 202.384 184.401C201.983 184.401 201.656 184.377 201.402 184.328C201.148 184.279 200.846 184.211 200.494 184.123V181.032C200.602 181.032 200.714 181.032 200.831 181.032C200.948 181.042 201.061 181.047 201.168 181.047C201.725 181.047 202.179 180.983 202.53 180.856C202.882 180.729 203.165 180.534 203.38 180.271C203.595 180.017 203.766 179.685 203.893 179.274L205.079 176.213ZM203.321 162.15L206.764 173.635L207.364 178.103L204.493 178.41L198.795 162.15H203.321ZM43.4043 197.15V200.139H34.1758V197.15H43.4043ZM36.4609 193.239H40.6797V208.225C40.6797 208.684 40.7383 209.035 40.8555 209.279C40.9824 209.523 41.168 209.694 41.4121 209.792C41.6562 209.88 41.9639 209.924 42.335 209.924C42.5986 209.924 42.833 209.914 43.0381 209.895C43.2529 209.865 43.4336 209.836 43.5801 209.807L43.5947 212.912C43.2334 213.029 42.8428 213.122 42.4229 213.19C42.0029 213.259 41.5391 213.293 41.0312 213.293C40.1035 213.293 39.293 213.142 38.5996 212.839C37.916 212.526 37.3887 212.028 37.0176 211.345C36.6465 210.661 36.4609 209.763 36.4609 208.649V193.239ZM50.0254 200.607V213H45.8066V197.15H49.7764L50.0254 200.607ZM54.8008 197.048L54.7275 200.959C54.5225 200.93 54.2734 200.905 53.9805 200.886C53.6973 200.856 53.4385 200.842 53.2041 200.842C52.6084 200.842 52.0908 200.92 51.6514 201.076C51.2217 201.223 50.8604 201.442 50.5674 201.735C50.2842 202.028 50.0693 202.385 49.9229 202.805C49.7861 203.225 49.708 203.703 49.6885 204.24L48.8389 203.977C48.8389 202.951 48.9414 202.009 49.1465 201.149C49.3516 200.28 49.6494 199.523 50.04 198.879C50.4404 198.234 50.9287 197.736 51.5049 197.385C52.0811 197.033 52.7402 196.857 53.4824 196.857C53.7168 196.857 53.9561 196.877 54.2002 196.916C54.4443 196.945 54.6445 196.989 54.8008 197.048ZM64.8496 209.426V202.365C64.8496 201.857 64.7666 201.423 64.6006 201.062C64.4346 200.69 64.1758 200.402 63.8242 200.197C63.4824 199.992 63.0381 199.89 62.4912 199.89C62.0225 199.89 61.6172 199.973 61.2754 200.139C60.9336 200.295 60.6699 200.524 60.4844 200.827C60.2988 201.12 60.2061 201.467 60.2061 201.867H55.9873C55.9873 201.193 56.1436 200.554 56.4561 199.948C56.7686 199.343 57.2227 198.811 57.8184 198.352C58.4141 197.883 59.1221 197.517 59.9424 197.253C60.7725 196.989 61.7002 196.857 62.7256 196.857C63.9561 196.857 65.0498 197.062 66.0068 197.473C66.9639 197.883 67.7158 198.498 68.2627 199.318C68.8193 200.139 69.0977 201.164 69.0977 202.395V209.177C69.0977 210.046 69.1514 210.759 69.2588 211.315C69.3662 211.862 69.5225 212.341 69.7275 212.751V213H65.4648C65.2598 212.57 65.1035 212.033 64.9961 211.389C64.8984 210.734 64.8496 210.08 64.8496 209.426ZM65.4062 203.347L65.4355 205.734H63.0771C62.5205 205.734 62.0371 205.798 61.627 205.925C61.2168 206.052 60.8799 206.232 60.6162 206.467C60.3525 206.691 60.1572 206.955 60.0303 207.258C59.9131 207.561 59.8545 207.893 59.8545 208.254C59.8545 208.615 59.9375 208.942 60.1035 209.235C60.2695 209.519 60.5088 209.743 60.8213 209.909C61.1338 210.065 61.5 210.144 61.9199 210.144C62.5547 210.144 63.1064 210.017 63.5752 209.763C64.0439 209.509 64.4053 209.196 64.6592 208.825C64.9229 208.454 65.0596 208.103 65.0693 207.771L66.1826 209.558C66.0264 209.958 65.8115 210.373 65.5381 210.803C65.2744 211.232 64.9375 211.638 64.5273 212.019C64.1172 212.39 63.624 212.697 63.0479 212.941C62.4717 213.176 61.7881 213.293 60.9971 213.293C59.9912 213.293 59.0781 213.093 58.2578 212.692C57.4473 212.282 56.8027 211.721 56.3242 211.008C55.8555 210.285 55.6211 209.465 55.6211 208.547C55.6211 207.717 55.7773 206.979 56.0898 206.335C56.4023 205.69 56.8613 205.148 57.4668 204.709C58.082 204.26 58.8486 203.923 59.7666 203.698C60.6846 203.464 61.749 203.347 62.96 203.347H65.4062ZM76.4805 200.534V213H72.2617V197.15H76.2168L76.4805 200.534ZM75.8652 204.519H74.7227C74.7227 203.347 74.874 202.292 75.1768 201.354C75.4795 200.407 75.9043 199.602 76.4512 198.938C76.998 198.264 77.6475 197.751 78.3994 197.399C79.1611 197.038 80.0107 196.857 80.9482 196.857C81.6904 196.857 82.3691 196.965 82.9844 197.18C83.5996 197.395 84.127 197.736 84.5664 198.205C85.0156 198.674 85.3574 199.294 85.5918 200.065C85.8359 200.837 85.958 201.779 85.958 202.893V213H81.71V202.878C81.71 202.175 81.6123 201.628 81.417 201.237C81.2217 200.847 80.9336 200.573 80.5527 200.417C80.1816 200.251 79.7227 200.168 79.1758 200.168C78.6094 200.168 78.1162 200.28 77.6963 200.505C77.2861 200.729 76.9443 201.042 76.6709 201.442C76.4072 201.833 76.207 202.292 76.0703 202.819C75.9336 203.347 75.8652 203.913 75.8652 204.519ZM97.7354 208.62C97.7354 208.317 97.6475 208.044 97.4717 207.8C97.2959 207.556 96.9688 207.331 96.4902 207.126C96.0215 206.911 95.3428 206.716 94.4541 206.54C93.6533 206.364 92.9062 206.145 92.2129 205.881C91.5293 205.607 90.9336 205.28 90.4258 204.899C89.9277 204.519 89.5371 204.069 89.2539 203.552C88.9707 203.024 88.8291 202.424 88.8291 201.75C88.8291 201.086 88.9707 200.461 89.2539 199.875C89.5469 199.289 89.9619 198.771 90.499 198.322C91.0459 197.863 91.71 197.507 92.4912 197.253C93.2822 196.989 94.1709 196.857 95.1572 196.857C96.5342 196.857 97.7158 197.077 98.7021 197.517C99.6982 197.956 100.46 198.562 100.987 199.333C101.524 200.095 101.793 200.964 101.793 201.94H97.5742C97.5742 201.53 97.4863 201.164 97.3105 200.842C97.1445 200.51 96.8809 200.251 96.5195 200.065C96.168 199.87 95.709 199.772 95.1426 199.772C94.6738 199.772 94.2686 199.855 93.9268 200.021C93.585 200.178 93.3213 200.393 93.1357 200.666C92.96 200.93 92.8721 201.223 92.8721 201.545C92.8721 201.789 92.9209 202.009 93.0186 202.204C93.126 202.39 93.2969 202.561 93.5312 202.717C93.7656 202.873 94.0684 203.02 94.4395 203.156C94.8203 203.283 95.2891 203.4 95.8457 203.508C96.9883 203.742 98.0088 204.05 98.9072 204.431C99.8057 204.802 100.519 205.31 101.046 205.954C101.573 206.589 101.837 207.424 101.837 208.459C101.837 209.162 101.681 209.807 101.368 210.393C101.056 210.979 100.606 211.491 100.021 211.931C99.4346 212.36 98.7314 212.697 97.9111 212.941C97.1006 213.176 96.1875 213.293 95.1719 213.293C93.6973 213.293 92.4473 213.029 91.4219 212.502C90.4062 211.975 89.6348 211.306 89.1074 210.495C88.5898 209.675 88.3311 208.835 88.3311 207.976H92.3301C92.3496 208.552 92.4961 209.016 92.7695 209.367C93.0527 209.719 93.4092 209.973 93.8389 210.129C94.2783 210.285 94.752 210.363 95.2598 210.363C95.8066 210.363 96.2607 210.29 96.6221 210.144C96.9834 209.987 97.2568 209.782 97.4424 209.528C97.6377 209.265 97.7354 208.962 97.7354 208.62ZM109.952 213H105.704V195.744C105.704 194.543 105.938 193.532 106.407 192.712C106.886 191.882 107.555 191.257 108.414 190.837C109.283 190.407 110.313 190.192 111.505 190.192C111.896 190.192 112.271 190.222 112.633 190.28C112.994 190.329 113.346 190.393 113.688 190.471L113.644 193.649C113.458 193.601 113.263 193.566 113.058 193.547C112.853 193.527 112.613 193.518 112.34 193.518C111.832 193.518 111.397 193.605 111.036 193.781C110.685 193.947 110.416 194.196 110.23 194.528C110.045 194.86 109.952 195.266 109.952 195.744V213ZM113.116 197.15V200.139H103.346V197.15H113.116ZM122.271 213.293C121.041 213.293 119.938 213.098 118.961 212.707C117.984 212.307 117.154 211.755 116.471 211.052C115.797 210.349 115.279 209.533 114.918 208.605C114.557 207.668 114.376 206.672 114.376 205.617V205.031C114.376 203.83 114.547 202.731 114.889 201.735C115.23 200.739 115.719 199.875 116.354 199.143C116.998 198.41 117.779 197.849 118.697 197.458C119.615 197.058 120.65 196.857 121.803 196.857C122.926 196.857 123.922 197.043 124.791 197.414C125.66 197.785 126.388 198.312 126.974 198.996C127.569 199.68 128.019 200.5 128.321 201.457C128.624 202.404 128.775 203.459 128.775 204.621V206.379H116.178V203.566H124.63V203.244C124.63 202.658 124.522 202.136 124.308 201.677C124.103 201.208 123.79 200.837 123.37 200.563C122.95 200.29 122.413 200.153 121.759 200.153C121.202 200.153 120.724 200.275 120.323 200.52C119.923 200.764 119.596 201.105 119.342 201.545C119.098 201.984 118.912 202.502 118.785 203.098C118.668 203.684 118.609 204.328 118.609 205.031V205.617C118.609 206.252 118.697 206.838 118.873 207.375C119.059 207.912 119.317 208.376 119.649 208.767C119.991 209.157 120.401 209.46 120.88 209.675C121.368 209.89 121.92 209.997 122.535 209.997C123.297 209.997 124.005 209.851 124.659 209.558C125.323 209.255 125.895 208.801 126.373 208.195L128.424 210.422C128.092 210.9 127.638 211.359 127.062 211.799C126.495 212.238 125.812 212.6 125.011 212.883C124.21 213.156 123.297 213.293 122.271 213.293ZM135.396 200.607V213H131.178V197.15H135.147L135.396 200.607ZM140.172 197.048L140.099 200.959C139.894 200.93 139.645 200.905 139.352 200.886C139.068 200.856 138.81 200.842 138.575 200.842C137.979 200.842 137.462 200.92 137.022 201.076C136.593 201.223 136.231 201.442 135.938 201.735C135.655 202.028 135.44 202.385 135.294 202.805C135.157 203.225 135.079 203.703 135.06 204.24L134.21 203.977C134.21 202.951 134.312 202.009 134.518 201.149C134.723 200.28 135.021 199.523 135.411 198.879C135.812 198.234 136.3 197.736 136.876 197.385C137.452 197.033 138.111 196.857 138.854 196.857C139.088 196.857 139.327 196.877 139.571 196.916C139.815 196.945 140.016 196.989 140.172 197.048ZM150.733 208.62C150.733 208.317 150.646 208.044 150.47 207.8C150.294 207.556 149.967 207.331 149.488 207.126C149.02 206.911 148.341 206.716 147.452 206.54C146.651 206.364 145.904 206.145 145.211 205.881C144.527 205.607 143.932 205.28 143.424 204.899C142.926 204.519 142.535 204.069 142.252 203.552C141.969 203.024 141.827 202.424 141.827 201.75C141.827 201.086 141.969 200.461 142.252 199.875C142.545 199.289 142.96 198.771 143.497 198.322C144.044 197.863 144.708 197.507 145.489 197.253C146.28 196.989 147.169 196.857 148.155 196.857C149.532 196.857 150.714 197.077 151.7 197.517C152.696 197.956 153.458 198.562 153.985 199.333C154.522 200.095 154.791 200.964 154.791 201.94H150.572C150.572 201.53 150.484 201.164 150.309 200.842C150.143 200.51 149.879 200.251 149.518 200.065C149.166 199.87 148.707 199.772 148.141 199.772C147.672 199.772 147.267 199.855 146.925 200.021C146.583 200.178 146.319 200.393 146.134 200.666C145.958 200.93 145.87 201.223 145.87 201.545C145.87 201.789 145.919 202.009 146.017 202.204C146.124 202.39 146.295 202.561 146.529 202.717C146.764 202.873 147.066 203.02 147.438 203.156C147.818 203.283 148.287 203.4 148.844 203.508C149.986 203.742 151.007 204.05 151.905 204.431C152.804 204.802 153.517 205.31 154.044 205.954C154.571 206.589 154.835 207.424 154.835 208.459C154.835 209.162 154.679 209.807 154.366 210.393C154.054 210.979 153.604 211.491 153.019 211.931C152.433 212.36 151.729 212.697 150.909 212.941C150.099 213.176 149.186 213.293 148.17 213.293C146.695 213.293 145.445 213.029 144.42 212.502C143.404 211.975 142.633 211.306 142.105 210.495C141.588 209.675 141.329 208.835 141.329 207.976H145.328C145.348 208.552 145.494 209.016 145.768 209.367C146.051 209.719 146.407 209.973 146.837 210.129C147.276 210.285 147.75 210.363 148.258 210.363C148.805 210.363 149.259 210.29 149.62 210.144C149.981 209.987 150.255 209.782 150.44 209.528C150.636 209.265 150.733 208.962 150.733 208.62Z" fill="white"/>
<path d="M44.3956 117.732L79.5943 137.357L112.826 72.7445L169.995 103.949L208.293 43.6237" stroke="white" stroke-opacity="0.5" stroke-width="5"/>
</svg>
