<svg width="400" height="400" viewBox="0 0 400 400" fill="none" xmlns="http://www.w3.org/2000/svg">
<path d="M0 40C0 17.9086 17.9086 0 40 0H360C382.091 0 400 17.9086 400 40V360C400 382.091 382.091 400 360 400H40C17.9086 400 0 382.091 0 360V40Z" fill="#F1A7A7"/>
<path d="M60.2734 292.586L67.0703 263.875H70.8672L71.7344 268.656L64.4922 298H60.4141L60.2734 292.586ZM56.7812 263.875L62.4062 292.586L61.9375 298H57.3906L49.8203 263.875H56.7812ZM77.7109 292.469L83.2656 263.875H90.2266L82.6797 298H78.1328L77.7109 292.469ZM73 263.875L79.8438 292.703L79.6562 298H75.5781L68.2891 268.633L69.2266 263.875H73Z" fill="white"/>
<path d="M106.516 292.281V280.984C106.516 280.172 106.383 279.477 106.117 278.898C105.852 278.305 105.438 277.844 104.875 277.516C104.328 277.188 103.617 277.023 102.742 277.023C101.992 277.023 101.344 277.156 100.797 277.422C100.25 277.672 99.8281 278.039 99.5312 278.523C99.2344 278.992 99.0859 279.547 99.0859 280.188H92.3359C92.3359 279.109 92.5859 278.086 93.0859 277.117C93.5859 276.148 94.3125 275.297 95.2656 274.562C96.2188 273.812 97.3516 273.227 98.6641 272.805C99.9922 272.383 101.477 272.172 103.117 272.172C105.086 272.172 106.836 272.5 108.367 273.156C109.898 273.812 111.102 274.797 111.977 276.109C112.867 277.422 113.312 279.062 113.312 281.031V291.883C113.312 293.273 113.398 294.414 113.57 295.305C113.742 296.18 113.992 296.945 114.32 297.602V298H107.5C107.172 297.312 106.922 296.453 106.75 295.422C106.594 294.375 106.516 293.328 106.516 292.281ZM107.406 282.555L107.453 286.375H103.68C102.789 286.375 102.016 286.477 101.359 286.68C100.703 286.883 100.164 287.172 99.7422 287.547C99.3203 287.906 99.0078 288.328 98.8047 288.812C98.6172 289.297 98.5234 289.828 98.5234 290.406C98.5234 290.984 98.6562 291.508 98.9219 291.977C99.1875 292.43 99.5703 292.789 100.07 293.055C100.57 293.305 101.156 293.43 101.828 293.43C102.844 293.43 103.727 293.227 104.477 292.82C105.227 292.414 105.805 291.914 106.211 291.32C106.633 290.727 106.852 290.164 106.867 289.633L108.648 292.492C108.398 293.133 108.055 293.797 107.617 294.484C107.195 295.172 106.656 295.82 106 296.43C105.344 297.023 104.555 297.516 103.633 297.906C102.711 298.281 101.617 298.469 100.352 298.469C98.7422 298.469 97.2812 298.148 95.9688 297.508C94.6719 296.852 93.6406 295.953 92.875 294.812C92.125 293.656 91.75 292.344 91.75 290.875C91.75 289.547 92 288.367 92.5 287.336C93 286.305 93.7344 285.438 94.7031 284.734C95.6875 284.016 96.9141 283.477 98.3828 283.117C99.8516 282.742 101.555 282.555 103.492 282.555H107.406Z" fill="white"/>
<path d="M125.266 278.172V298H118.516V272.641H124.867L125.266 278.172ZM132.906 272.477L132.789 278.734C132.461 278.688 132.062 278.648 131.594 278.617C131.141 278.57 130.727 278.547 130.352 278.547C129.398 278.547 128.57 278.672 127.867 278.922C127.18 279.156 126.602 279.508 126.133 279.977C125.68 280.445 125.336 281.016 125.102 281.688C124.883 282.359 124.758 283.125 124.727 283.984L123.367 283.562C123.367 281.922 123.531 280.414 123.859 279.039C124.188 277.648 124.664 276.438 125.289 275.406C125.93 274.375 126.711 273.578 127.633 273.016C128.555 272.453 129.609 272.172 130.797 272.172C131.172 272.172 131.555 272.203 131.945 272.266C132.336 272.312 132.656 272.383 132.906 272.477Z" fill="white"/>
<path d="M147.297 298.469C145.328 298.469 143.562 298.156 142 297.531C140.438 296.891 139.109 296.008 138.016 294.883C136.938 293.758 136.109 292.453 135.531 290.969C134.953 289.469 134.664 287.875 134.664 286.188V285.25C134.664 283.328 134.938 281.57 135.484 279.977C136.031 278.383 136.812 277 137.828 275.828C138.859 274.656 140.109 273.758 141.578 273.133C143.047 272.492 144.703 272.172 146.547 272.172C148.344 272.172 149.938 272.469 151.328 273.062C152.719 273.656 153.883 274.5 154.82 275.594C155.773 276.688 156.492 278 156.977 279.531C157.461 281.047 157.703 282.734 157.703 284.594V287.406H137.547V282.906H151.07V282.391C151.07 281.453 150.898 280.617 150.555 279.883C150.227 279.133 149.727 278.539 149.055 278.102C148.383 277.664 147.523 277.445 146.477 277.445C145.586 277.445 144.82 277.641 144.18 278.031C143.539 278.422 143.016 278.969 142.609 279.672C142.219 280.375 141.922 281.203 141.719 282.156C141.531 283.094 141.438 284.125 141.438 285.25V286.188C141.438 287.203 141.578 288.141 141.859 289C142.156 289.859 142.57 290.602 143.102 291.227C143.648 291.852 144.305 292.336 145.07 292.68C145.852 293.023 146.734 293.195 147.719 293.195C148.938 293.195 150.07 292.961 151.117 292.492C152.18 292.008 153.094 291.281 153.859 290.312L157.141 293.875C156.609 294.641 155.883 295.375 154.961 296.078C154.055 296.781 152.961 297.359 151.68 297.812C150.398 298.25 148.938 298.469 147.297 298.469Z" fill="white"/>
<path d="M168.133 262V298H161.383V262H168.133ZM167.172 284.43H165.32C165.336 282.664 165.57 281.039 166.023 279.555C166.477 278.055 167.125 276.758 167.969 275.664C168.812 274.555 169.82 273.695 170.992 273.086C172.18 272.477 173.492 272.172 174.93 272.172C176.18 272.172 177.312 272.352 178.328 272.711C179.359 273.055 180.242 273.617 180.977 274.398C181.727 275.164 182.305 276.172 182.711 277.422C183.117 278.672 183.32 280.188 183.32 281.969V298H176.523V281.922C176.523 280.797 176.359 279.914 176.031 279.273C175.719 278.617 175.258 278.156 174.648 277.891C174.055 277.609 173.32 277.469 172.445 277.469C171.477 277.469 170.648 277.648 169.961 278.008C169.289 278.367 168.75 278.867 168.344 279.508C167.938 280.133 167.641 280.867 167.453 281.711C167.266 282.555 167.172 283.461 167.172 284.43Z" fill="white"/>
<path d="M187.375 285.578V285.086C187.375 283.227 187.641 281.516 188.172 279.953C188.703 278.375 189.477 277.008 190.492 275.852C191.508 274.695 192.758 273.797 194.242 273.156C195.727 272.5 197.43 272.172 199.352 272.172C201.273 272.172 202.984 272.5 204.484 273.156C205.984 273.797 207.242 274.695 208.258 275.852C209.289 277.008 210.07 278.375 210.602 279.953C211.133 281.516 211.398 283.227 211.398 285.086V285.578C211.398 287.422 211.133 289.133 210.602 290.711C210.07 292.273 209.289 293.641 208.258 294.812C207.242 295.969 205.992 296.867 204.508 297.508C203.023 298.148 201.32 298.469 199.398 298.469C197.477 298.469 195.766 298.148 194.266 297.508C192.781 296.867 191.523 295.969 190.492 294.812C189.477 293.641 188.703 292.273 188.172 290.711C187.641 289.133 187.375 287.422 187.375 285.578ZM194.125 285.086V285.578C194.125 286.641 194.219 287.633 194.406 288.555C194.594 289.477 194.891 290.289 195.297 290.992C195.719 291.68 196.266 292.219 196.938 292.609C197.609 293 198.43 293.195 199.398 293.195C200.336 293.195 201.141 293 201.812 292.609C202.484 292.219 203.023 291.68 203.43 290.992C203.836 290.289 204.133 289.477 204.32 288.555C204.523 287.633 204.625 286.641 204.625 285.578V285.086C204.625 284.055 204.523 283.086 204.32 282.18C204.133 281.258 203.828 280.445 203.406 279.742C203 279.023 202.461 278.461 201.789 278.055C201.117 277.648 200.305 277.445 199.352 277.445C198.398 277.445 197.586 277.648 196.914 278.055C196.258 278.461 195.719 279.023 195.297 279.742C194.891 280.445 194.594 281.258 194.406 282.18C194.219 283.086 194.125 284.055 194.125 285.086Z" fill="white"/>
<path d="M230.547 291.93V272.641H237.297V298H230.945L230.547 291.93ZM231.297 286.727L233.289 286.68C233.289 288.367 233.094 289.938 232.703 291.391C232.312 292.828 231.727 294.078 230.945 295.141C230.164 296.188 229.18 297.008 227.992 297.602C226.805 298.18 225.406 298.469 223.797 298.469C222.562 298.469 221.422 298.297 220.375 297.953C219.344 297.594 218.453 297.039 217.703 296.289C216.969 295.523 216.391 294.547 215.969 293.359C215.562 292.156 215.359 290.711 215.359 289.023V272.641H222.109V289.07C222.109 289.82 222.195 290.453 222.367 290.969C222.555 291.484 222.812 291.906 223.141 292.234C223.469 292.562 223.852 292.797 224.289 292.938C224.742 293.078 225.242 293.148 225.789 293.148C227.18 293.148 228.273 292.867 229.07 292.305C229.883 291.742 230.453 290.977 230.781 290.008C231.125 289.023 231.297 287.93 231.297 286.727Z" fill="white"/>
<path d="M256.164 290.992C256.164 290.508 256.023 290.07 255.742 289.68C255.461 289.289 254.938 288.93 254.172 288.602C253.422 288.258 252.336 287.945 250.914 287.664C249.633 287.383 248.438 287.031 247.328 286.609C246.234 286.172 245.281 285.648 244.469 285.039C243.672 284.43 243.047 283.711 242.594 282.883C242.141 282.039 241.914 281.078 241.914 280C241.914 278.938 242.141 277.938 242.594 277C243.062 276.062 243.727 275.234 244.586 274.516C245.461 273.781 246.523 273.211 247.773 272.805C249.039 272.383 250.461 272.172 252.039 272.172C254.242 272.172 256.133 272.523 257.711 273.227C259.305 273.93 260.523 274.898 261.367 276.133C262.227 277.352 262.656 278.742 262.656 280.305H255.906C255.906 279.648 255.766 279.062 255.484 278.547C255.219 278.016 254.797 277.602 254.219 277.305C253.656 276.992 252.922 276.836 252.016 276.836C251.266 276.836 250.617 276.969 250.07 277.234C249.523 277.484 249.102 277.828 248.805 278.266C248.523 278.688 248.383 279.156 248.383 279.672C248.383 280.062 248.461 280.414 248.617 280.727C248.789 281.023 249.062 281.297 249.438 281.547C249.812 281.797 250.297 282.031 250.891 282.25C251.5 282.453 252.25 282.641 253.141 282.812C254.969 283.188 256.602 283.68 258.039 284.289C259.477 284.883 260.617 285.695 261.461 286.727C262.305 287.742 262.727 289.078 262.727 290.734C262.727 291.859 262.477 292.891 261.977 293.828C261.477 294.766 260.758 295.586 259.82 296.289C258.883 296.977 257.758 297.516 256.445 297.906C255.148 298.281 253.688 298.469 252.062 298.469C249.703 298.469 247.703 298.047 246.062 297.203C244.438 296.359 243.203 295.289 242.359 293.992C241.531 292.68 241.117 291.336 241.117 289.961H247.516C247.547 290.883 247.781 291.625 248.219 292.188C248.672 292.75 249.242 293.156 249.93 293.406C250.633 293.656 251.391 293.781 252.203 293.781C253.078 293.781 253.805 293.664 254.383 293.43C254.961 293.18 255.398 292.852 255.695 292.445C256.008 292.023 256.164 291.539 256.164 290.992Z" fill="white"/>
<path d="M278.781 298.469C276.812 298.469 275.047 298.156 273.484 297.531C271.922 296.891 270.594 296.008 269.5 294.883C268.422 293.758 267.594 292.453 267.016 290.969C266.438 289.469 266.148 287.875 266.148 286.188V285.25C266.148 283.328 266.422 281.57 266.969 279.977C267.516 278.383 268.297 277 269.312 275.828C270.344 274.656 271.594 273.758 273.062 273.133C274.531 272.492 276.188 272.172 278.031 272.172C279.828 272.172 281.422 272.469 282.812 273.062C284.203 273.656 285.367 274.5 286.305 275.594C287.258 276.688 287.977 278 288.461 279.531C288.945 281.047 289.188 282.734 289.188 284.594V287.406H269.031V282.906H282.555V282.391C282.555 281.453 282.383 280.617 282.039 279.883C281.711 279.133 281.211 278.539 280.539 278.102C279.867 277.664 279.008 277.445 277.961 277.445C277.07 277.445 276.305 277.641 275.664 278.031C275.023 278.422 274.5 278.969 274.094 279.672C273.703 280.375 273.406 281.203 273.203 282.156C273.016 283.094 272.922 284.125 272.922 285.25V286.188C272.922 287.203 273.062 288.141 273.344 289C273.641 289.859 274.055 290.602 274.586 291.227C275.133 291.852 275.789 292.336 276.555 292.68C277.336 293.023 278.219 293.195 279.203 293.195C280.422 293.195 281.555 292.961 282.602 292.492C283.664 292.008 284.578 291.281 285.344 290.312L288.625 293.875C288.094 294.641 287.367 295.375 286.445 296.078C285.539 296.781 284.445 297.359 283.164 297.812C281.883 298.25 280.422 298.469 278.781 298.469Z" fill="white"/>
<path d="M69.8125 345.07C69.8125 344.461 69.7188 343.914 69.5312 343.43C69.3594 342.93 69.0312 342.477 68.5469 342.07C68.0625 341.648 67.3828 341.234 66.5078 340.828C65.6328 340.422 64.5 340 63.1094 339.562C61.5625 339.062 60.0938 338.5 58.7031 337.875C57.3281 337.25 56.1094 336.523 55.0469 335.695C54 334.852 53.1719 333.875 52.5625 332.766C51.9688 331.656 51.6719 330.367 51.6719 328.898C51.6719 327.477 51.9844 326.188 52.6094 325.031C53.2344 323.859 54.1094 322.859 55.2344 322.031C56.3594 321.188 57.6875 320.539 59.2188 320.086C60.7656 319.633 62.4609 319.406 64.3047 319.406C66.8203 319.406 69.0156 319.859 70.8906 320.766C72.7656 321.672 74.2188 322.914 75.25 324.492C76.2969 326.07 76.8203 327.875 76.8203 329.906H69.8359C69.8359 328.906 69.625 328.031 69.2031 327.281C68.7969 326.516 68.1719 325.914 67.3281 325.477C66.5 325.039 65.4531 324.82 64.1875 324.82C62.9688 324.82 61.9531 325.008 61.1406 325.383C60.3281 325.742 59.7188 326.234 59.3125 326.859C58.9062 327.469 58.7031 328.156 58.7031 328.922C58.7031 329.5 58.8438 330.023 59.125 330.492C59.4219 330.961 59.8594 331.398 60.4375 331.805C61.0156 332.211 61.7266 332.594 62.5703 332.953C63.4141 333.312 64.3906 333.664 65.5 334.008C67.3594 334.57 68.9922 335.203 70.3984 335.906C71.8203 336.609 73.0078 337.398 73.9609 338.273C74.9141 339.148 75.6328 340.141 76.1172 341.25C76.6016 342.359 76.8438 343.617 76.8438 345.023C76.8438 346.508 76.5547 347.836 75.9766 349.008C75.3984 350.18 74.5625 351.172 73.4688 351.984C72.375 352.797 71.0703 353.414 69.5547 353.836C68.0391 354.258 66.3438 354.469 64.4688 354.469C62.7812 354.469 61.1172 354.25 59.4766 353.812C57.8359 353.359 56.3438 352.68 55 351.773C53.6719 350.867 52.6094 349.711 51.8125 348.305C51.0156 346.898 50.6172 345.234 50.6172 343.312H57.6719C57.6719 344.375 57.8359 345.273 58.1641 346.008C58.4922 346.742 58.9531 347.336 59.5469 347.789C60.1562 348.242 60.875 348.57 61.7031 348.773C62.5469 348.977 63.4688 349.078 64.4688 349.078C65.6875 349.078 66.6875 348.906 67.4688 348.562C68.2656 348.219 68.8516 347.742 69.2266 347.133C69.6172 346.523 69.8125 345.836 69.8125 345.07Z" fill="white"/>
<path d="M96.2031 347.93V328.641H102.953V354H96.6016L96.2031 347.93ZM96.9531 342.727L98.9453 342.68C98.9453 344.367 98.75 345.938 98.3594 347.391C97.9688 348.828 97.3828 350.078 96.6016 351.141C95.8203 352.188 94.8359 353.008 93.6484 353.602C92.4609 354.18 91.0625 354.469 89.4531 354.469C88.2188 354.469 87.0781 354.297 86.0312 353.953C85 353.594 84.1094 353.039 83.3594 352.289C82.625 351.523 82.0469 350.547 81.625 349.359C81.2188 348.156 81.0156 346.711 81.0156 345.023V328.641H87.7656V345.07C87.7656 345.82 87.8516 346.453 88.0234 346.969C88.2109 347.484 88.4688 347.906 88.7969 348.234C89.125 348.562 89.5078 348.797 89.9453 348.938C90.3984 349.078 90.8984 349.148 91.4453 349.148C92.8359 349.148 93.9297 348.867 94.7266 348.305C95.5391 347.742 96.1094 346.977 96.4375 346.008C96.7812 345.023 96.9531 343.93 96.9531 342.727Z" fill="white"/>
<path d="M114.859 333.516V363.75H108.109V328.641H114.367L114.859 333.516ZM130.914 341.039V341.531C130.914 343.375 130.695 345.086 130.258 346.664C129.836 348.242 129.211 349.617 128.383 350.789C127.555 351.945 126.523 352.852 125.289 353.508C124.07 354.148 122.664 354.469 121.07 354.469C119.523 354.469 118.18 354.156 117.039 353.531C115.898 352.906 114.938 352.031 114.156 350.906C113.391 349.766 112.773 348.445 112.305 346.945C111.836 345.445 111.477 343.836 111.227 342.117V340.828C111.477 338.984 111.836 337.297 112.305 335.766C112.773 334.219 113.391 332.883 114.156 331.758C114.938 330.617 115.891 329.734 117.016 329.109C118.156 328.484 119.492 328.172 121.023 328.172C122.633 328.172 124.047 328.477 125.266 329.086C126.5 329.695 127.531 330.57 128.359 331.711C129.203 332.852 129.836 334.211 130.258 335.789C130.695 337.367 130.914 339.117 130.914 341.039ZM124.141 341.531V341.039C124.141 339.961 124.047 338.969 123.859 338.062C123.688 337.141 123.406 336.336 123.016 335.648C122.641 334.961 122.141 334.43 121.516 334.055C120.906 333.664 120.164 333.469 119.289 333.469C118.367 333.469 117.578 333.617 116.922 333.914C116.281 334.211 115.758 334.641 115.352 335.203C114.945 335.766 114.641 336.438 114.438 337.219C114.234 338 114.109 338.883 114.062 339.867V343.125C114.141 344.281 114.359 345.32 114.719 346.242C115.078 347.148 115.633 347.867 116.383 348.398C117.133 348.93 118.117 349.195 119.336 349.195C120.227 349.195 120.977 349 121.586 348.609C122.195 348.203 122.688 347.648 123.062 346.945C123.453 346.242 123.727 345.43 123.883 344.508C124.055 343.586 124.141 342.594 124.141 341.531Z" fill="white"/>
<path d="M141.859 333.516V363.75H135.109V328.641H141.367L141.859 333.516ZM157.914 341.039V341.531C157.914 343.375 157.695 345.086 157.258 346.664C156.836 348.242 156.211 349.617 155.383 350.789C154.555 351.945 153.523 352.852 152.289 353.508C151.07 354.148 149.664 354.469 148.07 354.469C146.523 354.469 145.18 354.156 144.039 353.531C142.898 352.906 141.938 352.031 141.156 350.906C140.391 349.766 139.773 348.445 139.305 346.945C138.836 345.445 138.477 343.836 138.227 342.117V340.828C138.477 338.984 138.836 337.297 139.305 335.766C139.773 334.219 140.391 332.883 141.156 331.758C141.938 330.617 142.891 329.734 144.016 329.109C145.156 328.484 146.492 328.172 148.023 328.172C149.633 328.172 151.047 328.477 152.266 329.086C153.5 329.695 154.531 330.57 155.359 331.711C156.203 332.852 156.836 334.211 157.258 335.789C157.695 337.367 157.914 339.117 157.914 341.039ZM151.141 341.531V341.039C151.141 339.961 151.047 338.969 150.859 338.062C150.688 337.141 150.406 336.336 150.016 335.648C149.641 334.961 149.141 334.43 148.516 334.055C147.906 333.664 147.164 333.469 146.289 333.469C145.367 333.469 144.578 333.617 143.922 333.914C143.281 334.211 142.758 334.641 142.352 335.203C141.945 335.766 141.641 336.438 141.438 337.219C141.234 338 141.109 338.883 141.062 339.867V343.125C141.141 344.281 141.359 345.32 141.719 346.242C142.078 347.148 142.633 347.867 143.383 348.398C144.133 348.93 145.117 349.195 146.336 349.195C147.227 349.195 147.977 349 148.586 348.609C149.195 348.203 149.688 347.648 150.062 346.945C150.453 346.242 150.727 345.43 150.883 344.508C151.055 343.586 151.141 342.594 151.141 341.531Z" fill="white"/>
<path d="M169.234 318V354H162.461V318H169.234Z" fill="white"/>
<path d="M182.336 351.141L189.062 328.641H196.305L186.109 357.82C185.891 358.461 185.594 359.148 185.219 359.883C184.859 360.617 184.367 361.312 183.742 361.969C183.133 362.641 182.359 363.188 181.422 363.609C180.5 364.031 179.367 364.242 178.023 364.242C177.383 364.242 176.859 364.203 176.453 364.125C176.047 364.047 175.562 363.938 175 363.797V358.852C175.172 358.852 175.352 358.852 175.539 358.852C175.727 358.867 175.906 358.875 176.078 358.875C176.969 358.875 177.695 358.773 178.258 358.57C178.82 358.367 179.273 358.055 179.617 357.633C179.961 357.227 180.234 356.695 180.438 356.039L182.336 351.141ZM179.523 328.641L185.031 347.016L185.992 354.164L181.398 354.656L172.281 328.641H179.523Z" fill="white"/>
<path d="M230.219 319.875H237.227V342.422C237.227 345.047 236.664 347.258 235.539 349.055C234.43 350.852 232.891 352.203 230.922 353.109C228.969 354.016 226.719 354.469 224.172 354.469C221.625 354.469 219.359 354.016 217.375 353.109C215.406 352.203 213.859 350.852 212.734 349.055C211.625 347.258 211.07 345.047 211.07 342.422V319.875H218.102V342.422C218.102 343.953 218.344 345.203 218.828 346.172C219.312 347.141 220.008 347.852 220.914 348.305C221.836 348.758 222.922 348.984 224.172 348.984C225.453 348.984 226.539 348.758 227.43 348.305C228.336 347.852 229.023 347.141 229.492 346.172C229.977 345.203 230.219 343.953 230.219 342.422V319.875Z" fill="white"/>
<path d="M249.344 333.516V363.75H242.594V328.641H248.852L249.344 333.516ZM265.398 341.039V341.531C265.398 343.375 265.18 345.086 264.742 346.664C264.32 348.242 263.695 349.617 262.867 350.789C262.039 351.945 261.008 352.852 259.773 353.508C258.555 354.148 257.148 354.469 255.555 354.469C254.008 354.469 252.664 354.156 251.523 353.531C250.383 352.906 249.422 352.031 248.641 350.906C247.875 349.766 247.258 348.445 246.789 346.945C246.32 345.445 245.961 343.836 245.711 342.117V340.828C245.961 338.984 246.32 337.297 246.789 335.766C247.258 334.219 247.875 332.883 248.641 331.758C249.422 330.617 250.375 329.734 251.5 329.109C252.641 328.484 253.977 328.172 255.508 328.172C257.117 328.172 258.531 328.477 259.75 329.086C260.984 329.695 262.016 330.57 262.844 331.711C263.688 332.852 264.32 334.211 264.742 335.789C265.18 337.367 265.398 339.117 265.398 341.039ZM258.625 341.531V341.039C258.625 339.961 258.531 338.969 258.344 338.062C258.172 337.141 257.891 336.336 257.5 335.648C257.125 334.961 256.625 334.43 256 334.055C255.391 333.664 254.648 333.469 253.773 333.469C252.852 333.469 252.062 333.617 251.406 333.914C250.766 334.211 250.242 334.641 249.836 335.203C249.43 335.766 249.125 336.438 248.922 337.219C248.719 338 248.594 338.883 248.547 339.867V343.125C248.625 344.281 248.844 345.32 249.203 346.242C249.562 347.148 250.117 347.867 250.867 348.398C251.617 348.93 252.602 349.195 253.82 349.195C254.711 349.195 255.461 349 256.07 348.609C256.68 348.203 257.172 347.648 257.547 346.945C257.938 346.242 258.211 345.43 258.367 344.508C258.539 343.586 258.625 342.594 258.625 341.531Z" fill="white"/>
<path d="M284.57 348.469V318H291.367V354H285.25L284.57 348.469ZM268.539 341.625V341.133C268.539 339.195 268.758 337.438 269.195 335.859C269.633 334.266 270.273 332.898 271.117 331.758C271.961 330.617 273 329.734 274.234 329.109C275.469 328.484 276.875 328.172 278.453 328.172C279.938 328.172 281.234 328.484 282.344 329.109C283.469 329.734 284.422 330.625 285.203 331.781C286 332.922 286.641 334.273 287.125 335.836C287.609 337.383 287.961 339.078 288.18 340.922V342C287.961 343.766 287.609 345.406 287.125 346.922C286.641 348.438 286 349.766 285.203 350.906C284.422 352.031 283.469 352.906 282.344 353.531C281.219 354.156 279.906 354.469 278.406 354.469C276.828 354.469 275.422 354.148 274.188 353.508C272.969 352.867 271.938 351.969 271.094 350.812C270.266 349.656 269.633 348.297 269.195 346.734C268.758 345.172 268.539 343.469 268.539 341.625ZM275.289 341.133V341.625C275.289 342.672 275.367 343.648 275.523 344.555C275.695 345.461 275.969 346.266 276.344 346.969C276.734 347.656 277.234 348.195 277.844 348.586C278.469 348.961 279.227 349.148 280.117 349.148C281.273 349.148 282.227 348.891 282.977 348.375C283.727 347.844 284.297 347.117 284.688 346.195C285.094 345.273 285.328 344.211 285.391 343.008V339.938C285.344 338.953 285.203 338.07 284.969 337.289C284.75 336.492 284.422 335.812 283.984 335.25C283.562 334.688 283.031 334.25 282.391 333.938C281.766 333.625 281.023 333.469 280.164 333.469C279.289 333.469 278.539 333.672 277.914 334.078C277.289 334.469 276.781 335.008 276.391 335.695C276.016 336.383 275.734 337.195 275.547 338.133C275.375 339.055 275.289 340.055 275.289 341.133Z" fill="white"/>
<path d="M310.328 348.281V336.984C310.328 336.172 310.195 335.477 309.93 334.898C309.664 334.305 309.25 333.844 308.688 333.516C308.141 333.188 307.43 333.023 306.555 333.023C305.805 333.023 305.156 333.156 304.609 333.422C304.062 333.672 303.641 334.039 303.344 334.523C303.047 334.992 302.898 335.547 302.898 336.188H296.148C296.148 335.109 296.398 334.086 296.898 333.117C297.398 332.148 298.125 331.297 299.078 330.562C300.031 329.812 301.164 329.227 302.477 328.805C303.805 328.383 305.289 328.172 306.93 328.172C308.898 328.172 310.648 328.5 312.18 329.156C313.711 329.812 314.914 330.797 315.789 332.109C316.68 333.422 317.125 335.062 317.125 337.031V347.883C317.125 349.273 317.211 350.414 317.383 351.305C317.555 352.18 317.805 352.945 318.133 353.602V354H311.312C310.984 353.312 310.734 352.453 310.562 351.422C310.406 350.375 310.328 349.328 310.328 348.281ZM311.219 338.555L311.266 342.375H307.492C306.602 342.375 305.828 342.477 305.172 342.68C304.516 342.883 303.977 343.172 303.555 343.547C303.133 343.906 302.82 344.328 302.617 344.812C302.43 345.297 302.336 345.828 302.336 346.406C302.336 346.984 302.469 347.508 302.734 347.977C303 348.43 303.383 348.789 303.883 349.055C304.383 349.305 304.969 349.43 305.641 349.43C306.656 349.43 307.539 349.227 308.289 348.82C309.039 348.414 309.617 347.914 310.023 347.32C310.445 346.727 310.664 346.164 310.68 345.633L312.461 348.492C312.211 349.133 311.867 349.797 311.43 350.484C311.008 351.172 310.469 351.82 309.812 352.43C309.156 353.023 308.367 353.516 307.445 353.906C306.523 354.281 305.43 354.469 304.164 354.469C302.555 354.469 301.094 354.148 299.781 353.508C298.484 352.852 297.453 351.953 296.688 350.812C295.938 349.656 295.562 348.344 295.562 346.875C295.562 345.547 295.812 344.367 296.312 343.336C296.812 342.305 297.547 341.438 298.516 340.734C299.5 340.016 300.727 339.477 302.195 339.117C303.664 338.742 305.367 338.555 307.305 338.555H311.219Z" fill="white"/>
<path d="M334.75 328.641V333.422H319.984V328.641H334.75ZM323.641 322.383H330.391V346.359C330.391 347.094 330.484 347.656 330.672 348.047C330.875 348.438 331.172 348.711 331.562 348.867C331.953 349.008 332.445 349.078 333.039 349.078C333.461 349.078 333.836 349.062 334.164 349.031C334.508 348.984 334.797 348.938 335.031 348.891L335.055 353.859C334.477 354.047 333.852 354.195 333.18 354.305C332.508 354.414 331.766 354.469 330.953 354.469C329.469 354.469 328.172 354.227 327.062 353.742C325.969 353.242 325.125 352.445 324.531 351.352C323.938 350.258 323.641 348.82 323.641 347.039V322.383Z" fill="white"/>
<path d="M350.266 354.469C348.297 354.469 346.531 354.156 344.969 353.531C343.406 352.891 342.078 352.008 340.984 350.883C339.906 349.758 339.078 348.453 338.5 346.969C337.922 345.469 337.633 343.875 337.633 342.188V341.25C337.633 339.328 337.906 337.57 338.453 335.977C339 334.383 339.781 333 340.797 331.828C341.828 330.656 343.078 329.758 344.547 329.133C346.016 328.492 347.672 328.172 349.516 328.172C351.312 328.172 352.906 328.469 354.297 329.062C355.688 329.656 356.852 330.5 357.789 331.594C358.742 332.688 359.461 334 359.945 335.531C360.43 337.047 360.672 338.734 360.672 340.594V343.406H340.516V338.906H354.039V338.391C354.039 337.453 353.867 336.617 353.523 335.883C353.195 335.133 352.695 334.539 352.023 334.102C351.352 333.664 350.492 333.445 349.445 333.445C348.555 333.445 347.789 333.641 347.148 334.031C346.508 334.422 345.984 334.969 345.578 335.672C345.188 336.375 344.891 337.203 344.688 338.156C344.5 339.094 344.406 340.125 344.406 341.25V342.188C344.406 343.203 344.547 344.141 344.828 345C345.125 345.859 345.539 346.602 346.07 347.227C346.617 347.852 347.273 348.336 348.039 348.68C348.82 349.023 349.703 349.195 350.688 349.195C351.906 349.195 353.039 348.961 354.086 348.492C355.148 348.008 356.062 347.281 356.828 346.312L360.109 349.875C359.578 350.641 358.852 351.375 357.93 352.078C357.023 352.781 355.93 353.359 354.648 353.812C353.367 354.25 351.906 354.469 350.266 354.469Z" fill="white"/>
<path fill-rule="evenodd" clip-rule="evenodd" d="M199.333 38.1651C200.024 39.3608 199.614 40.8898 198.418 41.5801L90.1651 104.08C88.9694 104.77 87.4404 104.361 86.75 103.165C86.0597 101.969 86.4694 100.44 87.6651 99.75L195.918 37.25C197.114 36.5596 198.643 36.9693 199.333 38.1651Z" fill="white" fill-opacity="0.5"/>
<path fill-rule="evenodd" clip-rule="evenodd" d="M196.25 38.1651C196.94 36.9693 198.469 36.5596 199.665 37.25L307.918 99.75C309.114 100.44 309.524 101.969 308.833 103.165C308.143 104.361 306.614 104.77 305.418 104.08L197.165 41.5801C195.969 40.8898 195.56 39.3608 196.25 38.1651Z" fill="white" fill-opacity="0.5"/>
<path d="M135 179H185V229H135V179Z" fill="white" fill-opacity="0.5"/>
<path d="M211 179H261V229H211V179Z" fill="white" fill-opacity="0.5"/>
<path d="M175 114H225V164H175V114Z" fill="white" fill-opacity="0.5"/>
</svg>
